<svg width="143" height="142" viewBox="0 0 143 142" fill="none" xmlns="http://www.w3.org/2000/svg">
<g clip-path="url(#clip0_2347_91320)">
<path fill-rule="evenodd" clip-rule="evenodd" d="M54.8906 38.9398C52.4829 40.3298 52.4829 42.5835 54.8906 43.9735C57.2982 45.3636 61.2017 45.3636 63.6093 43.9735C66.0169 42.5835 66.0169 40.3298 63.6093 38.9398C61.2017 37.5498 57.2982 37.5498 54.8906 38.9398ZM51.9843 45.6515C47.9716 43.3347 47.9716 39.5786 51.9843 37.2619C55.997 34.9452 62.5028 34.9452 66.5155 37.2619C70.5282 39.5786 70.5282 43.3347 66.5155 45.6515C62.5028 47.9682 55.997 47.9682 51.9843 45.6515ZM62.03 32.9418C61.4516 32.378 61.7744 31.6503 62.7509 31.3164C64.7139 30.6451 67.0081 30.3701 69.2717 30.5347C71.5353 30.6994 73.6396 31.2943 75.2529 32.2257C76.8661 33.1572 77.8966 34.3721 78.1818 35.679C78.467 36.9859 77.9907 38.3104 76.828 39.4438C76.2496 40.0076 74.9891 40.1939 74.0126 39.86C73.036 39.526 72.7133 38.7983 73.2917 38.2345C73.9893 37.5545 74.2751 36.7598 74.104 35.9756C73.9329 35.1915 73.3146 34.4625 72.3466 33.9037C71.3787 33.3448 70.1161 32.9878 68.7579 32.8891C67.3997 32.7903 66.0233 32.9553 64.8455 33.358C63.8689 33.692 62.6084 33.5056 62.03 32.9418ZM60.5998 54.88C60.5998 53.3066 61.6823 51.7977 63.6093 50.6852L75.2342 43.9735C77.1612 42.861 79.7747 42.236 82.4998 42.236C85.2249 42.236 87.8384 42.861 89.7654 43.9735L92.6716 45.6515C93.4742 46.1148 93.4742 46.866 92.6716 47.3294C91.8691 47.7927 90.5679 47.7927 89.7654 47.3294L86.8592 45.6515C85.703 44.9839 84.1349 44.6089 82.4998 44.6089C80.8647 44.6089 79.2966 44.9839 78.1404 45.6515L66.5155 52.3631C65.3593 53.0306 64.7098 53.936 64.7098 54.88C64.7098 55.824 65.3593 56.7294 66.5155 57.3969L69.4217 59.0748C70.2243 59.5381 70.2243 60.2894 69.4217 60.7527C68.6192 61.216 67.318 61.216 66.5155 60.7527L63.6093 59.0748C61.6823 57.9623 60.5998 56.4534 60.5998 54.88ZM85.2778 39.6514C84.7014 39.087 85.0267 38.3596 86.0044 38.0268C87.9655 37.3592 90.2552 37.0866 92.5138 37.2518C94.7724 37.4169 96.872 38.0104 98.483 38.9392L101.39 40.6177C102.193 41.0811 102.193 41.8323 101.39 42.2956C100.588 42.759 99.2866 42.759 98.4841 42.2956L95.579 40.6183C94.6123 40.0611 93.3526 39.705 91.9974 39.6059C90.6422 39.5068 89.2685 39.6704 88.0918 40.0709C87.1141 40.4037 85.8542 40.2159 85.2778 39.6514Z" fill="white"/>
</g>
<mask id="path-2-outside-1_2347_91320" maskUnits="userSpaceOnUse" x="0" y="0" width="143" height="142" fill="black">
<rect fill="white" width="143" height="142"/>
<path fill-rule="evenodd" clip-rule="evenodd" d="M1 66.7875L1.00004 66.8101V94.0789C1.00004 99.4893 3.89813 104.485 8.59478 107.171L64.0211 138.869C68.6601 141.521 74.3566 141.521 78.9956 138.869L134.422 107.171C139.118 104.485 142.017 99.4893 142.017 94.0789V66.3849L142.017 47.8038C142.017 42.3952 139.12 37.4006 134.426 34.714L78.9999 2.99221C74.3587 0.335934 68.6579 0.335927 64.0167 2.99221L8.59039 34.714C3.89619 37.4006 1 42.3952 1 47.8038V66.7875ZM21.5705 41.0377C18.7656 42.657 18.7656 45.2823 21.5705 46.9016L66.6991 72.9543C69.5039 74.5736 74.0516 74.5736 76.8565 72.9543L121.985 46.9016C124.79 45.2823 124.79 42.657 121.985 41.0377L76.8565 14.985C74.0516 13.3657 69.5039 13.3657 66.6991 14.985L21.5705 41.0377Z"/>
</mask>
<path fill-rule="evenodd" clip-rule="evenodd" d="M1 66.7875L1.00004 66.8101V94.0789C1.00004 99.4893 3.89813 104.485 8.59478 107.171L64.0211 138.869C68.6601 141.521 74.3566 141.521 78.9956 138.869L134.422 107.171C139.118 104.485 142.017 99.4893 142.017 94.0789V66.3849L142.017 47.8038C142.017 42.3952 139.12 37.4006 134.426 34.714L78.9999 2.99221C74.3587 0.335934 68.6579 0.335927 64.0167 2.99221L8.59039 34.714C3.89619 37.4006 1 42.3952 1 47.8038V66.7875ZM21.5705 41.0377C18.7656 42.657 18.7656 45.2823 21.5705 46.9016L66.6991 72.9543C69.5039 74.5736 74.0516 74.5736 76.8565 72.9543L121.985 46.9016C124.79 45.2823 124.79 42.657 121.985 41.0377L76.8565 14.985C74.0516 13.3657 69.5039 13.3657 66.6991 14.985L21.5705 41.0377Z" fill="url(#paint0_linear_2347_91320)"/>
<path d="M1.00004 66.8101H1.50004L1.50004 66.8092L1.00004 66.8101ZM1 66.7875H0.499999L0.500001 66.7885L1 66.7875ZM8.59478 107.171L8.34657 107.605L8.59478 107.171ZM64.0211 138.869L64.2693 138.434L64.0211 138.869ZM78.9956 138.869L79.2438 139.303L78.9956 138.869ZM134.422 107.171L134.67 107.605L134.422 107.171ZM142.017 66.3849H142.517H142.017ZM142.017 47.8038H141.517H142.017ZM134.426 34.714L134.178 35.148V35.148L134.426 34.714ZM78.9999 2.99221L79.2482 2.55826V2.55826L78.9999 2.99221ZM64.0167 2.99221L63.7683 2.55825V2.55825L64.0167 2.99221ZM8.59039 34.714L8.34203 34.2801L8.59039 34.714ZM21.5705 46.9016L21.3205 47.3346L21.5705 46.9016ZM21.5705 41.0377L21.8205 41.4707L21.5705 41.0377ZM66.6991 72.9543L66.4491 73.3873L66.6991 72.9543ZM76.8565 72.9543L77.1064 73.3873L76.8565 72.9543ZM121.985 46.9016L122.235 47.3346L121.985 46.9016ZM121.985 41.0377L122.235 40.6047L121.985 41.0377ZM76.8565 14.985L77.1064 14.552L76.8565 14.985ZM66.6991 14.985L66.4491 14.552L66.6991 14.985ZM1.50004 66.8092L1.5 66.7866L0.500001 66.7885L0.500043 66.811L1.50004 66.8092ZM1.50004 94.0789V66.8101H0.500042V94.0789H1.50004ZM8.843 106.737C4.30206 104.14 1.50004 99.31 1.50004 94.0789H0.500042C0.500042 99.6687 3.49421 104.83 8.34657 107.605L8.843 106.737ZM64.2693 138.434L8.843 106.737L8.34657 107.605L63.7729 139.303L64.2693 138.434ZM78.7473 138.434C74.2621 140.999 68.7545 140.999 64.2693 138.434L63.7729 139.303C68.5656 142.043 74.451 142.043 79.2438 139.303L78.7473 138.434ZM134.174 106.737L78.7473 138.434L79.2438 139.303L134.67 107.605L134.174 106.737ZM141.517 94.0789C141.517 99.31 138.715 104.14 134.174 106.737L134.67 107.605C139.522 104.83 142.517 99.6687 142.517 94.0789H141.517ZM141.517 66.3849V94.0789H142.517V66.3849H141.517ZM141.517 47.8038L141.517 66.3849H142.517L142.517 47.8038H141.517ZM134.178 35.148C138.716 37.7455 141.517 42.5745 141.517 47.8038H142.517C142.517 42.2159 139.524 37.0557 134.675 34.2801L134.178 35.148ZM78.7515 3.42616L134.178 35.148L134.675 34.2801L79.2482 2.55826L78.7515 3.42616ZM64.265 3.42616C68.7524 0.857942 74.2642 0.857949 78.7515 3.42616L79.2482 2.55826C74.4532 -0.186081 68.5634 -0.186089 63.7683 2.55825L64.265 3.42616ZM8.83875 35.148L64.265 3.42616L63.7683 2.55825L8.34203 34.2801L8.83875 35.148ZM1.5 47.8038C1.5 42.5745 4.30018 37.7455 8.83875 35.148L8.34203 34.2801C3.49221 37.0557 0.5 42.2159 0.5 47.8038H1.5ZM1.5 66.7875V47.8038H0.5V66.7875H1.5ZM21.8205 46.4686C20.5091 45.7115 19.9668 44.7892 19.9668 43.9697C19.9668 43.1501 20.5091 42.2278 21.8205 41.4707L21.3205 40.6047C19.827 41.4669 18.9668 42.6669 18.9668 43.9697C18.9668 45.2724 19.827 46.4724 21.3205 47.3346L21.8205 46.4686ZM66.949 72.5213L21.8205 46.4686L21.3205 47.3346L66.4491 73.3873L66.949 72.5213ZM76.6065 72.5213C75.2979 73.2767 73.5514 73.6688 71.7778 73.6688C70.0041 73.6688 68.2576 73.2767 66.949 72.5213L66.4491 73.3873C67.9454 74.2512 69.8751 74.6688 71.7778 74.6688C73.6804 74.6688 75.6101 74.2512 77.1064 73.3873L76.6065 72.5213ZM121.735 46.4686L76.6065 72.5213L77.1064 73.3873L122.235 47.3346L121.735 46.4686ZM121.735 41.4707C123.046 42.2278 123.589 43.1501 123.589 43.9697C123.589 44.7892 123.046 45.7115 121.735 46.4686L122.235 47.3346C123.729 46.4724 124.589 45.2724 124.589 43.9697C124.589 42.6669 123.729 41.4669 122.235 40.6047L121.735 41.4707ZM76.6065 15.418L121.735 41.4707L122.235 40.6047L77.1064 14.552L76.6065 15.418ZM66.949 15.418C68.2576 14.6626 70.0041 14.2706 71.7778 14.2706C73.5514 14.2706 75.2979 14.6626 76.6065 15.418L77.1064 14.552C75.6101 13.6881 73.6804 13.2706 71.7778 13.2706C69.8751 13.2706 67.9454 13.6881 66.4491 14.552L66.949 15.418ZM21.8205 41.4707L66.949 15.418L66.4491 14.552L21.3205 40.6047L21.8205 41.4707Z" fill="white" mask="url(#path-2-outside-1_2347_91320)"/>
<path d="M1 66.3848V94.0788C1 99.4892 3.89809 104.485 8.59474 107.171L64.021 138.868C68.66 141.521 74.3565 141.521 78.9955 138.868L134.422 107.171C139.118 104.485 142.017 99.4892 142.017 94.0788V66.3848L78.9955 102.425C74.3565 105.078 68.66 105.078 64.021 102.425L1 66.3848Z" fill="white" fill-opacity="0.1"/>
<defs>
<linearGradient id="paint0_linear_2347_91320" x1="71.5083" y1="1" x2="71.5083" y2="140.858" gradientUnits="userSpaceOnUse">
<stop stop-color="#F4FAF4" stop-opacity="0.5"/>
<stop offset="1" stop-color="#F4FAF4" stop-opacity="0"/>
</linearGradient>
<clipPath id="clip0_2347_91320">
<rect width="40.27" height="40.27" fill="white" transform="matrix(0.866025 -0.5 0.866025 0.5 36 43.1348)"/>
</clipPath>
</defs>
</svg>
