<svg width="143" height="142" viewBox="0 0 143 142" fill="none" xmlns="http://www.w3.org/2000/svg">
<g clip-path="url(#clip0_2346_91319)">
<path fill-rule="evenodd" clip-rule="evenodd" d="M45.3662 41.457C45.3662 40.513 46.0157 39.6077 47.1719 38.9402L58.7968 32.2285C59.1822 32.006 59.7049 31.881 60.2499 31.881L77.6873 31.881C78.2324 31.881 78.7551 32.006 79.1405 32.2285L96.5779 42.296C97.7341 42.9635 98.3836 43.8689 98.3836 44.8129C98.3836 45.7569 97.7341 46.6622 96.5779 47.3297L79.1405 57.3972C77.9843 58.0648 76.4162 58.4398 74.7811 58.4398C73.146 58.4398 71.5779 58.0648 70.4217 57.3972L47.1719 43.9739C46.0157 43.3064 45.3662 42.401 45.3662 41.457ZM50.0781 40.6181C49.6927 40.8406 49.4762 41.1424 49.4762 41.457C49.4762 41.7717 49.6927 42.0735 50.0781 42.296L73.328 55.7193C73.7134 55.9418 74.2361 56.0668 74.7811 56.0668C75.3261 56.0668 75.8488 55.9418 76.2342 55.7193L93.6716 45.6518C94.057 45.4293 94.2735 45.1275 94.2735 44.8129C94.2735 44.4982 94.057 44.1964 93.6716 43.9739L77.6873 34.7454L70.4217 38.9402C69.6192 39.4035 68.318 39.4035 67.5155 38.9402L60.2499 34.7454L50.0781 40.6181ZM65.2112 34.2539L72.7261 34.2539L68.9686 36.4233L65.2112 34.2539ZM60.2499 44.8129C59.4474 44.3495 59.4474 43.5983 60.2499 43.1349L63.1562 41.457C63.9587 40.9937 65.2599 40.9937 66.0624 41.457C66.8649 41.9204 66.8649 42.6716 66.0624 43.1349L63.1562 44.8129C62.3536 45.2762 61.0525 45.2762 60.2499 44.8129ZM66.0624 48.1687C65.2599 47.7054 65.2599 46.9541 66.0624 46.4908L77.6873 39.7791C78.4899 39.3158 79.791 39.3158 80.5936 39.7791C81.3961 40.2425 81.3961 40.9937 80.5936 41.457L68.9686 48.1687C68.1661 48.632 66.8649 48.632 66.0624 48.1687ZM71.8749 51.5245C71.0723 51.0612 71.0723 50.31 71.8749 49.8466L83.4998 43.1349C84.3023 42.6716 85.6035 42.6716 86.4061 43.1349C87.2086 43.5983 87.2086 44.3495 86.4061 44.8129L74.7811 51.5245C73.9786 51.9879 72.6774 51.9879 71.8749 51.5245Z" fill="#494E62"/>
</g>
<mask id="path-2-outside-1_2346_91319" maskUnits="userSpaceOnUse" x="0" y="0" width="143" height="142" fill="black">
<rect fill="white" width="143" height="142"/>
<path fill-rule="evenodd" clip-rule="evenodd" d="M1 66.7875L1.00004 66.8101V94.0789C1.00004 99.4893 3.89813 104.485 8.59478 107.171L64.0211 138.869C68.6601 141.521 74.3566 141.521 78.9956 138.869L134.422 107.171C139.118 104.485 142.017 99.4893 142.017 94.0789V66.3849L142.017 47.8038C142.017 42.3952 139.12 37.4006 134.426 34.714L78.9999 2.99221C74.3587 0.335934 68.6579 0.335927 64.0167 2.99221L8.59039 34.714C3.89619 37.4006 1 42.3952 1 47.8038V66.7875ZM21.5705 41.0377C18.7656 42.657 18.7656 45.2823 21.5705 46.9016L66.6991 72.9543C69.5039 74.5736 74.0516 74.5736 76.8565 72.9543L121.985 46.9016C124.79 45.2823 124.79 42.657 121.985 41.0377L76.8565 14.985C74.0516 13.3657 69.5039 13.3657 66.6991 14.985L21.5705 41.0377Z"/>
</mask>
<path fill-rule="evenodd" clip-rule="evenodd" d="M1 66.7875L1.00004 66.8101V94.0789C1.00004 99.4893 3.89813 104.485 8.59478 107.171L64.0211 138.869C68.6601 141.521 74.3566 141.521 78.9956 138.869L134.422 107.171C139.118 104.485 142.017 99.4893 142.017 94.0789V66.3849L142.017 47.8038C142.017 42.3952 139.12 37.4006 134.426 34.714L78.9999 2.99221C74.3587 0.335934 68.6579 0.335927 64.0167 2.99221L8.59039 34.714C3.89619 37.4006 1 42.3952 1 47.8038V66.7875ZM21.5705 41.0377C18.7656 42.657 18.7656 45.2823 21.5705 46.9016L66.6991 72.9543C69.5039 74.5736 74.0516 74.5736 76.8565 72.9543L121.985 46.9016C124.79 45.2823 124.79 42.657 121.985 41.0377L76.8565 14.985C74.0516 13.3657 69.5039 13.3657 66.6991 14.985L21.5705 41.0377Z" fill="url(#paint0_linear_2346_91319)"/>
<path d="M1.00004 66.8101H1.50004L1.50004 66.8092L1.00004 66.8101ZM1 66.7875H0.499999L0.500001 66.7885L1 66.7875ZM8.59478 107.171L8.34657 107.605L8.59478 107.171ZM64.0211 138.869L64.2693 138.434L64.0211 138.869ZM78.9956 138.869L79.2438 139.303L78.9956 138.869ZM134.422 107.171L134.67 107.605L134.422 107.171ZM142.017 66.3849H142.517H142.017ZM142.017 47.8038H141.517H142.017ZM134.426 34.714L134.178 35.148V35.148L134.426 34.714ZM78.9999 2.99221L79.2482 2.55826V2.55826L78.9999 2.99221ZM64.0167 2.99221L63.7683 2.55825V2.55825L64.0167 2.99221ZM8.59039 34.714L8.34203 34.2801L8.59039 34.714ZM21.5705 46.9016L21.3205 47.3346L21.5705 46.9016ZM21.5705 41.0377L21.8205 41.4707L21.5705 41.0377ZM66.6991 72.9543L66.4491 73.3873L66.6991 72.9543ZM76.8565 72.9543L77.1064 73.3873L76.8565 72.9543ZM121.985 46.9016L122.235 47.3346L121.985 46.9016ZM121.985 41.0377L122.235 40.6047L121.985 41.0377ZM76.8565 14.985L77.1064 14.552L76.8565 14.985ZM66.6991 14.985L66.4491 14.552L66.6991 14.985ZM1.50004 66.8092L1.5 66.7866L0.500001 66.7885L0.500043 66.811L1.50004 66.8092ZM1.50004 94.0789V66.8101H0.500042V94.0789H1.50004ZM8.843 106.737C4.30206 104.14 1.50004 99.31 1.50004 94.0789H0.500042C0.500042 99.6687 3.49421 104.83 8.34657 107.605L8.843 106.737ZM64.2693 138.434L8.843 106.737L8.34657 107.605L63.7729 139.303L64.2693 138.434ZM78.7473 138.434C74.2621 140.999 68.7545 140.999 64.2693 138.434L63.7729 139.303C68.5656 142.043 74.451 142.043 79.2438 139.303L78.7473 138.434ZM134.174 106.737L78.7473 138.434L79.2438 139.303L134.67 107.605L134.174 106.737ZM141.517 94.0789C141.517 99.31 138.715 104.14 134.174 106.737L134.67 107.605C139.522 104.83 142.517 99.6687 142.517 94.0789H141.517ZM141.517 66.3849V94.0789H142.517V66.3849H141.517ZM141.517 47.8038L141.517 66.3849H142.517L142.517 47.8038H141.517ZM134.178 35.148C138.716 37.7455 141.517 42.5745 141.517 47.8038H142.517C142.517 42.2159 139.524 37.0557 134.675 34.2801L134.178 35.148ZM78.7515 3.42616L134.178 35.148L134.675 34.2801L79.2482 2.55826L78.7515 3.42616ZM64.265 3.42616C68.7524 0.857942 74.2642 0.857949 78.7515 3.42616L79.2482 2.55826C74.4532 -0.186081 68.5634 -0.186089 63.7683 2.55825L64.265 3.42616ZM8.83875 35.148L64.265 3.42616L63.7683 2.55825L8.34203 34.2801L8.83875 35.148ZM1.5 47.8038C1.5 42.5745 4.30018 37.7455 8.83875 35.148L8.34203 34.2801C3.49221 37.0557 0.5 42.2159 0.5 47.8038H1.5ZM1.5 66.7875V47.8038H0.5V66.7875H1.5ZM21.8205 46.4686C20.5091 45.7115 19.9668 44.7892 19.9668 43.9697C19.9668 43.1501 20.5091 42.2278 21.8205 41.4707L21.3205 40.6047C19.827 41.4669 18.9668 42.6669 18.9668 43.9697C18.9668 45.2724 19.827 46.4724 21.3205 47.3346L21.8205 46.4686ZM66.949 72.5213L21.8205 46.4686L21.3205 47.3346L66.4491 73.3873L66.949 72.5213ZM76.6065 72.5213C75.2979 73.2767 73.5514 73.6688 71.7778 73.6688C70.0041 73.6688 68.2576 73.2767 66.949 72.5213L66.4491 73.3873C67.9454 74.2512 69.8751 74.6688 71.7778 74.6688C73.6804 74.6688 75.6101 74.2512 77.1064 73.3873L76.6065 72.5213ZM121.735 46.4686L76.6065 72.5213L77.1064 73.3873L122.235 47.3346L121.735 46.4686ZM121.735 41.4707C123.046 42.2278 123.589 43.1501 123.589 43.9697C123.589 44.7892 123.046 45.7115 121.735 46.4686L122.235 47.3346C123.729 46.4724 124.589 45.2724 124.589 43.9697C124.589 42.6669 123.729 41.4669 122.235 40.6047L121.735 41.4707ZM76.6065 15.418L121.735 41.4707L122.235 40.6047L77.1064 14.552L76.6065 15.418ZM66.949 15.418C68.2576 14.6626 70.0041 14.2706 71.7778 14.2706C73.5514 14.2706 75.2979 14.6626 76.6065 15.418L77.1064 14.552C75.6101 13.6881 73.6804 13.2706 71.7778 13.2706C69.8751 13.2706 67.9454 13.6881 66.4491 14.552L66.949 15.418ZM21.8205 41.4707L66.949 15.418L66.4491 14.552L21.3205 40.6047L21.8205 41.4707Z" fill="#494E62" mask="url(#path-2-outside-1_2346_91319)"/>
<path d="M1 66.3848V94.0788C1 99.4892 3.89809 104.485 8.59474 107.171L64.021 138.868C68.66 141.521 74.3565 141.521 78.9955 138.868L134.422 107.171C139.118 104.485 142.017 99.4892 142.017 94.0788V66.3848L78.9955 102.425C74.3565 105.078 68.66 105.078 64.021 102.425L1 66.3848Z" fill="#494E62" fill-opacity="0.1"/>
<defs>
<linearGradient id="paint0_linear_2346_91319" x1="71.5083" y1="1" x2="71.5083" y2="140.858" gradientUnits="userSpaceOnUse">
<stop stop-color="#494E62"/>
<stop offset="0.0001" stop-color="#494E62" stop-opacity="0.31"/>
<stop offset="1" stop-color="#494E62" stop-opacity="0"/>
</linearGradient>
<clipPath id="clip0_2346_91319">
<rect width="40.27" height="40.27" fill="white" transform="matrix(0.866025 -0.5 0.866025 0.5 37 43.1348)"/>
</clipPath>
</defs>
</svg>
