<svg width="73" height="74" fill="none" xmlns="http://www.w3.org/2000/svg"><rect x=".5" y=".5" width="72" height="73" rx="11.5" stroke="#fff" stroke-opacity=".1"/><path fill-rule="evenodd" clip-rule="evenodd" d="M13 10a4 4 0 0 0-4 4v47a4 4 0 0 0 4 4h47a4 4 0 0 0 4-4V14a4 4 0 0 0-4-4H13Zm28.454 32.82h-3.457v11.098c0 1.39-.16 2.309-.48 2.754-.321.437-.868.656-1.641.656-.766 0-1.336-.309-1.711-.926-.25-.406-.395-1.101-.434-2.086l-3.27.375c.008 1.836.47 3.23 1.383 4.184.914.945 2.22 1.418 3.914 1.418 1.446 0 2.61-.3 3.493-.902a4.676 4.676 0 0 0 1.828-2.414c.25-.766.375-1.86.375-3.282V42.82Zm5.729 11.262-3.375.328c.227 1.922.922 3.387 2.086 4.395 1.164 1 2.832 1.5 5.004 1.5 1.492 0 2.738-.207 3.738-.621 1-.422 1.773-1.063 2.32-1.922.547-.86.82-1.782.82-2.766 0-1.086-.23-1.996-.69-2.73a4.718 4.718 0 0 0-1.9-1.746c-.804-.43-2.05-.844-3.737-1.243-1.688-.398-2.75-.78-3.188-1.148-.344-.29-.516-.637-.516-1.043 0-.445.184-.8.551-1.066.57-.415 1.36-.622 2.367-.622.977 0 1.708.196 2.192.586.492.383.812 1.016.96 1.899l3.47-.153c-.055-1.578-.63-2.84-1.723-3.785-1.086-.945-2.707-1.418-4.863-1.418-1.32 0-2.45.2-3.387.598-.93.398-1.645.98-2.145 1.746a4.414 4.414 0 0 0-.738 2.45c0 1.359.527 2.511 1.582 3.456.75.672 2.055 1.239 3.914 1.7 1.446.359 2.371.609 2.778.75.593.21 1.007.46 1.242.75.242.28.363.625.363 1.03 0 .634-.285 1.188-.855 1.665-.563.469-1.403.703-2.52.703-1.055 0-1.895-.266-2.52-.797-.617-.531-1.027-1.363-1.23-2.496Z" fill="#fff"/></svg>