<svg width="138" height="74" fill="none" xmlns="http://www.w3.org/2000/svg"><rect x="1" y=".5" width="136" height="73" rx="11.5" stroke="#fff" stroke-opacity=".1"/><path d="M116.282 32.33c-.271 0-.535.056-.768.188l-7.386 4.265a1.557 1.557 0 0 0-.769 1.349v8.515c0 .553.291 1.072.769 1.349l1.929 1.111c.937.462 1.283.455 1.709.455 1.387 0 2.179-.842 2.179-2.305v-8.401c0-.119-.102-.204-.219-.204h-.925c-.119 0-.22.087-.22.204v8.405c0 .648-.675 1.301-1.772.753l-2.005-1.176c-.07-.039-.125-.11-.125-.188v-8.516a.25.25 0 0 1 .125-.203l7.371-4.25a.216.216 0 0 1 .219 0l7.37 4.25c.071.042.126.12.126.203v8.516a.236.236 0 0 1-.11.203l-7.386 4.25a.226.226 0 0 1-.219 0l-1.898-1.129a.197.197 0 0 0-.188 0c-.523.297-.622.332-1.113.502-.121.042-.305.108.063.314l2.477 1.46c.236.137.499.204.769.204.273 0 .532-.066.768-.204l7.386-4.25a1.56 1.56 0 0 0 .769-1.348v-8.515c0-.554-.291-1.073-.769-1.35l-7.386-4.264a1.539 1.539 0 0 0-.768-.188l-.003-.005Zm1.976 6.085c-2.103 0-3.356.895-3.356 2.383 0 1.613 1.243 2.058 3.262 2.258 2.415.236 2.603.591 2.603 1.067 0 .824-.657 1.175-2.211 1.175-1.952 0-2.381-.487-2.525-1.46-.017-.104-.097-.188-.203-.188h-.959a.225.225 0 0 0-.22.22c0 1.243.676 2.712 3.905 2.712 2.337 0 3.685-.915 3.685-2.524 0-1.591-1.089-2.021-3.356-2.321-2.288-.306-2.509-.452-2.509-.988 0-.443.186-1.036 1.882-1.036 1.515 0 2.076.327 2.305 1.35.02.095.105.173.204.173h.959c.059 0 .116-.036.157-.078.04-.045.068-.096.063-.157-.149-1.76-1.322-2.587-3.685-2.587h-.001Z" fill="#fff"/><path d="M72.86 21.168a.475.475 0 0 0-.407.236.476.476 0 0 0-.063.235v11.996a.317.317 0 0 1-.322.327.326.326 0 0 1-.165-.045l-1.96-1.129a.939.939 0 0 0-.94 0l-7.825 4.516a.964.964 0 0 0-.471.831v9.033a.94.94 0 0 0 .47.815l7.825 4.516a.938.938 0 0 0 .941 0l7.825-4.516a.94.94 0 0 0 .47-.815V24.65a.956.956 0 0 0-.485-.831l-4.658-2.604a.462.462 0 0 0-.235-.047ZM22.523 32.443a.885.885 0 0 0-.423.11l-7.825 4.516a.938.938 0 0 0-.47.815l.016 12.122c0 .169.087.325.235.408a.455.455 0 0 0 .47 0l4.642-2.666a.957.957 0 0 0 .486-.815v-5.661c0-.338.178-.648.47-.816l1.977-1.144a.926.926 0 0 1 .47-.126.925.925 0 0 1 .47.126l1.976 1.144c.292.168.47.478.47.815v5.66c0 .338.196.644.486.816l4.641 2.666a.472.472 0 0 0 .706-.408l.016-12.121a.931.931 0 0 0-.47-.816l-7.825-4.515a.879.879 0 0 0-.424-.11h-.093Zm70.315.11a.935.935 0 0 0-.47.125l-7.826 4.517a.94.94 0 0 0-.47.815v9.032c0 .34.19.647.486.815l7.762 4.425a.941.941 0 0 0 .925.015l4.704-2.619a.475.475 0 0 0 .25-.408.464.464 0 0 0-.234-.407l-7.873-4.516a.507.507 0 0 1-.25-.424V41.1c0-.169.104-.324.25-.408l2.447-1.411a.47.47 0 0 1 .47 0l2.448 1.411a.468.468 0 0 1 .235.408v2.227a.469.469 0 0 0 .706.407l4.688-2.728a.943.943 0 0 0 .471-.815v-2.18a.948.948 0 0 0-.471-.815l-7.777-4.516a.933.933 0 0 0-.471-.126ZM69.44 39.296c.044 0 .087.01.126.031l2.681 1.553c.073.042.126.12.126.203v3.105a.241.241 0 0 1-.126.204l-2.681 1.553a.239.239 0 0 1-.236 0l-2.68-1.553a.242.242 0 0 1-.126-.204v-3.105c0-.084.052-.161.125-.204l2.681-1.552a.206.206 0 0 1 .11-.03Z" fill="#fff" fill-opacity=".5"/><path d="M46.032 32.506a.94.94 0 0 0-.471.126l-7.825 4.5a.964.964 0 0 0-.47.831v9.033a.937.937 0 0 0 .47.815l7.825 4.516a.938.938 0 0 0 .94 0l7.826-4.516a.94.94 0 0 0 .47-.816v-9.032a.962.962 0 0 0-.47-.831l-7.825-4.5a.93.93 0 0 0-.471-.126Zm46.793 8.06c-.032 0-.066 0-.094.016l-1.506.878a.182.182 0 0 0-.094.157v1.725c0 .065.038.124.094.157l1.506.862a.163.163 0 0 0 .172 0l1.505-.862a.184.184 0 0 0 .094-.157v-1.725a.185.185 0 0 0-.094-.157l-1.505-.879c-.028-.016-.047-.015-.079-.015Z" fill="#fff"/></svg>