<svg width="133" height="74" fill="none" xmlns="http://www.w3.org/2000/svg"><rect x=".5" y=".5" width="132" height="73" rx="11.5" stroke="#fff" stroke-opacity=".1"/><path d="M33.046 40.443a3.476 3.476 0 1 0 0-6.95 3.476 3.476 0 0 0 0 6.95Z" fill="#fff"/><path clip-rule="evenodd" d="M33.044 29.902c4.667 0 9.002.67 12.27 1.795 3.938 1.356 6.36 3.411 6.36 5.272 0 1.94-2.566 4.122-6.796 5.523-3.197 1.06-7.404 1.613-11.834 1.613-4.541 0-8.842-.52-12.075-1.624-4.091-1.398-6.555-3.61-6.555-5.512 0-1.846 2.312-3.885 6.195-5.239 3.28-1.144 7.722-1.828 12.434-1.828h.001Z" stroke="#fff" stroke-width="1.663"/><path clip-rule="evenodd" d="M26.895 33.456c2.332-4.043 5.077-7.463 7.685-9.733 3.142-2.734 6.132-3.805 7.744-2.875 1.68.969 2.289 4.282 1.39 8.646-.68 3.299-2.303 7.22-4.516 11.057-2.269 3.934-4.867 7.4-7.439 9.649-3.255 2.845-6.401 3.874-8.049 2.924-1.599-.921-2.21-3.943-1.443-7.983.648-3.414 2.274-7.603 4.628-11.685Z" stroke="#fff" stroke-width="1.663"/><path clip-rule="evenodd" d="M26.9 40.56c-2.339-4.037-3.93-8.125-4.595-11.518-.8-4.087-.234-7.212 1.376-8.145 1.679-.971 4.854.156 8.185 3.114 2.519 2.236 5.105 5.6 7.325 9.434 2.275 3.93 3.98 7.912 4.644 11.264.84 4.24.16 7.48-1.486 8.434-1.598.925-4.52-.055-7.638-2.737-2.633-2.266-5.45-5.768-7.812-9.846Z" stroke="#fff" stroke-width="1.663"/><path fill-rule="evenodd" clip-rule="evenodd" d="m71.624 45.849-4.26-6.436c2.153-.19 4.093-1.75 4.093-4.6 0-2.9-2.058-4.756-4.945-4.756h-6.34v15.78h1.964v-6.27h3.147l4.022 6.27 2.319.012Zm-5.347-7.997h-4.14v-6.033h4.14c1.87 0 3.147 1.23 3.147 3.005s-1.278 3.03-3.147 3.03v-.002Zm12.658 8.28c1.87 0 3.407-.615 4.543-1.75l-.852-1.16c-.9.923-2.224 1.443-3.525 1.443-2.46 0-3.975-1.798-4.117-3.95h9.25v-.45c0-3.43-2.035-6.128-5.49-6.128-3.265 0-5.63 2.674-5.63 5.986 0 3.573 2.437 6 5.82 6v.009Zm3.55-6.72h-7.5c.095-1.75 1.3-3.81 3.738-3.81 2.603 0 3.738 2.106 3.762 3.81Zm13.534 6.436v-7.855c0-2.768-2.01-3.857-4.424-3.857-1.87 0-3.336.615-4.566 1.893l.828 1.23c1.017-1.088 2.13-1.585 3.502-1.585 1.656 0 2.887.875 2.887 2.413v2.058c-.923-1.065-2.224-1.562-3.786-1.562-1.94 0-4 1.207-4 3.762 0 2.484 2.058 3.786 4 3.786 1.538 0 2.84-.544 3.786-1.585v1.3l1.773.002Zm-4.92-.994c-1.656 0-2.816-1.04-2.816-2.484 0-1.467 1.16-2.508 2.816-2.508 1.254 0 2.46.473 3.147 1.42v2.153c-.686.946-1.893 1.419-3.147 1.419Zm13.5 1.278c2.082 0 3.312-.852 4.188-1.987l-1.183-1.088c-.757 1.017-1.727 1.49-2.9 1.49-2.437 0-3.95-1.893-3.95-4.424 0-2.531 1.514-4.4 3.95-4.4 1.183 0 2.153.45 2.9 1.49l1.183-1.088c-.875-1.136-2.106-1.987-4.188-1.987-3.407 0-5.702 2.603-5.702 5.986 0 3.407 2.295 6 5.702 6v.008Zm9.56 0c1.04 0 1.68-.308 2.13-.733l-.52-1.325c-.237.26-.7.473-1.207.473-.78 0-1.16-.615-1.16-1.467v-7.098h2.32V34.42h-2.32v-3.123h-1.775v3.123h-1.893v1.562h1.893v7.477c0 1.704.852 2.674 2.532 2.674v-.002Z" fill="#fff"/></svg>