      <svg width="143" height="142" fill="none" xmlns="http://www.w3.org/2000/svg"
        ><g clip-path="url(#a)" fill-rule="evenodd" clip-rule="evenodd" fill="#494E62"
          ><path
            d="M69.123 42.784c-.803.463-.803 1.214 0 1.678.802.463 2.103.463 2.906 0 .803-.464.803-1.215 0-1.678-.802-.463-2.104-.463-2.906 0Zm-2.906 3.356c-2.408-1.39-2.408-3.644 0-5.034 2.407-1.39 6.31-1.39 8.718 0 2.408 1.39 2.408 3.644 0 5.034-2.407 1.39-6.31 1.39-8.718 0ZM50.03 42.436c1.134 0 2.054.531 2.055 1.187 0 2.831 1.949 5.546 5.416 7.548 3.468 2.002 8.171 3.127 13.075 3.128 1.135 0 2.055.531 2.055 1.186 0 .656-.92 1.187-2.055 1.187-5.994 0-11.742-1.376-15.98-3.823-4.239-2.447-6.62-5.765-6.621-9.226 0-.655.92-1.186 2.054-1.187ZM68.52 31.76c0-.655.92-1.186 2.055-1.186 5.994 0 11.742 1.375 15.98 3.822 4.239 2.447 6.62 5.766 6.621 9.227 0 .655-.92 1.186-2.054 1.186-1.135 0-2.056-.53-2.056-1.186 0-2.831-1.949-5.547-5.417-7.549-3.467-2.002-8.17-3.127-13.074-3.127-1.135 0-2.055-.532-2.055-1.187Zm-10.28 10.668c1.135 0 2.054.532 2.053 1.187 0 .78.265 1.552.781 2.272.517.72 1.274 1.375 2.229 1.926.955.551 2.088.988 3.336 1.287a17.02 17.02 0 0 0 3.935.45c1.135 0 2.055.531 2.056 1.186 0 .656-.919 1.187-2.054 1.187-1.89.001-3.762-.214-5.509-.63-1.747-.418-3.334-1.03-4.67-1.802-1.337-.772-2.397-1.688-3.12-2.697-.723-1.008-1.094-2.089-1.093-3.18 0-.655.92-1.186 2.056-1.186Zm10.28-5.919c0-.655.919-1.186 2.054-1.187 1.89 0 3.762.214 5.509.632 1.746.417 3.334 1.029 4.67 1.8 1.337.773 2.397 1.689 3.12 2.697.723 1.009 1.095 2.09 1.093 3.18 0 .656-.92 1.187-2.056 1.187-1.135 0-2.054-.532-2.053-1.187 0-.78-.265-1.552-.782-2.272-.516-.72-1.273-1.375-2.228-1.926-.955-.552-2.088-.989-3.336-1.287a17.014 17.014 0 0 0-3.935-.45c-1.135 0-2.055-.531-2.056-1.187Z" /></g
        ><mask id="c" maskUnits="userSpaceOnUse" x="0" y="0" width="143" height="142" fill="#000"
          ><path fill="#fff" d="M0 0h143v142H0z" /><path
            fill-rule="evenodd"
            clip-rule="evenodd"
            d="M1 66.787V94.08c0 5.41 2.898 10.406 7.595 13.092l55.426 31.698a15.087 15.087 0 0 0 14.975 0l55.426-31.698a15.083 15.083 0 0 0 7.595-13.092V47.804a15.083 15.083 0 0 0-7.591-13.09L79 2.992a15.082 15.082 0 0 0-14.983 0L8.59 34.714A15.082 15.082 0 0 0 1 47.804v18.983Zm20.57-25.75c-2.804 1.62-2.804 4.245 0 5.865L66.7 72.954c2.804 1.62 7.352 1.62 10.156 0l45.129-26.052c2.805-1.62 2.805-4.245 0-5.864L76.856 14.985c-2.804-1.62-7.352-1.62-10.157 0L21.57 41.038Z" /></mask
        ><path
          fill-rule="evenodd"
          clip-rule="evenodd"
          d="M1 66.787V94.08c0 5.41 2.898 10.406 7.595 13.092l55.426 31.698a15.087 15.087 0 0 0 14.975 0l55.426-31.698a15.083 15.083 0 0 0 7.595-13.092V47.804a15.083 15.083 0 0 0-7.591-13.09L79 2.992a15.082 15.082 0 0 0-14.983 0L8.59 34.714A15.082 15.082 0 0 0 1 47.804v18.983Zm20.57-25.75c-2.804 1.62-2.804 4.245 0 5.865L66.7 72.954c2.804 1.62 7.352 1.62 10.156 0l45.129-26.052c2.805-1.62 2.805-4.245 0-5.864L76.856 14.985c-2.804-1.62-7.352-1.62-10.157 0L21.57 41.038Z"
          fill="url(#b)" /><path
          d="M1 66.81h.5H1Zm0-.023H.5v.001H1Zm7.595 40.384-.248.434.248-.434Zm55.426 31.698.248-.435-.248.435Zm14.975 0 .248.434-.248-.434Zm55.426-31.698.248.434-.248-.434Zm7.595-40.786h.5-.5Zm0-18.581h-.5.5Zm-7.591-13.09-.248.434.248-.434ZM79 2.992l.248-.434-.248.434Zm-14.983 0-.249-.434.249.434ZM8.59 34.714l-.248-.434.248.434Zm12.98 12.188-.25.433.25-.433Zm0-5.864.25.433-.25-.433ZM66.7 72.954l-.25.433.25-.433Zm10.156 0 .25.433-.25-.433Zm45.129-26.052.25.433-.25-.433Zm0-5.864.25-.433-.25.433ZM76.856 14.985l.25-.433-.25.433Zm-10.157 0-.25-.433.25.433ZM1.5 66.809v-.022l-1 .001v.023l1-.002Zm0 27.27V66.81h-1V94.08h1Zm7.343 12.658A14.582 14.582 0 0 1 1.5 94.079h-1c0 5.59 2.994 10.751 7.847 13.526l.496-.868Zm55.426 31.697L8.843 106.737l-.496.868 55.426 31.698.496-.869Zm14.478 0a14.582 14.582 0 0 1-14.478 0l-.496.869a15.586 15.586 0 0 0 15.47 0l-.496-.869Zm55.427-31.697-55.427 31.697.497.869 55.426-31.698-.496-.868Zm7.343-12.658a14.582 14.582 0 0 1-7.343 12.658l.496.868a15.583 15.583 0 0 0 7.847-13.526h-1Zm0-27.694v27.694h1V66.385h-1Zm0-18.581v18.58h1v-18.58h-1Zm-7.339-12.656a14.583 14.583 0 0 1 7.339 12.656h1a15.584 15.584 0 0 0-7.842-13.524l-.497.868ZM78.751 3.426l55.427 31.722.497-.868L79.248 2.558l-.497.868Zm-14.486 0a14.582 14.582 0 0 1 14.486 0l.497-.868a15.582 15.582 0 0 0-15.48 0l.497.868ZM8.839 35.148 64.265 3.426l-.497-.868L8.342 34.28l.497.868ZM1.5 47.804c0-5.23 2.8-10.059 7.339-12.656l-.497-.868A15.582 15.582 0 0 0 .5 47.804h1Zm0 18.983V47.804h-1v18.983h1ZM21.82 46.47c-1.31-.758-1.853-1.68-1.853-2.5 0-.819.542-1.741 1.854-2.498l-.5-.866c-1.494.862-2.354 2.062-2.354 3.365 0 1.302.86 2.502 2.354 3.365l.5-.866ZM66.95 72.52 21.82 46.47l-.5.866 45.13 26.052.499-.866Zm9.657 0c-1.308.756-3.055 1.148-4.828 1.148-1.774 0-3.52-.392-4.829-1.148l-.5.866c1.496.864 3.426 1.282 5.329 1.282 1.902 0 3.832-.418 5.328-1.282l-.5-.866Zm45.129-26.052L76.606 72.52l.5.866 45.129-26.052-.5-.866Zm0-4.998c1.311.757 1.854 1.68 1.854 2.499 0 .82-.543 1.742-1.854 2.499l.5.866c1.494-.863 2.354-2.063 2.354-3.365 0-1.303-.86-2.503-2.354-3.365l-.5.866ZM76.606 15.418l45.129 26.053.5-.866-45.129-26.053-.5.866Zm-9.657 0c1.309-.755 3.055-1.147 4.829-1.147 1.773 0 3.52.392 4.828 1.147l.5-.866c-1.496-.864-3.426-1.281-5.328-1.281-1.903 0-3.833.417-5.329 1.281l.5.866ZM21.82 41.471 66.95 15.418l-.5-.866L21.32 40.605l.5.866Z"
          fill="#494E62"
          mask="url(#c)" /><path
          d="M1 66.385v27.694c0 5.41 2.898 10.406 7.595 13.092l55.426 31.697a15.082 15.082 0 0 0 14.975 0l55.426-31.697a15.084 15.084 0 0 0 7.595-13.092V66.385l-63.021 36.04a15.082 15.082 0 0 1-14.975 0L1 66.385Z"
          fill="#494E62"
          fill-opacity=".1" /><defs
          ><linearGradient
            id="b"
            x1="71.508"
            y1="1"
            x2="71.508"
            y2="140.858"
            gradientUnits="userSpaceOnUse"
            ><stop stop-color="#494E62" /><stop
              offset="0"
              stop-color="#494E62"
              stop-opacity=".31" /><stop
              offset="1"
              stop-color="#494E62"
              stop-opacity="0" /></linearGradient
          ><clipPath id="a"
            ><path
              fill="#fff"
              transform="matrix(.86603 -.5 .86603 .5 35.703 43.623)"
              d="M0 0h40.269v40.269H0z" /></clipPath
          ></defs
        ></svg>