<svg width="138" height="74" fill="none" xmlns="http://www.w3.org/2000/svg"><rect x="1" y=".5" width="136" height="73" rx="11.5" stroke="#fff" stroke-opacity=".1"/><path fill-rule="evenodd" clip-rule="evenodd" d="M52.986 18.953h8.482L40.051 55.861 18.492 18.953h8.675l12.884 22.22 12.935-22.22Z" fill="#fff"/><path fill-rule="evenodd" clip-rule="evenodd" d="M44.965 18.945h8.067L40.034 41.211 27.141 18.945h7.94l4.953 8.572 4.931-8.572Z" fill="#fff" fill-opacity=".5"/><path fill-rule="evenodd" clip-rule="evenodd" d="M66.523 26.23c0-.272.152-.499.454-.68.302-.182.618-.273.948-.273.458 0 .742.173.852.518l4.836 16.173 4.81-16.173c.128-.345.403-.518.824-.518.348 0 .673.1.975.3.303.2.454.426.454.68a.36.36 0 0 1-.014.082.442.442 0 0 0-.014.11L75.07 44.553c-.202.527-.687.79-1.456.79-.77 0-1.237-.263-1.402-.79l-5.633-18.106a.888.888 0 0 1-.056-.218Zm14.37 13.94v-7.078c0-.218.114-.409.343-.572.229-.164.5-.245.81-.245.294 0 .555.086.784.258.229.173.343.359.343.559v7.079c0 .816.312 1.552.935 2.205.623.654 1.365.98 2.226.98.842 0 1.575-.322 2.198-.966.623-.645.934-1.384.934-2.22v-7.106c0-.2.115-.381.344-.545.229-.163.5-.245.81-.245.33 0 .6.078.811.232.211.154.316.34.316.558v7.107c0 1.397-.535 2.618-1.607 3.662-1.072 1.043-2.34 1.565-3.806 1.565-1.484 0-2.762-.522-3.834-1.565-1.072-1.044-1.608-2.265-1.608-3.662Zm12.72-.054v-2.859c0-1.397.535-2.604 1.607-3.621s2.359-1.525 3.86-1.525c1.43 0 2.667.477 3.711 1.43s1.566 2.146 1.566 3.58c0 .526-.064.949-.192 1.266-.128.318-.325.545-.591.68a2.51 2.51 0 0 1-.742.26 6.154 6.154 0 0 1-.921.054h-6.018v.817c0 .998.362 1.797 1.086 2.396.723.599 1.662.898 2.816.898.605 0 1.132-.09 1.58-.272a7.07 7.07 0 0 0 1.086-.53c.275-.173.495-.26.659-.26.257 0 .477.114.66.34.183.228.275.46.275.695 0 .418-.417.844-1.251 1.28-.833.436-1.864.653-3.091.653-1.795 0-3.261-.485-4.397-1.456-1.136-.971-1.704-2.247-1.704-3.826Zm2.28-2.26h5.084c.476 0 .797-.059.962-.177.165-.118.247-.35.247-.694 0-.817-.302-1.534-.907-2.151-.604-.617-1.346-.926-2.225-.926a3.18 3.18 0 0 0-2.227.858c-.622.572-.934 1.275-.934 2.11v.98Zm9.615 6.072c0-.4.137-.74.412-1.021a1.366 1.366 0 0 1 1.017-.422c.385 0 .715.14.989.422.275.281.413.622.413 1.02 0 .382-.138.713-.413.995a1.331 1.331 0 0 1-.989.422c-.403 0-.742-.14-1.017-.422a1.375 1.375 0 0 1-.412-.994Zm2.03 6.507a1 1 0 0 1 .275-.721.882.882 0 0 1 .66-.286c.714 0 1.181-.263 1.401-.79.22-.526.33-1.316.33-2.368V33.064c0-.236.105-.426.316-.572.211-.145.481-.217.811-.217.329 0 .604.072.824.217.22.146.33.336.33.572V46.27c0 1.579-.312 2.831-.935 3.757-.623.926-1.566 1.389-2.83 1.389-.788 0-1.182-.327-1.182-.98Zm2.364-23.007c0-.345.137-.644.412-.898a1.44 1.44 0 0 1 1.017-.382c.384 0 .714.128.989.382s.412.553.412.898-.137.649-.412.912a1.38 1.38 0 0 1-.989.395 1.43 1.43 0 0 1-1.004-.395c-.284-.263-.425-.567-.425-.912Zm4.283 15.9c0-.235.078-.467.234-.694.155-.226.343-.34.563-.34.147 0 .357.109.632.327.275.218.669.431 1.182.64.513.208 1.117.313 1.813.313.916 0 1.58-.164 1.993-.49.412-.327.618-.735.618-1.226 0-.598-.229-1.075-.687-1.429-.458-.354-1.017-.622-1.676-.803a41.023 41.023 0 0 1-1.979-.6 3.833 3.833 0 0 1-1.676-1.088c-.458-.509-.687-1.18-.687-2.015 0-1.035.371-1.929 1.113-2.682.742-.753 1.873-1.13 3.393-1.13.971 0 1.86.15 2.666.45.806.299 1.209.64 1.209 1.02 0 .218-.087.463-.261.735-.174.273-.389.409-.646.409-.073 0-.426-.132-1.058-.395a4.865 4.865 0 0 0-1.882-.395c-.843 0-1.47.195-1.882.586-.413.39-.619.83-.619 1.32 0 .508.229.908.687 1.198.458.29 1.022.517 1.69.68a20.03 20.03 0 0 1 1.993.6 3.73 3.73 0 0 1 1.676 1.212c.458.571.687 1.311.687 2.219 0 1.125-.403 2.014-1.209 2.668-.806.653-1.933.98-3.38.98-1.246 0-2.309-.222-3.188-.667-.879-.445-1.319-.912-1.319-1.402Z" fill="#fff"/></svg>