<svg width="513" height="206" viewBox="0 0 513 206" fill="none" xmlns="http://www.w3.org/2000/svg">
<rect width="512" height="206" transform="translate(0.5)" fill="white"/>
<path d="M273.36 84.1148C273.36 83.4489 272.808 82.9091 272.128 82.9091H264.964C264.284 82.9091 263.732 83.4489 263.732 84.1148V106.938C263.732 110.172 263.039 112.372 261.865 113.751C260.728 115.088 258.971 115.845 256.357 115.845C253.68 115.845 251.88 115.083 250.717 113.743C249.521 112.364 248.816 110.167 248.816 106.938V96.172C248.816 95.5061 248.264 94.9663 247.584 94.9663H240.365C239.684 94.9663 239.132 95.5061 239.132 96.172V106.938C239.132 110.169 238.431 112.367 237.243 113.746C236.088 115.085 234.302 115.845 231.647 115.845C229.088 115.845 227.317 115.119 226.129 113.822C224.975 112.521 224.272 110.313 224.272 106.938V84.1148C224.272 83.4489 223.72 82.9091 223.039 82.9091H215.821C215.14 82.9091 214.588 83.4489 214.588 84.1148V107.159C214.588 112.623 216.011 116.985 219.045 120.046C222.079 123.106 226.343 124.557 231.647 124.557C234.514 124.557 237.088 124.113 239.341 123.193L239.351 123.188C241.142 122.438 242.686 121.465 243.964 120.262C245.22 121.467 246.753 122.439 248.542 123.188L248.566 123.198C250.884 124.113 253.488 124.557 256.357 124.557C261.656 124.557 265.904 123.127 268.903 120.101C271.939 117.039 273.36 112.657 273.36 107.159V84.1148Z" fill="black"/>
<path d="M326.414 84.1148C326.414 83.4489 325.862 82.9091 325.181 82.9091H317.962C317.282 82.9091 316.73 83.4489 316.73 84.1148V98.8799H299.093V84.1148C299.093 83.4489 298.541 82.9091 297.861 82.9091H290.642C289.961 82.9091 289.409 83.4489 289.409 84.1148V122.798C289.409 123.464 289.961 124.004 290.642 124.004H297.861C298.541 124.004 299.093 123.464 299.093 122.798V107.425H316.73V122.798C316.73 123.464 317.282 124.004 317.962 124.004H325.181C325.862 124.004 326.414 123.464 326.414 122.798V84.1148Z" fill="black"/>
<path fill-rule="evenodd" clip-rule="evenodd" d="M378.133 124.004C378.814 124.004 379.365 123.464 379.365 122.798V101.357C379.365 97.4193 378.617 93.9932 377.06 91.1281C375.545 88.2363 373.374 86.0286 370.554 84.545C367.753 83.0716 364.509 82.3564 360.863 82.3564C357.217 82.3564 353.973 83.0716 351.172 84.545C348.352 86.0285 346.163 88.2353 344.612 91.1252L344.609 91.1305C343.09 93.9947 342.361 97.4195 342.361 101.357V122.798C342.361 123.464 342.912 124.004 343.593 124.004H350.701C351.382 124.004 351.934 123.464 351.934 122.798V114.057H369.681V122.798C369.681 123.464 370.233 124.004 370.914 124.004H378.133ZM367.352 93.4527L367.361 93.4615C368.837 94.9616 369.681 97.2986 369.681 100.694V105.622H351.934V100.694C351.934 97.2986 352.778 94.9616 354.254 93.4615L354.263 93.4527C355.755 91.9056 357.88 91.0678 360.807 91.0678C363.735 91.0678 365.86 91.9056 367.352 93.4527Z" fill="black"/>
<path fill-rule="evenodd" clip-rule="evenodd" d="M420.976 123.48C421.206 123.808 421.587 124.004 421.993 124.004H429.767C430.225 124.004 430.645 123.756 430.858 123.36C431.071 122.963 431.042 122.484 430.783 122.115L422.68 110.596C424.89 109.503 426.664 107.994 427.962 106.057C429.56 103.731 430.333 100.986 430.333 97.8751C430.333 94.8481 429.62 92.1666 428.144 89.8812C426.669 87.5975 424.547 85.8655 421.834 84.6739C419.161 83.4834 416.056 82.9091 412.553 82.9091H396.56C395.88 82.9091 395.328 83.4489 395.328 84.1148V122.798C395.328 123.464 395.88 124.004 396.56 124.004H403.779C404.46 124.004 405.012 123.464 405.012 122.798V112.731H412.553C412.874 112.731 413.169 112.727 413.432 112.717L420.976 123.48ZM418.595 93.1098C419.888 94.1627 420.594 95.6893 420.594 97.8751C420.594 100.056 419.89 101.608 418.588 102.701C417.266 103.774 415.209 104.406 412.22 104.406H405.012V91.3994H412.22C415.213 91.3994 417.272 92.0333 418.595 93.1098Z" fill="black"/>
<path d="M453.625 122.798V109.194H469.329C470.01 109.194 470.562 108.654 470.562 107.988V101.909C470.562 101.243 470.01 100.704 469.329 100.704H453.625V98.5935C453.625 95.9578 454.398 94.1577 455.764 92.9756C457.156 91.7706 459.331 91.0678 462.499 91.0678C465.786 91.0678 468.409 91.814 470.451 93.2235C470.762 93.4383 471.158 93.5003 471.522 93.3915C471.886 93.2826 472.178 93.0151 472.314 92.6668L474.591 86.809C474.796 86.2791 474.597 85.6803 474.112 85.3706C472.539 84.3671 470.726 83.6188 468.689 83.1121C466.654 82.6057 464.478 82.3564 462.166 82.3564C456.658 82.3564 452.167 83.7592 448.844 86.7027C445.54 89.6259 443.941 93.6424 443.941 98.5935V122.798C443.941 123.464 444.493 124.004 445.174 124.004H452.393C453.073 124.004 453.625 123.464 453.625 122.798Z" fill="black"/>
<path d="M177.537 117.518C177.464 121.506 174.826 124.277 172.225 125.778L166.627 129.01C163.956 130.552 160.832 131.151 158.034 131.151C155.235 131.151 152.112 130.552 149.442 129.01L143.951 125.778V136.75C143.951 140.813 141.273 143.646 138.637 145.168L133.04 148.4C130.368 149.942 127.245 150.541 124.446 150.541C121.647 150.541 118.524 149.942 115.854 148.4L107.652 143.665L99.452 148.4C96.7805 149.942 93.6572 150.541 90.8585 150.541C88.0598 150.541 84.9379 149.942 82.2664 148.4L43.0813 125.778C40.48 124.277 37.8422 121.506 37.769 117.518L37.7676 117.271V131.639L37.769 131.886C37.8422 135.874 40.48 138.644 43.0813 140.146L82.2664 162.768C84.9379 164.309 88.0598 164.909 90.8585 164.909C93.6572 164.909 96.7805 164.309 99.452 162.768L107.652 158.033L115.854 162.768C118.524 164.309 121.647 164.909 124.446 164.909C127.245 164.909 130.368 164.309 133.04 162.768L138.637 159.536C141.273 158.014 143.951 155.181 143.951 151.117V140.146L149.442 143.378C152.112 144.919 155.235 145.519 158.034 145.519C160.832 145.519 163.956 144.919 166.627 143.378L172.225 140.146C174.826 138.644 177.464 135.874 177.537 131.886L177.537 117.518Z" fill="#F4FAF4"/>
<path d="M37.8026 103.782C37.7795 103.996 37.7676 104.213 37.7676 104.433V117.271L37.769 117.518C37.8422 121.506 40.48 124.276 43.0813 125.778L82.2664 148.4C84.9379 149.941 88.0597 150.541 90.8585 150.541C93.6572 150.541 96.7805 149.941 99.452 148.4L107.652 143.665L115.854 148.4C118.524 149.941 121.647 150.541 124.446 150.541C127.245 150.541 130.368 149.941 133.04 148.4L138.637 145.168C141.273 143.646 143.951 140.813 143.951 136.749V125.778L149.442 129.01C152.112 130.551 155.235 131.151 158.034 131.151C160.832 131.151 163.956 130.551 166.627 129.01L172.225 125.778C174.826 124.276 177.464 121.506 177.537 117.518V103.15C177.464 107.138 174.826 109.908 172.225 111.41L166.627 114.641C163.956 116.183 160.832 116.782 158.034 116.782C155.235 116.782 152.112 116.183 149.442 114.641L143.844 111.41C143.754 111.358 143.664 111.304 143.574 111.249C143.817 112.042 143.954 112.899 143.954 113.819C143.954 114.088 143.942 114.351 143.919 114.609C143.94 114.812 143.951 115.017 143.951 115.224V122.381C143.951 126.445 141.273 129.278 138.637 130.8L133.04 134.031C130.368 135.573 127.245 136.172 124.446 136.172C121.647 136.172 118.524 135.573 115.854 134.031L107.652 129.297L99.452 134.031C96.7805 135.573 93.6572 136.172 90.8585 136.172C88.0597 136.172 84.9379 135.573 82.2664 134.031L43.0813 111.41C40.6198 109.989 38.1255 107.432 37.8026 103.782Z" fill="#E7E7E7"/>
<path d="M104.981 65.0332C104.987 65.0913 104.993 65.1494 105 65.2075C105.281 67.6277 106.484 69.5338 107.981 70.945C107.872 70.9432 107.764 70.9423 107.656 70.9423C106.781 70.9423 105.875 71.0008 104.96 71.1284V65.5402C104.96 65.3694 104.967 65.2003 104.981 65.0332Z" fill="#E7E7E7"/>
<path d="M48.6824 82.7785L43.0844 86.0102C40.5905 87.45 38.0608 90.0619 37.794 93.7792C37.7765 93.9537 37.7676 94.1361 37.7676 94.3267V102.903L37.769 103.15C37.8422 107.138 40.48 109.908 43.0813 111.41L82.2664 134.032C84.9379 135.573 88.0597 136.173 90.8585 136.173C93.6572 136.173 96.7805 135.573 99.452 134.032L107.652 129.297L115.854 134.032C118.524 135.573 121.647 136.173 124.446 136.173C127.245 136.173 130.368 135.573 133.04 134.032L138.637 130.8C141.273 129.278 143.951 126.445 143.951 122.381V115.224C143.951 115.017 143.94 114.812 143.919 114.61C143.942 114.352 143.954 114.088 143.954 113.819C143.954 112.899 143.817 112.042 143.574 111.249C143.664 111.304 143.754 111.358 143.844 111.41L149.442 114.642C152.112 116.183 155.235 116.782 158.034 116.782C160.832 116.782 163.956 116.183 166.627 114.642L172.225 111.41C174.826 109.908 177.464 107.138 177.537 103.15V94.7134C177.54 94.6193 177.541 94.5244 177.541 94.4289C177.541 94.3334 177.54 94.2385 177.537 94.1444L177.538 75.2738C177.54 75.1959 177.541 75.1176 177.541 75.0388C177.541 70.9749 174.865 68.1424 172.228 66.6201L133.042 43.9983C130.372 42.4566 127.249 41.8574 124.45 41.8574C121.651 41.8574 118.528 42.4566 115.857 43.9983L110.26 47.23C107.623 48.7523 104.946 51.5848 104.946 55.6487C104.946 55.8403 104.952 56.0291 104.964 56.2151C104.961 56.2804 104.96 56.3463 104.96 56.4127V63.657C104.941 63.9445 104.938 64.2326 104.949 64.5205C104.956 64.7499 104.973 64.9791 105 65.2077C105.281 67.628 106.484 69.5341 107.981 70.9452C107.872 70.9434 107.764 70.9426 107.656 70.9426C104.857 70.9426 101.734 71.5418 99.0637 73.0835L93.4658 76.3151C90.8289 77.8374 88.1522 80.67 88.1522 84.7338C88.1522 84.9981 88.1635 85.2572 88.1854 85.5111C88.1806 85.6091 88.1782 85.7077 88.1782 85.8068V92.5885L88.1679 92.7541L88.1577 92.9354C88.1504 93.1118 88.1489 93.2883 88.1519 93.4649C88.1577 93.833 88.1884 94.2009 88.2425 94.5667C88.3095 95.0179 88.4083 95.4504 88.5348 95.8645L65.8671 82.7785C63.1966 81.2368 60.0734 80.6376 57.2747 80.6376C54.476 80.6376 51.3529 81.2368 48.6824 82.7785Z" fill="#CDCDCD"/>
<path d="M130.045 49.1843C126.954 47.3995 121.941 47.3995 118.85 49.1843L113.252 52.416C110.16 54.2008 110.16 57.0945 113.252 58.8794L151.758 81.1091C153.243 81.9662 154.077 83.1286 154.077 84.3407V85.1249C154.077 86.337 153.243 87.4995 151.758 88.3566L146.839 91.1962C143.748 92.981 143.748 95.8747 146.839 97.6595L152.437 100.891C155.529 102.676 160.541 102.676 163.633 100.891L169.231 97.6595C172.323 95.8747 172.323 92.981 169.231 91.1962L164.312 88.3566C162.827 87.4995 161.993 86.337 161.993 85.1249V84.3407C161.993 83.1286 162.827 81.9662 164.312 81.1091L169.231 78.2694C172.323 76.4846 172.323 73.5909 169.231 71.8061L130.045 49.1843Z" fill="black"/>
<path d="M62.8703 87.9645C59.7787 86.1797 54.7661 86.1797 51.6745 87.9645L46.0765 91.1962C42.9849 92.981 42.9849 95.8747 46.0765 97.6595L85.262 120.281C88.3537 122.066 93.3662 122.066 96.4579 120.281L107.654 113.818L62.8703 87.9645Z" fill="black"/>
<path d="M128.406 104.515C128.406 105.727 129.24 106.89 130.725 107.747L135.643 110.586C138.735 112.371 138.735 115.265 135.643 117.05L130.045 120.281C126.954 122.066 121.941 122.066 118.85 120.281L107.654 113.818L118.17 107.747C119.655 106.89 120.489 105.727 120.489 104.515L120.489 103.731C120.489 102.519 119.655 101.356 118.17 100.499L96.4579 87.9645C93.3662 86.1797 93.3662 83.2859 96.4579 81.5011L102.056 78.2694C105.147 76.4846 110.16 76.4846 113.252 78.2694L135.643 91.1962C138.735 92.981 138.735 95.8747 135.643 97.6595L130.725 100.499C129.24 101.356 128.406 102.519 128.406 103.731L128.406 104.515Z" fill="black"/>
</svg>
