<svg width="403" height="115" viewBox="0 0 403 115" fill="none" xmlns="http://www.w3.org/2000/svg">
<path d="M217.012 40.6105C217.012 39.9978 216.504 39.5011 215.877 39.5011H209.287C208.66 39.5011 208.152 39.9978 208.152 40.6105V61.6101C208.152 64.5852 207.515 66.61 206.435 67.879C205.388 69.109 203.772 69.8056 201.367 69.8056C198.904 69.8056 197.248 69.1045 196.177 67.8709C195.077 66.6025 194.429 64.5811 194.429 61.6101V51.7043C194.429 51.0916 193.921 50.5949 193.295 50.5949H186.653C186.026 50.5949 185.518 51.0916 185.518 51.7043V61.6101C185.518 64.5825 184.874 66.605 183.78 67.8736C182.718 69.1059 181.075 69.8056 178.631 69.8056C176.277 69.8056 174.648 69.1368 173.555 67.9438C172.492 66.747 171.846 64.7155 171.846 61.6101V40.6105C171.846 39.9978 171.338 39.5011 170.712 39.5011H164.07C163.443 39.5011 162.936 39.9978 162.936 40.6105V61.8135C162.936 66.8409 164.245 70.8545 167.036 73.6703C169.828 76.4857 173.751 77.8209 178.631 77.8209C181.27 77.8209 183.638 77.4129 185.71 76.5657L185.72 76.5618C187.367 75.8713 188.788 74.9764 189.964 73.8695C191.12 74.9777 192.531 75.8722 194.176 76.5618L194.199 76.5708C196.331 77.4125 198.727 77.8209 201.367 77.8209C206.242 77.8209 210.151 76.5055 212.911 73.7211C215.704 70.904 217.012 66.8722 217.012 61.8135V40.6105Z" fill="white"/>
<path d="M265.826 40.6105C265.826 39.9978 265.318 39.5011 264.692 39.5011H258.049C257.423 39.5011 256.915 39.9978 256.915 40.6105V54.1958H240.688V40.6105C240.688 39.9978 240.18 39.5011 239.554 39.5011H232.912C232.286 39.5011 231.778 39.9978 231.778 40.6105V76.203C231.778 76.8157 232.286 77.3124 232.912 77.3124H239.554C240.18 77.3124 240.688 76.8157 240.688 76.203V62.0585H256.915V76.203C256.915 76.8157 257.423 77.3124 258.049 77.3124H264.692C265.318 77.3124 265.826 76.8157 265.826 76.203V40.6105Z" fill="white"/>
<path fill-rule="evenodd" clip-rule="evenodd" d="M313.412 77.3124C314.038 77.3124 314.546 76.8157 314.546 76.203V56.4746C314.546 52.8518 313.857 49.6996 312.425 47.0634C311.031 44.4027 309.033 42.3713 306.438 41.0063C303.861 39.6507 300.877 38.9927 297.522 38.9927C294.167 38.9927 291.183 39.6507 288.606 41.0063C286.011 42.3713 283.997 44.4018 282.57 47.0607L282.567 47.0656C281.169 49.7009 280.498 52.8521 280.498 56.4746V76.203C280.498 76.8157 281.006 77.3124 281.632 77.3124H288.172C288.798 77.3124 289.306 76.8157 289.306 76.203V68.16H305.636V76.203C305.636 76.8157 306.143 77.3124 306.77 77.3124H313.412ZM303.492 49.2023L303.5 49.2103C304.859 50.5906 305.636 52.7408 305.636 55.8644V60.399H289.306V55.8644C289.306 52.7408 290.083 50.5906 291.442 49.2104L291.449 49.2022C292.823 47.7788 294.777 47.0079 297.471 47.0079C300.165 47.0079 302.119 47.7788 303.492 49.2023Z" fill="white"/>
<path fill-rule="evenodd" clip-rule="evenodd" d="M352.832 76.8303C353.043 77.1321 353.393 77.3124 353.767 77.3124H360.92C361.341 77.3124 361.728 77.084 361.924 76.7193C362.12 76.3546 362.093 75.9136 361.855 75.5742L354.399 64.9752C356.433 63.9701 358.065 62.5811 359.259 60.7998C360.729 58.6595 361.441 56.1331 361.441 53.2713C361.441 50.4861 360.785 48.0189 359.427 45.9161C358.069 43.815 356.117 42.2213 353.621 41.125C351.162 40.0296 348.305 39.5011 345.082 39.5011H330.367C329.741 39.5011 329.233 39.9978 329.233 40.6105V76.203C329.233 76.8157 329.741 77.3124 330.367 77.3124H337.009C337.635 77.3124 338.143 76.8157 338.143 76.203V66.9397H345.082C345.377 66.9397 345.648 66.936 345.891 66.9276L352.832 76.8303ZM350.64 48.8867C351.83 49.8555 352.48 51.2601 352.48 53.2713C352.48 55.2783 351.832 56.7061 350.635 57.7113C349.418 58.699 347.525 59.2804 344.775 59.2804H338.143V47.313H344.775C347.529 47.313 349.424 47.8963 350.64 48.8867Z" fill="white"/>
<path d="M382.872 76.203V63.6855H397.321C397.947 63.6855 398.455 63.1889 398.455 62.5762V56.9831C398.455 56.3704 397.947 55.8737 397.321 55.8737H382.872V53.9323C382.872 51.5072 383.582 49.8509 384.839 48.7633C386.121 47.6545 388.121 47.0079 391.036 47.0079C394.061 47.0079 396.474 47.6945 398.353 48.9914C398.639 49.189 399.003 49.2461 399.338 49.1459C399.673 49.0457 399.942 48.7996 400.067 48.4792L402.162 43.0895C402.351 42.6018 402.168 42.051 401.721 41.766C400.274 40.8427 398.606 40.1541 396.732 39.6879C394.859 39.222 392.857 38.9927 390.73 38.9927C385.662 38.9927 381.53 40.2833 378.473 42.9916C375.433 45.6812 373.961 49.3768 373.961 53.9323V76.203C373.961 76.8157 374.469 77.3124 375.096 77.3124H381.738C382.364 77.3124 382.872 76.8157 382.872 76.203Z" fill="white"/>
<path d="M128.847 71.3445C128.779 75.0143 126.352 77.5629 123.959 78.9445L118.809 81.918C116.351 83.3365 113.477 83.8878 110.902 83.8878C108.327 83.8878 105.453 83.3365 102.996 81.918L97.9444 78.9445V89.0393C97.9444 92.7785 95.481 95.3847 93.0552 96.7852L87.9051 99.7587C85.447 101.177 82.5733 101.729 79.9982 101.729C77.4231 101.729 74.5494 101.177 72.0927 99.7587L64.5464 95.4023L57.0014 99.7587C54.5434 101.177 51.6696 101.729 49.0946 101.729C46.5195 101.729 43.6471 101.177 41.189 99.7587L5.13525 78.9445C2.74179 77.5629 0.314709 75.0143 0.247439 71.3445L0.246094 71.1177V84.3375L0.247439 84.5643C0.314709 88.2341 2.74179 90.7827 5.13525 92.1643L41.189 112.979C43.6471 114.397 46.5195 114.948 49.0946 114.948C51.6696 114.948 54.5434 114.397 57.0014 112.979L64.5464 108.622L72.0927 112.979C74.5494 114.397 77.4231 114.948 79.9982 114.948C82.5733 114.948 85.447 114.397 87.9051 112.979L93.0552 110.005C95.481 108.604 97.9444 105.998 97.9444 102.259V92.1643L102.996 95.1378C105.453 96.5563 108.327 97.1076 110.902 97.1076C113.477 97.1076 116.351 96.5563 118.809 95.1378L123.959 92.1643C126.352 90.7827 128.779 88.2341 128.847 84.5643L128.847 71.3445Z" fill="#CDCDCD"/>
<path d="M0.278339 58.706C0.257024 58.9028 0.246094 59.1026 0.246094 59.3049V71.1176L0.247439 71.3445C0.314709 75.0142 2.74179 77.5629 5.13525 78.9444L41.189 99.7586C43.6471 101.177 46.5195 101.728 49.0946 101.728C51.6696 101.728 54.5434 101.177 57.0014 99.7586L64.5464 95.4023L72.0927 99.7586C74.5494 101.177 77.4231 101.728 79.9982 101.728C82.5733 101.728 85.447 101.177 87.9051 99.7586L93.0552 96.7851C95.481 95.3846 97.9444 92.7784 97.9444 89.0392V78.9444L102.996 81.9179C105.453 83.3364 108.327 83.8877 110.902 83.8877C113.477 83.8877 116.351 83.3364 118.809 81.9179L123.959 78.9444C126.352 77.5629 128.779 75.0142 128.847 71.3445V58.1249C128.779 61.7943 126.352 64.3427 123.959 65.7242L118.809 68.6977C116.351 70.1162 113.477 70.6675 110.902 70.6675C108.327 70.6675 105.453 70.1162 102.996 68.6977L97.8462 65.7242C97.7633 65.6764 97.6803 65.6271 97.5975 65.5765C97.8209 66.306 97.9471 67.0944 97.9471 67.9409C97.9471 68.1883 97.9363 68.4309 97.9155 68.6684C97.9346 68.8547 97.9444 69.0433 97.9444 69.2337V75.819C97.9444 79.5582 95.481 82.1644 93.0552 83.5649L87.9051 86.5384C85.447 87.9568 82.5733 88.5082 79.9982 88.5082C77.4231 88.5082 74.5494 87.9568 72.0927 86.5384L64.5464 82.182L57.0014 86.5384C54.5434 87.9568 51.6696 88.5082 49.0946 88.5082C46.5195 88.5082 43.6471 87.9568 41.189 86.5384L5.13525 65.7242C2.87037 64.4169 0.575377 62.0644 0.278339 58.706Z" fill="#E7E7E7"/>
<path d="M62.089 23.0537C62.0941 23.1072 62.0997 23.1606 62.1058 23.2141C62.3645 25.4409 63.4714 27.1947 64.8487 28.4931C64.7487 28.4914 64.6491 28.4906 64.5499 28.4906C63.745 28.4906 62.9109 28.5445 62.0695 28.6619V23.5202C62.0695 23.3631 62.0761 23.2075 62.089 23.0537Z" fill="#E7E7E7"/>
<path d="M10.2887 39.3806L5.13809 42.3541C2.8434 43.6788 0.515872 46.082 0.270387 49.5022C0.25431 49.6628 0.246094 49.8306 0.246094 50.006V57.8973L0.247439 58.1241C0.314709 61.7938 2.74179 64.3425 5.13525 65.7241L41.189 86.5383C43.6471 87.9567 46.5195 88.5081 49.0946 88.5081C51.6696 88.5081 54.5434 87.9567 57.0014 86.5383L64.5464 82.1819L72.0927 86.5383C74.5494 87.9567 77.4231 88.5081 79.9982 88.5081C82.5733 88.5081 85.447 87.9567 87.9051 86.5383L93.0552 83.5648C95.481 82.1642 97.9444 79.5581 97.9444 75.8189V69.2335C97.9444 69.0432 97.9346 68.8546 97.9155 68.6683C97.9363 68.4307 97.9471 68.1882 97.9471 67.9407C97.9471 67.0942 97.8209 66.3058 97.5974 65.5763C97.6803 65.627 97.7633 65.6762 97.8462 65.7241L102.996 68.6975C105.453 70.1161 108.327 70.6674 110.902 70.6674C113.477 70.6674 116.351 70.1161 118.809 68.6975L123.959 65.7241C126.352 64.3425 128.779 61.7938 128.847 58.1241V50.3618C128.849 50.2752 128.851 50.1879 128.851 50.1C128.851 50.0122 128.849 49.9249 128.847 49.8383L128.848 32.4756C128.85 32.404 128.851 32.3319 128.851 32.2594C128.851 28.5202 126.388 25.914 123.962 24.5134L87.9075 3.69933C85.4504 2.28083 82.5768 1.72949 80.0017 1.72949C77.4266 1.72949 74.553 2.28083 72.0959 3.69932L66.9453 6.67277C64.5192 8.07338 62.0563 10.6796 62.0563 14.4187C62.0563 14.595 62.0618 14.7687 62.0725 14.9399C62.0705 15 62.0695 15.0606 62.0695 15.1217V21.7871C62.052 22.0517 62.0493 22.3167 62.0587 22.5816C62.0655 22.7926 62.0816 23.0035 62.1058 23.2139C62.3645 25.4408 63.4714 27.1945 64.8487 28.4929C64.7487 28.4913 64.6491 28.4905 64.5499 28.4905C61.9748 28.4905 59.1012 29.0418 56.6441 30.4603L51.4935 33.4337C49.0674 34.8344 46.6045 37.4406 46.6045 41.1797C46.6045 41.4229 46.6149 41.6613 46.6351 41.8948C46.6307 41.985 46.6285 42.0757 46.6285 42.1669V48.4067L46.619 48.5591L46.6096 48.7259C46.6029 48.8882 46.6016 49.0506 46.6042 49.2131C46.6096 49.5518 46.6379 49.8903 46.6877 50.2268C46.7493 50.642 46.8402 51.04 46.9566 51.421L26.1003 39.3806C23.6431 37.9621 20.7695 37.4108 18.1945 37.4108C15.6194 37.4108 12.7458 37.9621 10.2887 39.3806Z" fill="#F9F9F9"/>
<path d="M85.1503 8.4709C82.3057 6.82871 77.6937 6.82871 74.8491 8.4709L69.6985 11.4443C66.8539 13.0865 66.8539 15.749 69.6985 17.3912L105.128 37.8446C106.494 38.6332 107.261 39.7028 107.261 40.818V41.5395C107.261 42.6548 106.494 43.7243 105.128 44.513L100.602 47.1257C97.7575 48.7678 97.7575 51.4304 100.602 53.0725L105.753 56.046C108.597 57.6882 113.209 57.6882 116.054 56.046L121.205 53.0725C124.049 51.4304 124.049 48.7678 121.205 47.1257L116.679 44.513C115.313 43.7243 114.545 42.6548 114.545 41.5395V40.818C114.545 39.7028 115.313 38.6332 116.679 37.8446L121.205 35.2319C124.049 33.5897 124.049 30.9272 121.205 29.285L85.1503 8.4709Z" fill="black"/>
<path d="M23.3431 44.1522C20.4985 42.51 15.8865 42.51 13.0419 44.1522L7.89126 47.1256C5.04666 48.7678 5.04666 51.4303 7.89126 53.0725L43.9455 73.8866C46.7901 75.5288 51.4021 75.5288 54.2467 73.8866L64.5479 67.9397L23.3431 44.1522Z" fill="black"/>
<path d="M83.6417 59.3802C83.6417 60.4954 84.4092 61.565 85.7752 62.3536L90.3009 64.9663C93.1455 66.6085 93.1455 69.271 90.3009 70.9132L85.1503 73.8866C82.3057 75.5288 77.6937 75.5288 74.8491 73.8866L64.5479 67.9397L74.2242 62.3536C75.5903 61.565 76.3577 60.4954 76.3577 59.3802L76.3577 58.6587C76.3577 57.5434 75.5903 56.4738 74.2242 55.6852L54.2467 44.1522C51.4021 42.51 51.4021 39.8475 54.2467 38.2053L59.3973 35.2319C62.2419 33.5897 66.8539 33.5897 69.6985 35.2319L90.3009 47.1257C93.1455 48.7678 93.1455 51.4304 90.3009 53.0725L85.7752 55.6852C84.4092 56.4738 83.6417 57.5434 83.6417 58.6587L83.6417 59.3802Z" fill="black"/>
</svg>
