<svg width="463" height="512" viewBox="0 0 463 512" fill="none" xmlns="http://www.w3.org/2000/svg">
<rect width="463" height="512" fill="white"/>
<path d="M132.557 405.039C132.557 404.159 131.792 403.446 130.847 403.446H120.911C119.966 403.446 119.201 404.159 119.201 405.039V435.175C119.201 439.444 118.24 442.35 116.612 444.171C115.034 445.936 112.597 446.936 108.971 446.936C105.258 446.936 102.761 445.93 101.147 444.159C99.4883 442.339 98.5108 439.438 98.5108 435.175V420.959C98.5108 420.08 97.7453 419.367 96.801 419.367H86.7874C85.8431 419.367 85.0776 420.08 85.0776 420.959V435.175C85.0776 439.44 84.1057 442.343 82.4569 444.163C80.8553 445.932 78.3779 446.936 74.694 446.936C71.1446 446.936 68.6884 445.976 67.0409 444.264C65.4392 442.546 64.4645 439.631 64.4645 435.175V405.039C64.4645 404.159 63.699 403.446 62.7547 403.446H52.7411C51.7968 403.446 51.0312 404.159 51.0312 405.039V435.466C51.0312 442.681 53.0049 448.441 57.2137 452.482C61.4219 456.522 67.3366 458.438 74.694 458.438C78.672 458.438 82.242 457.853 85.3669 456.637L85.3809 456.631C87.8652 455.64 90.0069 454.356 91.7797 452.768C93.5226 454.358 95.6495 455.642 98.1305 456.631L98.164 456.644C101.379 457.852 104.992 458.438 108.971 458.438C116.321 458.438 122.214 456.551 126.375 452.555C130.586 448.512 132.557 442.726 132.557 435.466V405.039Z" fill="#494E62"/>
<path d="M206.15 405.039C206.15 404.159 205.385 403.446 204.44 403.446H194.427C193.482 403.446 192.717 404.159 192.717 405.039V424.534H168.252V405.039C168.252 404.159 167.487 403.446 166.543 403.446H156.529C155.585 403.446 154.819 404.159 154.819 405.039V456.117C154.819 456.996 155.585 457.709 156.529 457.709H166.543C167.487 457.709 168.252 456.996 168.252 456.117V435.818H192.717V456.117C192.717 456.996 193.482 457.709 194.427 457.709H204.44C205.385 457.709 206.15 456.996 206.15 456.117V405.039Z" fill="#494E62"/>
<path fill-rule="evenodd" clip-rule="evenodd" d="M277.892 457.709C278.836 457.709 279.601 456.996 279.601 456.117V427.805C279.601 422.606 278.564 418.082 276.404 414.299C274.303 410.481 271.291 407.565 267.378 405.607C263.493 403.661 258.994 402.717 253.936 402.717C248.878 402.717 244.379 403.661 240.494 405.607C236.582 407.565 233.546 410.479 231.394 414.295L231.39 414.302C229.283 418.084 228.271 422.606 228.271 427.805V456.117C228.271 456.996 229.036 457.709 229.98 457.709H239.84C240.784 457.709 241.55 456.996 241.55 456.117V444.574H266.168V456.117C266.168 456.996 266.934 457.709 267.878 457.709H277.892ZM262.937 417.368L262.949 417.38C264.997 419.361 266.168 422.446 266.168 426.929V433.437H241.55V426.929C241.55 422.446 242.721 419.361 244.769 417.38L244.781 417.368C246.851 415.326 249.798 414.219 253.859 414.219C257.92 414.219 260.867 415.326 262.937 417.368Z" fill="#494E62"/>
<path fill-rule="evenodd" clip-rule="evenodd" d="M337.322 457.017C337.641 457.45 338.168 457.709 338.732 457.709H349.516C350.151 457.709 350.734 457.381 351.03 456.857C351.325 456.334 351.285 455.701 350.925 455.214L339.685 440.004C342.751 438.561 345.211 436.568 347.012 434.012C349.228 430.94 350.302 427.315 350.302 423.208C350.302 419.211 349.312 415.67 347.264 412.652C345.218 409.637 342.275 407.35 338.512 405.777C334.804 404.205 330.497 403.446 325.637 403.446H303.453C302.509 403.446 301.744 404.159 301.744 405.039V456.117C301.744 456.996 302.509 457.709 303.453 457.709H313.467C314.411 457.709 315.177 456.996 315.177 456.117V442.823H325.637C326.083 442.823 326.492 442.818 326.857 442.806L337.322 457.017ZM334.018 416.916C335.812 418.306 336.791 420.322 336.791 423.208C336.791 426.088 335.815 428.137 334.009 429.579C332.175 430.997 329.321 431.831 325.175 431.831H315.177V414.657H325.175C329.328 414.657 332.184 415.494 334.018 416.916Z" fill="#494E62"/>
<path d="M382.611 456.117V438.153H404.394C405.339 438.153 406.104 437.44 406.104 436.561V428.534C406.104 427.655 405.339 426.942 404.394 426.942H382.611V424.156C382.611 420.676 383.682 418.299 385.577 416.738C387.509 415.147 390.525 414.219 394.92 414.219C399.479 414.219 403.118 415.205 405.95 417.066C406.382 417.349 406.93 417.431 407.436 417.287C407.941 417.144 408.347 416.791 408.534 416.331L411.693 408.596C411.978 407.896 411.702 407.106 411.028 406.697C408.846 405.372 406.331 404.384 403.506 403.715C400.683 403.046 397.664 402.717 394.458 402.717C386.818 402.717 380.587 404.569 375.979 408.456C371.395 412.315 369.177 417.619 369.177 424.156V456.117C369.177 456.996 369.943 457.709 370.887 457.709H380.901C381.845 457.709 382.611 456.996 382.611 456.117Z" fill="#494E62"/>
<path d="M384.791 236.303C384.617 245.838 378.318 252.459 372.106 256.049L358.74 263.774C352.36 267.46 344.902 268.892 338.219 268.892C331.536 268.892 324.077 267.46 317.701 263.774L304.59 256.049V282.276C304.59 291.991 298.197 298.762 291.901 302.4L278.535 310.126C272.155 313.811 264.697 315.244 258.014 315.244C251.331 315.244 243.872 313.811 237.496 310.126L217.911 298.808L198.33 310.126C191.95 313.811 184.492 315.244 177.809 315.244C171.126 315.244 163.671 313.811 157.291 310.126L63.7202 256.049C57.5084 252.459 51.2093 245.838 51.0347 236.303L51.0312 235.714V270.06L51.0347 270.649C51.2093 280.184 57.5084 286.805 63.7202 290.395L157.291 344.472C163.671 348.157 171.126 349.59 177.809 349.59C184.492 349.59 191.95 348.157 198.33 344.472L217.911 333.154L237.496 344.472C243.872 348.157 251.331 349.59 258.014 349.59C264.697 349.59 272.155 348.157 278.535 344.472L291.901 336.747C298.197 333.108 304.59 326.337 304.59 316.622V290.395L317.701 298.12C324.077 301.806 331.536 303.238 338.219 303.238C344.902 303.238 352.36 301.806 358.74 298.12L372.106 290.395C378.318 286.805 384.617 280.184 384.791 270.649L384.791 236.303Z" fill="#F4FAF4"/>
<path d="M51.1149 203.468C51.0596 203.979 51.0312 204.498 51.0312 205.024V235.714L51.0347 236.304C51.2093 245.838 57.5084 252.459 63.7202 256.049L157.291 310.126C163.671 313.811 171.126 315.244 177.809 315.244C184.492 315.244 191.95 313.811 198.33 310.126L217.911 298.808L237.496 310.126C243.872 313.811 251.331 315.244 258.014 315.244C264.697 315.244 272.155 313.811 278.535 310.126L291.901 302.401C298.197 298.762 304.59 291.991 304.59 282.276V256.049L317.701 263.774C324.077 267.46 331.536 268.892 338.219 268.892C344.902 268.892 352.36 267.46 358.74 263.774L372.106 256.049C378.318 252.459 384.617 245.838 384.791 236.304V201.958C384.616 211.491 378.317 218.112 372.106 221.702L358.74 229.427C352.36 233.112 344.902 234.545 338.219 234.545C331.536 234.545 324.077 233.112 317.701 229.427L304.335 221.702C304.12 221.577 303.905 221.449 303.69 221.318C304.269 223.213 304.597 225.261 304.597 227.461C304.597 228.104 304.569 228.734 304.515 229.351C304.564 229.835 304.59 230.325 304.59 230.819V247.929C304.59 257.644 298.197 264.415 291.901 268.053L278.535 275.779C272.155 279.464 264.697 280.897 258.014 280.897C251.331 280.897 243.872 279.464 237.496 275.779L217.911 264.461L198.33 275.779C191.95 279.464 184.492 280.897 177.809 280.897C171.126 280.897 163.671 279.464 157.291 275.779L63.7202 221.702C57.8421 218.305 51.8858 212.193 51.1149 203.468Z" fill="#B2F2E1"/>
<path d="M211.534 110.84C211.547 110.979 211.561 111.118 211.577 111.256C212.249 117.042 215.121 121.598 218.696 124.972C218.436 124.968 218.178 124.965 217.92 124.965C215.831 124.965 213.667 125.105 211.483 125.41V112.052C211.483 111.644 211.5 111.239 211.534 110.84Z" fill="#B2F2E1"/>
<path d="M77.095 153.259L63.7276 160.984C57.7721 164.426 51.7314 170.67 51.0943 179.556C51.0526 179.973 51.0312 180.409 51.0312 180.865V201.367L51.0347 201.956C51.2093 211.49 57.5084 218.112 63.7202 221.702L157.291 275.779C163.671 279.464 171.126 280.897 177.809 280.897C184.492 280.897 191.95 279.464 198.33 275.779L217.911 264.46L237.496 275.779C243.872 279.464 251.331 280.897 258.014 280.897C264.697 280.897 272.155 279.464 278.535 275.779L291.901 268.053C298.197 264.415 304.59 257.643 304.59 247.929V230.819C304.59 230.325 304.565 229.835 304.515 229.351C304.569 228.734 304.597 228.104 304.597 227.461C304.597 225.261 304.269 223.213 303.69 221.318C303.905 221.449 304.12 221.577 304.335 221.702L317.701 229.427C324.077 233.112 331.536 234.545 338.219 234.545C344.902 234.545 352.36 233.112 358.74 229.427L372.106 221.702C378.318 218.112 384.617 211.49 384.791 201.956V181.789C384.798 181.564 384.802 181.337 384.802 181.109C384.802 180.881 384.798 180.654 384.791 180.429L384.795 135.319C384.799 135.133 384.802 134.946 384.802 134.757C384.802 125.043 378.41 118.272 372.113 114.633L278.541 60.5558C272.164 56.8704 264.706 55.438 258.023 55.438C251.34 55.438 243.882 56.8704 237.505 60.5558L224.137 68.2811C217.841 71.92 211.449 78.6911 211.449 88.4058C211.449 88.8637 211.463 89.315 211.491 89.7598C211.486 89.9159 211.483 90.0733 211.483 90.2322V107.549C211.438 108.237 211.431 108.925 211.455 109.614C211.473 110.162 211.514 110.71 211.577 111.256C212.249 117.042 215.121 121.598 218.696 124.972C218.436 124.968 218.178 124.965 217.92 124.965C211.237 124.965 203.779 126.398 197.402 130.083L184.035 137.808C177.738 141.447 171.346 148.219 171.346 157.933C171.346 158.565 171.373 159.184 171.426 159.791C171.414 160.025 171.408 160.261 171.408 160.498V176.709L171.384 177.105L171.36 177.539C171.342 177.96 171.339 178.383 171.346 178.805C171.36 179.685 171.433 180.564 171.562 181.438C171.722 182.517 171.958 183.551 172.26 184.541L118.131 153.259C111.754 149.574 104.296 148.141 97.6131 148.141C90.93 148.141 83.4721 149.574 77.095 153.259Z" fill="#7BE7CE"/>
<path d="M271.385 72.9524C264.002 68.6858 252.033 68.6858 244.65 72.9524L231.283 80.6776C223.9 84.9442 223.9 91.8616 231.283 96.1282L323.233 149.268C326.779 151.317 328.77 154.096 328.77 156.993V158.868C328.77 161.765 326.779 164.544 323.233 166.593L311.488 173.381C304.105 177.647 304.105 184.565 311.488 188.831L324.855 196.557C332.238 200.823 344.207 200.823 351.59 196.557L364.958 188.831C372.34 184.565 372.34 177.647 364.958 173.381L353.212 166.593C349.667 164.544 347.675 161.765 347.675 158.868V156.993C347.675 154.096 349.667 151.317 353.212 149.268L364.958 142.48C372.34 138.213 372.34 131.296 364.958 127.029L271.385 72.9524Z" fill="#494E62"/>
<path d="M110.975 165.656C103.593 161.389 91.6231 161.389 84.2404 165.656L70.8729 173.381C63.4903 177.647 63.4903 184.565 70.8729 188.831L164.445 242.908C171.828 247.175 183.798 247.175 191.18 242.908L217.915 227.458L110.975 165.656Z" fill="#494E62"/>
<path d="M267.47 205.219C267.47 208.117 269.462 210.896 273.007 212.944L284.753 219.732C292.135 223.999 292.135 230.916 284.753 235.183L271.385 242.908C264.003 247.175 252.033 247.175 244.65 242.908L217.915 227.458L243.028 212.944C246.574 210.896 248.565 208.117 248.565 205.219L248.565 203.345C248.565 200.447 246.574 197.668 243.028 195.619L191.18 165.656C183.798 161.389 183.798 154.472 191.18 150.205L204.548 142.48C211.93 138.213 223.9 138.213 231.283 142.48L284.753 173.381C292.135 177.647 292.135 184.565 284.753 188.831L273.007 195.619C269.462 197.668 267.47 200.447 267.47 203.345L267.47 205.219Z" fill="#494E62"/>
</svg>
