<svg width="404" height="115" viewBox="0 0 404 115" fill="none" xmlns="http://www.w3.org/2000/svg">
<path d="M217.512 40.6105C217.512 39.9978 217.004 39.5011 216.377 39.5011H209.787C209.16 39.5011 208.652 39.9978 208.652 40.6105V61.6101C208.652 64.5852 208.015 66.61 206.935 67.879C205.888 69.109 204.272 69.8056 201.867 69.8056C199.404 69.8056 197.748 69.1045 196.677 67.8709C195.577 66.6025 194.929 64.5811 194.929 61.6101V51.7043C194.929 51.0916 194.421 50.5949 193.795 50.5949H187.153C186.526 50.5949 186.018 51.0916 186.018 51.7043V61.6101C186.018 64.5825 185.374 66.605 184.28 67.8736C183.218 69.1059 181.575 69.8056 179.131 69.8056C176.777 69.8056 175.148 69.1368 174.055 67.9438C172.992 66.747 172.346 64.7155 172.346 61.6101V40.6105C172.346 39.9978 171.838 39.5011 171.212 39.5011H164.57C163.943 39.5011 163.436 39.9978 163.436 40.6105V61.8135C163.436 66.8409 164.745 70.8545 167.536 73.6703C170.328 76.4857 174.251 77.8209 179.131 77.8209C181.77 77.8209 184.138 77.4129 186.21 76.5657L186.22 76.5618C187.867 75.8713 189.288 74.9764 190.464 73.8695C191.62 74.9777 193.031 75.8722 194.676 76.5618L194.699 76.5708C196.831 77.4125 199.227 77.8209 201.867 77.8209C206.742 77.8209 210.651 76.5055 213.411 73.7211C216.204 70.904 217.512 66.8722 217.512 61.8135V40.6105Z" fill="black"/>
<path d="M266.326 40.6105C266.326 39.9978 265.818 39.5011 265.192 39.5011H258.549C257.923 39.5011 257.415 39.9978 257.415 40.6105V54.1958H241.188V40.6105C241.188 39.9978 240.68 39.5011 240.054 39.5011H233.412C232.786 39.5011 232.278 39.9978 232.278 40.6105V76.203C232.278 76.8157 232.786 77.3124 233.412 77.3124H240.054C240.68 77.3124 241.188 76.8157 241.188 76.203V62.0585H257.415V76.203C257.415 76.8157 257.923 77.3124 258.549 77.3124H265.192C265.818 77.3124 266.326 76.8157 266.326 76.203V40.6105Z" fill="black"/>
<path fill-rule="evenodd" clip-rule="evenodd" d="M313.912 77.3124C314.538 77.3124 315.046 76.8157 315.046 76.203V56.4746C315.046 52.8518 314.357 49.6996 312.925 47.0634C311.531 44.4027 309.533 42.3713 306.938 41.0063C304.361 39.6507 301.377 38.9927 298.022 38.9927C294.667 38.9927 291.683 39.6507 289.106 41.0063C286.511 42.3713 284.497 44.4018 283.07 47.0607L283.067 47.0656C281.669 49.7009 280.998 52.8521 280.998 56.4746V76.203C280.998 76.8157 281.506 77.3124 282.132 77.3124H288.672C289.298 77.3124 289.806 76.8157 289.806 76.203V68.16H306.136V76.203C306.136 76.8157 306.643 77.3124 307.27 77.3124H313.912ZM303.992 49.2023L304 49.2103C305.359 50.5906 306.136 52.7408 306.136 55.8644V60.399H289.806V55.8644C289.806 52.7408 290.583 50.5906 291.942 49.2104L291.949 49.2022C293.323 47.7788 295.277 47.0079 297.971 47.0079C300.665 47.0079 302.619 47.7788 303.992 49.2023Z" fill="black"/>
<path fill-rule="evenodd" clip-rule="evenodd" d="M353.332 76.8303C353.543 77.1321 353.893 77.3124 354.267 77.3124H361.42C361.841 77.3124 362.228 77.084 362.424 76.7193C362.62 76.3546 362.593 75.9136 362.355 75.5742L354.899 64.9752C356.933 63.9701 358.565 62.5811 359.759 60.7998C361.229 58.6595 361.941 56.1331 361.941 53.2713C361.941 50.4861 361.285 48.0189 359.927 45.9161C358.569 43.815 356.617 42.2213 354.121 41.125C351.662 40.0296 348.805 39.5011 345.582 39.5011H330.867C330.241 39.5011 329.733 39.9978 329.733 40.6105V76.203C329.733 76.8157 330.241 77.3124 330.867 77.3124H337.509C338.135 77.3124 338.643 76.8157 338.643 76.203V66.9397H345.582C345.877 66.9397 346.148 66.936 346.391 66.9276L353.332 76.8303ZM351.14 48.8867C352.33 49.8555 352.98 51.2601 352.98 53.2713C352.98 55.2783 352.332 56.7061 351.135 57.7113C349.918 58.699 348.025 59.2804 345.275 59.2804H338.643V47.313H345.275C348.029 47.313 349.924 47.8963 351.14 48.8867Z" fill="black"/>
<path d="M383.372 76.203V63.6855H397.821C398.447 63.6855 398.955 63.1889 398.955 62.5762V56.9831C398.955 56.3704 398.447 55.8737 397.821 55.8737H383.372V53.9323C383.372 51.5072 384.082 49.8509 385.339 48.7633C386.621 47.6545 388.621 47.0079 391.536 47.0079C394.561 47.0079 396.974 47.6945 398.853 48.9914C399.139 49.189 399.503 49.2461 399.838 49.1459C400.173 49.0457 400.442 48.7996 400.567 48.4792L402.662 43.0895C402.851 42.6018 402.668 42.051 402.221 41.766C400.774 40.8427 399.106 40.1541 397.232 39.6879C395.359 39.222 393.357 38.9927 391.23 38.9927C386.162 38.9927 382.03 40.2833 378.973 42.9916C375.933 45.6812 374.461 49.3768 374.461 53.9323V76.203C374.461 76.8157 374.969 77.3124 375.596 77.3124H382.238C382.864 77.3124 383.372 76.8157 383.372 76.203Z" fill="black"/>
<path d="M129.347 71.3445C129.279 75.0143 126.852 77.5629 124.459 78.9445L119.309 81.918C116.851 83.3365 113.977 83.8878 111.402 83.8878C108.827 83.8878 105.953 83.3365 103.496 81.918L98.4444 78.9445V89.0393C98.4444 92.7785 95.981 95.3847 93.5552 96.7852L88.4051 99.7587C85.947 101.177 83.0733 101.729 80.4982 101.729C77.9231 101.729 75.0494 101.177 72.5927 99.7587L65.0464 95.4023L57.5014 99.7587C55.0434 101.177 52.1696 101.729 49.5946 101.729C47.0195 101.729 44.1471 101.177 41.689 99.7587L5.63525 78.9445C3.24179 77.5629 0.814709 75.0143 0.747439 71.3445L0.746094 71.1177V84.3375L0.747439 84.5643C0.814709 88.2341 3.24179 90.7827 5.63525 92.1643L41.689 112.979C44.1471 114.397 47.0195 114.948 49.5946 114.948C52.1696 114.948 55.0434 114.397 57.5014 112.979L65.0464 108.622L72.5927 112.979C75.0494 114.397 77.9231 114.948 80.4982 114.948C83.0733 114.948 85.947 114.397 88.4051 112.979L93.5552 110.005C95.981 108.604 98.4444 105.998 98.4444 102.259V92.1643L103.496 95.1378C105.953 96.5563 108.827 97.1076 111.402 97.1076C113.977 97.1076 116.851 96.5563 119.309 95.1378L124.459 92.1643C126.852 90.7827 129.279 88.2341 129.347 84.5643L129.347 71.3445Z" fill="#F4FAF4"/>
<path d="M0.778339 58.706C0.757024 58.9028 0.746094 59.1026 0.746094 59.3049V71.1176L0.747439 71.3445C0.814709 75.0142 3.24179 77.5629 5.63525 78.9444L41.689 99.7586C44.1471 101.177 47.0195 101.728 49.5946 101.728C52.1696 101.728 55.0434 101.177 57.5014 99.7586L65.0464 95.4023L72.5927 99.7586C75.0494 101.177 77.9231 101.728 80.4982 101.728C83.0733 101.728 85.947 101.177 88.4051 99.7586L93.5552 96.7851C95.981 95.3846 98.4444 92.7784 98.4444 89.0392V78.9444L103.496 81.9179C105.953 83.3364 108.827 83.8877 111.402 83.8877C113.977 83.8877 116.851 83.3364 119.309 81.9179L124.459 78.9444C126.852 77.5629 129.279 75.0142 129.347 71.3445V58.1249C129.279 61.7943 126.852 64.3427 124.459 65.7242L119.309 68.6977C116.851 70.1162 113.977 70.6675 111.402 70.6675C108.827 70.6675 105.953 70.1162 103.496 68.6977L98.3462 65.7242C98.2633 65.6764 98.1803 65.6271 98.0975 65.5765C98.3209 66.306 98.4471 67.0944 98.4471 67.9409C98.4471 68.1883 98.4363 68.4309 98.4155 68.6684C98.4346 68.8547 98.4444 69.0433 98.4444 69.2337V75.819C98.4444 79.5582 95.981 82.1644 93.5552 83.5649L88.4051 86.5384C85.947 87.9568 83.0733 88.5082 80.4982 88.5082C77.9231 88.5082 75.0494 87.9568 72.5927 86.5384L65.0464 82.182L57.5014 86.5384C55.0434 87.9568 52.1696 88.5082 49.5946 88.5082C47.0195 88.5082 44.1471 87.9568 41.689 86.5384L5.63525 65.7242C3.37037 64.4169 1.07538 62.0644 0.778339 58.706Z" fill="#E7E7E7"/>
<path d="M62.589 23.0537C62.5941 23.1072 62.5997 23.1606 62.6058 23.2141C62.8645 25.4409 63.9714 27.1947 65.3487 28.4931C65.2487 28.4914 65.1491 28.4906 65.0499 28.4906C64.245 28.4906 63.4109 28.5445 62.5695 28.6619V23.5202C62.5695 23.3631 62.5761 23.2075 62.589 23.0537Z" fill="#E7E7E7"/>
<path d="M10.7887 39.3806L5.63809 42.3541C3.3434 43.6788 1.01587 46.082 0.770387 49.5022C0.75431 49.6628 0.746094 49.8306 0.746094 50.006V57.8973L0.747439 58.1241C0.814709 61.7938 3.24179 64.3425 5.63525 65.7241L41.689 86.5383C44.1471 87.9567 47.0195 88.5081 49.5946 88.5081C52.1696 88.5081 55.0434 87.9567 57.5014 86.5383L65.0464 82.1819L72.5927 86.5383C75.0494 87.9567 77.9231 88.5081 80.4982 88.5081C83.0733 88.5081 85.947 87.9567 88.4051 86.5383L93.5552 83.5648C95.981 82.1642 98.4444 79.5581 98.4444 75.8189V69.2335C98.4444 69.0432 98.4346 68.8546 98.4155 68.6683C98.4363 68.4307 98.4471 68.1882 98.4471 67.9407C98.4471 67.0942 98.3209 66.3058 98.0974 65.5763C98.1803 65.627 98.2633 65.6762 98.3462 65.7241L103.496 68.6975C105.953 70.1161 108.827 70.6674 111.402 70.6674C113.977 70.6674 116.851 70.1161 119.309 68.6975L124.459 65.7241C126.852 64.3425 129.279 61.7938 129.347 58.1241V50.3618C129.349 50.2752 129.351 50.1879 129.351 50.1C129.351 50.0122 129.349 49.9249 129.347 49.8383L129.348 32.4756C129.35 32.404 129.351 32.3319 129.351 32.2594C129.351 28.5202 126.888 25.914 124.462 24.5134L88.4075 3.69933C85.9504 2.28083 83.0768 1.72949 80.5017 1.72949C77.9266 1.72949 75.053 2.28083 72.5959 3.69932L67.4453 6.67277C65.0192 8.07338 62.5563 10.6796 62.5563 14.4187C62.5563 14.595 62.5618 14.7687 62.5725 14.9399C62.5705 15 62.5695 15.0606 62.5695 15.1217V21.7871C62.552 22.0517 62.5493 22.3167 62.5587 22.5816C62.5655 22.7926 62.5816 23.0035 62.6058 23.2139C62.8645 25.4408 63.9714 27.1945 65.3487 28.4929C65.2487 28.4913 65.1491 28.4905 65.0499 28.4905C62.4748 28.4905 59.6012 29.0418 57.1441 30.4603L51.9935 33.4337C49.5674 34.8344 47.1045 37.4406 47.1045 41.1797C47.1045 41.4229 47.1149 41.6613 47.1351 41.8948C47.1307 41.985 47.1285 42.0757 47.1285 42.1669V48.4067L47.119 48.5591L47.1096 48.7259C47.1029 48.8882 47.1016 49.0506 47.1042 49.2131C47.1096 49.5518 47.1379 49.8903 47.1877 50.2268C47.2493 50.642 47.3402 51.04 47.4566 51.421L26.6003 39.3806C24.1431 37.9621 21.2695 37.4108 18.6945 37.4108C16.1194 37.4108 13.2458 37.9621 10.7887 39.3806Z" fill="#CDCDCD"/>
<path d="M85.6503 8.4709C82.8057 6.82871 78.1937 6.82871 75.3491 8.4709L70.1985 11.4443C67.3539 13.0865 67.3539 15.749 70.1985 17.3912L105.628 37.8446C106.994 38.6332 107.761 39.7028 107.761 40.818V41.5395C107.761 42.6548 106.994 43.7243 105.628 44.513L101.102 47.1257C98.2575 48.7678 98.2575 51.4304 101.102 53.0725L106.253 56.046C109.097 57.6882 113.709 57.6882 116.554 56.046L121.705 53.0725C124.549 51.4304 124.549 48.7678 121.705 47.1257L117.179 44.513C115.813 43.7243 115.045 42.6548 115.045 41.5395V40.818C115.045 39.7028 115.813 38.6332 117.179 37.8446L121.705 35.2319C124.549 33.5897 124.549 30.9272 121.705 29.285L85.6503 8.4709Z" fill="black"/>
<path d="M23.8431 44.1522C20.9985 42.51 16.3865 42.51 13.5419 44.1522L8.39126 47.1256C5.54666 48.7678 5.54666 51.4303 8.39126 53.0725L44.4455 73.8866C47.2901 75.5288 51.9021 75.5288 54.7467 73.8866L65.0479 67.9397L23.8431 44.1522Z" fill="black"/>
<path d="M84.1417 59.3802C84.1417 60.4954 84.9092 61.565 86.2752 62.3536L90.8009 64.9663C93.6455 66.6085 93.6455 69.271 90.8009 70.9132L85.6503 73.8866C82.8057 75.5288 78.1937 75.5288 75.3491 73.8866L65.0479 67.9397L74.7242 62.3536C76.0903 61.565 76.8577 60.4954 76.8577 59.3802L76.8577 58.6587C76.8577 57.5434 76.0903 56.4738 74.7242 55.6852L54.7467 44.1522C51.9021 42.51 51.9021 39.8475 54.7467 38.2053L59.8973 35.2319C62.7419 33.5897 67.3539 33.5897 70.1985 35.2319L90.8009 47.1257C93.6455 48.7678 93.6455 51.4304 90.8009 53.0725L86.2752 55.6852C84.9092 56.4738 84.1417 57.5434 84.1417 58.6587L84.1417 59.3802Z" fill="black"/>
</svg>
