<svg width="464" height="512" viewBox="0 0 464 512" fill="none" xmlns="http://www.w3.org/2000/svg">
<path d="M133.309 403.344C133.309 402.465 132.544 401.753 131.599 401.753H121.663C120.718 401.753 119.953 402.465 119.953 403.344V433.448C119.953 437.713 118.992 440.615 117.364 442.434C115.786 444.198 113.349 445.196 109.723 445.196C106.01 445.196 103.513 444.191 101.899 442.423C100.24 440.605 99.2628 437.707 99.2628 433.448V419.247C99.2628 418.369 98.4973 417.657 97.553 417.657H87.5393C86.595 417.657 85.8295 418.369 85.8295 419.247V433.448C85.8295 437.709 84.8576 440.608 83.2089 442.427C81.6072 444.193 79.1299 445.196 75.446 445.196C71.8965 445.196 69.4404 444.237 67.7929 442.527C66.1911 440.812 65.2165 437.899 65.2165 433.448V403.344C65.2165 402.465 64.451 401.753 63.5066 401.753H53.493C52.5487 401.753 51.7832 402.465 51.7832 403.344V433.739C51.7832 440.946 53.7568 446.7 57.9657 450.737C62.1739 454.773 68.0886 456.687 75.446 456.687C79.424 456.687 82.9939 456.102 86.1188 454.887L86.1329 454.882C88.6171 453.892 90.7588 452.609 92.5317 451.022C94.2745 452.611 96.4015 453.893 98.8824 454.882L98.916 454.895C102.131 456.101 105.743 456.687 109.723 456.687C117.073 456.687 122.966 454.801 127.127 450.809C131.337 446.771 133.309 440.991 133.309 433.739V403.344Z" fill="white"/>
<path d="M206.902 403.344C206.902 402.465 206.136 401.753 205.192 401.753H195.179C194.234 401.753 193.469 402.465 193.469 403.344V422.819H169.004V403.344C169.004 402.465 168.239 401.753 167.294 401.753H157.281C156.337 401.753 155.571 402.465 155.571 403.344V454.367C155.571 455.246 156.337 455.958 157.281 455.958H167.294C168.239 455.958 169.004 455.246 169.004 454.367V434.09H193.469V454.367C193.469 455.246 194.234 455.958 195.179 455.958H205.192C206.136 455.958 206.902 455.246 206.902 454.367V403.344Z" fill="white"/>
<path fill-rule="evenodd" clip-rule="evenodd" d="M278.644 455.958C279.588 455.958 280.353 455.246 280.353 454.367V426.086C280.353 420.892 279.316 416.373 277.156 412.594C275.055 408.78 272.043 405.868 268.13 403.911C264.245 401.968 259.746 401.024 254.688 401.024C249.63 401.024 245.131 401.968 241.246 403.911C237.334 405.868 234.298 408.779 232.146 412.59L232.142 412.597C230.035 416.375 229.022 420.893 229.022 426.086V454.367C229.022 455.246 229.788 455.958 230.732 455.958H240.592C241.536 455.958 242.302 455.246 242.302 454.367V442.837H266.92V454.367C266.92 455.246 267.686 455.958 268.63 455.958H278.644ZM263.689 415.66L263.701 415.672C265.749 417.651 266.92 420.733 266.92 425.211V431.711H242.302V425.211C242.302 420.733 243.473 417.651 245.521 415.672L245.533 415.66C247.603 413.62 250.55 412.515 254.611 412.515C258.672 412.515 261.619 413.62 263.689 415.66Z" fill="white"/>
<path fill-rule="evenodd" clip-rule="evenodd" d="M338.074 455.267C338.393 455.699 338.92 455.958 339.484 455.958H350.268C350.903 455.958 351.486 455.63 351.781 455.107C352.077 454.585 352.037 453.952 351.677 453.466L340.437 438.272C343.503 436.831 345.963 434.84 347.764 432.286C349.98 429.218 351.054 425.596 351.054 421.493C351.054 417.501 350.064 413.964 348.016 410.949C345.97 407.937 343.027 405.653 339.264 404.081C335.556 402.511 331.249 401.753 326.389 401.753H304.205C303.261 401.753 302.496 402.465 302.496 403.344V454.367C302.496 455.246 303.261 455.958 304.205 455.958H314.219C315.163 455.958 315.929 455.246 315.929 454.367V441.088H326.389C326.835 441.088 327.244 441.082 327.609 441.071L338.074 455.267ZM334.77 415.208C336.564 416.597 337.543 418.61 337.543 421.493C337.543 424.371 336.567 426.418 334.761 427.858C332.927 429.274 330.073 430.108 325.927 430.108H315.929V412.952H325.927C330.08 412.952 332.936 413.788 334.77 415.208Z" fill="white"/>
<path d="M383.363 454.367V436.423H405.146C406.091 436.423 406.856 435.711 406.856 434.833V426.815C406.856 425.936 406.091 425.224 405.146 425.224H383.363V422.441C383.363 418.965 384.434 416.59 386.329 415.031C388.261 413.442 391.277 412.515 395.672 412.515C400.231 412.515 403.87 413.499 406.702 415.358C407.134 415.641 407.682 415.723 408.188 415.58C408.693 415.436 409.099 415.083 409.286 414.624L412.445 406.897C412.73 406.198 412.454 405.409 411.78 405C409.598 403.677 407.083 402.689 404.258 402.021C401.435 401.353 398.416 401.024 395.21 401.024C387.57 401.024 381.339 402.875 376.731 406.757C372.147 410.613 369.929 415.911 369.929 422.441V454.367C369.929 455.246 370.695 455.958 371.639 455.958H381.653C382.597 455.958 383.363 455.246 383.363 454.367Z" fill="white"/>
<path d="M385.543 234.787C385.369 244.311 379.07 250.926 372.858 254.511L359.492 262.228C353.112 265.91 345.654 267.341 338.971 267.341C332.287 267.341 324.829 265.91 318.453 262.228L305.342 254.511V280.711C305.342 290.415 298.948 297.179 292.653 300.814L279.287 308.531C272.907 312.212 265.449 313.643 258.766 313.643C252.083 313.643 244.624 312.212 238.248 308.531L218.663 297.225L199.082 308.531C192.702 312.212 185.244 313.643 178.561 313.643C171.878 313.643 164.423 312.212 158.043 308.531L64.4721 254.511C58.2604 250.926 51.9613 244.311 51.7867 234.787L51.7832 234.198V268.508L51.7867 269.097C51.9613 278.621 58.2604 285.235 64.4721 288.821L158.043 342.841C164.423 346.522 171.878 347.953 178.561 347.953C185.244 347.953 192.702 346.522 199.082 342.841L218.663 331.534L238.248 342.841C244.624 346.522 252.083 347.953 258.766 347.953C265.449 347.953 272.907 346.522 279.287 342.841L292.653 335.123C298.949 331.489 305.342 324.725 305.342 315.02V288.821L318.453 296.538C324.829 300.22 332.287 301.65 338.971 301.65C345.654 301.65 353.112 300.22 359.492 296.538L372.858 288.821C379.07 285.235 385.369 278.621 385.543 269.097L385.543 234.787Z" fill="#7BE7CE"/>
<path d="M51.8669 201.987C51.8116 202.497 51.7832 203.016 51.7832 203.541V234.199L51.7867 234.788C51.9613 244.312 58.2604 250.926 64.4721 254.512L158.043 308.532C164.423 312.213 171.878 313.644 178.561 313.644C185.244 313.644 192.702 312.213 199.082 308.532L218.663 297.225L238.248 308.532C244.624 312.213 252.083 313.644 258.766 313.644C265.449 313.644 272.907 312.213 279.287 308.532L292.653 300.814C298.948 297.18 305.342 290.416 305.342 280.711V254.512L318.453 262.229C324.829 265.911 332.287 267.341 338.971 267.341C345.654 267.341 353.112 265.911 359.492 262.229L372.858 254.512C379.07 250.926 385.369 244.312 385.543 234.788V200.479C385.368 210.002 379.069 216.616 372.858 220.201L359.492 227.918C353.112 231.6 345.654 233.031 338.971 233.031C332.287 233.031 324.829 231.6 318.453 227.918L305.087 220.201C304.872 220.077 304.657 219.949 304.441 219.818C305.021 221.711 305.349 223.757 305.349 225.954C305.349 226.596 305.321 227.226 305.267 227.842C305.316 228.326 305.342 228.815 305.342 229.309V246.401C305.342 256.105 298.949 262.869 292.653 266.504L279.287 274.221C272.907 277.902 265.449 279.333 258.766 279.333C252.083 279.333 244.624 277.902 238.248 274.221L218.663 262.915L199.082 274.221C192.702 277.902 185.244 279.333 178.561 279.333C171.878 279.333 164.423 277.902 158.043 274.221L64.4721 220.201C58.5941 216.808 52.6378 210.703 51.8669 201.987Z" fill="#B2F2E1"/>
<path d="M212.285 109.458C212.299 109.596 212.313 109.735 212.329 109.874C213.001 115.653 215.873 120.205 219.448 123.574C219.188 123.57 218.93 123.568 218.672 123.568C216.583 123.568 214.419 123.708 212.235 124.013V110.668C212.235 110.26 212.252 109.857 212.285 109.458Z" fill="#B2F2E1"/>
<path d="M77.847 151.831L64.4795 159.548C58.5241 162.986 52.4834 169.223 51.8463 178.1C51.8045 178.517 51.7832 178.952 51.7832 179.407V199.888L51.7867 200.477C51.9613 210.001 58.2604 216.615 64.4721 220.201L158.043 274.221C164.423 277.902 171.878 279.333 178.561 279.333C185.244 279.333 192.702 277.902 199.082 274.221L218.663 262.914L238.248 274.221C244.624 277.902 252.083 279.333 258.766 279.333C265.449 279.333 272.907 277.902 279.287 274.221L292.653 266.503C298.949 262.868 305.342 256.105 305.342 246.4V229.309C305.342 228.815 305.316 228.326 305.267 227.842C305.321 227.226 305.349 226.596 305.349 225.954C305.349 223.757 305.021 221.711 304.441 219.817C304.657 219.949 304.872 220.077 305.087 220.201L318.453 227.918C324.829 231.6 332.287 233.03 338.971 233.03C345.654 233.03 353.112 231.6 359.492 227.918L372.858 220.201C379.07 216.615 385.369 210.001 385.543 200.477V180.331C385.55 180.106 385.554 179.88 385.554 179.652C385.554 179.423 385.55 179.197 385.543 178.972L385.547 133.91C385.551 133.724 385.554 133.537 385.554 133.349C385.554 123.645 379.162 116.881 372.865 113.246L279.293 59.2266C272.916 55.5452 265.458 54.1143 258.775 54.1143C252.092 54.1143 244.634 55.5452 238.257 59.2266L224.889 66.9437C218.593 70.5787 212.201 77.3427 212.201 87.047C212.201 87.5043 212.215 87.9552 212.243 88.3995C212.238 88.5555 212.235 88.7128 212.235 88.8714V106.17C212.19 106.857 212.183 107.545 212.207 108.232C212.225 108.78 212.266 109.327 212.329 109.873C213.001 115.653 215.873 120.204 219.448 123.574C219.188 123.57 218.93 123.568 218.672 123.568C211.989 123.568 204.531 124.999 198.154 128.68L184.787 136.397C178.49 140.032 172.098 146.796 172.098 156.5C172.098 157.131 172.125 157.75 172.178 158.356C172.166 158.59 172.16 158.826 172.16 159.063V175.257L172.136 175.652L172.112 176.085C172.094 176.506 172.091 176.928 172.098 177.35C172.112 178.229 172.185 179.107 172.314 179.981C172.474 181.058 172.71 182.091 173.012 183.08L118.883 151.831C112.506 148.15 105.048 146.719 98.3651 146.719C91.6819 146.719 84.224 148.15 77.847 151.831Z" fill="#F4FAF4"/>
<path d="M272.135 71.6101C264.753 67.3481 252.783 67.3481 245.4 71.6101L232.033 79.3271C224.65 83.5891 224.65 90.4992 232.033 94.7612L323.983 147.844C327.529 149.891 329.52 152.667 329.52 155.561V157.434C329.52 160.328 327.529 163.104 323.983 165.151L312.238 171.932C304.855 176.194 304.855 183.104 312.238 187.366L325.605 195.083C332.988 199.345 344.957 199.345 352.34 195.083L365.708 187.366C373.09 183.104 373.09 176.194 365.708 171.932L353.962 165.151C350.417 163.104 348.425 160.328 348.425 157.434V155.561C348.425 152.667 350.417 149.891 353.962 147.844L365.708 141.063C373.09 136.801 373.09 129.891 365.708 125.629L272.135 71.6101Z" fill="#494E62"/>
<path d="M111.725 164.215C104.343 159.953 92.3731 159.953 84.9904 164.215L71.6229 171.932C64.2403 176.194 64.2403 183.104 71.6229 187.366L165.195 241.385C172.578 245.647 184.548 245.647 191.93 241.385L218.665 225.951L111.725 164.215Z" fill="#494E62"/>
<path d="M268.22 203.736C268.22 206.631 270.212 209.406 273.757 211.453L285.503 218.234C292.885 222.496 292.885 229.406 285.503 233.668L272.135 241.385C264.753 245.647 252.783 245.647 245.4 241.385L218.665 225.951L243.778 211.453C247.324 209.406 249.315 206.631 249.315 203.736L249.315 201.864C249.315 198.969 247.324 196.193 243.778 194.147L191.93 164.215C184.548 159.953 184.548 153.043 191.93 148.781L205.298 141.063C212.68 136.801 224.65 136.801 232.033 141.063L285.503 171.932C292.885 176.194 292.885 183.104 285.503 187.366L273.757 194.147C270.212 196.193 268.22 198.969 268.22 201.864L268.22 203.736Z" fill="#494E62"/>
</svg>
