<svg width="404" height="114" viewBox="0 0 404 114" fill="none" xmlns="http://www.w3.org/2000/svg">
<path d="M218.014 39.6105C218.014 38.9978 217.506 38.5011 216.879 38.5011H210.288C209.662 38.5011 209.154 38.9978 209.154 39.6105V60.6101C209.154 63.5852 208.517 65.61 207.437 66.879C206.39 68.109 204.774 68.8056 202.369 68.8056C199.906 68.8056 198.25 68.1045 197.179 66.8709C196.079 65.6025 195.431 63.5811 195.431 60.6101V50.7043C195.431 50.0916 194.923 49.5949 194.297 49.5949H187.655C187.028 49.5949 186.52 50.0916 186.52 50.7043V60.6101C186.52 63.5825 185.876 65.605 184.782 66.8736C183.72 68.1059 182.077 68.8056 179.633 68.8056C177.279 68.8056 175.649 68.1368 174.557 66.9438C173.494 65.747 172.848 63.7155 172.848 60.6101V39.6105C172.848 38.9978 172.34 38.5011 171.714 38.5011H165.072C164.445 38.5011 163.938 38.9978 163.938 39.6105V60.8135C163.938 65.8409 165.247 69.8545 168.038 72.6703C170.83 75.4857 174.753 76.8209 179.633 76.8209C182.272 76.8209 184.64 76.4129 186.712 75.5657L186.722 75.5618C188.369 74.8713 189.79 73.9764 190.966 72.8695C192.122 73.9777 193.533 74.8722 195.178 75.5618L195.201 75.5708C197.333 76.4125 199.729 76.8209 202.369 76.8209C207.244 76.8209 211.153 75.5055 213.913 72.7211C216.706 69.904 218.014 65.8722 218.014 60.8135V39.6105Z" fill="#494E62"/>
<path d="M266.828 39.6105C266.828 38.9978 266.32 38.5011 265.693 38.5011H259.051C258.425 38.5011 257.917 38.9978 257.917 39.6105V53.1958H241.69V39.6105C241.69 38.9978 241.182 38.5011 240.556 38.5011H233.914C233.288 38.5011 232.78 38.9978 232.78 39.6105V75.203C232.78 75.8157 233.288 76.3124 233.914 76.3124H240.556C241.182 76.3124 241.69 75.8157 241.69 75.203V61.0585H257.917V75.203C257.917 75.8157 258.425 76.3124 259.051 76.3124H265.693C266.32 76.3124 266.828 75.8157 266.828 75.203V39.6105Z" fill="#494E62"/>
<path fill-rule="evenodd" clip-rule="evenodd" d="M314.414 76.3124C315.04 76.3124 315.548 75.8157 315.548 75.203V55.4746C315.548 51.8518 314.859 48.6996 313.427 46.0634C312.033 43.4027 310.035 41.3713 307.44 40.0063C304.863 38.6507 301.879 37.9927 298.524 37.9927C295.169 37.9927 292.185 38.6507 289.608 40.0063C287.013 41.3713 284.999 43.4018 283.572 46.0607L283.569 46.0656C282.171 48.7009 281.5 51.8521 281.5 55.4746V75.203C281.5 75.8157 282.008 76.3124 282.634 76.3124H289.174C289.8 76.3124 290.308 75.8157 290.308 75.203V67.16H306.638V75.203C306.638 75.8157 307.145 76.3124 307.772 76.3124H314.414ZM304.494 48.2023L304.502 48.2103C305.861 49.5906 306.638 51.7408 306.638 54.8644V59.399H290.308V54.8644C290.308 51.7408 291.085 49.5906 292.444 48.2104L292.451 48.2022C293.824 46.7788 295.779 46.0079 298.473 46.0079C301.167 46.0079 303.121 46.7788 304.494 48.2023Z" fill="#494E62"/>
<path fill-rule="evenodd" clip-rule="evenodd" d="M353.834 75.8303C354.045 76.1321 354.395 76.3124 354.769 76.3124H361.922C362.343 76.3124 362.73 76.084 362.926 75.7193C363.122 75.3546 363.095 74.9136 362.857 74.5742L355.401 63.9752C357.435 62.9701 359.067 61.5811 360.261 59.7998C361.731 57.6595 362.443 55.1331 362.443 52.2713C362.443 49.4861 361.787 47.0189 360.428 44.9161C359.071 42.815 357.119 41.2213 354.623 40.125C352.164 39.0296 349.307 38.5011 346.083 38.5011H331.369C330.742 38.5011 330.235 38.9978 330.235 39.6105V75.203C330.235 75.8157 330.742 76.3124 331.369 76.3124H338.011C338.637 76.3124 339.145 75.8157 339.145 75.203V65.9397H346.083C346.379 65.9397 346.65 65.936 346.893 65.9276L353.834 75.8303ZM351.642 47.8867C352.832 48.8555 353.482 50.2601 353.482 52.2713C353.482 54.2783 352.834 55.7061 351.637 56.7113C350.42 57.699 348.527 58.2804 345.777 58.2804H339.145V46.313H345.777C348.531 46.313 350.426 46.8963 351.642 47.8867Z" fill="#494E62"/>
<path d="M383.874 75.203V62.6855H398.323C398.949 62.6855 399.457 62.1889 399.457 61.5762V55.9831C399.457 55.3704 398.949 54.8737 398.323 54.8737H383.874V52.9323C383.874 50.5072 384.584 48.8509 385.841 47.7633C387.123 46.6545 389.123 46.0079 392.038 46.0079C395.063 46.0079 397.476 46.6945 399.355 47.9914C399.641 48.189 400.005 48.2461 400.34 48.1459C400.675 48.0457 400.944 47.7996 401.069 47.4792L403.164 42.0895C403.353 41.6018 403.17 41.051 402.723 40.766C401.276 39.8427 399.608 39.1541 397.734 38.6879C395.861 38.222 393.859 37.9927 391.732 37.9927C386.664 37.9927 382.532 39.2833 379.475 41.9916C376.435 44.6812 374.963 48.3768 374.963 52.9323V75.203C374.963 75.8157 375.471 76.3124 376.098 76.3124H382.74C383.366 76.3124 383.874 75.8157 383.874 75.203Z" fill="#494E62"/>
<path d="M129.847 70.3445C129.779 74.0143 127.352 76.5629 124.959 77.9445L119.809 80.918C117.351 82.3365 114.477 82.8878 111.902 82.8878C109.327 82.8878 106.453 82.3365 103.996 80.918L98.9444 77.9445V88.0393C98.9444 91.7785 96.481 94.3847 94.0552 95.7852L88.9051 98.7587C86.447 100.177 83.5733 100.729 80.9982 100.729C78.4231 100.729 75.5494 100.177 73.0927 98.7587L65.5464 94.4023L58.0014 98.7587C55.5434 100.177 52.6696 100.729 50.0946 100.729C47.5195 100.729 44.6471 100.177 42.189 98.7587L6.13525 77.9445C3.74179 76.5629 1.31471 74.0143 1.24744 70.3445L1.24609 70.1177V83.3375L1.24744 83.5643C1.31471 87.2341 3.74179 89.7827 6.13525 91.1643L42.189 111.979C44.6471 113.397 47.5195 113.948 50.0946 113.948C52.6696 113.948 55.5434 113.397 58.0014 111.979L65.5464 107.622L73.0927 111.979C75.5494 113.397 78.4231 113.948 80.9982 113.948C83.5733 113.948 86.447 113.397 88.9051 111.979L94.0552 109.005C96.481 107.604 98.9444 104.998 98.9444 101.259V91.1643L103.996 94.1378C106.453 95.5563 109.327 96.1076 111.902 96.1076C114.477 96.1076 117.351 95.5563 119.809 94.1378L124.959 91.1643C127.352 89.7827 129.779 87.2341 129.847 83.5643L129.847 70.3445Z" fill="#F4FAF4"/>
<path d="M1.27834 57.706C1.25702 57.9028 1.24609 58.1026 1.24609 58.3049V70.1176L1.24744 70.3445C1.31471 74.0142 3.74179 76.5629 6.13525 77.9444L42.189 98.7586C44.6471 100.177 47.5195 100.728 50.0946 100.728C52.6696 100.728 55.5434 100.177 58.0014 98.7586L65.5464 94.4023L73.0927 98.7586C75.5494 100.177 78.4231 100.728 80.9982 100.728C83.5733 100.728 86.447 100.177 88.9051 98.7586L94.0552 95.7851C96.481 94.3846 98.9444 91.7784 98.9444 88.0392V77.9444L103.996 80.9179C106.453 82.3364 109.327 82.8877 111.902 82.8877C114.477 82.8877 117.351 82.3364 119.809 80.9179L124.959 77.9444C127.352 76.5629 129.779 74.0142 129.847 70.3445V57.1249C129.779 60.7943 127.352 63.3427 124.959 64.7242L119.809 67.6977C117.351 69.1162 114.477 69.6675 111.902 69.6675C109.327 69.6675 106.453 69.1162 103.996 67.6977L98.8462 64.7242C98.7633 64.6764 98.6803 64.6271 98.5975 64.5765C98.8209 65.306 98.9471 66.0944 98.9471 66.9409C98.9471 67.1883 98.9363 67.4309 98.9155 67.6684C98.9346 67.8547 98.9444 68.0433 98.9444 68.2337V74.819C98.9444 78.5582 96.481 81.1644 94.0552 82.5649L88.9051 85.5384C86.447 86.9568 83.5733 87.5082 80.9982 87.5082C78.4231 87.5082 75.5494 86.9568 73.0927 85.5384L65.5464 81.182L58.0014 85.5384C55.5434 86.9568 52.6696 87.5082 50.0946 87.5082C47.5195 87.5082 44.6471 86.9568 42.189 85.5384L6.13525 64.7242C3.87037 63.4169 1.57538 61.0644 1.27834 57.706Z" fill="#B2F2E1"/>
<path d="M63.089 22.0537C63.0941 22.1072 63.0997 22.1606 63.1058 22.2141C63.3645 24.4409 64.4714 26.1947 65.8487 27.4931C65.7487 27.4914 65.6491 27.4906 65.5499 27.4906C64.745 27.4906 63.9109 27.5445 63.0695 27.6619V22.5202C63.0695 22.3631 63.0761 22.2075 63.089 22.0537Z" fill="#B2F2E1"/>
<path d="M11.2887 38.3806L6.13809 41.3541C3.8434 42.6788 1.51587 45.082 1.27039 48.5022C1.25431 48.6628 1.24609 48.8306 1.24609 49.006V56.8973L1.24744 57.1241C1.31471 60.7938 3.74179 63.3425 6.13525 64.7241L42.189 85.5383C44.6471 86.9567 47.5195 87.5081 50.0946 87.5081C52.6696 87.5081 55.5434 86.9567 58.0014 85.5383L65.5464 81.1819L73.0927 85.5383C75.5494 86.9567 78.4231 87.5081 80.9982 87.5081C83.5733 87.5081 86.447 86.9567 88.9051 85.5383L94.0552 82.5648C96.481 81.1642 98.9444 78.5581 98.9444 74.8189V68.2335C98.9444 68.0432 98.9346 67.8546 98.9155 67.6683C98.9363 67.4307 98.9471 67.1882 98.9471 66.9407C98.9471 66.0942 98.8209 65.3058 98.5974 64.5763C98.6803 64.627 98.7633 64.6762 98.8462 64.7241L103.996 67.6975C106.453 69.1161 109.327 69.6674 111.902 69.6674C114.477 69.6674 117.351 69.1161 119.809 67.6975L124.959 64.7241C127.352 63.3425 129.779 60.7938 129.847 57.1241V49.3618C129.849 49.2752 129.851 49.1879 129.851 49.1C129.851 49.0122 129.849 48.9249 129.847 48.8383L129.848 31.4756C129.85 31.404 129.851 31.3319 129.851 31.2594C129.851 27.5202 127.388 24.914 124.962 23.5134L88.9075 2.69933C86.4504 1.28083 83.5768 0.729492 81.0017 0.729492C78.4266 0.729492 75.553 1.28083 73.0959 2.69932L67.9453 5.67277C65.5192 7.07338 63.0563 9.67959 63.0563 13.4187C63.0563 13.595 63.0618 13.7687 63.0725 13.9399C63.0705 14 63.0695 14.0606 63.0695 14.1217V20.7871C63.052 21.0517 63.0493 21.3167 63.0587 21.5816C63.0655 21.7926 63.0816 22.0035 63.1058 22.2139C63.3645 24.4408 64.4714 26.1945 65.8487 27.4929C65.7487 27.4913 65.6491 27.4905 65.5499 27.4905C62.9748 27.4905 60.1012 28.0418 57.6441 29.4603L52.4935 32.4337C50.0674 33.8344 47.6045 36.4406 47.6045 40.1797C47.6045 40.4229 47.6149 40.6613 47.6351 40.8948C47.6307 40.985 47.6285 41.0757 47.6285 41.1669V47.4067L47.619 47.5591L47.6096 47.7259C47.6029 47.8882 47.6016 48.0506 47.6042 48.2131C47.6096 48.5518 47.6379 48.8903 47.6877 49.2268C47.7493 49.642 47.8402 50.04 47.9566 50.421L27.1003 38.3806C24.6431 36.9621 21.7695 36.4108 19.1945 36.4108C16.6194 36.4108 13.7458 36.9621 11.2887 38.3806Z" fill="#7BE7CE"/>
<path d="M86.1503 7.4709C83.3057 5.82871 78.6937 5.82871 75.8491 7.4709L70.6985 10.4443C67.8539 12.0865 67.8539 14.749 70.6985 16.3912L106.128 36.8446C107.494 37.6332 108.261 38.7028 108.261 39.818V40.5395C108.261 41.6548 107.494 42.7243 106.128 43.513L101.602 46.1257C98.7575 47.7678 98.7575 50.4304 101.602 52.0725L106.753 55.046C109.597 56.6882 114.209 56.6882 117.054 55.046L122.205 52.0725C125.049 50.4304 125.049 47.7678 122.205 46.1257L117.679 43.513C116.313 42.7243 115.545 41.6548 115.545 40.5395V39.818C115.545 38.7028 116.313 37.6332 117.679 36.8446L122.205 34.2319C125.049 32.5897 125.049 29.9272 122.205 28.285L86.1503 7.4709Z" fill="#494E62"/>
<path d="M24.3431 43.1522C21.4985 41.51 16.8865 41.51 14.0419 43.1522L8.89126 46.1256C6.04666 47.7678 6.04666 50.4303 8.89126 52.0725L44.9455 72.8866C47.7901 74.5288 52.4021 74.5288 55.2467 72.8866L65.5479 66.9397L24.3431 43.1522Z" fill="#494E62"/>
<path d="M84.6417 58.3802C84.6417 59.4954 85.4092 60.565 86.7752 61.3536L91.3009 63.9663C94.1455 65.6085 94.1455 68.271 91.3009 69.9132L86.1503 72.8866C83.3057 74.5288 78.6937 74.5288 75.8491 72.8866L65.5479 66.9397L75.2242 61.3536C76.5903 60.565 77.3577 59.4954 77.3577 58.3802L77.3577 57.6587C77.3577 56.5434 76.5903 55.4738 75.2242 54.6852L55.2467 43.1522C52.4021 41.51 52.4021 38.8475 55.2467 37.2053L60.3973 34.2319C63.2419 32.5897 67.8539 32.5897 70.6985 34.2319L91.3009 46.1257C94.1455 47.7678 94.1455 50.4304 91.3009 52.0725L86.7752 54.6852C85.4092 55.4738 84.6417 56.5434 84.6417 57.6587L84.6417 58.3802Z" fill="#494E62"/>
</svg>
