<svg width="174" height="194" viewBox="0 0 174 194" fill="none" xmlns="http://www.w3.org/2000/svg">
<g clip-path="url(#clip0_1118_90420)">
<path d="M39.3207 168.219C39.3207 167.796 38.9512 167.452 38.4957 167.452H33.7044C33.2488 167.452 32.8794 167.794 32.8794 168.219V182.721C32.8794 184.775 32.4171 186.174 31.6306 187.05C30.8691 187.899 29.695 188.381 27.9453 188.381C26.1956 188.381 24.9491 187.897 24.1717 187.045C23.3716 186.169 22.9002 184.772 22.9002 182.721V175.88C22.9002 175.457 22.5308 175.115 22.0752 175.115H17.2454C16.7899 175.115 16.4204 175.457 16.4204 175.88V182.721C16.4204 184.772 15.9513 186.171 15.1558 187.048C14.3829 187.899 13.1885 188.381 11.4116 188.381C9.63468 188.381 8.51506 187.919 7.71953 187.095C6.94667 186.269 6.47752 184.865 6.47752 182.721V168.219C6.47752 167.796 6.10809 167.452 5.65253 167.452H0.824988C0.369432 167.452 0 167.794 0 168.219V182.862C0 186.334 0.95191 189.105 2.98265 191.05C5.01112 192.995 7.86459 193.916 11.4138 193.916C13.3335 193.916 15.0538 193.633 16.561 193.049H16.5678C17.7667 192.571 18.7979 191.951 19.6547 191.186C20.4955 191.951 21.52 192.569 22.7166 193.047L22.7325 193.054C24.2828 193.635 26.0257 193.916 27.9453 193.916C31.4901 193.916 34.3322 193.008 36.338 191.084C38.3688 189.137 39.3207 186.355 39.3207 182.859V168.217V168.219Z" fill="white"/>
<path d="M74.8134 168.219C74.8134 167.796 74.444 167.452 73.9884 167.452H69.1586C68.7031 167.452 68.3336 167.794 68.3336 168.219V177.601H56.5345V168.219C56.5345 167.796 56.165 167.452 55.7095 167.452H50.8797C50.4241 167.452 50.0547 167.794 50.0547 168.219V192.8C50.0547 193.223 50.4241 193.565 50.8797 193.565H55.7095C56.165 193.565 56.5345 193.223 56.5345 192.8V183.032H68.3336V192.8C68.3336 193.223 68.7031 193.565 69.1586 193.565H73.9884C74.444 193.565 74.8134 193.223 74.8134 192.8V168.219Z" fill="white"/>
<path fill-rule="evenodd" clip-rule="evenodd" d="M109.414 193.565C109.869 193.565 110.239 193.223 110.239 192.8V179.176C110.239 176.675 109.738 174.497 108.697 172.677C107.684 170.841 106.231 169.437 104.346 168.493C102.471 167.558 100.302 167.103 97.8615 167.103C95.4205 167.103 93.2515 167.558 91.3771 168.493C89.4915 169.435 88.0251 170.838 86.9893 172.674C85.9739 174.497 85.4844 176.672 85.4844 179.174V192.798C85.4844 193.221 85.8538 193.563 86.3094 193.563H91.0644C91.5199 193.563 91.8894 193.221 91.8894 192.798V187.242H103.763V192.798C103.763 193.221 104.133 193.563 104.588 193.563H109.418L109.414 193.565ZM102.202 174.153L102.209 174.159C103.197 175.113 103.761 176.598 103.761 178.755V181.886H91.8871V178.755C91.8871 176.598 92.4514 175.113 93.4396 174.159L93.4464 174.153C94.4459 173.17 95.867 172.638 97.8252 172.638C99.7834 172.638 101.204 173.17 102.204 174.153H102.202Z" fill="white"/>
<path fill-rule="evenodd" clip-rule="evenodd" d="M138.075 193.233C138.229 193.441 138.483 193.566 138.755 193.566H143.956C144.262 193.566 144.543 193.409 144.686 193.156C144.829 192.905 144.809 192.599 144.636 192.363L139.215 185.044C140.695 184.349 141.88 183.392 142.748 182.16C143.818 180.682 144.335 178.937 144.335 176.96C144.335 174.984 143.857 173.333 142.871 171.88C141.885 170.429 140.464 169.329 138.651 168.57C136.862 167.814 134.784 167.45 132.441 167.45H121.743C121.287 167.45 120.918 167.792 120.918 168.217V192.798C120.918 193.221 121.287 193.563 121.743 193.563H126.573C127.028 193.563 127.398 193.221 127.398 192.798V186.4H132.443C132.658 186.4 132.855 186.4 133.032 186.391L138.08 193.23L138.075 193.233ZM136.482 173.936C137.345 174.606 137.819 175.575 137.819 176.965C137.819 178.355 137.347 179.337 136.477 180.032C135.591 180.714 134.215 181.117 132.216 181.117H127.393V172.851H132.216C134.217 172.851 135.596 173.254 136.482 173.938V173.936Z" fill="white"/>
<path d="M159.919 192.798V184.155H170.426C170.882 184.155 171.251 183.813 171.251 183.387V179.525C171.251 179.102 170.882 178.757 170.426 178.757H159.919V177.417C159.919 175.742 160.436 174.599 161.349 173.847C162.281 173.082 163.736 172.634 165.855 172.634C167.974 172.634 169.807 173.109 171.174 174.003C171.383 174.139 171.646 174.18 171.89 174.11C172.133 174.042 172.33 173.87 172.421 173.65L173.944 169.928C174.082 169.591 173.948 169.211 173.624 169.014C172.573 168.375 171.358 167.9 169.998 167.579C168.636 167.257 167.181 167.099 165.633 167.099C161.947 167.099 158.944 167.991 156.721 169.861C154.511 171.717 153.441 174.271 153.441 177.417V192.798C153.441 193.221 153.811 193.563 154.266 193.563H159.096C159.552 193.563 159.921 193.221 159.921 192.798H159.919Z" fill="white"/>
<path d="M121.032 101.848C121.005 101.875 120.98 101.902 120.955 101.927C120.586 102.289 120.216 102.615 119.856 102.905C119.838 102.921 119.82 102.934 119.801 102.95C119.437 103.244 119.083 103.5 118.757 103.72C118.745 103.727 118.736 103.736 118.725 103.742C118.392 103.967 118.086 104.154 117.825 104.306L111.28 108.082C108.292 109.805 104.498 110.754 100.593 110.754C96.6882 110.754 92.8964 109.805 89.9092 108.082L80.9545 102.918L71.9997 108.082C69.0126 109.805 65.2185 110.754 61.3157 110.754C57.4129 110.754 53.6188 109.805 50.6316 108.082L4.80852 81.6562C4.80852 81.6562 4.78813 81.6427 4.77906 81.6359C4.47762 81.4615 4.11726 81.2329 3.72289 80.9612C3.6277 80.8956 3.53251 80.8322 3.43959 80.7643C3.19934 80.59 2.9455 80.3907 2.68939 80.1802C2.51034 80.0331 2.33809 79.8859 2.17037 79.732C1.98679 79.5667 1.80094 79.3924 1.61736 79.2067C1.5063 79.0958 1.39525 78.9849 1.28873 78.8717C1.04168 78.6091 0.801438 78.3306 0.565727 78.0341C0.545329 78.0092 0.522665 77.9865 0.502266 77.9616V87.6804C0.577059 91.6376 3.12455 94.1867 4.96264 95.5133C5.38647 95.8189 5.77177 96.0612 6.08227 96.2377L51.9054 122.661C54.5118 124.165 57.8548 124.993 61.318 124.993C64.7811 124.993 68.1264 124.165 70.7328 122.661L80.9568 116.764L91.183 122.661C93.7871 124.165 97.1302 124.993 100.596 124.993C104.061 124.993 107.404 124.165 110.01 122.661L116.556 118.885C118.233 117.919 122.134 115.132 122.134 110.151V100.614C122.122 100.63 122.109 100.641 122.095 100.657C121.753 101.089 121.395 101.483 121.032 101.843V101.848ZM160.326 95.9615C160.287 96 160.251 96.0408 160.212 96.077C159.85 96.4324 159.489 96.7516 159.136 97.0369C159.113 97.055 159.093 97.0731 159.07 97.0912C158.703 97.3855 158.349 97.6436 158.023 97.8632C158.016 97.8677 158.012 97.8722 158.005 97.8745C157.669 98.0986 157.363 98.2888 157.103 98.4382L150.557 102.214C147.57 103.937 143.776 104.886 139.871 104.886C135.966 104.886 132.174 103.937 129.187 102.214L124.672 99.5611V110.156C124.672 110.645 124.634 111.111 124.579 111.566C124.563 111.698 124.543 111.824 124.525 111.951C124.473 112.295 124.405 112.63 124.325 112.954C124.307 113.024 124.3 113.099 124.282 113.169L130.467 116.805C133.062 118.301 136.405 119.13 139.871 119.13C143.336 119.13 146.679 118.301 149.286 116.798L155.831 113.022C157.479 112.073 161.318 109.339 161.409 104.451V94.7481C161.386 94.7753 161.364 94.7957 161.341 94.8251C161.012 95.2371 160.67 95.6152 160.323 95.9615H160.326ZM160.326 79.1796C160.287 79.2181 160.251 79.2566 160.212 79.295C159.852 79.6482 159.492 79.9651 159.14 80.2504C159.115 80.2708 159.093 80.2911 159.068 80.3115C158.71 80.599 158.363 80.8503 158.043 81.0676C158.027 81.079 158.012 81.0903 157.996 81.1016C157.683 81.3121 157.397 81.4865 157.15 81.6313C157.137 81.6381 157.119 81.6517 157.105 81.6585L150.559 85.4323C147.572 87.1551 143.776 88.1037 139.873 88.1037C135.97 88.1037 132.176 87.1551 129.189 85.4323L124.665 82.8244C124.674 83.0078 124.677 83.1889 124.677 83.3722C124.677 83.6824 124.665 83.9903 124.64 84.2891C124.661 84.5291 124.672 84.769 124.672 85.0135V93.374C124.672 93.374 124.672 93.3762 124.672 93.3785C124.672 93.8652 124.634 94.3293 124.581 94.7821C124.566 94.9134 124.545 95.0424 124.525 95.1715C124.473 95.5133 124.407 95.8438 124.328 96.1653C124.309 96.2377 124.303 96.3147 124.285 96.3872L130.47 100.023C133.067 101.519 136.41 102.348 139.873 102.348C142.903 102.348 145.843 101.714 148.277 100.548C148.624 100.381 148.962 100.204 149.288 100.016L155.834 96.24C157.479 95.2914 161.321 92.5544 161.411 87.669V77.9662C161.389 77.9933 161.366 78.0137 161.343 78.0409C161.012 78.4551 160.672 78.8309 160.326 79.1796V79.1796ZM155.838 29.3385L110.013 2.91478C107.406 1.41158 104.063 0.583008 100.6 0.583008C97.137 0.583008 93.7939 1.41158 91.1875 2.91478L84.642 6.69089C82.9648 7.65756 79.0643 10.4444 79.0643 15.4249C79.0643 15.6218 79.0711 15.8188 79.0824 16.0112V24.7791C79.0597 25.1572 79.0552 25.4492 79.0665 25.7435C79.0733 25.979 79.0915 26.2121 79.1187 26.4453C79.3793 28.6865 80.4196 30.681 82.2146 32.3698L84.6103 34.6269L80.9613 34.559C77.4982 34.559 74.1551 35.3875 71.5487 36.8907L65.0032 40.6646C63.326 41.6313 59.4255 44.4203 59.4255 49.3985C59.4255 49.6702 59.4368 49.9351 59.4595 50.1954L59.4663 50.2814L59.4617 50.3675C59.4572 50.4603 59.4549 50.5554 59.4549 50.6505L59.4277 59.0516C59.4232 59.2101 59.4209 59.3935 59.4232 59.5768C59.4277 59.9504 59.4595 60.3239 59.5161 60.6975C59.5841 61.148 59.6838 61.5962 59.8176 62.0286L60.7581 65.1097L31.4575 48.2145C28.851 46.7113 25.508 45.8828 22.0449 45.8828C18.5817 45.8828 15.2387 46.7113 12.6323 48.2145L6.0868 51.9884C4.52748 52.8872 0.860366 55.4747 0.53173 60.0545C0.511332 60.2537 0.504533 60.4235 0.504533 60.6024V70.9007C0.511332 71.1587 0.53173 71.41 0.556661 71.6568C0.572526 71.8062 0.592925 71.9511 0.615589 72.096C0.635987 72.2228 0.654119 72.3518 0.67905 72.474C0.708514 72.628 0.744777 72.7751 0.783306 72.9245C0.810504 73.0309 0.837701 73.1396 0.867165 73.2437C0.912494 73.3977 0.962356 73.5494 1.01448 73.6988C1.04621 73.7893 1.07795 73.8799 1.11421 73.9682C1.17314 74.1221 1.23886 74.2715 1.30459 74.4187C1.33859 74.4957 1.37485 74.5726 1.41111 74.6473C1.48364 74.799 1.5607 74.9462 1.64229 75.0888C1.67855 75.1544 1.71482 75.2178 1.75108 75.2812C1.83721 75.4284 1.9256 75.571 2.01852 75.7113C2.05479 75.7657 2.09105 75.82 2.12731 75.8721C2.22477 76.0124 2.32223 76.1505 2.42422 76.2841C2.46048 76.3317 2.49674 76.3769 2.53301 76.4222C2.63726 76.5535 2.74152 76.6825 2.85031 76.8071C2.88657 76.8501 2.9251 76.8908 2.96137 76.9338C3.06789 77.0538 3.17668 77.1715 3.28774 77.2847C3.32626 77.3255 3.36706 77.364 3.40559 77.4047C3.51211 77.5134 3.6209 77.6175 3.72969 77.7194C3.77276 77.7601 3.81582 77.7964 3.85888 77.8371C3.96314 77.9322 4.06739 78.025 4.17165 78.111C4.22151 78.1518 4.26911 78.1903 4.3167 78.231C4.4119 78.308 4.50482 78.385 4.59774 78.4574C4.66347 78.5072 4.72693 78.5548 4.79039 78.6023C4.86292 78.6566 4.93771 78.7132 5.00797 78.7653C5.09863 78.8309 5.18476 78.8898 5.27315 78.9487C5.31394 78.9758 5.35474 79.0053 5.39327 79.0324C5.64938 79.2022 5.88509 79.3471 6.0868 79.4626L51.9099 105.886C54.5163 107.389 57.8594 108.218 61.3225 108.218C64.7856 108.218 68.1309 107.389 70.7373 105.886L80.9613 99.9889L91.1875 105.886C93.7917 107.389 97.1347 108.218 100.6 108.218C104.065 108.218 107.409 107.389 110.015 105.886L116.56 102.11C117.084 101.809 117.825 101.329 118.598 100.659C120.296 99.1875 122.14 96.7992 122.14 93.3762V85.0158C122.14 84.8166 122.131 84.6219 122.111 84.4272L122.1 84.3072L122.111 84.1872C122.134 83.9224 122.147 83.6507 122.147 83.3745C122.147 82.9217 122.116 82.4758 122.05 82.0366C122.048 82.0185 122.041 82.0003 122.038 81.9822C121.973 81.5612 121.882 81.1491 121.76 80.7439L120.776 77.5405H120.781L120.776 77.5292L123.602 79.2611L123.926 79.458L130.472 83.2341C133.076 84.7373 136.421 85.5659 139.884 85.5659C143.348 85.5659 146.693 84.7373 149.299 83.2341L155.845 79.458C156.418 79.1275 157.259 78.5751 158.114 77.7964C158.755 77.2123 159.401 76.4969 159.954 75.6434C160.779 74.3689 161.389 72.7932 161.423 70.8871L161.427 38.0747C161.427 33.0943 157.527 30.3074 155.849 29.3408L155.838 29.3385ZM107.939 76.2773L113.691 79.5939C117.306 81.6789 117.306 85.0588 113.691 87.1438L107.146 90.9177C103.531 93.0027 97.6673 93.0027 94.0523 90.9177L80.959 83.3677L67.8657 90.9177C64.2507 93.0027 58.3874 93.0027 54.7724 90.9177L8.94706 64.4939C5.33207 62.4089 5.33207 59.029 8.94706 56.944L15.4926 53.1701C19.1076 51.0851 24.9709 51.0851 28.5859 53.1701L80.9568 83.37L93.2545 76.2773C94.9906 75.2767 95.9652 73.9184 95.9652 72.5035V71.5866C95.9652 70.1717 94.9906 68.8134 93.2545 67.8128L67.8635 53.1724C64.2485 51.0874 64.2485 47.7074 67.8635 45.6224L74.409 41.8486C78.024 39.7636 83.8873 39.7636 87.5023 41.8486L113.687 56.9485C117.302 59.0335 117.302 62.4135 113.687 64.4985L107.934 67.815C106.198 68.8156 105.224 70.174 105.224 71.5889V72.5057C105.224 73.9206 106.198 75.279 107.934 76.2796L107.939 76.2773ZM147.216 53.6274L152.969 56.944C156.584 59.029 156.584 62.4089 152.969 64.4939L146.421 68.2678C142.806 70.3528 136.943 70.3528 133.328 68.2678L126.78 64.4939C123.165 62.4089 123.165 59.029 126.78 56.944L132.532 53.6274C134.268 52.6268 135.243 51.2685 135.243 49.8536V48.9367C135.243 47.5218 134.268 46.1635 132.532 45.1629L87.5023 19.1964C83.8873 17.1114 83.8873 13.7315 87.5023 11.6465L94.0478 7.87263C97.6628 5.78761 103.526 5.78761 107.141 7.87263L152.966 34.2964C156.581 36.3814 156.581 39.7613 152.966 41.8463L147.214 45.1629C145.478 46.1635 144.501 47.5218 144.501 48.9367V49.8536C144.501 51.2685 145.478 52.6268 147.214 53.6274H147.216ZM121.034 118.63C121.007 118.657 120.982 118.684 120.957 118.709C120.588 119.071 120.218 119.397 119.858 119.687C119.84 119.703 119.822 119.716 119.804 119.732C119.439 120.026 119.085 120.282 118.759 120.502C118.748 120.509 118.738 120.518 118.727 120.524C118.394 120.749 118.088 120.936 117.827 121.088L111.282 124.864C108.295 126.587 104.501 127.536 100.596 127.536C96.6905 127.536 92.8987 126.587 89.9115 124.864L80.9568 119.7L72.002 124.864C69.0148 126.587 65.2208 127.536 61.318 127.536C57.4151 127.536 53.6211 126.587 50.6339 124.864L4.80852 98.4405C4.54788 98.2911 4.24191 98.1009 3.90874 97.8768C3.90194 97.8722 3.89514 97.8677 3.88834 97.8632C3.56198 97.6413 3.20614 97.3855 2.83898 97.0889C2.82085 97.0731 2.80271 97.0573 2.78232 97.0414C2.42422 96.7516 2.05705 96.4279 1.68762 96.0657C1.65816 96.0385 1.63096 96.0091 1.60376 95.9797C1.24566 95.622 0.88983 95.2281 0.547595 94.8002C0.53173 94.7821 0.515865 94.7662 0.5 94.7481V104.467C0.590658 109.341 4.43229 112.076 6.07774 113.024L51.9009 139.448C54.5073 140.951 57.8503 141.78 61.3134 141.78C64.7766 141.78 68.1218 140.951 70.7283 139.448L80.9522 133.551L91.1785 139.448C93.7826 140.951 97.1256 141.78 100.591 141.78C104.056 141.78 107.399 140.951 110.006 139.448L116.551 135.672C118.229 134.705 122.129 131.918 122.129 126.938V117.4C122.118 117.416 122.104 117.427 122.091 117.443C121.748 117.876 121.39 118.27 121.028 118.63H121.034Z" fill="white"/>
</g>
<defs>
<clipPath id="clip0_1118_90420">
<rect width="174" height="193.333" fill="white" transform="translate(0 0.583008)"/>
</clipPath>
</defs>
</svg>
