<svg width="403" height="112" viewBox="0 0 403 112" fill="none" xmlns="http://www.w3.org/2000/svg">
<g clip-path="url(#clip0_1118_90412)">
<path d="M215.707 37.0259H209.081C208.451 37.0259 207.942 37.5247 207.942 38.1444V59.2825C207.942 62.2753 207.301 64.3158 206.218 65.593C205.165 66.8324 203.543 67.5314 201.124 67.5314C198.706 67.5314 196.985 66.8248 195.91 65.5854C194.804 64.3082 194.152 62.2753 194.152 59.2825V49.3105C194.152 48.6946 193.642 48.192 193.012 48.192H186.338C185.708 48.192 185.198 48.6908 185.198 49.3105V59.2825C185.198 62.2753 184.549 64.3082 183.452 65.5854C182.384 66.8248 180.731 67.5314 178.275 67.5314C175.819 67.5314 174.272 66.8588 173.174 65.6572C172.106 64.4518 171.457 62.4075 171.457 59.2825V38.1444C171.457 37.5285 170.948 37.0259 170.318 37.0259H163.643C163.013 37.0259 162.504 37.5247 162.504 38.1444V59.4866C162.504 64.5463 163.821 68.5857 166.624 71.4197C169.431 74.2538 173.374 75.599 178.279 75.599C180.931 75.599 183.312 75.1871 185.395 74.3369H185.406C187.062 73.6379 188.488 72.7385 189.669 71.6238C190.831 72.7385 192.25 73.6379 193.903 74.3331L193.925 74.3407C196.068 75.1871 198.476 75.599 201.128 75.599C206.029 75.599 209.957 74.2765 212.73 71.4727C215.537 68.6386 216.85 64.5803 216.85 59.4866V38.1444C216.85 37.5285 216.341 37.0259 215.711 37.0259H215.707Z" fill="white"/>
<path d="M264.765 37.0262H258.091C257.461 37.0262 256.952 37.525 256.952 38.1447V51.8199H240.645V38.1447C240.645 37.5288 240.135 37.0262 239.505 37.0262H232.831C232.201 37.0262 231.691 37.525 231.691 38.1447V73.9707C231.691 74.5867 232.201 75.0892 232.831 75.0892H239.505C240.135 75.0892 240.645 74.5904 240.645 73.9707V59.7325H256.952V73.9707C256.952 74.5867 257.461 75.0892 258.091 75.0892H264.765C265.395 75.0892 265.905 74.5904 265.905 73.9707V38.141C265.905 37.525 265.395 37.0225 264.765 37.0225V37.0262Z" fill="white"/>
<path d="M306.724 38.5415C304.136 37.1774 301.136 36.5161 297.763 36.5161C294.39 36.5161 291.39 37.1774 288.802 38.5415C286.195 39.917 284.169 41.9575 282.735 44.6366C281.332 47.293 280.656 50.4671 280.656 54.1136V73.9707C280.656 74.5867 281.166 75.0892 281.796 75.0892H288.368C288.998 75.0892 289.508 74.5905 289.508 73.9707V65.8767H305.92V73.9707C305.92 74.5867 306.43 75.0892 307.06 75.0892H313.734C314.364 75.0892 314.873 74.5905 314.873 73.9707V54.1136C314.873 50.4671 314.179 47.293 312.742 44.6404C311.342 41.9612 309.331 39.917 306.724 38.5453V38.5415ZM305.916 58.0623H289.504V53.4977C289.504 50.3538 290.285 48.1886 291.651 46.8018L291.658 46.7942C293.039 45.3621 295.001 44.5874 297.71 44.5874C300.419 44.5874 302.381 45.3621 303.762 46.7942L303.77 46.8018C305.135 48.1923 305.916 50.3538 305.916 53.4977V58.0623Z" fill="white"/>
<path d="M354.923 62.6645C356.968 61.6518 358.609 60.2536 359.809 58.4625C361.288 56.3087 362.001 53.7656 362.001 50.8862C362.001 48.0068 361.341 45.5998 359.975 43.4837C358.613 41.3676 356.651 39.7654 354.142 38.6621C351.671 37.5587 348.8 37.0259 345.559 37.0259H330.772C330.142 37.0259 329.633 37.5247 329.633 38.1444V73.9704C329.633 74.5863 330.142 75.0889 330.772 75.0889H337.447C338.077 75.0889 338.586 74.5901 338.586 73.9704V64.6483H345.559C345.857 64.6483 346.128 64.6445 346.374 64.637L353.35 74.6052C353.561 74.9075 353.912 75.0889 354.289 75.0889H361.477C361.899 75.0889 362.288 74.8584 362.484 74.4918C362.68 74.1253 362.654 73.6794 362.416 73.3393L354.923 62.672V62.6645ZM351.139 55.3526C349.916 56.3465 348.015 56.9322 345.249 56.9322H338.582V44.8856H345.249C348.019 44.8856 349.92 45.4713 351.143 46.4689C352.339 47.4438 352.991 48.857 352.991 50.8824C352.991 52.9078 352.339 54.34 351.139 55.3526V55.3526Z" fill="white"/>
<path d="M402.479 39.3047C401.027 38.3751 399.348 37.6836 397.465 37.2113C395.582 36.7427 393.571 36.5122 391.432 36.5122C386.339 36.5122 382.184 37.8121 379.113 40.5365C376.057 43.2421 374.578 46.9641 374.578 51.5477V73.9631C374.578 74.579 375.087 75.0816 375.718 75.0816H382.392C383.022 75.0816 383.531 74.5828 383.531 73.9631V61.3648H398.054C398.684 61.3648 399.193 60.866 399.193 60.2463V54.616C399.193 54.0001 398.684 53.5013 398.054 53.5013H383.531V51.5477C383.531 49.1067 384.245 47.4403 385.508 46.3444C386.795 45.2297 388.806 44.576 391.738 44.576C394.669 44.576 397.205 45.2675 399.091 46.5711C399.378 46.7714 399.744 46.8281 400.08 46.7261C400.416 46.6241 400.687 46.3784 400.812 46.0535L402.917 40.6272C403.106 40.136 402.925 39.5805 402.476 39.2933L402.479 39.3047Z" fill="white"/>
<path d="M95.3055 80.3C95.2828 80.3189 95.2639 80.3416 95.2451 80.3643C94.9546 80.6515 94.6603 80.9084 94.3773 81.1389C94.3622 81.1503 94.3471 81.1616 94.3358 81.1729C94.0453 81.4072 93.7661 81.6075 93.5095 81.7851C93.502 81.7889 93.4944 81.7964 93.4869 81.804C93.2228 81.9816 92.9813 82.1289 92.7738 82.2499L87.5972 85.2426C85.2354 86.6067 82.2358 87.3587 79.1495 87.3587C76.0632 87.3587 73.0637 86.6067 70.7018 85.2426L63.6199 81.1465L56.538 85.2426C54.1762 86.6067 51.1766 87.3587 48.0903 87.3587C45.004 87.3587 42.0045 86.6067 39.6426 85.2426L3.40687 64.2934C3.40687 64.2934 3.39178 64.2821 3.38423 64.2783C3.14654 64.1385 2.85979 63.9609 2.5504 63.7417C2.47494 63.6888 2.39948 63.6397 2.3278 63.5868C2.13915 63.447 1.93918 63.292 1.73544 63.122C1.59584 63.0049 1.45624 62.8877 1.32418 62.7668C1.17704 62.6345 1.03366 62.4985 0.886518 62.3511C0.799739 62.2642 0.709188 62.1735 0.626182 62.0866C0.429987 61.8788 0.241338 61.6559 0.0564615 61.4216C0.0413696 61.4027 0.0225046 61.3838 0.0074127 61.3649V69.0697C0.0677805 72.206 2.08255 74.2276 3.53515 75.2781C3.87095 75.52 4.17656 75.7127 4.41803 75.8525L40.6538 96.8017C42.7138 97.992 45.3587 98.6495 48.0979 98.6495C50.8371 98.6495 53.4819 97.992 55.542 96.8017L63.6275 92.1274L71.713 96.8017C73.773 97.992 76.4141 98.6495 79.1571 98.6495C81.9 98.6495 84.5411 97.992 86.6012 96.8017L91.7777 93.8089C93.1058 93.0419 96.1883 90.8313 96.1883 86.8826V79.3214C96.1883 79.3214 96.1695 79.344 96.1581 79.3554C95.8865 79.6992 95.6035 80.0091 95.3168 80.2963L95.3055 80.3ZM126.376 75.6333C126.346 75.6636 126.316 75.6938 126.285 75.724C125.999 76.0074 125.712 76.2568 125.433 76.4835C125.414 76.4986 125.399 76.5138 125.38 76.5251C125.089 76.7594 124.81 76.9634 124.55 77.1373C124.546 77.1373 124.542 77.1448 124.535 77.1486C124.271 77.3262 124.029 77.4773 123.822 77.5945L118.645 80.5872C116.283 81.9513 113.284 82.7033 110.197 82.7033C107.111 82.7033 104.112 81.9513 101.75 80.5872L98.1805 78.4825V86.8826C98.1805 87.2718 98.1503 87.6383 98.1088 88.0011C98.0975 88.1031 98.0824 88.2051 98.0635 88.3071C98.022 88.5792 97.9692 88.8475 97.905 89.1044C97.8899 89.1611 97.8862 89.2216 97.8711 89.2745L102.761 92.1576C104.813 93.3442 107.458 94.0017 110.197 94.0017C112.937 94.0017 115.581 93.3442 117.642 92.1539L122.818 89.1611C124.12 88.4092 127.157 86.2402 127.229 82.3632V74.6698C127.21 74.6924 127.191 74.7075 127.176 74.7302C126.916 75.059 126.644 75.3575 126.372 75.6333H126.376ZM126.376 62.3285C126.346 62.3587 126.316 62.3889 126.285 62.4192C125.999 62.6988 125.716 62.952 125.437 63.1749C125.418 63.19 125.399 63.2089 125.38 63.224C125.097 63.4507 124.822 63.651 124.569 63.8248C124.557 63.8324 124.542 63.8437 124.531 63.8513C124.282 64.0176 124.059 64.1574 123.863 64.2707C123.852 64.2783 123.837 64.2858 123.829 64.2934L118.653 67.2861C116.291 68.654 113.288 69.406 110.205 69.406C107.122 69.406 104.119 68.654 101.757 67.2861L98.1805 65.2192C98.188 65.3628 98.1918 65.5064 98.1918 65.6537C98.1918 65.8994 98.1842 66.145 98.1654 66.3793C98.1805 66.5682 98.1918 66.7609 98.1918 66.9536V73.5815C98.1918 73.9669 98.1616 74.3372 98.1201 74.6962C98.1088 74.802 98.0899 74.904 98.0748 75.0061C98.0333 75.2781 97.9805 75.5389 97.9201 75.792C97.905 75.8487 97.9013 75.913 97.8862 75.9659L102.776 78.849C104.828 80.0355 107.473 80.693 110.213 80.693C112.608 80.693 114.933 80.1905 116.857 79.2647C117.132 79.1324 117.4 78.9926 117.657 78.8415L122.833 75.8487C124.135 75.0967 127.172 72.9278 127.244 69.0508V61.3573C127.225 61.38 127.206 61.3951 127.191 61.4178C126.931 61.7465 126.659 62.0451 126.387 62.3209L126.376 62.3285ZM122.826 22.8144L86.5936 1.86146C84.5336 0.671168 81.8887 0.0136719 79.1495 0.0136719C76.4103 0.0136719 73.7693 0.671168 71.7054 1.86146L66.5289 4.85421C65.2008 5.62129 62.1183 7.83183 62.1183 11.7806C62.1183 11.9355 62.1221 12.0904 62.1334 12.2454V19.1982C62.1145 19.4967 62.1145 19.731 62.1221 19.9615C62.1296 20.1504 62.1409 20.3318 62.1636 20.517C62.3711 22.293 63.1936 23.8763 64.6122 25.2139L66.5063 27.005L63.6199 26.9521C60.8807 26.9521 58.2397 27.6096 56.1758 28.7999L50.9993 31.7927C49.6712 32.5597 46.5887 34.7703 46.5887 38.7191C46.5887 38.9344 46.5962 39.146 46.6151 39.3501L46.6226 39.4181V39.4861C46.6151 39.5617 46.6151 39.6373 46.6151 39.7091L46.5925 46.371C46.5887 46.4957 46.5849 46.643 46.5925 46.7866C46.5962 47.0814 46.6226 47.3799 46.6641 47.6746C46.717 48.0336 46.7962 48.3888 46.9018 48.7289L47.6451 51.1699L24.4752 37.7744C22.4152 36.5803 19.7703 35.9266 17.0311 35.9266C14.2919 35.9266 11.6471 36.5841 9.58702 37.7744L4.41049 40.7671C3.17672 41.4813 0.279068 43.5294 0.0187317 47.1645C0.00363972 47.3232 -0.00390625 47.4592 -0.00390625 47.599V55.7648C-0.000133266 55.9689 0.0187317 56.1692 0.0375966 56.3657C0.0489155 56.4828 0.0677805 56.5999 0.0828724 56.7133C0.0979643 56.8153 0.113056 56.9136 0.131921 57.0118C0.154559 57.1327 0.184743 57.2499 0.214927 57.367C0.237565 57.4539 0.25643 57.5371 0.282841 57.6202C0.32057 57.7411 0.3583 57.862 0.399803 57.9792C0.426214 58.051 0.448852 58.1228 0.479036 58.1946C0.528085 58.3155 0.577133 58.4364 0.629955 58.5498C0.656366 58.6102 0.68655 58.6707 0.712961 58.7311C0.769556 58.852 0.833696 58.9692 0.894064 59.0826C0.924248 59.1355 0.950659 59.1846 0.980843 59.2337C1.04876 59.3508 1.12044 59.4642 1.19213 59.5738C1.21854 59.6153 1.24872 59.6607 1.27891 59.7023C1.35437 59.8156 1.4336 59.9214 1.51283 60.0272C1.53924 60.065 1.56943 60.099 1.59961 60.1368C1.68262 60.2426 1.76562 60.3446 1.84863 60.4429C1.87881 60.4769 1.909 60.5109 1.93541 60.5411C2.02219 60.6356 2.10519 60.7301 2.19197 60.8208C2.22215 60.8548 2.25611 60.885 2.2863 60.9152C2.37307 61.0021 2.45608 61.0853 2.54286 61.1646C2.57682 61.1949 2.61077 61.2251 2.64473 61.2591C2.72773 61.3347 2.81074 61.4065 2.88997 61.4783C2.9277 61.5123 2.96543 61.5425 3.00694 61.5727C3.0824 61.6332 3.15408 61.6936 3.22954 61.7503C3.28236 61.7919 3.33141 61.8259 3.38046 61.8637C3.43706 61.9052 3.49742 61.9506 3.55402 61.9922C3.6257 62.0451 3.69362 62.0904 3.76153 62.1358C3.79172 62.1584 3.82567 62.1811 3.85586 62.2C4.0596 62.336 4.24447 62.4494 4.40294 62.5401L40.6387 83.4893C42.6987 84.6796 45.3436 85.3371 48.0828 85.3371C50.822 85.3371 53.4668 84.6796 55.5269 83.4893L63.6124 78.815L71.6979 83.4893C73.7579 84.6796 76.399 85.3371 79.142 85.3371C81.8849 85.3371 84.526 84.6796 86.5861 83.4893L91.7626 80.4965C92.1777 80.2585 92.7625 79.8768 93.3737 79.3478C94.7169 78.1802 96.1732 76.287 96.1732 73.5739V66.9461C96.1732 66.7874 96.1657 66.6324 96.1506 66.4775L96.1393 66.383L96.1468 66.2886C96.1657 66.077 96.1732 65.8653 96.1732 65.6462C96.1732 65.2872 96.1468 64.932 96.0978 64.5844C96.0978 64.5692 96.0902 64.5579 96.0865 64.5428C96.0336 64.2103 95.962 63.8815 95.8639 63.5603L95.0866 61.021V61.0135L97.3202 62.3851L97.5768 62.5439L102.753 65.5366C104.813 66.7269 107.458 67.3844 110.197 67.3844C112.937 67.3844 115.581 66.7269 117.642 65.5366L122.818 62.5439C123.271 62.2831 123.935 61.8448 124.61 61.2251C125.116 60.7603 125.629 60.1935 126.067 59.5171C126.719 58.5082 127.198 57.2574 127.229 55.7459V29.737C127.232 25.7883 124.146 23.5777 122.822 22.8144H122.826ZM84.9486 60.031L89.4988 62.661C92.3588 64.3123 92.3588 66.9952 89.4988 68.6465L84.3223 71.6392C81.4624 73.2905 76.8291 73.2905 73.9692 71.6392L63.6162 65.6537L53.2631 71.6392C50.4032 73.2905 45.7699 73.2905 42.91 71.6392L6.67805 50.6862C3.81813 49.0349 3.81813 46.3521 6.67805 44.7008L11.8546 41.708C14.7145 40.0567 19.3477 40.0567 22.2077 41.708L63.6199 65.65L73.3429 60.0272C74.7163 59.2337 75.486 58.1568 75.486 57.0345V56.309C75.486 55.1867 74.7163 54.1098 73.3429 53.3162L53.2669 41.708C50.4069 40.0567 50.4069 37.3738 53.2669 35.7225L58.4434 32.7298C61.3033 31.0785 65.9365 31.0785 68.7965 32.7298L89.5026 44.7008C92.3625 46.3521 92.3625 49.0349 89.5026 50.6862L84.9524 53.3162C83.579 54.1098 82.8093 55.1867 82.8093 56.309V57.0345C82.8093 58.1568 83.579 59.2337 84.9524 60.0272L84.9486 60.031ZM116.008 42.0746L120.558 44.7045C123.418 46.3558 123.418 49.0387 120.558 50.69L115.382 53.6828C112.522 55.3341 107.888 55.3341 105.028 53.6828L99.8519 50.69C96.992 49.0387 96.992 46.3558 99.8519 44.7045L104.402 42.0746C105.775 41.281 106.545 40.2041 106.545 39.0818V38.3563C106.545 37.234 105.775 36.1571 104.402 35.3636L68.7965 14.7771C65.9365 13.1258 65.9365 10.4429 68.7965 8.79163L73.973 5.79889C76.8329 4.14759 81.4661 4.14759 84.3261 5.79889L120.562 26.7481C123.422 28.3994 123.422 31.0823 120.562 32.7336L116.012 35.3636C114.638 36.1571 113.869 37.234 113.869 38.3563V39.0818C113.869 40.2041 114.642 41.281 116.012 42.0746H116.008ZM95.3055 93.6125C95.2828 93.6313 95.2639 93.654 95.2451 93.6767C94.9546 93.9639 94.6603 94.2208 94.3773 94.4513C94.3622 94.4627 94.3471 94.474 94.3358 94.4853C94.0453 94.7196 93.7661 94.9199 93.5095 95.0975C93.502 95.1013 93.4944 95.1088 93.4869 95.1164C93.2228 95.294 92.9813 95.4414 92.7738 95.5623L87.5972 98.555C85.2354 99.9191 82.2358 100.671 79.1495 100.671C76.0632 100.671 73.0637 99.9191 70.7018 98.555L63.6199 94.4589L56.538 98.555C54.1762 99.9191 51.1766 100.671 48.0903 100.671C45.004 100.671 42.0045 99.9191 39.6426 98.555L3.40687 77.5983C3.19936 77.4811 2.95789 77.33 2.69378 77.1524C2.69 77.1524 2.68246 77.1448 2.67869 77.141C2.41835 76.9672 2.13915 76.7632 1.84863 76.5289C1.83354 76.5175 1.81845 76.5024 1.80335 76.4911C1.52038 76.2606 1.22986 76.0036 0.93934 75.7165C0.916702 75.6938 0.894064 75.6711 0.871426 75.6484C0.588452 75.365 0.305478 75.0514 0.0375966 74.7113C0.0262776 74.6962 0.0111857 74.6849 -0.000133266 74.6698V82.3746C0.0715534 86.2402 3.10881 88.4054 4.41049 89.1573L40.6462 110.107C42.7063 111.297 45.3511 111.954 48.0903 111.954C50.8295 111.954 53.4744 111.297 55.5344 110.107L63.6199 105.432L71.7054 110.107C73.7655 111.297 76.4066 111.954 79.1495 111.954C81.8925 111.954 84.5336 111.297 86.5936 110.107L91.7702 107.114C93.0983 106.347 96.1808 104.136 96.1808 100.191V92.63C96.1808 92.63 96.1619 92.6527 96.1506 92.664C95.8789 93.0079 95.596 93.3177 95.3092 93.6049L95.3055 93.6125Z" fill="white"/>
</g>
<defs>
<clipPath id="clip0_1118_90412">
<rect width="403" height="111.944" fill="white" transform="translate(0 0.0136719)"/>
</clipPath>
</defs>
</svg>
