<svg width="512" height="206" viewBox="0 0 512 206" fill="none" xmlns="http://www.w3.org/2000/svg">
<rect width="512" height="206" fill="black"/>
<g clip-path="url(#clip0_1152_90250)">
<path d="M271.441 82.3936H264.24C263.555 82.3936 263.001 82.9357 263.001 83.6092V106.583C263.001 109.836 262.304 112.054 261.127 113.442C259.983 114.789 258.22 115.548 255.592 115.548C252.963 115.548 251.093 114.781 249.924 113.433C248.723 112.045 248.014 109.836 248.014 106.583V95.7451C248.014 95.0756 247.46 94.5294 246.775 94.5294H239.521C238.836 94.5294 238.283 95.0715 238.283 95.7451V106.583C238.283 109.836 237.577 112.045 236.384 113.433C235.224 114.781 233.427 115.548 230.758 115.548C228.088 115.548 226.407 114.817 225.214 113.511C224.053 112.201 223.348 109.98 223.348 106.583V83.6092C223.348 82.9398 222.794 82.3936 222.11 82.3936H214.856C214.171 82.3936 213.617 82.9357 213.617 83.6092V106.805C213.617 112.304 215.048 116.694 218.095 119.774C221.146 122.855 225.431 124.317 230.762 124.317C233.645 124.317 236.232 123.869 238.496 122.945H238.508C240.308 122.185 241.858 121.208 243.142 119.996C244.405 121.208 245.947 122.185 247.743 122.941L247.767 122.949C250.097 123.869 252.713 124.317 255.596 124.317C260.922 124.317 265.191 122.879 268.205 119.832C271.256 116.752 272.683 112.341 272.683 106.805V83.6092C272.683 82.9398 272.13 82.3936 271.445 82.3936H271.441Z" fill="white"/>
<path d="M324.763 82.3938H317.509C316.824 82.3938 316.27 82.9359 316.27 83.6094V98.4722H298.547V83.6094C298.547 82.94 297.994 82.3938 297.309 82.3938H290.055C289.37 82.3938 288.816 82.9359 288.816 83.6094V122.547C288.816 123.216 289.37 123.762 290.055 123.762H297.309C297.994 123.762 298.547 123.22 298.547 122.547V107.072H316.27V122.547C316.27 123.216 316.824 123.762 317.509 123.762H324.763C325.448 123.762 326.001 123.22 326.001 122.547V83.6053C326.001 82.9359 325.448 82.3896 324.763 82.3896V82.3938Z" fill="white"/>
<path d="M370.363 84.0402C367.55 82.5576 364.29 81.8389 360.624 81.8389C356.958 81.8389 353.698 82.5576 350.885 84.0402C348.051 85.5351 345.849 87.7528 344.291 90.6646C342.765 93.5517 342.031 97.0015 342.031 100.965V122.546C342.031 123.216 342.585 123.762 343.27 123.762H350.413C351.098 123.762 351.651 123.22 351.651 122.546V113.749H369.489V122.546C369.489 123.216 370.043 123.762 370.728 123.762H377.982C378.667 123.762 379.22 123.22 379.22 122.546V100.965C379.22 97.0015 378.466 93.5517 376.903 90.6687C375.382 87.7569 373.196 85.5351 370.363 84.0443V84.0402ZM369.485 105.256H351.647V100.295C351.647 96.8783 352.496 94.5251 353.981 93.0178L353.989 93.0096C355.49 91.4531 357.622 90.6112 360.566 90.6112C363.511 90.6112 365.643 91.4531 367.144 93.0096L367.152 93.0178C368.636 94.5292 369.485 96.8783 369.485 100.295V105.256Z" fill="white"/>
<path d="M422.748 110.259C424.971 109.158 426.755 107.639 428.059 105.692C429.666 103.351 430.441 100.587 430.441 97.4576C430.441 94.3282 429.724 91.7121 428.239 89.4122C426.759 87.1124 424.627 85.3711 421.9 84.1718C419.214 82.9726 416.093 82.3936 412.571 82.3936H396.5C395.815 82.3936 395.262 82.9357 395.262 83.6092V122.547C395.262 123.216 395.815 123.762 396.5 123.762H403.754C404.439 123.762 404.993 123.22 404.993 122.547V112.415H412.571C412.895 112.415 413.19 112.411 413.456 112.403L421.039 123.237C421.268 123.565 421.649 123.762 422.06 123.762H429.871C430.331 123.762 430.753 123.512 430.966 123.113C431.179 122.715 431.151 122.23 430.892 121.861L422.748 110.267V110.259ZM418.635 102.312C417.307 103.392 415.24 104.029 412.234 104.029H404.989V90.9359H412.234C415.244 90.9359 417.311 91.5725 418.64 92.6567C419.94 93.7163 420.649 95.2522 420.649 97.4535C420.649 99.6548 419.94 101.211 418.635 102.312V102.312Z" fill="white"/>
<path d="M474.438 84.87C472.859 83.8597 471.034 83.1081 468.988 82.5947C466.942 82.0855 464.756 81.835 462.431 81.835C456.895 81.835 452.38 83.2477 449.042 86.2088C445.721 89.1493 444.113 93.1946 444.113 98.1763V122.538C444.113 123.208 444.667 123.754 445.352 123.754H452.606C453.291 123.754 453.844 123.212 453.844 122.538V108.846H469.628C470.312 108.846 470.866 108.304 470.866 107.63V101.511C470.866 100.842 470.312 100.3 469.628 100.3H453.844V98.1763C453.844 95.5232 454.619 93.7121 455.993 92.5211C457.391 91.3096 459.577 90.5991 462.763 90.5991C465.949 90.5991 468.705 91.3506 470.755 92.7675C471.067 92.9852 471.465 93.0468 471.83 92.9359C472.195 92.825 472.49 92.5581 472.625 92.2049L474.913 86.3074C475.118 85.7735 474.922 85.1698 474.434 84.8576L474.438 84.87Z" fill="white"/>
<path d="M140.583 129.425C140.558 129.446 140.538 129.47 140.517 129.495C140.202 129.807 139.882 130.086 139.574 130.337C139.558 130.349 139.541 130.362 139.529 130.374C139.213 130.628 138.91 130.846 138.631 131.039C138.623 131.043 138.615 131.051 138.606 131.06C138.319 131.253 138.057 131.413 137.831 131.544L132.205 134.797C129.638 136.28 126.378 137.097 123.024 137.097C119.67 137.097 116.41 136.28 113.843 134.797L106.146 130.345L98.4486 134.797C95.8816 136.28 92.6216 137.097 89.2672 137.097C85.9129 137.097 82.6529 136.28 80.0859 134.797L40.7031 112.028C40.7031 112.028 40.6867 112.016 40.6785 112.012C40.4201 111.86 40.1085 111.667 39.7722 111.429C39.6902 111.371 39.6082 111.318 39.5303 111.26C39.3253 111.108 39.1079 110.94 38.8865 110.755C38.7348 110.628 38.5831 110.501 38.4395 110.369C38.2796 110.225 38.1238 110.078 37.9639 109.917C37.8695 109.823 37.7711 109.724 37.6809 109.63C37.4677 109.404 37.2626 109.162 37.0617 108.907C37.0453 108.887 37.0248 108.866 37.0084 108.846V117.219C37.074 120.628 39.2638 122.825 40.8425 123.967C41.2075 124.23 41.5396 124.439 41.8021 124.591L81.1848 147.36C83.4238 148.654 86.2984 149.368 89.2754 149.368C92.2525 149.368 95.1271 148.654 97.3661 147.36L106.154 142.28L114.941 147.36C117.18 148.654 120.051 149.368 123.032 149.368C126.013 149.368 128.884 148.654 131.123 147.36L136.749 144.107C138.192 143.274 141.542 140.871 141.542 136.579V128.361C141.542 128.361 141.522 128.386 141.51 128.398C141.214 128.772 140.907 129.109 140.595 129.421L140.583 129.425ZM174.352 124.353C174.319 124.386 174.286 124.419 174.253 124.452C173.942 124.76 173.63 125.031 173.327 125.277C173.306 125.294 173.29 125.31 173.269 125.322C172.954 125.577 172.65 125.799 172.367 125.988C172.363 125.988 172.359 125.996 172.351 126C172.064 126.193 171.801 126.357 171.576 126.485L165.95 129.737C163.383 131.22 160.123 132.037 156.768 132.037C153.414 132.037 150.154 131.22 147.587 129.737L143.708 127.45V136.579C143.708 137.002 143.675 137.401 143.63 137.795C143.617 137.906 143.601 138.017 143.581 138.128C143.535 138.423 143.478 138.715 143.408 138.994C143.392 139.056 143.388 139.122 143.371 139.179L148.686 142.313C150.917 143.602 153.791 144.317 156.768 144.317C159.745 144.317 162.62 143.602 164.859 142.308L170.485 139.056C171.9 138.239 175.201 135.881 175.279 131.668V123.306C175.258 123.331 175.238 123.347 175.221 123.372C174.938 123.729 174.643 124.053 174.348 124.353H174.352ZM174.352 109.893C174.319 109.926 174.286 109.958 174.253 109.991C173.942 110.295 173.634 110.57 173.331 110.813C173.31 110.829 173.29 110.85 173.269 110.866C172.962 111.113 172.662 111.33 172.388 111.519C172.375 111.527 172.359 111.54 172.347 111.548C172.076 111.729 171.834 111.881 171.621 112.004C171.609 112.012 171.592 112.02 171.584 112.028L165.958 115.281C163.391 116.768 160.127 117.585 156.776 117.585C153.426 117.585 150.162 116.768 147.595 115.281L143.708 113.035C143.716 113.191 143.72 113.347 143.72 113.507C143.72 113.774 143.712 114.041 143.691 114.295C143.708 114.501 143.72 114.71 143.72 114.92V122.123C143.72 122.542 143.687 122.944 143.642 123.335C143.63 123.45 143.609 123.561 143.593 123.671C143.548 123.967 143.49 124.25 143.425 124.526C143.408 124.587 143.404 124.657 143.388 124.715L148.702 127.848C150.933 129.138 153.808 129.852 156.785 129.852C159.389 129.852 161.915 129.306 164.006 128.3C164.305 128.156 164.596 128.004 164.875 127.84L170.501 124.587C171.916 123.77 175.217 121.413 175.295 117.199V108.837C175.275 108.862 175.254 108.878 175.238 108.903C174.955 109.26 174.659 109.585 174.364 109.885L174.352 109.893ZM170.493 66.947L131.115 44.1743C128.876 42.8806 126.001 42.166 123.024 42.166C120.047 42.166 117.176 42.8806 114.933 44.1743L109.307 47.4269C107.864 48.2606 104.514 50.6632 104.514 54.9549C104.514 55.1233 104.518 55.2916 104.53 55.46V63.0167C104.509 63.3411 104.509 63.5958 104.518 63.8463C104.526 64.0516 104.538 64.2488 104.563 64.45C104.788 66.3802 105.682 68.101 107.224 69.5549L109.283 71.5015L106.146 71.444C103.168 71.444 100.298 72.1586 98.055 73.4523L92.4289 76.705C90.9854 77.5387 87.6352 79.9412 87.6352 84.2329C87.6352 84.467 87.6434 84.697 87.6639 84.9188L87.6721 84.9927V85.0666C87.6639 85.1487 87.6639 85.2309 87.6639 85.3089L87.6393 92.5494C87.6352 92.6849 87.6311 92.8451 87.6393 93.0011C87.6434 93.3215 87.6721 93.6459 87.7172 93.9662C87.7746 94.3564 87.8607 94.7424 87.9755 95.1121L88.7834 97.7651L63.6012 83.2062C61.3622 81.9084 58.4877 81.1979 55.5106 81.1979C52.5335 81.1979 49.6589 81.9125 47.42 83.2062L41.7939 86.4588C40.453 87.235 37.3036 89.461 37.0207 93.4118C37.0043 93.5843 36.9961 93.7321 36.9961 93.8841V102.759C37.0002 102.981 37.0207 103.199 37.0412 103.412C37.0535 103.539 37.074 103.667 37.0904 103.79C37.1068 103.901 37.1232 104.008 37.1437 104.114C37.1683 104.246 37.2011 104.373 37.2339 104.5C37.2585 104.595 37.279 104.685 37.3077 104.776C37.3488 104.907 37.3898 105.038 37.4349 105.166C37.4636 105.244 37.4882 105.322 37.521 105.4C37.5743 105.531 37.6276 105.663 37.685 105.786C37.7137 105.852 37.7465 105.917 37.7752 105.983C37.8367 106.114 37.9064 106.242 37.9721 106.365C38.0049 106.422 38.0336 106.476 38.0664 106.529C38.1402 106.657 38.2181 106.78 38.296 106.899C38.3247 106.944 38.3575 106.993 38.3903 107.038C38.4723 107.162 38.5584 107.277 38.6446 107.392C38.6733 107.433 38.7061 107.47 38.7389 107.511C38.8291 107.626 38.9193 107.737 39.0095 107.843C39.0423 107.88 39.0751 107.917 39.1038 107.95C39.1981 108.053 39.2884 108.156 39.3827 108.254C39.4155 108.291 39.4524 108.324 39.4852 108.357C39.5795 108.451 39.6697 108.542 39.764 108.628C39.8009 108.661 39.8379 108.694 39.8748 108.731C39.965 108.813 40.0552 108.891 40.1413 108.969C40.1823 109.006 40.2233 109.039 40.2684 109.071C40.3504 109.137 40.4283 109.203 40.5104 109.264C40.5678 109.31 40.6211 109.347 40.6744 109.388C40.7359 109.433 40.8015 109.482 40.863 109.527C40.9409 109.585 41.0147 109.634 41.0886 109.683C41.1214 109.708 41.1583 109.733 41.1911 109.753C41.4125 109.901 41.6134 110.024 41.7857 110.123L81.1684 132.891C83.4074 134.185 86.282 134.9 89.259 134.9C92.2361 134.9 95.1107 134.185 97.3496 132.891L106.137 127.811L114.925 132.891C117.164 134.185 120.035 134.9 123.016 134.9C125.997 134.9 128.867 134.185 131.106 132.891L136.732 129.639C137.183 129.38 137.819 128.965 138.483 128.39C139.943 127.121 141.526 125.064 141.526 122.115V114.911C141.526 114.739 141.518 114.571 141.501 114.402L141.489 114.299L141.497 114.197C141.518 113.967 141.526 113.737 141.526 113.499C141.526 113.108 141.497 112.722 141.444 112.345C141.444 112.328 141.436 112.316 141.432 112.299C141.374 111.938 141.296 111.581 141.19 111.232L140.345 108.472V108.464L142.773 109.954L143.052 110.127L148.678 113.38C150.917 114.673 153.791 115.388 156.768 115.388C159.745 115.388 162.62 114.673 164.859 113.38L170.485 110.127C170.977 109.843 171.699 109.367 172.433 108.694C172.982 108.188 173.54 107.572 174.016 106.837C174.725 105.741 175.246 104.381 175.279 102.739V74.4708C175.283 70.1791 171.928 67.7766 170.489 66.947H170.493ZM129.327 107.396L134.272 110.254C137.38 112.049 137.38 114.965 134.272 116.759L128.646 120.012C125.538 121.807 120.502 121.807 117.394 120.012L106.141 113.507L94.8893 120.012C91.7809 121.807 86.7453 121.807 83.637 120.012L44.2584 97.2394C41.1501 95.4447 41.1501 92.5288 44.2584 90.7341L49.8845 87.4815C52.9928 85.6867 58.0284 85.6867 61.1367 87.4815L106.146 113.503L116.713 107.392C118.206 106.529 119.042 105.359 119.042 104.139V103.35C119.042 102.131 118.206 100.96 116.713 100.098L94.8934 87.4815C91.785 85.6867 91.785 82.7709 94.8934 80.9761L100.519 77.7235C103.628 75.9288 108.663 75.9288 111.772 77.7235L134.276 90.7341C137.384 92.5288 137.384 95.4447 134.276 97.2394L129.331 100.098C127.838 100.96 127.002 102.131 127.002 103.35V104.139C127.002 105.359 127.838 106.529 129.331 107.392L129.327 107.396ZM163.083 87.8798L168.029 90.7382C171.137 92.5329 171.137 95.4488 168.029 97.2435L162.403 100.496C159.294 102.291 154.259 102.291 151.15 100.496L145.524 97.2435C142.416 95.4488 142.416 92.5329 145.524 90.7382L150.47 87.8798C151.962 87.0174 152.799 85.8469 152.799 84.6272V83.8386C152.799 82.6189 151.962 81.4484 150.47 80.586L111.772 58.2116C108.663 56.4169 108.663 53.501 111.772 51.7063L117.398 48.4537C120.506 46.659 125.542 46.659 128.65 48.4537L168.033 71.2223C171.141 73.017 171.141 75.9329 168.033 77.7276L163.087 80.586C161.595 81.4484 160.758 82.6189 160.758 83.8386V84.6272C160.758 85.8469 161.599 87.0174 163.087 87.8798H163.083ZM140.583 143.894C140.558 143.914 140.538 143.939 140.517 143.964C140.202 144.276 139.882 144.555 139.574 144.805C139.558 144.818 139.541 144.83 139.529 144.842C139.213 145.097 138.91 145.315 138.631 145.508C138.623 145.512 138.615 145.52 138.606 145.528C138.319 145.721 138.057 145.881 137.831 146.013L132.205 149.266C129.638 150.748 126.378 151.565 123.024 151.565C119.67 151.565 116.41 150.748 113.843 149.266L106.146 144.814L98.4486 149.266C95.8816 150.748 92.6216 151.565 89.2672 151.565C85.9129 151.565 82.6529 150.748 80.0859 149.266L40.7031 126.489C40.4776 126.361 40.2151 126.197 39.9281 126.004C39.924 126.004 39.9158 125.996 39.9117 125.992C39.6287 125.803 39.3253 125.581 39.0095 125.326C38.9931 125.314 38.9767 125.298 38.9603 125.285C38.6528 125.035 38.337 124.756 38.0213 124.443C37.9967 124.419 37.9721 124.394 37.9474 124.37C37.6399 124.062 37.3323 123.721 37.0412 123.351C37.0289 123.335 37.0125 123.322 37.0002 123.306V131.68C37.0781 135.881 40.3791 138.234 41.7939 139.052L81.1766 161.82C83.4156 163.114 86.2902 163.829 89.2672 163.829C92.2443 163.829 95.1189 163.114 97.3579 161.82L106.146 156.74L114.933 161.82C117.172 163.114 120.043 163.829 123.024 163.829C126.005 163.829 128.876 163.114 131.115 161.82L136.741 158.568C138.184 157.734 141.534 155.331 141.534 151.044V142.826C141.534 142.826 141.514 142.851 141.501 142.863C141.206 143.237 140.899 143.573 140.587 143.886L140.583 143.894Z" fill="white"/>
</g>
<defs>
<clipPath id="clip0_1152_90250">
<rect width="438" height="121.667" fill="white" transform="translate(37 42.166)"/>
</clipPath>
</defs>
</svg>
