<svg width="513" height="206" viewBox="0 0 513 206" fill="none" xmlns="http://www.w3.org/2000/svg">
<rect width="512" height="206" transform="translate(0.75)" fill="#494E62"/>
<path d="M273.608 84.1001C273.608 83.4342 273.057 82.8944 272.376 82.8944H265.212C264.532 82.8944 263.98 83.4342 263.98 84.1001V106.924C263.98 110.157 263.287 112.358 262.113 113.737C260.976 115.074 259.219 115.831 256.605 115.831C253.929 115.831 252.128 115.069 250.965 113.728C249.769 112.35 249.064 110.153 249.064 106.924V96.1574C249.064 95.4915 248.512 94.9517 247.832 94.9517H240.613C239.932 94.9517 239.38 95.4915 239.38 96.1574V106.924C239.38 110.154 238.679 112.352 237.491 113.731C236.336 115.07 234.55 115.831 231.895 115.831C229.336 115.831 227.565 115.104 226.377 113.807C225.223 112.507 224.52 110.299 224.52 106.924V84.1001C224.52 83.4342 223.968 82.8944 223.287 82.8944H216.069C215.388 82.8944 214.836 83.4342 214.836 84.1001V107.145C214.836 112.609 216.259 116.971 219.293 120.031C222.327 123.091 226.591 124.542 231.895 124.542C234.762 124.542 237.336 124.099 239.589 123.178L239.599 123.174C241.39 122.423 242.934 121.451 244.212 120.248C245.468 121.452 247.001 122.424 248.79 123.174L248.814 123.184C251.132 124.098 253.736 124.542 256.605 124.542C261.904 124.542 266.152 123.113 269.151 120.086C272.187 117.025 273.608 112.643 273.608 107.145V84.1001Z" fill="white"/>
<path d="M326.662 84.1001C326.662 83.4342 326.11 82.8944 325.429 82.8944H318.21C317.53 82.8944 316.978 83.4342 316.978 84.1001V98.8652H299.341V84.1001C299.341 83.4342 298.789 82.8944 298.109 82.8944H290.89C290.209 82.8944 289.657 83.4342 289.657 84.1001V122.784C289.657 123.45 290.209 123.99 290.89 123.99H298.109C298.789 123.99 299.341 123.45 299.341 122.784V107.411H316.978V122.784C316.978 123.45 317.53 123.99 318.21 123.99H325.429C326.11 123.99 326.662 123.45 326.662 122.784V84.1001Z" fill="white"/>
<path fill-rule="evenodd" clip-rule="evenodd" d="M378.381 123.99C379.062 123.99 379.613 123.45 379.613 122.784V101.342C379.613 97.4046 378.865 93.9786 377.308 91.1134C375.793 88.2217 373.622 86.0139 370.802 84.5303C368.001 83.0569 364.757 82.3418 361.111 82.3418C357.465 82.3418 354.221 83.0569 351.42 84.5303C348.6 86.0138 346.411 88.2207 344.86 91.1105L344.857 91.1159C343.338 93.9801 342.609 97.4049 342.609 101.342V122.784C342.609 123.45 343.161 123.99 343.841 123.99H350.949C351.63 123.99 352.182 123.45 352.182 122.784V114.042H369.929V122.784C369.929 123.45 370.481 123.99 371.162 123.99H378.381ZM367.6 93.4381L367.609 93.4468C369.085 94.947 369.929 97.284 369.929 100.679V105.607H352.182V100.679C352.182 97.284 353.026 94.947 354.503 93.4469L354.511 93.438C356.003 91.891 358.128 91.0532 361.056 91.0532C363.983 91.0532 366.108 91.891 367.6 93.4381Z" fill="white"/>
<path fill-rule="evenodd" clip-rule="evenodd" d="M421.224 123.466C421.454 123.794 421.835 123.99 422.241 123.99H430.015C430.473 123.99 430.893 123.741 431.106 123.345C431.319 122.949 431.29 122.469 431.031 122.1L422.928 110.581C425.139 109.488 426.912 107.979 428.21 106.043C429.808 103.717 430.582 100.971 430.582 97.8605C430.582 94.8334 429.868 92.152 428.392 89.8665C426.917 87.5829 424.795 85.8508 422.082 84.6593C419.409 83.4688 416.304 82.8944 412.801 82.8944H396.808C396.128 82.8944 395.576 83.4342 395.576 84.1001V122.784C395.576 123.45 396.128 123.99 396.808 123.99H404.027C404.708 123.99 405.26 123.45 405.26 122.784V112.716H412.801C413.122 112.716 413.417 112.712 413.68 112.703L421.224 123.466ZM418.843 93.0951C420.136 94.1481 420.842 95.6746 420.842 97.8605C420.842 100.042 420.138 101.594 418.836 102.686C417.514 103.76 415.457 104.391 412.468 104.391H405.26V91.3847H412.468C415.461 91.3847 417.521 92.0186 418.843 93.0951Z" fill="white"/>
<path d="M453.873 122.784V109.179H469.577C470.258 109.179 470.81 108.639 470.81 107.973V101.895C470.81 101.229 470.258 100.689 469.577 100.689H453.873V98.5789C453.873 95.9432 454.646 94.1431 456.012 92.961C457.404 91.7559 459.579 91.0532 462.747 91.0532C466.034 91.0532 468.657 91.7993 470.699 93.2089C471.01 93.4237 471.406 93.4857 471.77 93.3768C472.134 93.268 472.426 93.0005 472.562 92.6522L474.839 86.7944C475.045 86.2644 474.845 85.6657 474.36 85.356C472.787 84.3525 470.974 83.6041 468.937 83.0974C466.902 82.5911 464.726 82.3418 462.414 82.3418C456.906 82.3418 452.415 83.7445 449.092 86.688C445.788 89.6112 444.189 93.6277 444.189 98.5789V122.784C444.189 123.45 444.741 123.99 445.422 123.99H452.641C453.321 123.99 453.873 123.45 453.873 122.784Z" fill="white"/>
<path d="M177.785 117.503C177.712 121.492 175.074 124.262 172.473 125.763L166.875 128.995C164.204 130.537 161.08 131.136 158.282 131.136C155.483 131.136 152.36 130.537 149.69 128.995L144.199 125.763V136.735C144.199 140.799 141.522 143.631 138.885 145.154L133.288 148.385C130.616 149.927 127.493 150.526 124.694 150.526C121.895 150.526 118.772 149.927 116.102 148.385L107.9 143.651L99.7001 148.385C97.0286 149.927 93.9052 150.526 91.1065 150.526C88.3078 150.526 85.1859 149.927 82.5144 148.385L43.3294 125.763C40.7281 124.262 38.0902 121.492 38.0171 117.503L38.0156 117.257V131.625L38.0171 131.871C38.0902 135.86 40.7281 138.63 43.3294 140.131L82.5144 162.753C85.1859 164.295 88.3078 164.894 91.1065 164.894C93.9052 164.894 97.0286 164.295 99.7001 162.753L107.9 158.018L116.102 162.753C118.772 164.295 121.895 164.894 124.694 164.894C127.493 164.894 130.616 164.295 133.288 162.753L138.885 159.521C141.522 157.999 144.199 155.167 144.199 151.103V140.131L149.69 143.363C152.36 144.905 155.483 145.504 158.282 145.504C161.08 145.504 164.204 144.905 166.875 143.363L172.473 140.131C175.074 138.63 177.712 135.86 177.785 131.871L177.785 117.503Z" fill="#7BE7CE"/>
<path d="M38.0507 103.767C38.0275 103.981 38.0156 104.198 38.0156 104.418V117.257L38.0171 117.503C38.0902 121.492 40.7281 124.262 43.3294 125.763L82.5144 148.385C85.1859 149.927 88.3078 150.526 91.1065 150.526C93.9052 150.526 97.0286 149.927 99.7001 148.385L107.9 143.65L116.102 148.385C118.772 149.927 121.895 150.526 124.694 150.526C127.493 150.526 130.616 149.927 133.288 148.385L138.885 145.153C141.522 143.631 144.199 140.799 144.199 136.735V125.763L149.69 128.995C152.36 130.537 155.483 131.136 158.282 131.136C161.08 131.136 164.204 130.537 166.875 128.995L172.473 125.763C175.074 124.262 177.712 121.492 177.785 117.503V103.136C177.712 107.124 175.074 109.893 172.473 111.395L166.875 114.627C164.204 116.168 161.08 116.768 158.282 116.768C155.483 116.768 152.36 116.168 149.69 114.627L144.092 111.395C144.002 111.343 143.912 111.289 143.822 111.234C144.065 112.027 144.202 112.884 144.202 113.804C144.202 114.073 144.19 114.337 144.167 114.595C144.188 114.797 144.199 115.002 144.199 115.209V122.366C144.199 126.43 141.522 129.263 138.885 130.785L133.288 134.017C130.616 135.558 127.493 136.158 124.694 136.158C121.895 136.158 118.772 135.558 116.102 134.017L107.9 129.282L99.7001 134.017C97.0286 135.558 93.9052 136.158 91.1065 136.158C88.3078 136.158 85.1859 135.558 82.5144 134.017L43.3294 111.395C40.8678 109.974 38.3735 107.417 38.0507 103.767Z" fill="#B2F2E1"/>
<path d="M105.229 65.0186C105.235 65.0767 105.241 65.1348 105.248 65.1928C105.529 67.6131 106.732 69.5192 108.229 70.9303C108.12 70.9285 108.012 70.9276 107.904 70.9276C107.029 70.9276 106.123 70.9862 105.208 71.1138V65.5255C105.208 65.3548 105.215 65.1857 105.229 65.0186Z" fill="#B2F2E1"/>
<path d="M48.9304 82.7639L43.3325 85.9955C40.8385 87.4353 38.3088 90.0472 38.042 93.7645C38.0246 93.939 38.0156 94.1214 38.0156 94.312V102.889L38.0171 103.135C38.0902 107.124 40.7281 109.894 43.3294 111.395L82.5144 134.017C85.1859 135.559 88.3078 136.158 91.1065 136.158C93.9052 136.158 97.0286 135.559 99.7001 134.017L107.9 129.282L116.102 134.017C118.772 135.559 121.895 136.158 124.694 136.158C127.493 136.158 130.616 135.559 133.288 134.017L138.885 130.785C141.522 129.263 144.199 126.431 144.199 122.367V115.209C144.199 115.003 144.188 114.798 144.167 114.595C144.19 114.337 144.202 114.073 144.202 113.804C144.202 112.884 144.065 112.027 143.822 111.235C143.912 111.29 144.002 111.343 144.092 111.395L149.69 114.627C152.36 116.169 155.483 116.768 158.282 116.768C161.08 116.768 164.204 116.169 166.875 114.627L172.473 111.395C175.074 109.894 177.712 107.124 177.785 103.135V94.6988C177.788 94.6046 177.789 94.5098 177.789 94.4142C177.789 94.3187 177.788 94.2239 177.785 94.1297L177.786 75.2591C177.788 75.1813 177.789 75.103 177.789 75.0242C177.789 70.9603 175.113 68.1277 172.476 66.6055L133.29 43.9837C130.62 42.442 127.497 41.8428 124.698 41.8428C121.899 41.8428 118.776 42.442 116.106 43.9837L110.508 47.2154C107.871 48.7376 105.194 51.5702 105.194 55.6341C105.194 55.8256 105.2 56.0144 105.212 56.2005C105.209 56.2658 105.208 56.3317 105.208 56.3981V63.6424C105.189 63.9299 105.186 64.218 105.197 64.5058C105.204 64.7352 105.221 64.9644 105.248 65.1931C105.529 67.6133 106.732 69.5194 108.229 70.9306C108.12 70.9288 108.012 70.9279 107.904 70.9279C105.105 70.9279 101.982 71.5271 99.3117 73.0688L93.7138 76.3005C91.077 77.8227 88.4002 80.6553 88.4002 84.7192C88.4002 84.9835 88.4115 85.2426 88.4334 85.4964C88.4286 85.5945 88.4262 85.693 88.4262 85.7922V92.5738L88.416 92.7394L88.4058 92.9207C88.3984 93.0971 88.397 93.2737 88.3999 93.4503C88.4058 93.8184 88.4365 94.1863 88.4906 94.552C88.5576 95.0033 88.6564 95.4358 88.7828 95.8499L66.1152 82.7639C63.4447 81.2222 60.3215 80.623 57.5228 80.623C54.7241 80.623 51.6009 81.2222 48.9304 82.7639Z" fill="#F4FAF4"/>
<path d="M130.295 49.1697C127.204 47.3849 122.191 47.3849 119.1 49.1697L113.502 52.4013C110.41 54.1862 110.41 57.0799 113.502 58.8647L152.008 81.0944C153.493 81.9515 154.327 83.114 154.327 84.3261V85.1102C154.327 86.3223 153.493 87.4848 152.008 88.3419L147.089 91.1815C143.998 92.9663 143.998 95.8601 147.089 97.6449L152.687 100.877C155.779 102.661 160.791 102.661 163.883 100.877L169.481 97.6449C172.573 95.8601 172.573 92.9663 169.481 91.1815L164.562 88.3419C163.077 87.4848 162.243 86.3224 162.243 85.1102V84.3261C162.243 83.114 163.077 81.9515 164.562 81.0944L169.481 78.2548C172.573 76.47 172.573 73.5762 169.481 71.7914L130.295 49.1697Z" fill="#494E62"/>
<path d="M63.1203 87.9498C60.0287 86.165 55.0161 86.165 51.9245 87.9498L46.3265 91.1815C43.2349 92.9663 43.2349 95.8601 46.3265 97.6449L85.512 120.267C88.6037 122.051 93.6162 122.051 96.7079 120.267L107.904 113.803L63.1203 87.9498Z" fill="#494E62"/>
<path d="M128.656 104.5C128.656 105.712 129.49 106.875 130.975 107.732L135.893 110.572C138.985 112.356 138.985 115.25 135.893 117.035L130.295 120.267C127.204 122.051 122.191 122.051 119.1 120.267L107.904 113.803L118.42 107.732C119.905 106.875 120.739 105.712 120.739 104.5L120.739 103.716C120.739 102.504 119.905 101.342 118.42 100.485L96.7079 87.9498C93.6162 86.165 93.6162 83.2713 96.7079 81.4865L102.306 78.2548C105.397 76.47 110.41 76.47 113.502 78.2548L135.893 91.1815C138.985 92.9663 138.985 95.8601 135.893 97.6449L130.975 100.485C129.49 101.342 128.656 102.504 128.656 103.716L128.656 104.5Z" fill="#494E62"/>
</svg>
