<svg width="175" height="195" viewBox="0 0 175 195" fill="none" xmlns="http://www.w3.org/2000/svg">
<path d="M40.0607 168.519C40.0607 168.095 39.6917 167.752 39.2365 167.752H34.4471C33.992 167.752 33.623 168.095 33.623 168.519V183.029C33.623 185.084 33.1599 186.483 32.3751 187.36C31.6144 188.21 30.4399 188.691 28.6925 188.691C26.9028 188.691 25.6989 188.207 24.9213 187.355C24.1216 186.478 23.6505 185.082 23.6505 183.029V176.184C23.6505 175.761 23.2815 175.418 22.8264 175.418H17.9999C17.5447 175.418 17.1758 175.761 17.1758 176.184V183.029C17.1758 185.082 16.7073 186.48 15.9126 187.357C15.1406 188.208 13.9466 188.691 12.1709 188.691C10.4601 188.691 9.27628 188.229 8.4822 187.405C7.71015 186.578 7.24039 185.174 7.24039 183.029V168.519C7.24039 168.095 6.87141 167.752 6.41626 167.752H1.58975C1.1346 167.752 0.765625 168.095 0.765625 168.519V183.169C0.765625 186.643 1.71689 189.416 3.74554 191.362C5.77387 193.307 8.62472 194.23 12.1709 194.23C14.0883 194.23 15.809 193.948 17.3152 193.362L17.322 193.36C18.5194 192.883 19.5517 192.264 20.4062 191.499C21.2462 192.265 22.2714 192.883 23.4672 193.36L23.4834 193.366C25.0331 193.948 26.7742 194.23 28.6925 194.23C32.2349 194.23 35.0752 193.321 37.0808 191.397C39.1104 189.45 40.0607 186.665 40.0607 183.169V168.519Z" fill="white"/>
<path d="M75.532 168.519C75.532 168.095 75.1631 167.752 74.7079 167.752H69.8814C69.4262 167.752 69.0573 168.095 69.0573 168.519V177.906H57.2655V168.519C57.2655 168.095 56.8966 167.752 56.4414 167.752H51.6149C51.1598 167.752 50.7908 168.095 50.7908 168.519V193.112C50.7908 193.535 51.1598 193.878 51.6149 193.878H56.4414C56.8966 193.878 57.2655 193.535 57.2655 193.112V183.338H69.0573V193.112C69.0573 193.535 69.4262 193.878 69.8814 193.878H74.7079C75.1631 193.878 75.532 193.535 75.532 193.112V168.519Z" fill="white"/>
<path fill-rule="evenodd" clip-rule="evenodd" d="M110.111 193.878C110.566 193.878 110.935 193.535 110.935 193.112V179.48C110.935 176.977 110.435 174.799 109.394 172.977C108.381 171.139 106.929 169.735 105.044 168.792C103.171 167.856 101.003 167.401 98.5646 167.401C96.1266 167.401 93.9582 167.856 92.0854 168.792C90.1999 169.735 88.7365 171.138 87.6993 172.976L87.6974 172.979C86.6818 174.8 86.194 176.977 86.194 179.48V193.112C86.194 193.535 86.563 193.878 87.0181 193.878H91.7704C92.2255 193.878 92.5945 193.535 92.5945 193.112V187.554H104.46V193.112C104.46 193.535 104.829 193.878 105.285 193.878H110.111ZM102.903 174.455L102.909 174.461C103.896 175.415 104.46 176.9 104.46 179.059V182.192H92.5945V179.059C92.5945 176.9 93.1589 175.415 94.1462 174.461L94.1519 174.455C95.1497 173.472 96.5699 172.939 98.5275 172.939C100.485 172.939 101.905 173.472 102.903 174.455Z" fill="white"/>
<path fill-rule="evenodd" clip-rule="evenodd" d="M138.756 193.545C138.91 193.754 139.164 193.878 139.436 193.878H144.634C144.94 193.878 145.221 193.721 145.363 193.469C145.506 193.217 145.486 192.912 145.313 192.677L139.895 185.354C141.373 184.659 142.559 183.7 143.427 182.469C144.495 180.99 145.012 179.244 145.012 177.267C145.012 175.342 144.535 173.638 143.548 172.185C142.562 170.733 141.143 169.632 139.33 168.874C137.542 168.117 135.466 167.752 133.124 167.752H122.432C121.977 167.752 121.608 168.095 121.608 168.519V193.112C121.608 193.535 121.977 193.878 122.432 193.878H127.258C127.713 193.878 128.082 193.535 128.082 193.112V186.711H133.124C133.339 186.711 133.536 186.709 133.712 186.703L138.756 193.545ZM137.164 174.237C138.028 174.907 138.5 175.877 138.5 177.267C138.5 178.654 138.03 179.64 137.16 180.335C136.275 181.017 134.9 181.419 132.902 181.419H128.082V173.15H132.902C134.903 173.15 136.28 173.553 137.164 174.237Z" fill="white"/>
<path d="M160.585 193.112V184.463H171.085C171.54 184.463 171.909 184.12 171.909 183.696V179.832C171.909 179.408 171.54 179.065 171.085 179.065H160.585V177.724C160.585 176.048 161.102 174.904 162.015 174.152C162.946 173.386 164.4 172.939 166.518 172.939C168.716 172.939 170.469 173.414 171.835 174.31C172.043 174.446 172.307 174.486 172.551 174.416C172.794 174.347 172.99 174.177 173.08 173.956L174.602 170.232C174.74 169.895 174.607 169.514 174.282 169.317C173.231 168.679 172.018 168.203 170.657 167.881C169.296 167.559 167.841 167.401 166.295 167.401C162.613 167.401 159.61 168.293 157.388 170.164C155.179 172.022 154.11 174.576 154.11 177.724V193.112C154.11 193.535 154.479 193.878 154.934 193.878H159.761C160.216 193.878 160.585 193.535 160.585 193.112Z" fill="white"/>
<path d="M161.636 87.276C161.552 91.8666 158.516 95.0548 155.522 96.783L149.079 100.503C146.005 102.277 142.41 102.967 139.188 102.967C135.967 102.967 132.372 102.277 129.299 100.503L122.979 96.783V109.411C122.979 114.088 119.898 117.349 116.863 119.101L110.421 122.82C107.346 124.594 103.751 125.284 100.53 125.284C97.3088 125.284 93.7139 124.594 90.6408 122.82L81.2009 117.371L71.7627 122.82C68.6878 124.594 65.093 125.284 61.8717 125.284C58.6505 125.284 55.0573 124.594 51.9824 122.82L6.88162 96.783C3.88758 95.0548 0.851458 91.8666 0.767308 87.276L0.765625 86.9922V103.529L0.767308 103.813C0.851458 108.404 3.88758 111.592 6.88162 113.32L51.9824 139.357C55.0573 141.132 58.6505 141.821 61.8717 141.821C65.093 141.821 68.6878 141.132 71.7627 139.357L81.2009 133.908L90.6408 139.357C93.7139 141.132 97.3088 141.821 100.53 141.821C103.751 141.821 107.346 141.132 110.421 139.357L116.863 135.638C119.898 133.886 122.979 130.625 122.979 125.948V113.32L129.299 117.04C132.372 118.814 135.967 119.504 139.188 119.504C142.41 119.504 146.005 118.814 149.079 117.04L155.522 113.32C158.516 111.592 161.552 108.404 161.636 103.813L161.636 87.276Z" fill="#7BE7CE"/>
<path d="M0.805962 71.4657C0.779298 71.7119 0.765625 71.9619 0.765625 72.2149V86.9918L0.767308 87.2756C0.851458 91.8662 3.88758 95.0544 6.88162 96.7826L51.9824 122.82C55.0573 124.594 58.6505 125.284 61.8717 125.284C65.093 125.284 68.6878 124.594 71.7627 122.82L81.2009 117.37L90.6408 122.82C93.7139 124.594 97.3088 125.284 100.53 125.284C103.751 125.284 107.346 124.594 110.421 122.82L116.863 119.1C119.898 117.348 122.979 114.088 122.979 109.411V96.7826L129.299 100.502C132.372 102.277 135.967 102.966 139.188 102.966C142.41 102.966 146.005 102.277 149.079 100.502L155.522 96.7826C158.516 95.0544 161.552 91.8662 161.636 87.2756V70.7389C161.552 75.329 158.516 78.5169 155.522 80.2451L149.079 83.9647C146.005 85.7392 142.41 86.4288 139.188 86.4288C135.967 86.4288 132.372 85.7392 129.299 83.9647L122.857 80.2451C122.753 80.1852 122.649 80.1236 122.546 80.0602C122.825 80.9728 122.983 81.959 122.983 83.0179C122.983 83.3275 122.969 83.6309 122.943 83.9281C122.967 84.1611 122.979 84.397 122.979 84.6352V92.873C122.979 97.5504 119.898 100.811 116.863 102.563L110.421 106.282C107.346 108.057 103.751 108.746 100.53 108.746C97.3088 108.746 93.7139 108.057 90.6408 106.282L81.2009 100.833L71.7627 106.282C68.6878 108.057 65.093 108.746 61.8717 108.746C58.6505 108.746 55.0573 108.057 51.9825 106.282L6.88162 80.2451C4.04842 78.6097 1.17754 75.667 0.805962 71.4657Z" fill="#B2F2E1"/>
<path d="M78.1268 26.8672C78.1332 26.9341 78.1402 27.0009 78.1479 27.0678C78.4715 29.8534 79.8562 32.0472 81.5791 33.6715C81.4539 33.6694 81.3293 33.6684 81.2053 33.6684C80.1984 33.6684 79.155 33.7358 78.1025 33.8826V27.4507C78.1025 27.2542 78.1107 27.0596 78.1268 26.8672Z" fill="#B2F2E1"/>
<path d="M13.3282 47.2914L6.88517 51.011C4.01468 52.6681 1.1031 55.6743 0.796015 59.9528C0.775903 60.1537 0.765625 60.3636 0.765625 60.583V70.4544L0.767308 70.7382C0.851458 75.3288 3.88758 78.517 6.88162 80.2452L51.9825 106.282C55.0573 108.057 58.6505 108.746 61.8717 108.746C65.093 108.746 68.6878 108.057 71.7627 106.282L81.2009 100.833L90.6408 106.282C93.7139 108.057 97.3088 108.746 100.53 108.746C103.751 108.746 107.346 108.057 110.421 106.282L116.863 102.563C119.898 100.811 122.979 97.5506 122.979 92.8731V84.6353C122.979 84.3972 122.967 84.1613 122.943 83.9282C122.969 83.6311 122.983 83.3277 122.983 83.0181C122.983 81.9592 122.825 80.9729 122.546 80.0604C122.649 80.1237 122.753 80.1853 122.857 80.2452L129.299 83.9648C132.372 85.7393 135.967 86.4289 139.188 86.4289C142.41 86.4289 146.005 85.7393 149.079 83.9648L155.522 80.2452C158.516 78.517 161.552 75.3288 161.636 70.7382V61.0281C161.639 60.9197 161.641 60.8106 161.641 60.7006C161.641 60.5907 161.639 60.4815 161.636 60.3732L161.638 38.6537C161.64 38.564 161.641 38.4739 161.641 38.3832C161.641 33.7058 158.56 30.4456 155.525 28.6935L110.424 2.65651C107.35 0.882071 103.756 0.192383 100.534 0.192383C97.3132 0.192383 93.7185 0.88207 90.6449 2.65651L84.2018 6.37608C81.1669 8.12815 78.086 11.3883 78.086 16.0658C78.086 16.2862 78.0928 16.5035 78.1062 16.7177C78.1037 16.7929 78.1025 16.8687 78.1025 16.9451V25.2831C78.0806 25.614 78.0772 25.9456 78.089 26.2769C78.0974 26.5409 78.1176 26.8047 78.1479 27.0679C78.4715 29.8536 79.8562 32.0474 81.5791 33.6716C81.4539 33.6696 81.3293 33.6685 81.2053 33.6685C77.9841 33.6685 74.3894 34.3582 71.3157 36.1327L64.8726 39.8522C61.8377 41.6043 58.7569 44.8645 58.7569 49.5419C58.7569 49.8461 58.7699 50.1443 58.7951 50.4365C58.7896 50.5493 58.7868 50.6628 58.7868 50.7769V58.5824L58.775 58.773L58.7632 58.9817C58.7548 59.1847 58.7531 59.3879 58.7565 59.5911C58.7632 60.0148 58.7986 60.4383 58.8608 60.8592C58.9379 61.3786 59.0517 61.8764 59.1972 62.353L33.1074 47.2914C30.0337 45.5169 26.439 44.8273 23.2178 44.8273C19.9966 44.8273 16.4019 45.5169 13.3282 47.2914Z" fill="#F4FAF4"/>
<path d="M106.975 8.62517C103.416 6.57091 97.647 6.57091 94.0886 8.62517L87.6456 12.3447C84.0872 14.399 84.0872 17.7296 87.6456 19.7839L131.965 45.3696C133.674 46.3561 134.634 47.6941 134.634 49.0892V49.9917C134.634 51.3868 133.674 52.7248 131.965 53.7113L126.304 56.9796C122.745 59.0339 122.745 62.3645 126.304 64.4188L132.747 68.1383C136.305 70.1926 142.075 70.1926 145.633 68.1383L152.076 64.4188C155.635 62.3645 155.635 59.0339 152.076 56.9796L146.415 53.7113C144.706 52.7248 143.746 51.3869 143.746 49.9917V49.0892C143.746 47.6941 144.706 46.3561 146.415 45.3696L152.076 42.1013C155.635 40.0471 155.635 36.7165 152.076 34.6622L106.975 8.62517Z" fill="#494E62"/>
<path d="M29.6581 53.26C26.0997 51.2058 20.3304 51.2058 16.772 53.26L10.329 56.9796C6.77056 59.0339 6.77056 62.3645 10.329 64.4188L55.4303 90.4558C58.9887 92.51 64.758 92.51 68.3164 90.4558L81.2025 83.0166L29.6581 53.26Z" fill="#494E62"/>
<path d="M105.088 72.3092C105.088 73.7043 106.048 75.0423 107.756 76.0288L113.418 79.2971C116.976 81.3513 116.976 84.6819 113.418 86.7362L106.975 90.4558C103.416 92.51 97.647 92.51 94.0886 90.4558L81.2025 83.0166L93.307 76.0288C95.0158 75.0423 95.9758 73.7043 95.9758 72.3092L95.9758 71.4067C95.9758 70.0115 95.0158 68.6736 93.307 67.6871L68.3164 53.26C64.758 51.2058 64.758 47.8752 68.3164 45.8209L74.7595 42.1013C78.3179 40.0471 84.0872 40.0471 87.6456 42.1013L113.418 56.9796C116.976 59.0339 116.976 62.3645 113.418 64.4188L107.756 67.6871C106.048 68.6736 105.088 70.0116 105.088 71.4067L105.088 72.3092Z" fill="#494E62"/>
</svg>
