<svg width="404" height="114" viewBox="0 0 404 114" fill="none" xmlns="http://www.w3.org/2000/svg">
<path d="M217.764 39.6105C217.764 38.9978 217.256 38.5011 216.629 38.5011H210.038C209.412 38.5011 208.904 38.9978 208.904 39.6105V60.6101C208.904 63.5852 208.267 65.61 207.187 66.879C206.14 68.109 204.524 68.8056 202.119 68.8056C199.656 68.8056 198 68.1045 196.929 66.8709C195.829 65.6025 195.181 63.5811 195.181 60.6101V50.7043C195.181 50.0916 194.673 49.5949 194.047 49.5949H187.405C186.778 49.5949 186.27 50.0916 186.27 50.7043V60.6101C186.27 63.5825 185.626 65.605 184.532 66.8736C183.47 68.1059 181.827 68.8056 179.383 68.8056C177.029 68.8056 175.399 68.1368 174.307 66.9438C173.244 65.747 172.598 63.7155 172.598 60.6101V39.6105C172.598 38.9978 172.09 38.5011 171.464 38.5011H164.822C164.195 38.5011 163.688 38.9978 163.688 39.6105V60.8135C163.688 65.8409 164.997 69.8545 167.788 72.6703C170.58 75.4857 174.503 76.8209 179.383 76.8209C182.022 76.8209 184.39 76.4129 186.462 75.5657L186.472 75.5618C188.119 74.8713 189.54 73.9764 190.716 72.8695C191.872 73.9777 193.283 74.8722 194.928 75.5618L194.951 75.5708C197.083 76.4125 199.479 76.8209 202.119 76.8209C206.994 76.8209 210.903 75.5055 213.663 72.7211C216.456 69.904 217.764 65.8722 217.764 60.8135V39.6105Z" fill="white"/>
<path d="M266.578 39.6105C266.578 38.9978 266.07 38.5011 265.443 38.5011H258.801C258.175 38.5011 257.667 38.9978 257.667 39.6105V53.1958H241.44V39.6105C241.44 38.9978 240.932 38.5011 240.306 38.5011H233.664C233.038 38.5011 232.53 38.9978 232.53 39.6105V75.203C232.53 75.8157 233.038 76.3124 233.664 76.3124H240.306C240.932 76.3124 241.44 75.8157 241.44 75.203V61.0585H257.667V75.203C257.667 75.8157 258.175 76.3124 258.801 76.3124H265.443C266.07 76.3124 266.578 75.8157 266.578 75.203V39.6105Z" fill="white"/>
<path fill-rule="evenodd" clip-rule="evenodd" d="M314.164 76.3124C314.79 76.3124 315.298 75.8157 315.298 75.203V55.4746C315.298 51.8518 314.609 48.6996 313.177 46.0634C311.783 43.4027 309.785 41.3713 307.19 40.0063C304.613 38.6507 301.629 37.9927 298.274 37.9927C294.919 37.9927 291.935 38.6507 289.358 40.0063C286.763 41.3713 284.749 43.4018 283.322 46.0607L283.319 46.0656C281.921 48.7009 281.25 51.8521 281.25 55.4746V75.203C281.25 75.8157 281.758 76.3124 282.384 76.3124H288.924C289.55 76.3124 290.058 75.8157 290.058 75.203V67.16H306.388V75.203C306.388 75.8157 306.895 76.3124 307.522 76.3124H314.164ZM304.244 48.2023L304.252 48.2103C305.611 49.5906 306.388 51.7408 306.388 54.8644V59.399H290.058V54.8644C290.058 51.7408 290.835 49.5906 292.194 48.2104L292.201 48.2022C293.574 46.7788 295.529 46.0079 298.223 46.0079C300.917 46.0079 302.871 46.7788 304.244 48.2023Z" fill="white"/>
<path fill-rule="evenodd" clip-rule="evenodd" d="M353.584 75.8303C353.795 76.1321 354.145 76.3124 354.519 76.3124H361.672C362.093 76.3124 362.48 76.084 362.676 75.7193C362.872 75.3546 362.845 74.9136 362.607 74.5742L355.151 63.9752C357.185 62.9701 358.817 61.5811 360.011 59.7998C361.481 57.6595 362.193 55.1331 362.193 52.2713C362.193 49.4861 361.537 47.0189 360.178 44.9161C358.821 42.815 356.869 41.2213 354.373 40.125C351.914 39.0296 349.057 38.5011 345.833 38.5011H331.119C330.492 38.5011 329.985 38.9978 329.985 39.6105V75.203C329.985 75.8157 330.492 76.3124 331.119 76.3124H337.761C338.387 76.3124 338.895 75.8157 338.895 75.203V65.9397H345.833C346.129 65.9397 346.4 65.936 346.643 65.9276L353.584 75.8303ZM351.392 47.8867C352.582 48.8555 353.232 50.2601 353.232 52.2713C353.232 54.2783 352.584 55.7061 351.387 56.7113C350.17 57.699 348.277 58.2804 345.527 58.2804H338.895V46.313H345.527C348.281 46.313 350.176 46.8963 351.392 47.8867Z" fill="white"/>
<path d="M383.624 75.203V62.6855H398.073C398.699 62.6855 399.207 62.1889 399.207 61.5762V55.9831C399.207 55.3704 398.699 54.8737 398.073 54.8737H383.624V52.9323C383.624 50.5072 384.334 48.8509 385.591 47.7633C386.873 46.6545 388.873 46.0079 391.788 46.0079C394.813 46.0079 397.226 46.6945 399.105 47.9914C399.391 48.189 399.755 48.2461 400.09 48.1459C400.425 48.0457 400.694 47.7996 400.819 47.4792L402.914 42.0895C403.103 41.6018 402.92 41.051 402.473 40.766C401.026 39.8427 399.358 39.1541 397.484 38.6879C395.611 38.222 393.609 37.9927 391.482 37.9927C386.414 37.9927 382.282 39.2833 379.225 41.9916C376.185 44.6812 374.713 48.3768 374.713 52.9323V75.203C374.713 75.8157 375.221 76.3124 375.848 76.3124H382.49C383.116 76.3124 383.624 75.8157 383.624 75.203Z" fill="white"/>
<path d="M129.597 70.3445C129.529 74.0143 127.102 76.5629 124.709 77.9445L119.559 80.918C117.101 82.3365 114.227 82.8878 111.652 82.8878C109.077 82.8878 106.203 82.3365 103.746 80.918L98.6944 77.9445V88.0393C98.6944 91.7785 96.231 94.3847 93.8052 95.7852L88.6551 98.7587C86.197 100.177 83.3233 100.729 80.7482 100.729C78.1731 100.729 75.2994 100.177 72.8427 98.7587L65.2964 94.4023L57.7514 98.7587C55.2934 100.177 52.4196 100.729 49.8446 100.729C47.2695 100.729 44.3971 100.177 41.939 98.7587L5.88525 77.9445C3.49179 76.5629 1.06471 74.0143 0.997439 70.3445L0.996094 70.1177V83.3375L0.997439 83.5643C1.06471 87.2341 3.49179 89.7827 5.88525 91.1643L41.939 111.979C44.3971 113.397 47.2695 113.948 49.8446 113.948C52.4196 113.948 55.2934 113.397 57.7514 111.979L65.2964 107.622L72.8427 111.979C75.2994 113.397 78.1731 113.948 80.7482 113.948C83.3233 113.948 86.197 113.397 88.6551 111.979L93.8052 109.005C96.231 107.604 98.6944 104.998 98.6944 101.259V91.1643L103.746 94.1378C106.203 95.5563 109.077 96.1076 111.652 96.1076C114.227 96.1076 117.101 95.5563 119.559 94.1378L124.709 91.1643C127.102 89.7827 129.529 87.2341 129.597 83.5643L129.597 70.3445Z" fill="#7BE7CE"/>
<path d="M1.02834 57.706C1.00702 57.9028 0.996094 58.1026 0.996094 58.3049V70.1176L0.997439 70.3445C1.06471 74.0142 3.49179 76.5629 5.88525 77.9444L41.939 98.7586C44.3971 100.177 47.2695 100.728 49.8446 100.728C52.4196 100.728 55.2934 100.177 57.7514 98.7586L65.2964 94.4023L72.8427 98.7586C75.2994 100.177 78.1731 100.728 80.7482 100.728C83.3233 100.728 86.197 100.177 88.6551 98.7586L93.8052 95.7851C96.231 94.3846 98.6944 91.7784 98.6944 88.0392V77.9444L103.746 80.9179C106.203 82.3364 109.077 82.8877 111.652 82.8877C114.227 82.8877 117.101 82.3364 119.559 80.9179L124.709 77.9444C127.102 76.5629 129.529 74.0142 129.597 70.3445V57.1249C129.529 60.7943 127.102 63.3427 124.709 64.7242L119.559 67.6977C117.101 69.1162 114.227 69.6675 111.652 69.6675C109.077 69.6675 106.203 69.1162 103.746 67.6977L98.5962 64.7242C98.5133 64.6764 98.4303 64.6271 98.3475 64.5765C98.5709 65.306 98.6971 66.0944 98.6971 66.9409C98.6971 67.1883 98.6863 67.4309 98.6655 67.6684C98.6846 67.8547 98.6944 68.0433 98.6944 68.2337V74.819C98.6944 78.5582 96.231 81.1644 93.8052 82.5649L88.6551 85.5384C86.197 86.9568 83.3233 87.5082 80.7482 87.5082C78.1731 87.5082 75.2994 86.9568 72.8427 85.5384L65.2964 81.182L57.7514 85.5384C55.2934 86.9568 52.4196 87.5082 49.8446 87.5082C47.2695 87.5082 44.3971 86.9568 41.939 85.5384L5.88525 64.7242C3.62037 63.4169 1.32538 61.0644 1.02834 57.706Z" fill="#B2F2E1"/>
<path d="M62.839 22.0537C62.8441 22.1072 62.8497 22.1606 62.8558 22.2141C63.1145 24.4409 64.2214 26.1947 65.5987 27.4931C65.4987 27.4914 65.3991 27.4906 65.2999 27.4906C64.495 27.4906 63.6609 27.5445 62.8195 27.6619V22.5202C62.8195 22.3631 62.8261 22.2075 62.839 22.0537Z" fill="#B2F2E1"/>
<path d="M11.0387 38.3806L5.88809 41.3541C3.5934 42.6788 1.26587 45.082 1.02039 48.5022C1.00431 48.6628 0.996094 48.8306 0.996094 49.006V56.8973L0.997439 57.1241C1.06471 60.7938 3.49179 63.3425 5.88525 64.7241L41.939 85.5383C44.3971 86.9567 47.2695 87.5081 49.8446 87.5081C52.4196 87.5081 55.2934 86.9567 57.7514 85.5383L65.2964 81.1819L72.8427 85.5383C75.2994 86.9567 78.1731 87.5081 80.7482 87.5081C83.3233 87.5081 86.197 86.9567 88.6551 85.5383L93.8052 82.5648C96.231 81.1642 98.6944 78.5581 98.6944 74.8189V68.2335C98.6944 68.0432 98.6846 67.8546 98.6655 67.6683C98.6863 67.4307 98.6971 67.1882 98.6971 66.9407C98.6971 66.0942 98.5709 65.3058 98.3474 64.5763C98.4303 64.627 98.5133 64.6762 98.5962 64.7241L103.746 67.6975C106.203 69.1161 109.077 69.6674 111.652 69.6674C114.227 69.6674 117.101 69.1161 119.559 67.6975L124.709 64.7241C127.102 63.3425 129.529 60.7938 129.597 57.1241V49.3618C129.599 49.2752 129.601 49.1879 129.601 49.1C129.601 49.0122 129.599 48.9249 129.597 48.8383L129.598 31.4756C129.6 31.404 129.601 31.3319 129.601 31.2594C129.601 27.5202 127.138 24.914 124.712 23.5134L88.6575 2.69933C86.2004 1.28083 83.3268 0.729492 80.7517 0.729492C78.1766 0.729492 75.303 1.28083 72.8459 2.69932L67.6953 5.67277C65.2692 7.07338 62.8063 9.67959 62.8063 13.4187C62.8063 13.595 62.8118 13.7687 62.8225 13.9399C62.8205 14 62.8195 14.0606 62.8195 14.1217V20.7871C62.802 21.0517 62.7993 21.3167 62.8087 21.5816C62.8155 21.7926 62.8316 22.0035 62.8558 22.2139C63.1145 24.4408 64.2214 26.1945 65.5987 27.4929C65.4987 27.4913 65.3991 27.4905 65.2999 27.4905C62.7248 27.4905 59.8512 28.0418 57.3941 29.4603L52.2435 32.4337C49.8174 33.8344 47.3545 36.4406 47.3545 40.1797C47.3545 40.4229 47.3649 40.6613 47.3851 40.8948C47.3807 40.985 47.3785 41.0757 47.3785 41.1669V47.4067L47.369 47.5591L47.3596 47.7259C47.3529 47.8882 47.3516 48.0506 47.3542 48.2131C47.3596 48.5518 47.3879 48.8903 47.4377 49.2268C47.4993 49.642 47.5902 50.04 47.7066 50.421L26.8503 38.3806C24.3931 36.9621 21.5195 36.4108 18.9445 36.4108C16.3694 36.4108 13.4958 36.9621 11.0387 38.3806Z" fill="#F4FAF4"/>
<path d="M85.9003 7.4709C83.0557 5.82871 78.4437 5.82871 75.5991 7.4709L70.4485 10.4443C67.6039 12.0865 67.6039 14.749 70.4485 16.3912L105.878 36.8446C107.244 37.6332 108.011 38.7028 108.011 39.818V40.5395C108.011 41.6548 107.244 42.7243 105.878 43.513L101.352 46.1257C98.5075 47.7678 98.5075 50.4304 101.352 52.0725L106.503 55.046C109.347 56.6882 113.959 56.6882 116.804 55.046L121.955 52.0725C124.799 50.4304 124.799 47.7678 121.955 46.1257L117.429 43.513C116.063 42.7243 115.295 41.6548 115.295 40.5395V39.818C115.295 38.7028 116.063 37.6332 117.429 36.8446L121.955 34.2319C124.799 32.5897 124.799 29.9272 121.955 28.285L85.9003 7.4709Z" fill="#494E62"/>
<path d="M24.0931 43.1522C21.2485 41.51 16.6365 41.51 13.7919 43.1522L8.64126 46.1256C5.79666 47.7678 5.79666 50.4303 8.64126 52.0725L44.6955 72.8866C47.5401 74.5288 52.1521 74.5288 54.9967 72.8866L65.2979 66.9397L24.0931 43.1522Z" fill="#494E62"/>
<path d="M84.3917 58.3802C84.3917 59.4954 85.1592 60.565 86.5252 61.3536L91.0509 63.9663C93.8955 65.6085 93.8955 68.271 91.0509 69.9132L85.9003 72.8866C83.0557 74.5288 78.4437 74.5288 75.5991 72.8866L65.2979 66.9397L74.9742 61.3536C76.3403 60.565 77.1077 59.4954 77.1077 58.3802L77.1077 57.6587C77.1077 56.5434 76.3403 55.4738 74.9742 54.6852L54.9967 43.1522C52.1521 41.51 52.1521 38.8475 54.9967 37.2053L60.1473 34.2319C62.9919 32.5897 67.6039 32.5897 70.4485 34.2319L91.0509 46.1257C93.8955 47.7678 93.8955 50.4304 91.0509 52.0725L86.5252 54.6852C85.1592 55.4738 84.3917 56.5434 84.3917 57.6587L84.3917 58.3802Z" fill="#494E62"/>
</svg>
