<svg width="512" height="206" viewBox="0 0 512 206" fill="none" xmlns="http://www.w3.org/2000/svg">
<g clip-path="url(#clip0_1153_90431)">
<path d="M271.942 82.4297H264.759C264.076 82.4297 263.524 82.9705 263.524 83.6423V106.559C263.524 109.804 262.828 112.016 261.654 113.401C260.513 114.745 258.754 115.503 256.132 115.503C253.51 115.503 251.645 114.736 250.479 113.393C249.281 112.008 248.573 109.804 248.573 106.559V95.7481C248.573 95.0804 248.021 94.5355 247.338 94.5355H240.101C239.418 94.5355 238.866 95.0763 238.866 95.7481V106.559C238.866 109.804 238.163 112.008 236.972 113.393C235.815 114.736 234.023 115.503 231.36 115.503C228.697 115.503 227.02 114.773 225.83 113.471C224.672 112.164 223.968 109.947 223.968 106.559V83.6423C223.968 82.9746 223.416 82.4297 222.733 82.4297H215.497C214.814 82.4297 214.262 82.9705 214.262 83.6423V106.781C214.262 112.266 215.689 116.646 218.729 119.718C221.772 122.791 226.046 124.249 231.364 124.249C234.24 124.249 236.821 123.803 239.079 122.881H239.091C240.887 122.123 242.433 121.148 243.713 119.939C244.973 121.148 246.511 122.123 248.303 122.877L248.327 122.885C250.651 123.803 253.261 124.249 256.136 124.249C261.45 124.249 265.708 122.815 268.715 119.775C271.758 116.703 273.181 112.303 273.181 106.781V83.6423C273.181 82.9746 272.629 82.4297 271.946 82.4297H271.942Z" fill="black"/>
<path d="M325.131 82.4289H317.895C317.212 82.4289 316.659 82.9697 316.659 83.6415V98.4676H298.98V83.6415C298.98 82.9738 298.428 82.4289 297.745 82.4289H290.509C289.826 82.4289 289.273 82.9697 289.273 83.6415V122.483C289.273 123.15 289.826 123.695 290.509 123.695H297.745C298.428 123.695 298.98 123.154 298.98 122.483V107.046H316.659V122.483C316.659 123.15 317.212 123.695 317.895 123.695H325.131C325.814 123.695 326.366 123.154 326.366 122.483V83.6374C326.366 82.9697 325.814 82.4248 325.131 82.4248V82.4289Z" fill="black"/>
<path d="M370.617 84.0718C367.811 82.5929 364.559 81.876 360.902 81.876C357.245 81.876 353.993 82.5929 351.187 84.0718C348.36 85.563 346.164 87.7753 344.609 90.6798C343.088 93.5598 342.355 97.0011 342.355 100.954V122.483C342.355 123.15 342.908 123.695 343.591 123.695H350.716C351.4 123.695 351.952 123.155 351.952 122.483V113.708H369.746V122.483C369.746 123.15 370.298 123.695 370.981 123.695H378.217C378.9 123.695 379.452 123.155 379.452 122.483V100.954C379.452 97.0011 378.7 93.5598 377.141 90.6839C375.624 87.7794 373.443 85.563 370.617 84.0759V84.0718ZM369.741 105.236H351.948V100.287C351.948 96.8782 352.794 94.5308 354.275 93.0273L354.283 93.0191C355.781 91.4664 357.908 90.6266 360.845 90.6266C363.782 90.6266 365.909 91.4664 367.406 93.0191L367.414 93.0273C368.895 94.5349 369.741 96.8782 369.741 100.287V105.236Z" fill="black"/>
<path d="M422.874 110.226C425.091 109.128 426.87 107.612 428.171 105.67C429.774 103.335 430.548 100.578 430.548 97.4565C430.548 94.3348 429.832 91.7252 428.351 89.431C426.874 87.1368 424.747 85.3998 422.027 84.2036C419.348 83.0073 416.235 82.4297 412.721 82.4297H396.69C396.007 82.4297 395.455 82.9705 395.455 83.6423V122.483C395.455 123.151 396.007 123.696 396.69 123.696H403.927C404.61 123.696 405.162 123.155 405.162 122.483V112.377H412.721C413.044 112.377 413.339 112.373 413.605 112.364L421.168 123.172C421.397 123.499 421.778 123.696 422.187 123.696H429.979C430.437 123.696 430.858 123.446 431.071 123.049C431.284 122.651 431.255 122.168 430.998 121.799L422.874 110.234V110.226ZM418.771 102.299C417.446 103.376 415.384 104.011 412.386 104.011H405.158V90.9509H412.386C415.388 90.9509 417.45 91.5859 418.775 92.6674C420.072 93.7244 420.779 95.2565 420.779 97.4524C420.779 99.6482 420.072 101.201 418.771 102.299V102.299Z" fill="black"/>
<path d="M474.435 84.8996C472.86 83.8918 471.04 83.1421 468.999 82.63C466.957 82.122 464.777 81.8721 462.458 81.8721C456.936 81.8721 452.432 83.2813 449.102 86.2351C445.789 89.1683 444.186 93.2036 444.186 98.1729V122.475C444.186 123.142 444.738 123.687 445.421 123.687H452.657C453.34 123.687 453.892 123.147 453.892 122.475V108.816H469.637C470.32 108.816 470.872 108.275 470.872 107.604V101.499C470.872 100.832 470.32 100.291 469.637 100.291H453.892V98.1729C453.892 95.5265 454.665 93.7198 456.036 92.5318C457.431 91.3232 459.611 90.6145 462.789 90.6145C465.968 90.6145 468.716 91.3642 470.762 92.7776C471.072 92.9947 471.469 93.0561 471.833 92.9455C472.197 92.8349 472.492 92.5686 472.627 92.2163L474.909 86.3334C475.114 85.8008 474.918 85.1986 474.431 84.8873L474.435 84.8996Z" fill="black"/>
<path d="M141.411 129.345C141.386 129.365 141.366 129.39 141.345 129.415C141.03 129.726 140.711 130.004 140.404 130.254C140.388 130.267 140.372 130.279 140.359 130.291C140.044 130.545 139.742 130.762 139.463 130.955C139.455 130.959 139.447 130.967 139.439 130.975C139.153 131.168 138.891 131.328 138.666 131.459L133.054 134.703C130.493 136.182 127.241 136.998 123.895 136.998C120.549 136.998 117.297 136.182 114.736 134.703L107.058 130.263L99.3805 134.703C96.8198 136.182 93.5679 136.998 90.2218 136.998C86.8758 136.998 83.6238 136.182 81.0632 134.703L41.7779 111.991C41.7779 111.991 41.7615 111.979 41.7534 111.975C41.4957 111.823 41.1848 111.631 40.8494 111.393C40.7675 111.336 40.6857 111.282 40.608 111.225C40.4035 111.074 40.1867 110.906 39.9658 110.721C39.8145 110.594 39.6631 110.467 39.5199 110.336C39.3604 110.193 39.205 110.045 39.0454 109.885C38.9514 109.791 38.8532 109.693 38.7632 109.599C38.5505 109.373 38.346 109.132 38.1455 108.878C38.1292 108.857 38.1087 108.837 38.0923 108.816V117.169C38.1578 120.57 40.3421 122.761 41.917 123.9C42.281 124.163 42.6124 124.371 42.8742 124.523L82.1594 147.235C84.3929 148.526 87.2603 149.239 90.23 149.239C93.1997 149.239 96.0672 148.526 98.3006 147.235L107.067 142.168L115.833 147.235C118.066 148.526 120.929 149.239 123.903 149.239C126.877 149.239 129.74 148.526 131.974 147.235L137.586 143.991C139.026 143.159 142.368 140.762 142.368 136.481V128.284C142.368 128.284 142.347 128.308 142.335 128.321C142.04 128.694 141.734 129.029 141.423 129.341L141.411 129.345ZM175.096 124.285C175.063 124.318 175.03 124.351 174.998 124.384C174.687 124.691 174.376 124.961 174.073 125.207C174.053 125.224 174.036 125.24 174.016 125.252C173.701 125.506 173.398 125.727 173.116 125.916C173.112 125.916 173.108 125.924 173.1 125.928C172.813 126.121 172.552 126.285 172.327 126.412L166.714 129.656C164.154 131.135 160.902 131.95 157.556 131.95C154.21 131.95 150.958 131.135 148.397 129.656L144.527 127.374V136.481C144.527 136.903 144.495 137.301 144.45 137.694C144.438 137.805 144.421 137.915 144.401 138.026C144.356 138.321 144.298 138.612 144.229 138.89C144.213 138.952 144.208 139.017 144.192 139.075L149.493 142.2C151.719 143.487 154.586 144.2 157.556 144.2C160.525 144.2 163.393 143.487 165.626 142.196L171.239 138.952C172.65 138.136 175.943 135.785 176.02 131.582V123.241C176 123.265 175.979 123.282 175.963 123.306C175.681 123.663 175.386 123.986 175.092 124.285H175.096ZM175.096 109.861C175.063 109.894 175.03 109.926 174.998 109.959C174.687 110.262 174.38 110.537 174.077 110.779C174.057 110.795 174.036 110.815 174.016 110.832C173.709 111.078 173.411 111.295 173.137 111.483C173.124 111.491 173.108 111.504 173.096 111.512C172.826 111.692 172.584 111.844 172.372 111.967C172.359 111.975 172.343 111.983 172.335 111.991L166.723 115.236C164.162 116.719 160.906 117.534 157.564 117.534C154.222 117.534 150.966 116.719 148.405 115.236L144.527 112.995C144.536 113.151 144.54 113.306 144.54 113.466C144.54 113.732 144.532 113.999 144.511 114.253C144.527 114.457 144.54 114.666 144.54 114.875V122.061C144.54 122.479 144.507 122.88 144.462 123.269C144.45 123.384 144.429 123.495 144.413 123.605C144.368 123.9 144.311 124.183 144.245 124.458C144.229 124.519 144.225 124.589 144.208 124.646L149.51 127.772C151.735 129.058 154.602 129.771 157.572 129.771C160.17 129.771 162.689 129.226 164.776 128.222C165.074 128.079 165.365 127.927 165.643 127.764L171.255 124.519C172.666 123.704 175.959 121.352 176.037 117.149V108.808C176.016 108.833 175.996 108.849 175.979 108.874C175.697 109.23 175.403 109.554 175.108 109.853L175.096 109.861ZM171.247 67.0214L131.966 44.3051C129.732 43.0146 126.865 42.3018 123.895 42.3018C120.925 42.3018 118.062 43.0146 115.824 44.3051L110.212 47.5497C108.772 48.3813 105.43 50.7779 105.43 55.059C105.43 55.2269 105.434 55.3949 105.447 55.5629V63.1008C105.426 63.4245 105.426 63.6785 105.434 63.9284C105.443 64.1332 105.455 64.3299 105.479 64.5306C105.704 66.4561 106.596 68.1726 108.134 69.6228L110.188 71.5647L107.058 71.5073C104.089 71.5073 101.225 72.2201 98.9878 73.5106L93.3756 76.7552C91.9358 77.5869 88.5938 79.9834 88.5938 84.2645C88.5938 84.498 88.602 84.7275 88.6225 84.9487L88.6306 85.0224V85.0962C88.6225 85.1781 88.6225 85.26 88.6225 85.3379L88.5979 92.5604C88.5938 92.6956 88.5897 92.8554 88.5979 93.011C88.602 93.3306 88.6306 93.6542 88.6756 93.9738C88.7329 94.363 88.8188 94.748 88.9333 95.1168L89.7392 97.7632L64.6193 83.2403C62.3859 81.9458 59.5185 81.237 56.5487 81.237C53.579 81.237 50.7116 81.9499 48.4782 83.2403L42.866 86.4849C41.5284 87.2592 38.3869 89.4797 38.1046 93.4207C38.0883 93.5928 38.0801 93.7403 38.0801 93.8918V102.745C38.0842 102.966 38.1046 103.183 38.1251 103.396C38.1373 103.523 38.1578 103.65 38.1742 103.773C38.1905 103.884 38.2069 103.99 38.2273 104.097C38.2519 104.228 38.2846 104.355 38.3173 104.482C38.3419 104.576 38.3623 104.666 38.391 104.756C38.4319 104.887 38.4728 105.019 38.5178 105.146C38.5464 105.223 38.5709 105.301 38.6037 105.379C38.6568 105.51 38.71 105.641 38.7673 105.764C38.7959 105.83 38.8286 105.895 38.8573 105.961C38.9186 106.092 38.9882 106.219 39.0536 106.342C39.0863 106.399 39.115 106.452 39.1477 106.506C39.2213 106.633 39.2991 106.756 39.3768 106.874C39.4054 106.919 39.4381 106.969 39.4709 107.014C39.5527 107.137 39.6386 107.251 39.7245 107.366C39.7531 107.407 39.7858 107.444 39.8185 107.485C39.9085 107.599 39.9985 107.71 40.0885 107.817C40.1212 107.853 40.154 107.89 40.1826 107.923C40.2767 108.026 40.3667 108.128 40.4608 108.226C40.4935 108.263 40.5303 108.296 40.563 108.329C40.6571 108.423 40.7471 108.513 40.8412 108.599C40.878 108.632 40.9148 108.665 40.9516 108.701C41.0416 108.783 41.1316 108.861 41.2175 108.939C41.2584 108.976 41.2993 109.009 41.3443 109.042C41.4261 109.107 41.5038 109.173 41.5856 109.234C41.6429 109.279 41.6961 109.316 41.7493 109.357C41.8106 109.402 41.8761 109.451 41.9374 109.496C42.0152 109.554 42.0888 109.603 42.1624 109.652C42.1951 109.677 42.2319 109.701 42.2647 109.722C42.4856 109.869 42.686 109.992 42.8578 110.09L82.1431 132.803C84.3765 134.093 87.244 134.806 90.2137 134.806C93.1834 134.806 96.0508 134.093 98.2842 132.803L107.05 127.735L115.816 132.803C118.05 134.093 120.913 134.806 123.887 134.806C126.861 134.806 129.724 134.093 131.957 132.803L137.57 129.558C138.019 129.3 138.654 128.886 139.316 128.313C140.772 127.047 142.351 124.994 142.351 122.053V114.867C142.351 114.695 142.343 114.527 142.327 114.359L142.315 114.257L142.323 114.154C142.343 113.925 142.351 113.695 142.351 113.458C142.351 113.069 142.323 112.684 142.27 112.307C142.27 112.29 142.261 112.278 142.257 112.262C142.2 111.901 142.122 111.545 142.016 111.196L141.173 108.443V108.435L143.595 109.922L143.873 110.094L149.485 113.339C151.719 114.629 154.586 115.342 157.556 115.342C160.525 115.342 163.393 114.629 165.626 113.339L171.239 110.094C171.729 109.812 172.449 109.336 173.182 108.665C173.73 108.161 174.286 107.546 174.76 106.813C175.468 105.719 175.988 104.363 176.02 102.724V74.5266C176.024 70.2455 172.678 67.8489 171.243 67.0214H171.247ZM130.182 107.37L135.115 110.221C138.216 112.012 138.216 114.92 135.115 116.711L129.503 119.955C126.402 121.745 121.379 121.745 118.279 119.955L107.054 113.466L95.8299 119.955C92.7293 121.745 87.7062 121.745 84.6056 119.955L45.3244 97.2389C42.2238 95.4486 42.2238 92.5399 45.3244 90.7496L50.9366 87.505C54.0372 85.7148 59.0603 85.7148 62.1609 87.505L107.058 113.462L117.6 107.366C119.089 106.506 119.923 105.338 119.923 104.121V103.335C119.923 102.118 119.089 100.95 117.6 100.09L95.834 87.505C92.7334 85.7148 92.7334 82.8061 95.834 81.0158L101.446 77.7712C104.547 75.9809 109.57 75.9809 112.671 77.7712L135.119 90.7496C138.22 92.5399 138.22 95.4486 135.119 97.2389L130.186 100.09C128.697 100.95 127.863 102.118 127.863 103.335V104.121C127.863 105.338 128.697 106.506 130.186 107.366L130.182 107.37ZM163.855 87.9024L168.788 90.7537C171.889 92.544 171.889 95.4527 168.788 97.243L163.176 100.488C160.076 102.278 155.052 102.278 151.952 100.488L146.34 97.243C143.239 95.4527 143.239 92.544 146.34 90.7537L151.273 87.9024C152.762 87.0421 153.596 85.8745 153.596 84.6578V83.8712C153.596 82.6545 152.762 81.4869 151.273 80.6266L112.671 58.3077C109.57 56.5174 109.57 53.6087 112.671 51.8185L118.283 48.5738C121.383 46.7836 126.407 46.7836 129.507 48.5738L168.792 71.2861C171.893 73.0764 171.893 75.985 168.792 77.7753L163.859 80.6266C162.37 81.4869 161.536 82.6545 161.536 83.8712V84.6578C161.536 85.8745 162.374 87.0421 163.859 87.9024H163.855ZM141.411 143.778C141.386 143.798 141.366 143.823 141.345 143.847C141.03 144.159 140.711 144.437 140.404 144.687C140.388 144.699 140.372 144.712 140.359 144.724C140.044 144.978 139.742 145.195 139.463 145.388C139.455 145.392 139.447 145.4 139.439 145.408C139.153 145.601 138.891 145.76 138.666 145.892L133.054 149.136C130.493 150.615 127.241 151.43 123.895 151.43C120.549 151.43 117.297 150.615 114.736 149.136L107.058 144.695L99.3805 149.136C96.8198 150.615 93.5679 151.43 90.2218 151.43C86.8758 151.43 83.6238 150.615 81.0632 149.136L41.7779 126.416C41.5529 126.289 41.2911 126.125 41.0048 125.932C41.0007 125.932 40.9925 125.924 40.9884 125.92C40.7062 125.732 40.4035 125.51 40.0885 125.256C40.0722 125.244 40.0558 125.228 40.0394 125.215C39.7326 124.965 39.4177 124.687 39.1027 124.376C39.0782 124.351 39.0536 124.326 39.0291 124.302C38.7223 123.995 38.4155 123.655 38.1251 123.286C38.1128 123.269 38.0964 123.257 38.0842 123.241V131.594C38.1619 135.785 41.4548 138.132 42.866 138.948L82.1513 161.66C84.3847 162.95 87.2521 163.663 90.2218 163.663C93.1916 163.663 96.059 162.95 98.2924 161.66L107.058 156.592L115.824 161.66C118.058 162.95 120.921 163.663 123.895 163.663C126.869 163.663 129.732 162.95 131.966 161.66L137.578 158.415C139.018 157.584 142.36 155.187 142.36 150.91V142.713C142.36 142.713 142.339 142.737 142.327 142.749C142.032 143.122 141.725 143.458 141.415 143.769L141.411 143.778Z" fill="black"/>
</g>
<defs>
<clipPath id="clip0_1153_90431">
<rect width="438" height="121.426" fill="white" transform="translate(37 42.2871)"/>
</clipPath>
</defs>
</svg>
