<svg width="1258" height="314" fill="none" xmlns="http://www.w3.org/2000/svg"><g filter="url(#a)" fill="#F4FAF4" fill-opacity=".4"><path d="M1600.76 435.803c.01-8.265-5.66-16.194-15.79-22.038l-289.02-166.852c-21.04-12.149-55.16-12.149-76.21 0L680.189 558.396c-21.045 12.15-55.167 12.15-76.212 0l-64.263-37.099c-21.045-12.149-21.045-31.848 0-43.997l270.697-156.274c10.09-5.824 15.766-13.721 15.784-21.958l.22-98.485c.019-8.265-5.66-16.194-15.784-22.039L521.611 11.693c-21.045-12.15-55.167-12.15-76.212 0l-1317.494 760.59c-10.089 5.824-15.766 13.721-15.784 21.958l-.22 98.485c-.019 8.265 5.66 16.194 15.784 22.038L674.481 1807.73c21.046 12.15 55.167 12.15 76.212 0l686.337-396.22c10.09-5.83 15.77-13.72 15.78-21.96l.22-98.49c.02-8.26-5.66-16.19-15.78-22.03L931.769 977.211c-21.046-12.149-21.046-31.848 0-43.997l652.981-376.967c10.09-5.825 15.77-13.722 15.79-21.959l.22-98.485Z"/><path fill-rule="evenodd" clip-rule="evenodd" d="M1219.74 246.913c21.05-12.149 55.17-12.149 76.21 0l266.73 153.982c21.04 12.149 21.04 31.847 0 43.997L824.288 871.165c-21.045 12.15-21.045 31.848 0 43.997l590.672 340.998c21.04 12.15 21.04 31.84 0 43.99l-663.989 383.32c-21.046 12.15-55.167 12.15-76.212 0L45.984 1320.48l-128.978-74.46-147.973-85.42-65.989-38.1-247.955-143.143-28.995-16.739-275.838-159.241c-21.046-12.15-21.046-31.848 0-43.998L445.399 11.693c21.046-12.15 55.167-12.15 76.212 0l266.727 153.982c21.045 12.149 21.046 31.847 0 43.997L191.059 554.481c-21.045 12.149-21.045 31.847 0 43.997l22.771 13.145c21.045 12.15 55.166 12.15 76.212 0l164.962-95.232c21.045-12.15 55.166-12.15 76.211 0l72.762 42.005c21.045 12.15 55.167 12.149 76.212 0l539.551-311.483Z"/></g><g filter="url(#b)" fill-opacity=".4"><path d="M1600.76 317.012c.01-8.265-5.66-16.194-15.79-22.038l-289.02-166.852c-21.04-12.149-55.16-12.149-76.21 0L680.189 439.605c-21.045 12.15-55.167 12.15-76.212 0l-64.263-37.099c-21.045-12.15-21.045-31.848 0-43.997l270.697-156.274c10.09-5.824 15.766-13.721 15.784-21.958l.22-98.485c.019-8.265-5.66-16.194-15.784-22.039l-289.02-166.851c-21.045-12.149-55.167-12.149-76.212 0L-872.095 653.491c-10.089 5.825-15.766 13.722-15.784 21.959l-.22 98.485c-.019 8.265 5.66 16.194 15.784 22.038L674.481 1688.94c21.046 12.15 55.167 12.15 76.212 0l686.337-396.22c10.09-5.83 15.77-13.72 15.78-21.96l.22-98.49c.02-8.26-5.66-16.19-15.78-22.04L931.769 858.42c-21.046-12.149-21.046-31.848 0-43.997l652.981-376.967c10.09-5.825 15.77-13.722 15.79-21.959l.22-98.485Z" fill="#B2F2E1"/><path fill-rule="evenodd" clip-rule="evenodd" d="M1238.79 117.123c10.53-6.075 27.59-6.075 38.11 0l304.83 175.98c10.52 6.075 10.52 15.924 0 21.999L805.235 763.373c-10.523 6.075-10.523 15.924 0 21.999l628.775 362.988c10.52 6.08 10.52 15.93 0 22l-702.092 405.32c-10.523 6.08-27.584 6.08-38.106 0L45.984 1201.69l-128.978-74.46-147.973-85.42-65.989-38.1-247.955-143.144-28.995-16.739-294.891-170.241c-10.523-6.074-10.523-15.924 0-21.998L464.452-118.097c10.523-6.075 27.583-6.075 38.106 0l304.833 175.98c10.523 6.075 10.523 15.924 0 21.998L172.006 446.69c-10.522 6.075-10.522 15.924 0 21.999l60.877 35.144c10.522 6.074 27.583 6.074 38.106 0L474.057 386.6c10.522-6.074 27.583-6.074 38.106 0l110.867 64.004c10.523 6.075 27.583 6.075 38.106 0l577.654-333.481Z" fill="#7BE7CE"/></g><defs><filter id="a" x="-1022.1" y="-250.209" width="3492.75" height="2201.05" filterUnits="userSpaceOnUse" color-interpolation-filters="sRGB"><feFlood flood-opacity="0" result="BackgroundImageFix"/><feGaussianBlur in="BackgroundImageFix" stdDeviation="67"/><feComposite in2="SourceAlpha" operator="in" result="effect1_backgroundBlur_470_83"/><feBlend in="SourceGraphic" in2="effect1_backgroundBlur_470_83" result="shape"/></filter><filter id="b" x="-1022.1" y="-369" width="3492.75" height="2201.05" filterUnits="userSpaceOnUse" color-interpolation-filters="sRGB"><feFlood flood-opacity="0" result="BackgroundImageFix"/><feGaussianBlur in="BackgroundImageFix" stdDeviation="67"/><feComposite in2="SourceAlpha" operator="in" result="effect1_backgroundBlur_470_83"/><feBlend in="SourceGraphic" in2="effect1_backgroundBlur_470_83" result="shape"/></filter></defs></svg>