<svg width="916" height="314" viewBox="0 0 916 314" fill="none" xmlns="http://www.w3.org/2000/svg">
<path d="M677.656 583.725C652.514 582.293 631.512 565.692 610.302 553.468C573.671 532.362 537.048 511.249 500.418 490.144C491.74 485.146 480.1 480.443 473.659 472.429L471.693 468.601L471.032 464.661L471.685 460.722L473.651 456.902C483.706 444.479 504.199 436.99 517.575 429.279C551.897 409.487 586.211 389.695 620.533 369.902C699.479 324.373 778.417 278.852 857.363 233.323L893.691 212.376C899.965 208.763 906.843 205.548 911.485 199.826L913.444 196.006L914.088 192.075L913.428 188.144L911.453 184.324C904.702 176.166 893.022 171.431 884.05 166.274C865.117 155.387 846.193 144.492 827.261 133.606C804.395 120.451 779.157 99.4567 751.109 102.624C741.34 103.73 733.403 107.853 725.107 112.636L680.307 138.452C645.556 158.483 610.804 178.514 576.052 198.537C555.933 210.132 534.771 211.557 514.215 199.786C496.962 189.91 479.75 179.947 462.521 170.023C452.744 164.396 443.254 161.348 431.845 161.054C362.748 159.279 293.379 161.085 224.258 161.093C214.704 161.093 205.301 160.783 196.321 157.051C186.234 152.857 176.839 146.267 167.421 140.84C134.189 121.7 100.393 103.301 67.6392 83.3651C63.8336 81.0492 60.2748 78.7334 57.4405 75.1999L55.482 71.3879L54.8291 67.4565L55.49 63.5251L57.4565 59.7131C62.3926 53.4818 70.3939 49.9801 77.1452 46.0965C91.5475 37.804 105.958 29.5115 120.36 21.219C134.762 12.9265 148.759 4.87272 162.954 -3.30042C169.873 -7.27955 177.993 -10.8449 183.152 -17.1399L185.183 -20.9757C186.687 -26.8728 185.883 -33.51 185.891 -39.5105L185.923 -80.4319C185.931 -93.8098 185.947 -107.188 185.955 -120.557C185.955 -126.741 186.902 -133.8 185.278 -139.888L183.256 -143.732C174.809 -153.767 159.563 -159.585 148.496 -165.951C133.33 -174.682 118.37 -184.041 102.893 -192.198C77.0975 -205.791 54.8452 -194.108 32.2744 -181.128C14.6795 -171.005 -2.91543 -160.89 -20.5183 -150.767C-30.4781 -145.037 -40.3901 -141.432 -52.1014 -141.559C-77.8728 -141.838 -103.119 -162.776 -124.336 -175C-157.241 -193.949 -190.154 -212.889 -223.058 -231.838L-223.106 -296.085C-195.177 -280.009 -167.256 -263.934 -139.328 -247.866C-122.425 -238.133 -105.523 -228.408 -88.6129 -218.675C-80.7151 -214.131 -73.1836 -209.221 -64.1712 -207.167C-33.7663 -200.252 -6.96784 -222.821 17.6809 -237.003C41.9794 -250.978 66.9546 -270.579 96.5315 -259.429C112.072 -253.572 126.594 -242.812 140.901 -234.576C153.982 -227.047 173.376 -220.028 183.248 -207.995L185.27 -204.159C186.767 -198.262 185.955 -191.625 185.947 -185.624L185.915 -144.711C185.907 -131.333 185.891 -117.963 185.883 -104.585C185.883 -98.4017 186.807 -91.3427 185.175 -85.2626L183.145 -81.4267C178.177 -75.2829 170.279 -71.8131 163.567 -67.9534C149.157 -59.6609 134.755 -51.3683 120.344 -43.0838C105.934 -34.7992 91.9456 -26.7375 77.7423 -18.5723C70.7919 -14.5693 62.5598 -10.9801 57.4326 -4.59762L55.4661 -0.785604L54.8054 3.14576L55.4581 7.07714L57.4166 10.8892C63.9848 18.8474 75.2744 23.4632 84.0161 28.4928C102.734 39.2683 121.443 50.0518 140.16 60.8273C163.265 74.1335 189.562 95.9789 217.411 96.7747C285.665 98.7245 354.245 96.7429 422.53 96.7349C431.758 96.7349 440.937 96.5519 449.814 99.5283C463.994 104.279 477.17 114.124 490.02 121.525C514.979 135.89 540.098 153.366 569.364 138.078C625.007 109.007 677.051 73.0432 732.686 43.9637C757.613 30.936 779.563 41.8229 801.37 54.3572C834.609 73.4809 868.366 91.9122 901.175 111.76C905.028 114.092 908.635 116.424 911.509 119.989L913.483 123.809L914.144 127.74L913.499 131.672L911.541 135.492C901.493 147.907 880.993 155.395 867.633 163.099C833.311 182.891 798.989 202.675 764.667 222.468C685.713 267.989 606.767 313.51 527.813 359.031L491.485 379.978C485.211 383.599 478.324 386.814 473.675 392.536L471.709 396.356L471.056 400.295L471.716 404.234L473.683 408.054C479.28 414.835 488.189 418.71 495.673 423.016C512.121 432.494 528.577 441.972 545.026 451.451C578.663 470.829 612.3 490.207 645.938 509.594C656.168 515.491 665.714 518.658 677.704 519.343L677.664 583.669L677.656 583.725Z" stroke="white" stroke-width="2" stroke-miterlimit="10"/>
</svg>
