<svg width="916" height="314" fill="none" xmlns="http://www.w3.org/2000/svg"><path d="M677.656 583.725c-25.142-1.432-46.144-18.033-67.354-30.257-36.631-21.106-73.254-42.219-109.884-63.324-8.678-4.998-20.318-9.701-26.759-17.715l-1.966-3.828-.661-3.94.653-3.939 1.966-3.82c10.055-12.423 30.548-19.912 43.924-27.623 34.322-19.792 68.636-39.584 102.958-59.377l236.83-136.579 36.328-20.947c6.274-3.613 13.152-6.828 17.794-12.55l1.959-3.82.644-3.931-.66-3.931-1.975-3.82c-6.751-8.158-18.431-12.893-27.403-18.05-18.933-10.887-37.857-21.782-56.789-32.668-22.866-13.155-48.104-34.15-76.152-30.982-9.769 1.106-17.706 5.229-26.002 10.012l-44.8 25.816a649534.777 649534.777 0 0 1-104.255 60.085c-20.119 11.595-41.281 13.02-61.837 1.249-17.253-9.876-34.465-19.839-51.694-29.763-9.777-5.627-19.267-8.675-30.676-8.969-69.097-1.775-138.466.031-207.587.039-9.554 0-18.957-.31-27.937-4.042-10.087-4.194-19.482-10.784-28.9-16.211-33.232-19.14-67.028-37.539-99.782-57.475-3.805-2.316-7.364-4.632-10.198-8.165l-1.959-3.812-.653-3.931.661-3.932 1.966-3.812c4.937-6.231 12.938-9.733 19.69-13.617 14.401-8.292 28.812-16.584 43.214-24.877 14.402-8.293 28.399-16.346 42.594-24.52 6.919-3.979 15.039-7.544 20.198-13.839l2.031-3.836c1.504-5.897.7-12.534.708-18.535l.032-40.92c.008-13.379.024-26.757.032-40.126 0-6.184.947-13.243-.677-19.331l-2.022-3.844c-8.447-10.035-23.693-15.853-34.76-22.219-15.166-8.731-30.126-18.09-45.603-26.247-25.796-13.593-48.048-1.91-70.619 11.07-17.595 10.123-35.19 20.238-52.792 30.361-9.96 5.73-19.872 9.335-31.583 9.208-25.772-.279-51.018-21.217-72.235-33.441-32.905-18.949-65.818-37.889-98.722-56.838l-.048-64.247c27.929 16.076 55.85 32.151 83.778 48.219 16.903 9.733 33.805 19.458 50.715 29.191 7.898 4.544 15.43 9.454 24.442 11.508 30.405 6.915 57.203-15.654 81.852-29.836 24.298-13.975 49.274-33.576 78.85-22.426 15.541 5.857 30.063 16.617 44.37 24.853 13.081 7.529 32.475 14.548 42.347 26.581l2.022 3.836c1.497 5.897.685 12.534.677 18.535l-.032 40.913c-.008 13.378-.024 26.748-.032 40.126 0 6.183.924 13.242-.708 19.322l-2.03 3.836c-4.968 6.144-12.866 9.614-19.578 13.474-14.41 8.292-28.812 16.585-43.223 24.87-14.41 8.284-28.398 16.345-42.602 24.51-6.95 4.004-15.182 7.593-20.31 13.975L55.467-.786l-.66 3.932.652 3.931 1.959 3.812c6.568 7.958 17.857 12.574 26.6 17.604 18.717 10.775 37.426 21.559 56.143 32.334 23.105 13.306 49.402 35.152 77.251 35.948 68.254 1.95 136.834-.032 205.119-.04 9.228 0 18.407-.183 27.284 2.793 14.18 4.751 27.356 14.596 40.206 21.997 24.959 14.365 50.078 31.841 79.344 16.553 55.643-29.071 107.687-65.035 163.322-94.114 24.927-13.028 46.877-2.141 68.684 10.393 33.239 19.124 66.996 37.555 99.805 57.403 3.853 2.332 7.46 4.664 10.334 8.229l1.974 3.82.661 3.931-.645 3.932-1.958 3.82c-10.048 12.415-30.548 19.903-43.908 27.607-34.322 19.792-68.644 39.576-102.966 59.369-78.954 45.521-157.9 91.042-236.854 136.563l-36.328 20.947c-6.274 3.621-13.161 6.836-17.81 12.558l-1.966 3.82-.653 3.939.66 3.939 1.967 3.82c5.597 6.781 14.506 10.656 21.99 14.962 16.448 9.478 32.904 18.956 49.353 28.435a619441.94 619441.94 0 0 1 100.912 58.143c10.23 5.897 19.776 9.064 31.766 9.749l-.04 64.326-.008.056Z" stroke="#fff" stroke-width="2" stroke-miterlimit="10"/></svg>