<svg width="129" height="21" viewBox="0 0 129 21" fill="none" xmlns="http://www.w3.org/2000/svg">
<path d="M29.1508 0.875C29.1508 0.543629 28.8771 0.275 28.5395 0.275H24.9865C24.6488 0.275 24.3751 0.543629 24.3751 0.875V12.2325C24.3751 13.8416 24.0316 14.9367 23.4494 15.623C22.885 16.2882 22.0137 16.665 20.7174 16.665C19.3897 16.665 18.4967 16.2858 17.9198 15.6186C17.3266 14.9326 16.9771 13.8394 16.9771 12.2325V6.875C16.9771 6.54363 16.7033 6.275 16.3657 6.275H12.7852C12.4475 6.275 12.1738 6.54363 12.1738 6.875V12.2325C12.1738 13.8401 11.8263 14.934 11.2367 15.6201C10.664 16.2866 9.77822 16.665 8.46099 16.665C7.19183 16.665 6.31359 16.3033 5.72451 15.658C5.15177 15.0108 4.80327 13.912 4.80327 12.2325V0.875C4.80327 0.543629 4.52955 0.275 4.1919 0.275H0.611374C0.273722 0.275 0 0.543629 0 0.875V12.3425C0 15.0615 0.705694 17.2323 2.21064 18.7552C3.71535 20.2779 5.83024 21 8.46099 21C9.8834 21 11.1599 20.7793 12.2772 20.3211L12.2823 20.319C13.1705 19.9456 13.9363 19.4616 14.5702 18.8629C15.1934 19.4623 15.954 19.9461 16.8411 20.319L16.8531 20.3239C18.0027 20.7791 19.2943 21 20.7174 21C23.3454 21 25.4524 20.2886 26.9402 18.7827C28.4459 17.259 29.1508 15.0785 29.1508 12.3425V0.875Z" fill="#494E62"/>
<path d="M55.4651 0.875C55.4651 0.543629 55.1914 0.275 54.8538 0.275H51.2732C50.9356 0.275 50.6619 0.543629 50.6619 0.875V8.2225H41.9142V0.875C41.9142 0.543629 41.6405 0.275 41.3028 0.275H37.7223C37.3847 0.275 37.1109 0.543629 37.1109 0.875V20.125C37.1109 20.4564 37.3847 20.725 37.7223 20.725H41.3028C41.6405 20.725 41.9142 20.4564 41.9142 20.125V12.475H50.6619V20.125C50.6619 20.4564 50.9356 20.725 51.2732 20.725H54.8538C55.1914 20.725 55.4651 20.4564 55.4651 20.125V0.875Z" fill="#494E62"/>
<path fill-rule="evenodd" clip-rule="evenodd" d="M81.1175 20.725C81.4551 20.725 81.7288 20.4564 81.7288 20.125V9.455C81.7288 7.49565 81.3577 5.79076 80.5854 4.365C79.8342 2.92598 78.7572 1.82734 77.3583 1.08906C75.969 0.355864 74.3604 0 72.5518 0C70.7431 0 69.1345 0.355864 67.7452 1.08906C66.3464 1.82729 65.2608 2.92548 64.4914 4.36355L64.4899 4.36621C63.7365 5.7915 63.3747 7.49579 63.3747 9.455V20.125C63.3747 20.4564 63.6484 20.725 63.986 20.725H67.5115C67.8491 20.725 68.1228 20.4564 68.1228 20.125V15.775H76.9256V20.125C76.9256 20.4564 77.1993 20.725 77.5369 20.725H81.1175ZM75.7702 5.5218L75.7745 5.52616C76.5069 6.27266 76.9256 7.43561 76.9256 9.125V11.5775H68.1228V9.125C68.1228 7.43561 68.5415 6.27266 69.2739 5.52618L69.2782 5.52178C70.0184 4.75192 71.072 4.335 72.5242 4.335C73.9764 4.335 75.03 4.75192 75.7702 5.5218Z" fill="#494E62"/>
<path fill-rule="evenodd" clip-rule="evenodd" d="M102.368 20.4643C102.482 20.6275 102.67 20.725 102.872 20.725H106.728C106.955 20.725 107.163 20.6015 107.269 20.4042C107.375 20.207 107.36 19.9685 107.232 19.7849L103.213 14.0525C104.309 13.5089 105.189 12.7577 105.833 11.7943C106.625 10.6367 107.009 9.27032 107.009 7.7225C107.009 6.21616 106.655 4.88181 105.923 3.7445C105.191 2.60811 104.139 1.74619 102.793 1.15324C101.467 0.560808 99.9272 0.275 98.1897 0.275H90.2575C89.9198 0.275 89.6461 0.543629 89.6461 0.875V20.125C89.6461 20.4564 89.9198 20.725 90.2575 20.725H93.838C94.1757 20.725 94.4494 20.4564 94.4494 20.125V15.115H98.1897C98.3492 15.115 98.4951 15.113 98.6259 15.1084L102.368 20.4643ZM101.186 5.35114C101.828 5.87511 102.178 6.63477 102.178 7.7225C102.178 8.80799 101.829 9.58023 101.183 10.1239C100.527 10.658 99.507 10.9725 98.0245 10.9725H94.4494V4.5H98.0245C99.5093 4.5 100.531 4.81545 101.186 5.35114Z" fill="#494E62"/>
<path d="M118.561 20.125V13.355H126.35C126.688 13.355 126.962 13.0864 126.962 12.755V9.73C126.962 9.39863 126.688 9.13 126.35 9.13H118.561V8.08C118.561 6.76839 118.944 5.87264 119.622 5.28438C120.313 4.68472 121.391 4.335 122.963 4.335C124.593 4.335 125.894 4.70632 126.907 5.40774C127.061 5.51464 127.257 5.54549 127.438 5.49132C127.619 5.43714 127.764 5.30403 127.831 5.13072L128.96 2.21572C129.062 1.952 128.963 1.65405 128.723 1.49993C127.942 1.00057 127.043 0.628164 126.033 0.376014C125.023 0.124036 123.944 0 122.797 0C120.066 0 117.838 0.698036 116.19 2.16279C114.551 3.61745 113.758 5.61618 113.758 8.08V20.125C113.758 20.4564 114.032 20.725 114.369 20.725H117.95C118.288 20.725 118.561 20.4564 118.561 20.125Z" fill="#494E62"/>
</svg>
