<svg width="56" height="50" viewBox="0 0 56 50" fill="none" xmlns="http://www.w3.org/2000/svg">
<path fill-rule="evenodd" clip-rule="evenodd" d="M27.3346 38.726L26.5598 38.7694L22.3639 35.8564L27.3346 38.726ZM22.5473 32.5194C22.5449 32.4873 22.5441 32.4548 22.5441 32.4229V32.4396C22.5441 32.4662 22.5452 32.4928 22.5473 32.5194Z" fill="#F4FAF4"/>
<path fill-rule="evenodd" clip-rule="evenodd" d="M55.8979 22.6258L55.8973 28.5246V33.1851V36.3783C55.868 37.9734 54.8131 39.0812 53.7728 39.6817L51.5342 40.9741C50.4658 41.5907 49.2167 41.8303 48.0974 41.8303C46.9781 41.8303 45.729 41.5907 44.6612 40.9741L42.4653 39.6817C42.4653 39.6817 42.4653 41.3034 42.4653 44.0695C42.4653 45.6947 41.3946 46.8275 40.3402 47.4363L38.1017 48.7288C37.0333 49.3453 35.7842 49.585 34.6649 49.585C33.5456 49.585 32.2965 49.3453 31.2287 48.7288L27.9486 46.8352L24.6692 48.7288C23.6008 49.3453 22.3517 49.585 21.2324 49.585C20.1131 49.585 18.8646 49.3453 17.7962 48.7288L2.12511 39.6817C1.08478 39.0812 0.029824 37.9734 0.000584785 36.3783L0 36.2797V31.1452C0 29.8753 0.991211 28.826 2.25903 28.7537L10.5601 28.2803C10.8291 28.265 11.0963 28.2953 11.3519 28.3681C11.6039 28.4398 11.8442 28.5528 12.0624 28.7042L21.5131 35.2658C20.8704 34.7113 20.3342 33.9423 20.1862 32.9457C20.1646 32.7994 20.1523 32.6523 20.1499 32.5051C20.1488 32.4344 20.1494 32.3638 20.1523 32.2933L20.1564 32.2208L20.1605 32.1546V29.4424C20.1605 28.223 21.0762 27.1982 22.2885 27.0621L29.9199 26.2047C30.5977 26.1286 31.2755 26.3448 31.7842 26.7992C32.2632 27.2276 32.5491 27.8293 32.5801 28.4681L36.4122 30.6803L38.2145 29.4977L28.9901 24.1725C28.0247 23.6153 27.0539 22.6342 26.8878 21.2043C26.8773 21.1129 26.8703 21.0212 26.8674 20.9295C26.8633 20.8143 26.8644 20.6991 26.872 20.5841V17.687C26.872 16.3641 27.9445 15.2917 29.2673 15.2917H33.6789L33.7585 15.1272L33.7924 15.0565L33.7959 15.0478L33.8082 15.0222L33.8139 15.0105C33.9676 14.6935 34.1943 14.2261 34.4415 13.8548C34.5684 13.6649 34.8532 13.2569 35.3169 12.9373C35.5719 12.7618 35.9748 12.5471 36.5064 12.4833C37.0801 12.4144 37.635 12.542 38.1017 12.8111L50.7424 20.1086L53.6061 20.2328C54.8874 20.2883 55.8979 21.3433 55.8979 22.6258ZM27.3346 38.726L26.5598 38.7694L22.3639 35.8564L27.3346 38.726ZM22.5473 32.5194C22.5449 32.4873 22.5441 32.4548 22.5441 32.4229V32.4396C22.5441 32.4662 22.5452 32.4928 22.5473 32.5194Z" fill="#F4FAF4"/>
<path fill-rule="evenodd" clip-rule="evenodd" d="M27.3346 32.7377L26.5598 32.7811L22.3639 29.8681L27.3346 32.7377ZM22.5473 26.5311C22.5449 26.4991 22.5441 26.4665 22.5441 26.4346V26.4514C22.5441 26.4779 22.5452 26.5045 22.5473 26.5311Z" fill="#B2F2E1"/>
<path fill-rule="evenodd" clip-rule="evenodd" d="M55.8979 16.6375L55.8973 22.5363V27.1968V30.39C55.868 31.9851 54.8131 33.0929 53.7728 33.6934L51.5342 34.9859C50.4658 35.6024 49.2167 35.8421 48.0974 35.8421C46.9781 35.8421 45.729 35.6024 44.6612 34.9859L42.4653 33.6934C42.4653 33.6934 42.4653 35.3152 42.4653 38.0812C42.4653 39.7065 41.3946 40.8393 40.3402 41.448L38.1017 42.7405C37.0333 43.357 35.7842 43.5967 34.6649 43.5967C33.5456 43.5967 32.2965 43.357 31.2287 42.7405L27.9486 40.8469L24.6692 42.7405C23.6008 43.357 22.3517 43.5967 21.2324 43.5967C20.1131 43.5967 18.8646 43.357 17.7962 42.7405L2.12511 33.6934C1.08478 33.0929 0.029824 31.9851 0.000584785 30.39L0 30.2914V25.1569C0 23.887 0.991211 22.8377 2.25903 22.7655L10.5601 22.2921C10.8291 22.2767 11.0963 22.307 11.3519 22.3798C11.6039 22.4515 11.8442 22.5645 12.0624 22.7159L21.5131 29.2775C20.8704 28.723 20.3342 27.954 20.1862 26.9574C20.1646 26.8111 20.1523 26.664 20.1499 26.5168C20.1488 26.4462 20.1494 26.3756 20.1523 26.305L20.1564 26.2325L20.1605 26.1663V23.4541C20.1605 22.2347 21.0762 21.2099 22.2885 21.0738L29.9199 20.2164C30.5977 20.1403 31.2755 20.3565 31.7842 20.811C32.2632 21.2393 32.5491 21.8411 32.5801 22.4798L36.4122 24.692L38.2145 23.5094L28.9901 18.1842C28.0247 17.627 27.0539 16.6459 26.8878 15.216C26.8773 15.1246 26.8703 15.0329 26.8674 14.9412C26.8633 14.826 26.8644 14.7108 26.872 14.5959V9.60281C26.872 8.27996 27.9445 7.20754 29.2673 7.20754L33.6789 9.30341L33.7585 9.13893L33.7924 9.06818L33.7959 9.05955L33.8082 9.03397L33.8139 9.02223C33.9676 8.70525 34.1943 8.23785 34.4415 7.86651C34.5684 7.67661 34.8532 7.26865 35.3169 6.94906C35.5719 6.77348 35.9748 6.55879 36.5064 6.49497C37.0801 6.42612 37.635 6.55367 38.1017 6.82282L50.7424 14.1203L53.6061 14.2445C54.8874 14.3 55.8979 15.355 55.8979 16.6375ZM27.3346 32.7377L26.5598 32.7811L22.3639 29.8681L27.3346 32.7377ZM22.5473 26.5311C22.5449 26.4991 22.5441 26.4665 22.5441 26.4346V26.4514C22.5441 26.4779 22.5452 26.5045 22.5473 26.5311Z" fill="#B2F2E1"/>
<path fill-rule="evenodd" clip-rule="evenodd" d="M4.36449 16.8537L2.12574 18.1461C1.0712 18.7549 0.000701904 19.8877 0.000701904 21.5129C0.000701904 21.6339 0.00663652 21.7522 0.0180573 21.8678C0.00613509 21.9646 0 22.0631 0 22.163V24.9022L0.000584785 25.0008C0.029824 26.5959 1.08478 27.7037 2.12511 28.3042L17.7962 37.3513C18.8646 37.9678 20.1131 38.2075 21.2324 38.2075C22.3517 38.2075 23.6008 37.9678 24.6692 37.3513L27.9486 35.4578L31.2287 37.3513C32.2965 37.9678 33.5456 38.2075 34.6649 38.2075C35.7842 38.2075 37.0333 37.9678 38.1017 37.3513L40.3402 36.0588C41.3946 35.4501 42.4653 34.3173 42.4653 32.692V29.8296C42.4653 29.7458 42.461 29.6627 42.4524 29.5806C42.4613 29.4784 42.4659 29.374 42.4659 29.2675C42.4659 28.8995 42.411 28.5567 42.3139 28.2396C42.3501 28.2617 42.3864 28.2833 42.4227 28.3042L44.6612 29.5967C45.729 30.2133 46.9781 30.4529 48.0974 30.4529C49.2167 30.4529 50.4658 30.2133 51.5342 29.5967L53.7728 28.3042C54.8131 27.7037 55.868 26.5959 55.8973 25.0008V21.8076V21.6051C55.898 21.5745 55.8984 21.5438 55.8984 21.5129C55.8984 21.4821 55.898 21.4514 55.8973 21.4208V17.1471L55.8979 14.5418C55.8979 14.423 55.8892 14.3061 55.8724 14.1917C55.8895 14.0514 55.8984 13.9069 55.8984 13.7584C55.8984 12.1331 54.8279 11.0003 53.7734 10.3915L38.1021 1.34449C37.0341 0.727925 35.7851 0.488281 34.6658 0.488281C33.5465 0.488281 32.2975 0.727925 31.2295 1.34448L28.9908 2.63692C27.9362 3.2457 26.8657 4.37851 26.8657 6.00377C26.8657 6.08258 26.8682 6.16025 26.8731 6.23674C26.8724 6.26081 26.872 6.28506 26.872 6.3095V9.20667C26.8644 9.32166 26.8633 9.43686 26.8674 9.55199C26.8703 9.64373 26.8773 9.73539 26.8878 9.82684C27.0002 10.7947 27.4813 11.5569 28.0799 12.1212C28.0363 12.1205 27.9928 12.1202 27.9496 12.1202C26.8303 12.1202 25.5813 12.3598 24.5133 12.9764L22.2745 14.2688C21.22 14.8776 20.1495 16.0104 20.1495 17.6356C20.1495 17.7429 20.1541 17.8481 20.1631 17.951C20.1614 17.9888 20.1605 18.0268 20.1605 18.0649V20.7771L20.1564 20.8433L20.1523 20.9158C20.1494 20.9864 20.1488 21.057 20.1499 21.1276C20.1523 21.2748 20.1646 21.422 20.1862 21.5682C20.213 21.7488 20.2525 21.9218 20.3031 22.0875L11.2371 16.8537C10.1691 16.2371 8.92008 15.9975 7.80081 15.9975C6.68153 15.9975 5.4325 16.2371 4.36449 16.8537Z" fill="#7BE7CE"/>
<path d="M36.9039 3.41913C35.6674 2.70534 33.6628 2.70534 32.4263 3.41913L30.1876 4.71156C28.9512 5.42535 28.9512 6.58263 30.1876 7.29642L45.5872 16.1866C46.181 16.5294 46.5146 16.9943 46.5146 17.4791V17.7927C46.5146 18.2774 46.181 18.7423 45.5872 19.0851L43.6201 20.2207C42.3837 20.9345 42.3837 22.0918 43.6201 22.8056L45.8589 24.098C47.0953 24.8118 49.0999 24.8118 50.3364 24.098L52.5751 22.8056C53.8115 22.0918 53.8115 20.9345 52.5751 20.2207L50.608 19.0851C50.0142 18.7423 49.6806 18.2774 49.6806 17.7927V17.4791C49.6806 16.9943 50.0142 16.5294 50.608 16.1866L52.5751 15.051C53.8115 14.3372 53.8115 13.1799 52.5751 12.4661L36.9039 3.41913Z" fill="#494E62"/>
<path d="M10.0388 18.9283C8.80241 18.2145 6.79776 18.2145 5.56134 18.9283L3.32258 20.2207C2.08616 20.9345 2.08616 22.0918 3.32258 22.8056L18.9938 31.8526C20.2303 32.5664 22.2349 32.5664 23.4713 31.8526L27.9488 29.2677L10.0388 18.9283Z" fill="#494E62"/>
<path d="M36.2481 25.5473C36.2481 26.032 36.5817 26.4969 37.1755 26.8397L39.1426 27.9753C40.379 28.6891 40.379 29.8464 39.1426 30.5602L36.9039 31.8526C35.6674 32.5664 33.6628 32.5664 32.4264 31.8526L27.9488 29.2677L32.1547 26.8397C32.7485 26.4969 33.0821 26.032 33.0821 25.5473L33.0821 25.2337C33.0821 24.7489 32.7485 24.284 32.1547 23.9412L23.4713 18.9283C22.2349 18.2145 22.2349 17.0572 23.4713 16.3434L25.7101 15.051C26.9465 14.3372 28.9512 14.3372 30.1876 15.051L39.1426 20.2207C40.379 20.9345 40.379 22.0918 39.1426 22.8056L37.1755 23.9412C36.5817 24.284 36.2481 24.7489 36.2481 25.2337L36.2481 25.5473Z" fill="#494E62"/>
</svg>
