<svg width="137" height="163" fill="none" xmlns="http://www.w3.org/2000/svg"><path d="M40.994 144.729v10.965h-3.45v-10.46c0-3.426-1.528-5.193-4.195-5.193-2.987 0-4.836 3.21-4.836 6.276v9.377h-3.45v-18.033h3.45l-.071 4.725h.177c.534-2.669 2.916-5.23 6.188-5.23 4.196 0 6.187 2.632 6.187 7.573Zm-26.77-14.282 9.956 25.246h-3.875l-2.703-6.997H6.543l-2.667 6.997H0l9.956-25.246h4.268Zm2.383 15.364-4.41-11.793h-.177l-4.445 11.793h9.032Zm81.255.866c0 5.735-3.663 9.558-8.997 9.558-5.298 0-8.961-3.823-8.961-9.558 0-5.734 3.662-9.557 8.961-9.557 5.334 0 8.997 3.823 8.997 9.557Zm-3.556 0c0-4.256-2.347-6.6-5.44-6.6-3.06 0-5.406 2.344-5.406 6.6 0 4.292 2.347 6.565 5.405 6.565 3.094-.001 5.44-2.273 5.44-6.565Zm-45.439 3.606v-9.918h5.12v-2.705h-5.12v-7.213l-3.485 3.048v4.165h-3.769v2.705h3.77v10.568c0 3.138 1.777 4.761 4.87 4.761h3.734v-2.958h-2.88c-1.493 0-2.24-.865-2.24-2.453Zm87.255-2.741h-14.153c.178 3.715 2.311 5.915 5.583 5.915 2.525 0 4.338-1.262 4.943-3.606h3.449c-.675 4.111-4.018 6.383-8.534 6.383-5.05 0-8.819-3.498-8.819-9.557 0-5.771 3.627-9.557 8.926-9.557 5.12 0 8.676 3.281 8.676 9.161 0 .504-.036.901-.071 1.261Zm-3.45-2.235c-.071-3.246-2.027-5.554-5.227-5.554-3.129 0-5.156 2.38-5.37 5.554h10.597Zm-15.06 1.298c0 5.662-3.271 9.593-7.859 9.593-4.161 0-5.938-3.03-6.401-4.472h-.178v10.459h-3.45V137.66h3.45l-.071 4.112h.214c.391-1.731 2.382-4.652 6.329-4.652 4.588 0 7.966 3.823 7.966 9.485Zm-3.591.036c0-4.22-2.347-6.564-5.512-6.564-3.236 0-5.441 2.344-5.441 6.564 0 4.22 2.205 6.6 5.441 6.6 3.129 0 5.512-2.38 5.512-6.6Zm-37.385 3.642v-19.836h-3.413v20.486c0 3.138 1.6 4.761 4.73 4.761h2.097v-2.958h-1.209c-1.565 0-2.205-.865-2.205-2.453Zm-5.135-4.002c0 .504-.035.901-.07 1.262H57.277c.178 3.715 2.31 5.915 5.583 5.915 2.525 0 4.338-1.263 4.943-3.607h3.45c-.677 4.112-4.019 6.384-8.535 6.384-5.049 0-8.819-3.499-8.819-9.558 0-5.77 3.627-9.557 8.926-9.557 5.12 0 8.675 3.281 8.675 9.161Zm-3.52-.974c-.071-3.246-2.027-5.554-5.227-5.554-3.13 0-5.156 2.38-5.37 5.554h10.597ZM18.209 48.918v-.024c.07-21.807 17.62-39.548 39.122-39.548.176 0 .35.006.523.01l.303.007a38.899 38.899 0 0 1 9.301 1.344l.132.035c.69.19 1.397.406 2.095.64l.34.115a41.248 41.248 0 0 1 1.388.51c.129.05.259.103.389.155l.087.035c.19.078.38.156.57.238l.118.05.28.119c.29.128.59.263.89.404.097.046.193.09.288.137l.043.02c.281.136.54.264.793.393l.082.041.099.05c.29.15.6.315.948.508.083.045.163.091.246.137A39.102 39.102 0 0 1 89.81 26.916a40.168 40.168 0 0 1 2.392 4.131l.047.095c.096.189.19.38.282.573l.03.06.933-.815-.018-.044a50.017 50.017 0 0 0-.453-1.105c-.051-.12-.103-.243-.156-.364-.113-.263-.23-.524-.347-.786-.128-.284-.26-.564-.393-.845l-.051-.108A48.49 48.49 0 0 0 81.31 13.02l-.057-.055-.007-.007.39-.167c.251-.11.522-.22.825-.343a38.507 38.507 0 0 1 14.441-2.792c7.57 0 14.915 2.197 21.238 6.355a39.71 39.71 0 0 1 14.017 16.125l.029.063 1.042-.91-.012-.036a49.487 49.487 0 0 0-3.684-7.559l-.046-.076c-.168-.282-.35-.576-.539-.875l-.086-.135a49.192 49.192 0 0 0-1.234-1.854l-.126-.178a43.957 43.957 0 0 0-.495-.69c-.066-.089-.13-.178-.198-.267a39.299 39.299 0 0 0-.466-.617l-.073-.097-.122-.16a46.333 46.333 0 0 0-.611-.768c-.091-.114-.184-.225-.276-.336l-.053-.063a22.31 22.31 0 0 0-.311-.373c-.135-.16-.272-.319-.409-.478l-.183-.21-.024-.027a49.422 49.422 0 0 0-10.706-9.137l-.075-.046a57.772 57.772 0 0 0-1.069-.651l-.086-.052-.216-.128A47.934 47.934 0 0 0 88.071 0c-7.073 0-13.763 1.428-19.885 4.242A47.526 47.526 0 0 0 48.464 0c-6.543 0-12.89 1.3-18.865 3.862-5.771 2.475-10.954 6.02-15.405 10.534A49.024 49.024 0 0 0 3.808 30.02C1.28 36.08 0 42.518 0 49.154c0 4.712.66 9.38 1.961 13.875l.024.08 16.209-14.176.015-.015ZM134.573 35.28l-.024-.08-16.209 14.176-.018.017v.024c-.071 21.807-17.62 39.548-39.123 39.548-.175 0-.349-.006-.522-.01l-.304-.007a38.889 38.889 0 0 1-9.3-1.344l-.132-.035a39.564 39.564 0 0 1-2.095-.64l-.34-.115c-.198-.069-.397-.137-.592-.21a40.755 40.755 0 0 1-.796-.3c-.13-.05-.26-.104-.389-.156l-.088-.035c-.19-.078-.38-.156-.57-.237l-.117-.05a17.586 17.586 0 0 1-.28-.119 39.45 39.45 0 0 1-.89-.404c-.097-.046-.194-.09-.289-.137l-.042-.02a42.138 42.138 0 0 1-.793-.392l-.082-.04-.099-.05c-.29-.15-.6-.316-.949-.509a42.139 42.139 0 0 1-1.206-.691 39.101 39.101 0 0 1-12.602-12.068 40.166 40.166 0 0 1-2.393-4.13l-.048-.095c-.095-.19-.19-.38-.281-.573l-.03-.061-.934.815.019.045c.133.337.281.699.453 1.105.051.12.102.243.155.363a50.053 50.053 0 0 0 .74 1.631l.052.108.091.191A48.489 48.489 0 0 0 55.22 85.292l.057.055c.001.002.005.004.007.008l-.39.167a34.5 34.5 0 0 1-.826.343 38.509 38.509 0 0 1-14.441 2.792A38.546 38.546 0 0 1 18.39 82.3 39.703 39.703 0 0 1 4.373 66.177l-.03-.063-1.042.91.013.035a49.486 49.486 0 0 0 3.684 7.56l.045.075c.168.282.351.577.54.875l.085.136c.395.625.812 1.248 1.234 1.854l.126.178c.163.232.33.461.496.69l.197.266c.154.208.31.412.466.618l.074.096.122.16c.192.246.391.498.61.77l.277.335.053.063c.102.124.206.25.31.372l.41.479.183.21.023.027a49.435 49.435 0 0 0 10.707 9.137l.075.046a62.537 62.537 0 0 0 1.07.65l.085.053.216.127a47.934 47.934 0 0 0 24.058 6.477c7.072 0 13.763-1.428 19.885-4.242 6.22 2.814 12.856 4.242 19.722 4.242 6.542 0 12.889-1.3 18.865-3.862 5.771-2.475 10.953-6.02 15.404-10.535a49.005 49.005 0 0 0 10.387-15.624c2.526-6.06 3.808-12.497 3.808-19.133a49.775 49.775 0 0 0-1.958-13.88Z" fill="#fff"/><path d="M74.967 16.239a18.004 18.004 0 0 0-1.426-.658c-5.285-2.179-11.16-2.238-16.543-.169-5.364 2.062-9.764 6.046-12.389 11.22-3.56 7.016-5.367 14.6-5.367 22.545v.01c.011.268.37 8.252 2.479 13.992l15.978-14.132c.042-13.196 6.483-25.416 17.268-32.808ZM91.92 71.675c3.56-7.015 5.367-14.6 5.367-22.545v-.009c-.011-.269-.37-8.254-2.479-13.992L78.83 49.26C78.788 62.46 72.348 74.68 61.563 82.07c.424.22.902.441 1.425.658 5.285 2.178 11.16 2.24 16.544.17 5.361-2.063 9.761-6.047 12.388-11.222Z" fill="#fff"/></svg>