<svg width="361" height="404" viewBox="0 0 361 404" fill="none" xmlns="http://www.w3.org/2000/svg">
<g clip-path="url(#clip0_3261_183628)">
<path d="M81.5571 350.039C81.5571 349.159 80.792 348.446 79.847 348.446H69.9111C68.9661 348.446 68.201 349.159 68.201 350.039V380.175C68.201 384.444 67.24 387.35 65.612 389.171C64.034 390.936 61.5971 391.936 57.9711 391.936C54.2581 391.936 51.7611 390.93 50.1471 389.159C48.4883 387.339 47.5109 384.438 47.5109 380.175V365.959C47.5109 365.08 46.7454 364.367 45.8011 364.367H35.7873C34.843 364.367 34.0775 365.08 34.0775 365.959V380.175C34.0775 384.44 33.1057 387.343 31.457 389.163C29.8553 390.932 27.3779 391.936 23.694 391.936C20.1445 391.936 17.6885 390.976 16.041 389.264C14.4392 387.546 13.4646 384.631 13.4646 380.175V350.039C13.4646 349.159 12.6991 348.446 11.7547 348.446H1.74105C0.796751 348.446 0.03125 349.159 0.03125 350.039V380.466C0.03125 387.681 2.00485 393.441 6.21375 397.482C10.4219 401.522 16.3366 403.438 23.694 403.438C27.672 403.438 31.2419 402.853 34.3668 401.637L34.3809 401.631C36.8651 400.64 39.0069 399.356 40.7798 397.768C42.5226 399.358 44.6496 400.642 47.1305 401.631L47.1641 401.644C50.3791 402.852 53.9911 403.438 57.9711 403.438C65.3211 403.438 71.214 401.551 75.375 397.555C79.585 393.512 81.5571 387.726 81.5571 380.466V350.039Z" fill="white"/>
<path d="M155.151 350.039C155.151 349.159 154.385 348.446 153.441 348.446H143.428C142.483 348.446 141.718 349.159 141.718 350.039V369.534H117.253V350.039C117.253 349.159 116.488 348.446 115.543 348.446H105.53C104.586 348.446 103.82 349.159 103.82 350.039V401.117C103.82 401.996 104.586 402.709 105.53 402.709H115.543C116.488 402.709 117.253 401.996 117.253 401.117V380.818H141.718V401.117C141.718 401.996 142.483 402.709 143.428 402.709H153.441C154.385 402.709 155.151 401.996 155.151 401.117V350.039Z" fill="white"/>
<path fill-rule="evenodd" clip-rule="evenodd" d="M226.895 402.709C227.839 402.709 228.604 401.996 228.604 401.117V372.805C228.604 367.606 227.567 363.082 225.407 359.299C223.306 355.481 220.294 352.565 216.381 350.607C212.496 348.661 207.997 347.717 202.939 347.717C197.881 347.717 193.382 348.661 189.497 350.607C185.585 352.565 182.549 355.479 180.397 359.295L180.393 359.302C178.286 363.084 177.273 367.606 177.273 372.805V401.117C177.273 401.996 178.039 402.709 178.983 402.709H188.843C189.787 402.709 190.553 401.996 190.553 401.117V389.574H215.171V401.117C215.171 401.996 215.937 402.709 216.881 402.709H226.895ZM211.94 362.368L211.952 362.38C214 364.361 215.171 367.446 215.171 371.929V378.437H190.553V371.929C190.553 367.446 191.724 364.361 193.772 362.38L193.784 362.368C195.854 360.326 198.801 359.219 202.862 359.219C206.923 359.219 209.87 360.326 211.94 362.368Z" fill="white"/>
<path fill-rule="evenodd" clip-rule="evenodd" d="M286.32 402.017C286.639 402.45 287.166 402.709 287.73 402.709H298.514C299.149 402.709 299.732 402.381 300.027 401.857C300.323 401.334 300.283 400.701 299.923 400.214L288.683 385.004C291.749 383.561 294.209 381.568 296.01 379.012C298.226 375.94 299.3 372.315 299.3 368.208C299.3 364.211 298.31 360.67 296.262 357.652C294.216 354.637 291.273 352.35 287.51 350.777C283.802 349.205 279.495 348.446 274.635 348.446H252.451C251.507 348.446 250.742 349.159 250.742 350.039V401.117C250.742 401.996 251.507 402.709 252.451 402.709H262.465C263.409 402.709 264.175 401.996 264.175 401.117V387.823H274.635C275.081 387.823 275.49 387.818 275.855 387.806L286.32 402.017ZM283.016 361.916C284.81 363.306 285.789 365.322 285.789 368.208C285.789 371.088 284.813 373.137 283.007 374.579C281.173 375.997 278.319 376.831 274.173 376.831H264.175V359.657H274.173C278.326 359.657 281.182 360.494 283.016 361.916Z" fill="white"/>
<path d="M331.614 401.117V383.153H353.397C354.342 383.153 355.107 382.44 355.107 381.561V373.534C355.107 372.655 354.342 371.942 353.397 371.942H331.614V369.156C331.614 365.676 332.685 363.299 334.58 361.738C336.512 360.147 339.528 359.219 343.923 359.219C348.482 359.219 352.121 360.205 354.953 362.066C355.385 362.349 355.933 362.431 356.439 362.287C356.944 362.144 357.35 361.791 357.537 361.331L360.696 353.596C360.981 352.896 360.705 352.106 360.031 351.697C357.849 350.372 355.334 349.384 352.509 348.715C349.686 348.046 346.667 347.717 343.461 347.717C335.821 347.717 329.59 349.569 324.982 353.456C320.398 357.315 318.18 362.619 318.18 369.156V401.117C318.18 401.996 318.946 402.709 319.89 402.709H329.904C330.848 402.709 331.614 401.996 331.614 401.117Z" fill="white"/>
<path d="M333.791 181.303C333.617 190.838 327.318 197.459 321.106 201.049L307.74 208.774C301.36 212.46 293.902 213.892 287.219 213.892C280.535 213.892 273.077 212.46 266.701 208.774L253.59 201.049V227.276C253.59 236.991 247.196 243.762 240.901 247.4L227.535 255.126C221.155 258.811 213.697 260.244 207.014 260.244C200.331 260.244 192.872 258.811 186.496 255.126L166.911 243.808L147.33 255.126C140.95 258.811 133.492 260.244 126.809 260.244C120.126 260.244 112.671 258.811 106.291 255.126L12.7201 201.049C6.50845 197.459 0.209352 190.838 0.0347519 181.303L0.03125 180.714V215.06L0.0347519 215.649C0.209352 225.184 6.50845 231.805 12.7201 235.395L106.291 289.472C112.671 293.157 120.126 294.59 126.809 294.59C133.492 294.59 140.95 293.157 147.33 289.472L166.911 278.154L186.496 289.472C192.872 293.157 200.331 294.59 207.014 294.59C213.697 294.59 221.155 293.157 227.535 289.472L240.901 281.747C247.196 278.108 253.59 271.337 253.59 261.622V235.395L266.701 243.12C273.077 246.806 280.535 248.238 287.219 248.238C293.902 248.238 301.36 246.806 307.74 243.12L321.106 235.395C327.318 231.805 333.617 225.184 333.791 215.649V181.303Z" fill="#7BE7CE"/>
<path d="M333.76 163.589C333.586 173.124 327.287 179.745 321.075 183.335L307.709 191.06C301.329 194.746 293.871 196.178 287.188 196.178C280.504 196.178 273.046 194.746 266.67 191.06L253.559 183.335V209.562C253.559 219.277 247.165 226.048 240.87 229.686L227.504 237.412C221.124 241.097 213.666 242.53 206.983 242.53C200.3 242.53 192.841 241.097 186.465 237.412L166.88 226.094L147.299 237.412C140.919 241.097 133.461 242.53 126.778 242.53C120.095 242.53 112.64 241.097 106.26 237.412L12.6889 183.335C6.4772 179.745 0.178102 173.124 0.00350189 163.589L0 163V197.346L0.00350189 197.935C0.178102 207.47 6.4772 214.091 12.6889 217.681L106.26 271.758C112.64 275.443 120.095 276.876 126.778 276.876C133.461 276.876 140.919 275.443 147.299 271.758L166.88 260.44L186.465 271.758C192.841 275.443 200.3 276.876 206.983 276.876C213.666 276.876 221.124 275.443 227.504 271.758L240.87 264.033C247.165 260.394 253.559 253.623 253.559 243.908V217.681L266.67 225.406C273.046 229.092 280.504 230.524 287.188 230.524C293.871 230.524 301.329 229.092 307.709 225.406L321.075 217.681C327.287 214.091 333.586 207.47 333.76 197.935V163.589Z" fill="#7BE7CE"/>
<path d="M0.114952 148.468C0.0596521 148.979 0.03125 149.498 0.03125 150.024V180.714L0.0347519 181.304C0.209352 190.838 6.50845 197.459 12.7201 201.049L106.291 255.126C112.671 258.811 120.126 260.244 126.809 260.244C133.492 260.244 140.95 258.811 147.33 255.126L166.911 243.808L186.496 255.126C192.872 258.811 200.331 260.244 207.014 260.244C213.697 260.244 221.155 258.811 227.535 255.126L240.901 247.401C247.196 243.762 253.59 236.991 253.59 227.276V201.049L266.701 208.774C273.077 212.46 280.535 213.892 287.219 213.892C293.902 213.892 301.36 212.46 307.74 208.774L321.106 201.049C327.318 197.459 333.617 190.838 333.791 181.304V146.958C333.616 156.491 327.317 163.112 321.106 166.702L307.74 174.427C301.36 178.112 293.902 179.545 287.219 179.545C280.535 179.545 273.077 178.112 266.701 174.427L253.335 166.702C253.12 166.577 252.905 166.449 252.689 166.318C253.269 168.213 253.597 170.261 253.597 172.461C253.597 173.104 253.569 173.734 253.515 174.351C253.564 174.835 253.59 175.325 253.59 175.819V192.929C253.59 202.644 247.196 209.415 240.901 213.053L227.535 220.779C221.155 224.464 213.697 225.897 207.014 225.897C200.331 225.897 192.872 224.464 186.496 220.779L166.911 209.461L147.33 220.779C140.95 224.464 133.492 225.897 126.809 225.897C120.126 225.897 112.671 224.464 106.291 220.779L12.7201 166.702C6.84205 163.305 0.885852 157.193 0.114952 148.468Z" fill="#B2F2E1"/>
<path d="M0.114952 138.468C0.0596521 138.979 0.03125 139.498 0.03125 140.024V170.714L0.0347519 171.304C0.209352 180.838 6.50845 187.459 12.7201 191.049L106.291 245.126C112.671 248.811 120.126 250.244 126.809 250.244C133.492 250.244 140.95 248.811 147.33 245.126L166.911 233.808L186.496 245.126C192.872 248.811 200.331 250.244 207.014 250.244C213.697 250.244 221.155 248.811 227.535 245.126L240.901 237.401C247.196 233.762 253.59 226.991 253.59 217.276V191.049L266.701 198.774C273.077 202.46 280.535 203.892 287.219 203.892C293.902 203.892 301.36 202.46 307.74 198.774L321.106 191.049C327.318 187.459 333.617 180.838 333.791 171.304V136.958C333.616 146.491 327.317 153.112 321.106 156.702L307.74 164.427C301.36 168.112 293.902 169.545 287.219 169.545C280.535 169.545 273.077 168.112 266.701 164.427L253.335 156.702C253.12 156.577 252.905 156.449 252.689 156.318C253.269 158.213 253.597 160.261 253.597 162.461C253.597 163.104 253.569 163.734 253.515 164.351C253.564 164.835 253.59 165.325 253.59 165.819V182.929C253.59 192.644 247.196 199.415 240.901 203.053L227.535 210.779C221.155 214.464 213.697 215.897 207.014 215.897C200.331 215.897 192.872 214.464 186.496 210.779L166.911 199.461L147.33 210.779C140.95 214.464 133.492 215.897 126.809 215.897C120.126 215.897 112.671 214.464 106.291 210.779L12.7201 156.702C6.84205 153.305 0.885852 147.193 0.114952 138.468Z" fill="#B2F2E1"/>
<path d="M160.534 55.8401C160.548 55.9791 160.562 56.1181 160.578 56.2561C161.25 62.0421 164.122 66.5981 167.697 69.9721C167.437 69.9681 167.179 69.9651 166.921 69.9651C164.832 69.9651 162.668 70.1051 160.484 70.4101V57.0521C160.484 56.6441 160.501 56.2391 160.534 55.8401Z" fill="#B2F2E1"/>
<path d="M26.0951 98.259L12.7276 105.984C6.77215 109.426 0.731449 115.67 0.0943489 124.556C0.0525489 124.973 0.03125 125.409 0.03125 125.865V146.367L0.0347519 146.956C0.209352 156.49 6.50845 163.112 12.7201 166.702L106.291 220.779C112.671 224.464 120.126 225.897 126.809 225.897C133.492 225.897 140.95 224.464 147.33 220.779L166.911 209.46L186.496 220.779C192.872 224.464 200.331 225.897 207.014 225.897C213.697 225.897 221.155 224.464 227.535 220.779L240.901 213.053C247.197 209.415 253.59 202.643 253.59 192.929V175.819C253.59 175.325 253.564 174.835 253.515 174.351C253.569 173.734 253.597 173.104 253.597 172.461C253.597 170.261 253.269 168.213 252.689 166.318C252.905 166.449 253.12 166.577 253.335 166.702L266.701 174.427C273.077 178.112 280.535 179.545 287.219 179.545C293.902 179.545 301.36 178.112 307.74 174.427L321.106 166.702C327.318 163.112 333.617 156.49 333.791 146.956V126.789C333.798 126.564 333.802 126.337 333.802 126.109C333.802 125.881 333.798 125.654 333.791 125.429L333.795 80.319C333.799 80.133 333.802 79.946 333.802 79.757C333.802 70.043 327.41 63.272 321.113 59.633L227.541 5.55579C221.164 1.87039 213.706 0.437988 207.023 0.437988C200.34 0.437988 192.882 1.87039 186.505 5.55579L173.137 13.2811C166.841 16.92 160.449 23.6911 160.449 33.4058C160.449 33.8637 160.463 34.315 160.491 34.7598C160.486 34.9159 160.483 35.0733 160.483 35.2322V52.549C160.438 53.237 160.431 53.925 160.455 54.614C160.473 55.162 160.514 55.71 160.577 56.256C161.249 62.042 164.121 66.598 167.696 69.972C167.436 69.968 167.178 69.965 166.92 69.965C160.237 69.965 152.779 71.398 146.402 75.083L133.035 82.808C126.738 86.447 120.346 93.219 120.346 102.933C120.346 103.565 120.373 104.184 120.426 104.791C120.414 105.025 120.408 105.261 120.408 105.498V121.709L120.384 122.105L120.36 122.539C120.342 122.96 120.339 123.383 120.346 123.805C120.36 124.685 120.433 125.564 120.562 126.438C120.722 127.517 120.958 128.551 121.26 129.541L67.1311 98.259C60.7541 94.574 53.296 93.141 46.6131 93.141C39.9299 93.141 32.4721 94.574 26.0951 98.259Z" fill="#F4FAF4"/>
<path d="M220.381 17.9524C212.998 13.6858 201.029 13.6858 193.646 17.9524L180.279 25.6776C172.896 29.9442 172.896 36.8616 180.279 41.1282L272.229 94.268C275.775 96.317 277.766 99.096 277.766 101.993V103.868C277.766 106.765 275.775 109.544 272.229 111.593L260.484 118.381C253.101 122.647 253.101 129.565 260.484 133.831L273.851 141.557C281.234 145.823 293.203 145.823 300.586 141.557L313.954 133.831C321.336 129.565 321.336 122.647 313.954 118.381L302.208 111.593C298.663 109.544 296.671 106.765 296.671 103.868V101.993C296.671 99.096 298.663 96.317 302.208 94.268L313.954 87.48C321.336 83.213 321.336 76.296 313.954 72.029L220.381 17.9524Z" fill="#494E62"/>
<path d="M59.975 110.656C52.593 106.389 40.6231 106.389 33.2404 110.656L19.8729 118.381C12.4903 122.647 12.4903 129.565 19.8729 133.831L113.445 187.908C120.828 192.175 132.798 192.175 140.18 187.908L166.915 172.458L59.975 110.656Z" fill="#494E62"/>
<path d="M216.467 150.219C216.467 153.117 218.459 155.896 222.004 157.944L233.75 164.732C241.132 168.999 241.132 175.916 233.75 180.183L220.382 187.908C213 192.175 201.03 192.175 193.647 187.908L166.912 172.458L192.025 157.944C195.571 155.896 197.562 153.117 197.562 150.219V148.345C197.562 145.447 195.571 142.668 192.025 140.619L140.177 110.656C132.795 106.389 132.795 99.472 140.177 95.205L153.545 87.48C160.927 83.213 172.897 83.213 180.28 87.48L233.75 118.381C241.132 122.647 241.132 129.565 233.75 133.831L222.004 140.619C218.459 142.668 216.467 145.447 216.467 148.345V150.219Z" fill="#494E62"/>
</g>
<defs>
<clipPath id="clip0_3261_183628">
<rect width="361" height="404" fill="white"/>
</clipPath>
</defs>
</svg>
