<svg width="463" height="512" fill="none" xmlns="http://www.w3.org/2000/svg"><path d="M132.559 405.039c0-.88-.765-1.593-1.71-1.593h-9.936c-.945 0-1.71.713-1.71 1.593v30.136c0 4.269-.961 7.175-2.589 8.996-1.578 1.765-4.015 2.765-7.641 2.765-3.713 0-6.21-1.006-7.824-2.777-1.659-1.82-2.636-4.721-2.636-8.984v-14.216c0-.879-.766-1.592-1.71-1.592H86.789c-.944 0-1.71.713-1.71 1.592v14.216c0 4.265-.971 7.168-2.62 8.988-1.602 1.769-4.08 2.773-7.763 2.773-3.55 0-6.006-.96-7.653-2.672-1.602-1.718-2.577-4.633-2.577-9.089v-30.136c0-.88-.765-1.593-1.71-1.593H52.744c-.944 0-1.71.713-1.71 1.593v30.427c0 7.215 1.974 12.975 6.183 17.016 4.208 4.04 10.123 5.956 17.48 5.956 3.978 0 7.548-.585 10.673-1.801l.014-.006c2.484-.991 4.626-2.275 6.399-3.863 1.743 1.59 3.87 2.874 6.35 3.863l.034.013c3.215 1.208 6.827 1.794 10.807 1.794 7.35 0 13.243-1.887 17.404-5.883 4.21-4.043 6.182-9.829 6.182-17.089v-30.427ZM206.152 405.039c0-.88-.766-1.593-1.71-1.593h-10.013c-.945 0-1.71.713-1.71 1.593v19.495h-24.465v-19.495c0-.88-.765-1.593-1.71-1.593h-10.013c-.944 0-1.71.713-1.71 1.593v51.078c0 .879.766 1.592 1.71 1.592h10.013c.945 0 1.71-.713 1.71-1.592v-20.299h24.465v20.299c0 .879.765 1.592 1.71 1.592h10.013c.944 0 1.71-.713 1.71-1.592v-51.078Z" fill="#494E62"/><path fill-rule="evenodd" clip-rule="evenodd" d="M277.894 457.709c.944 0 1.709-.713 1.709-1.592v-28.312c0-5.199-1.037-9.723-3.197-13.506-2.101-3.818-5.113-6.734-9.026-8.692-3.885-1.946-8.384-2.89-13.442-2.89s-9.557.944-13.442 2.89c-3.912 1.958-6.948 4.872-9.1 8.688l-.004.007c-2.107 3.782-3.12 8.304-3.12 13.503v28.312c0 .879.766 1.592 1.71 1.592h9.86c.944 0 1.71-.713 1.71-1.592v-11.543h24.618v11.543c0 .879.766 1.592 1.71 1.592h10.014Zm-14.955-40.341.012.012c2.048 1.981 3.219 5.066 3.219 9.549v6.508h-24.618v-6.508c0-4.483 1.171-7.568 3.219-9.549l.012-.012c2.07-2.042 5.017-3.149 9.078-3.149 4.061 0 7.008 1.107 9.078 3.149ZM337.324 457.017c.319.433.846.692 1.41.692h10.784c.635 0 1.218-.328 1.513-.852a1.498 1.498 0 0 0-.104-1.643l-11.24-15.21c3.066-1.443 5.526-3.436 7.327-5.992 2.216-3.072 3.29-6.697 3.29-10.804 0-3.997-.99-7.538-3.038-10.556-2.046-3.015-4.989-5.302-8.752-6.875-3.708-1.572-8.015-2.331-12.875-2.331h-22.184c-.944 0-1.709.713-1.709 1.593v51.078c0 .879.765 1.592 1.709 1.592h10.014c.944 0 1.71-.713 1.71-1.592v-13.294h10.46c.446 0 .855-.005 1.22-.017l10.465 14.211Zm-3.304-40.101c1.794 1.39 2.773 3.406 2.773 6.292 0 2.88-.976 4.929-2.782 6.371-1.834 1.418-4.688 2.252-8.834 2.252h-9.998v-17.174h9.998c4.153 0 7.009.837 8.843 2.259Z" fill="#494E62"/><path d="M382.613 456.117v-17.964h21.783c.945 0 1.71-.713 1.71-1.592v-8.027c0-.879-.765-1.592-1.71-1.592h-21.783v-2.786c0-3.48 1.071-5.857 2.966-7.418 1.932-1.591 4.948-2.519 9.343-2.519 4.559 0 8.198.986 11.03 2.847.432.283.98.365 1.486.221a1.661 1.661 0 0 0 1.098-.956l3.159-7.735c.285-.7.009-1.49-.665-1.899-2.182-1.325-4.697-2.313-7.522-2.982-2.823-.669-5.842-.998-9.048-.998-7.64 0-13.871 1.852-18.479 5.739-4.584 3.859-6.802 9.163-6.802 15.7v31.961c0 .879.766 1.592 1.71 1.592h10.014c.944 0 1.71-.713 1.71-1.592Z" fill="#494E62"/><path d="M384.793 236.303c-.174 9.535-6.473 16.156-12.685 19.746l-13.366 7.725c-6.38 3.686-13.838 5.118-20.521 5.118-6.684 0-14.142-1.432-20.518-5.118l-13.111-7.725v26.227c0 9.715-6.394 16.486-12.689 20.124l-13.366 7.726c-6.38 3.685-13.838 5.118-20.521 5.118-6.683 0-14.142-1.433-20.518-5.118l-19.585-11.318-19.581 11.318c-6.38 3.685-13.838 5.118-20.521 5.118-6.683 0-14.138-1.433-20.518-5.118l-93.57-54.077c-6.213-3.59-12.512-10.211-12.686-19.746l-.004-.589v34.346l.004.589c.174 9.535 6.473 16.156 12.685 19.746l93.571 54.077c6.38 3.685 13.835 5.118 20.518 5.118s14.141-1.433 20.521-5.118l19.581-11.318 19.585 11.318c6.376 3.685 13.835 5.118 20.518 5.118s14.141-1.433 20.521-5.118l13.366-7.725c6.295-3.639 12.689-10.41 12.689-20.125v-26.227l13.111 7.725c6.376 3.686 13.834 5.118 20.518 5.118 6.683 0 14.141-1.432 20.521-5.118l13.366-7.725c6.212-3.59 12.511-10.211 12.685-19.746v-34.346Z" fill="#F4FAF4"/><path d="M51.117 203.468c-.055.511-.084 1.03-.084 1.556v30.69l.004.59c.174 9.534 6.473 16.155 12.685 19.745l93.571 54.077c6.38 3.685 13.835 5.118 20.518 5.118s14.141-1.433 20.521-5.118l19.581-11.318 19.585 11.318c6.376 3.685 13.835 5.118 20.518 5.118s14.141-1.433 20.521-5.118l13.366-7.725c6.295-3.639 12.689-10.41 12.689-20.125v-26.227l13.111 7.725c6.376 3.686 13.834 5.118 20.518 5.118 6.683 0 14.141-1.432 20.521-5.118l13.366-7.725c6.212-3.59 12.511-10.211 12.685-19.745v-34.346c-.175 9.533-6.474 16.154-12.685 19.744l-13.366 7.725c-6.38 3.685-13.838 5.118-20.521 5.118-6.684 0-14.142-1.433-20.518-5.118l-13.366-7.725c-.215-.125-.43-.253-.646-.384.58 1.895.908 3.943.908 6.143 0 .643-.028 1.273-.082 1.89.049.484.075.974.075 1.468v17.11c0 9.715-6.394 16.486-12.689 20.124l-13.366 7.726c-6.38 3.685-13.838 5.118-20.521 5.118-6.683 0-14.142-1.433-20.518-5.118l-19.585-11.318-19.581 11.318c-6.38 3.685-13.838 5.118-20.521 5.118-6.683 0-14.138-1.433-20.518-5.118l-93.57-54.077c-5.879-3.397-11.835-9.509-12.606-18.234ZM211.535 110.84c.014.139.028.278.044.416.672 5.786 3.544 10.342 7.119 13.716a46.66 46.66 0 0 0-7.213.438v-13.358c0-.408.017-.813.05-1.212Z" fill="#B2F2E1"/><path d="m77.097 153.259-13.367 7.725c-5.956 3.442-11.997 9.686-12.634 18.572-.041.417-.063.853-.063 1.309v20.502l.004.589c.174 9.534 6.473 16.156 12.685 19.746l93.571 54.077c6.38 3.685 13.835 5.118 20.518 5.118s14.141-1.433 20.521-5.118l19.581-11.319 19.585 11.319c6.376 3.685 13.835 5.118 20.518 5.118s14.141-1.433 20.521-5.118l13.366-7.726c6.296-3.638 12.689-10.41 12.689-20.124v-17.11c0-.494-.026-.984-.075-1.468.054-.617.082-1.247.082-1.89 0-2.2-.328-4.248-.908-6.143.216.131.431.259.646.384l13.366 7.725c6.376 3.685 13.834 5.118 20.518 5.118 6.683 0 14.141-1.433 20.521-5.118l13.366-7.725c6.212-3.59 12.511-10.212 12.685-19.746v-20.167a21.877 21.877 0 0 0 0-1.36l.004-45.11c.004-.186.007-.373.007-.562 0-9.714-6.392-16.485-12.689-20.124l-93.572-54.077c-6.377-3.686-13.835-5.118-20.518-5.118s-14.141 1.432-20.518 5.118l-13.368 7.725c-6.296 3.639-12.688 10.41-12.688 20.125 0 .458.014.909.042 1.354-.005.156-.008.313-.008.472v17.317a20.615 20.615 0 0 0-.028 2.065c.018.548.059 1.096.122 1.642.672 5.786 3.544 10.342 7.119 13.716-.26-.004-.518-.007-.776-.007-6.683 0-14.141 1.433-20.518 5.118l-13.367 7.725c-6.297 3.639-12.689 10.411-12.689 20.125 0 .632.027 1.251.08 1.858-.012.234-.018.47-.018.707v16.211l-.024.396-.024.434a21.37 21.37 0 0 0-.014 1.266c.014.88.087 1.759.216 2.633.16 1.079.396 2.113.698 3.103l-54.129-31.282c-6.377-3.685-13.835-5.118-20.518-5.118s-14.141 1.433-20.518 5.118Z" fill="#7BE7CE"/><path d="M271.385 72.952c-7.383-4.266-19.352-4.266-26.735 0l-13.367 7.726c-7.383 4.266-7.383 11.184 0 15.45l91.95 53.14c3.546 2.049 5.537 4.828 5.537 7.725v1.875c0 2.897-1.991 5.676-5.537 7.725l-11.745 6.788c-7.383 4.266-7.383 11.184 0 15.45l13.367 7.726c7.383 4.266 19.352 4.266 26.735 0l13.368-7.726c7.382-4.266 7.382-11.184 0-15.45l-11.746-6.788c-3.545-2.049-5.537-4.828-5.537-7.725v-1.875c0-2.897 1.992-5.676 5.537-7.725l11.746-6.788c7.382-4.267 7.382-11.184 0-15.451l-93.573-54.077ZM110.975 165.656c-7.382-4.267-19.352-4.267-26.735 0l-13.367 7.725c-7.383 4.266-7.383 11.184 0 15.45l93.572 54.077c7.383 4.267 19.353 4.267 26.735 0l26.735-15.45-106.94-61.802Z" fill="#494E62"/><path d="M267.47 205.219c0 2.898 1.992 5.677 5.537 7.725l11.746 6.788c7.382 4.267 7.382 11.184 0 15.451l-13.368 7.725c-7.382 4.267-19.352 4.267-26.735 0l-26.735-15.45 25.113-14.514c3.546-2.048 5.537-4.827 5.537-7.725v-1.874c0-2.898-1.991-5.677-5.537-7.726l-51.848-29.963c-7.382-4.267-7.382-11.184 0-15.451l13.368-7.725c7.382-4.267 19.352-4.267 26.735 0l53.47 30.901c7.382 4.266 7.382 11.184 0 15.45l-11.746 6.788c-3.545 2.049-5.537 4.828-5.537 7.726v1.874Z" fill="#494E62"/></svg>