<svg width="346" height="99" viewBox="0 0 346 99" fill="none" xmlns="http://www.w3.org/2000/svg">
<path d="M186.318 34.3986C186.318 33.8665 185.882 33.4352 185.344 33.4352H179.686C179.148 33.4352 178.712 33.8665 178.712 34.3986V52.6351C178.712 55.2187 178.165 56.9771 177.238 58.0791C176.339 59.1473 174.951 59.7523 172.887 59.7523C170.772 59.7523 169.35 59.1434 168.431 58.0721C167.486 56.9706 166.929 55.2152 166.929 52.6351V44.0327C166.929 43.5006 166.493 43.0693 165.956 43.0693H160.253C159.715 43.0693 159.279 43.5006 159.279 44.0327V52.6351C159.279 55.2164 158.726 56.9728 157.787 58.0745C156.875 59.1446 155.464 59.7523 153.366 59.7523C151.345 59.7523 149.946 59.1714 149.008 58.1354C148.096 57.0961 147.541 55.3319 147.541 52.6351V34.3986C147.541 33.8665 147.105 33.4352 146.567 33.4352H140.864C140.327 33.4352 139.891 33.8665 139.891 34.3986V52.8117C139.891 57.1776 141.015 60.6631 143.411 63.1085C145.808 65.5534 149.176 66.7129 153.366 66.7129C155.632 66.7129 157.665 66.3586 159.444 65.6228L159.452 65.6194C160.867 65.0198 162.087 64.2426 163.096 63.2814C164.089 64.2438 165.3 65.0206 166.713 65.6194L166.732 65.6273C168.563 66.3582 170.62 66.7129 172.887 66.7129C177.072 66.7129 180.428 65.5705 182.797 63.1526C185.195 60.7061 186.318 57.2048 186.318 52.8117V34.3986Z" fill="white"/>
<path d="M228.228 34.3986C228.228 33.8665 227.792 33.4352 227.254 33.4352H221.552C221.014 33.4352 220.578 33.8665 220.578 34.3986V46.1963H206.646V34.3986C206.646 33.8665 206.21 33.4352 205.672 33.4352H199.97C199.432 33.4352 198.996 33.8665 198.996 34.3986V65.3079C198.996 65.84 199.432 66.2713 199.97 66.2713H205.672C206.21 66.2713 206.646 65.84 206.646 65.3079V53.0245H220.578V65.3079C220.578 65.84 221.014 66.2713 221.552 66.2713H227.254C227.792 66.2713 228.228 65.84 228.228 65.3079V34.3986Z" fill="white"/>
<path fill-rule="evenodd" clip-rule="evenodd" d="M269.084 66.2713C269.621 66.2713 270.057 65.84 270.057 65.3079V48.1753C270.057 45.0292 269.466 42.2917 268.236 40.0024C267.04 37.6918 265.324 35.9278 263.097 34.7423C260.884 33.5651 258.322 32.9937 255.441 32.9937C252.561 32.9937 249.999 33.5651 247.786 34.7423C245.558 35.9277 243.829 37.691 242.604 40.0001L242.602 40.0044C241.402 42.2929 240.825 45.0295 240.825 48.1753V65.3079C240.825 65.84 241.261 66.2713 241.799 66.2713H247.414C247.952 66.2713 248.388 65.84 248.388 65.3079V58.3232H262.407V65.3079C262.407 65.84 262.843 66.2713 263.381 66.2713H269.084ZM260.567 41.8599L260.574 41.8669C261.741 43.0655 262.407 44.9328 262.407 47.6455V51.5834H248.388V47.6455C248.388 44.9328 249.054 43.0655 250.221 41.8669L250.228 41.8598C251.407 40.6237 253.085 39.9543 255.397 39.9543C257.71 39.9543 259.388 40.6237 260.567 41.8599Z" fill="white"/>
<path fill-rule="evenodd" clip-rule="evenodd" d="M302.928 65.8527C303.11 66.1147 303.41 66.2713 303.731 66.2713H309.873C310.234 66.2713 310.566 66.073 310.734 65.7562C310.903 65.4395 310.88 65.0566 310.675 64.7618L304.274 55.5574C306.02 54.6845 307.421 53.4784 308.447 51.9314C309.709 50.0727 310.32 47.8788 310.32 45.3935C310.32 42.9748 309.756 40.8323 308.59 39.0061C307.425 37.1814 305.749 35.7975 303.606 34.8454C301.494 33.8941 299.041 33.4352 296.274 33.4352H283.641C283.103 33.4352 282.667 33.8665 282.667 34.3986V65.3079C282.667 65.84 283.103 66.2713 283.641 66.2713H289.343C289.881 66.2713 290.317 65.84 290.317 65.3079V57.2635H296.274C296.528 57.2635 296.76 57.2602 296.969 57.2529L302.928 65.8527ZM301.047 41.5859C302.068 42.4272 302.626 43.6469 302.626 45.3935C302.626 47.1364 302.07 48.3764 301.042 49.2493C299.997 50.107 298.372 50.6119 296.011 50.6119H290.317V40.2192H296.011C298.376 40.2192 300.002 40.7257 301.047 41.5859Z" fill="white"/>
<path d="M328.719 65.3079V54.4375H341.125C341.662 54.4375 342.098 54.0061 342.098 53.4741V48.6169C342.098 48.0848 341.662 47.6535 341.125 47.6535H328.719V45.9675C328.719 43.8615 329.329 42.4232 330.409 41.4787C331.509 40.5158 333.226 39.9543 335.729 39.9543C338.326 39.9543 340.398 40.5505 342.011 41.6767C342.257 41.8484 342.569 41.8979 342.857 41.8109C343.144 41.7239 343.375 41.5102 343.482 41.2319L345.281 36.5514C345.444 36.1279 345.286 35.6495 344.903 35.4021C343.66 34.6002 342.228 34.0023 340.619 33.5974C339.011 33.1928 337.292 32.9937 335.466 32.9937C331.115 32.9937 327.567 34.1145 324.942 36.4664C322.332 38.8021 321.069 42.0114 321.069 45.9675V65.3079C321.069 65.84 321.505 66.2713 322.043 66.2713H327.745C328.283 66.2713 328.719 65.84 328.719 65.3079Z" fill="white"/>
<path d="M110.622 61.0886C110.565 64.2755 108.481 66.4888 106.426 67.6886L102.004 70.2708C99.8938 71.5027 97.4265 71.9814 95.2156 71.9814C93.0048 71.9814 90.5375 71.5027 88.4283 70.2708L84.0909 67.6886V76.4551C84.0909 79.7023 81.9759 81.9656 79.8932 83.1818L75.4715 85.7641C73.3611 86.9958 70.8938 87.4747 68.683 87.4747C66.4721 87.4747 64.0048 86.9958 61.8956 85.7641L55.4166 81.9809L48.9388 85.7641C46.8285 86.9958 44.3612 87.4747 42.1503 87.4747C39.9395 87.4747 37.4733 86.9958 35.363 85.7641L4.40857 67.6886C2.35365 66.4888 0.269848 64.2755 0.212093 61.0886L0.210938 60.8916V72.372L0.212093 72.569C0.269848 75.7558 2.35365 77.9692 4.40857 79.1689L35.363 97.2444C37.4733 98.4762 39.9395 98.9551 42.1503 98.9551C44.3612 98.9551 46.8285 98.4762 48.9388 97.2444L55.4167 93.4613L61.8956 97.2444C64.0048 98.4762 66.4721 98.9551 68.683 98.9551C70.8938 98.9551 73.3611 98.4762 75.4715 97.2444L79.8932 94.6622C81.9759 93.4459 84.0909 91.1827 84.0909 87.9355V79.1689L88.4283 81.7512C90.5375 82.9831 93.0048 83.4618 95.2156 83.4618C97.4265 83.4618 99.8938 82.9831 102.004 81.7512L106.426 79.1689C108.481 77.9692 110.565 75.7558 110.622 72.569L110.622 61.0886Z" fill="#7BE7CE"/>
<path d="M110.622 58.7151C110.565 61.9019 108.481 64.1153 106.426 65.315L102.004 67.8973C99.8938 69.1292 97.4265 69.6079 95.2156 69.6079C93.0048 69.6079 90.5375 69.1292 88.4283 67.8973L84.0909 65.315V74.0816C84.0909 77.3288 81.9759 79.592 79.8932 80.8083L75.4715 83.3905C73.3611 84.6223 70.8938 85.1012 68.683 85.1012C66.4721 85.1012 64.0048 84.6223 61.8956 83.3905L55.4166 79.6074L48.9388 83.3905C46.8285 84.6223 44.3612 85.1012 42.1503 85.1012C39.9395 85.1012 37.4733 84.6223 35.363 83.3905L4.40857 65.315C2.35365 64.1153 0.269848 61.9019 0.212093 58.7151L0.210938 58.5181V69.9984L0.212093 70.1954C0.269848 73.3823 2.35365 75.5956 4.40857 76.7954L35.363 94.8709C37.4733 96.1026 39.9395 96.5815 42.1503 96.5815C44.3612 96.5815 46.8285 96.1026 48.9388 94.8709L55.4167 91.0877L61.8956 94.8709C64.0048 96.1026 66.4721 96.5815 68.683 96.5815C70.8938 96.5815 73.3611 96.1026 75.4715 94.8709L79.8932 92.2887C81.9759 91.0724 84.0909 88.8091 84.0909 85.5619V76.7954L88.4283 79.3776C90.5375 80.6095 93.0048 81.0883 95.2156 81.0883C97.4265 81.0883 99.8938 80.6095 102.004 79.3776L106.426 76.7954C108.481 75.5956 110.565 73.3823 110.622 70.1954L110.622 58.7151Z" fill="#7BE7CE"/>
<path d="M0.238622 50.113C0.220322 50.284 0.210938 50.4575 0.210938 50.6332V60.8916L0.212093 61.0886C0.269848 64.2754 2.35365 66.4888 4.40857 67.6885L35.3629 85.764C37.4733 86.9958 39.9395 87.4747 42.1503 87.4747C44.3612 87.4747 46.8285 86.9958 48.9388 85.764L55.4166 81.9809L61.8956 85.764C64.0048 86.9958 66.4721 87.4747 68.683 87.4747C70.8938 87.4747 73.3611 86.9958 75.4715 85.764L79.8932 83.1818C81.9759 81.9655 84.0908 79.7023 84.0908 76.4551V67.6885L88.4283 70.2708C90.5375 71.5027 93.0048 71.9814 95.2156 71.9814C97.4265 71.9814 99.8938 71.5027 102.004 70.2708L106.426 67.6885C108.481 66.4888 110.565 64.2754 110.622 61.0886V49.6084C110.564 52.795 108.481 55.0081 106.426 56.2078L102.004 58.7901C99.8938 60.0219 97.4265 60.5007 95.2156 60.5007C93.0048 60.5007 90.5375 60.0219 88.4283 58.7901L84.0065 56.2078C83.9354 56.1663 83.8642 56.1235 83.793 56.0795C83.9848 56.713 84.0932 57.3977 84.0932 58.1328C84.0932 58.3477 84.0839 58.5583 84.066 58.7646C84.0825 58.9264 84.0908 59.0902 84.0908 59.2555V64.9744C84.0908 68.2215 81.9759 70.4848 79.8932 71.7011L75.4715 74.2833C73.3611 75.5151 70.8938 75.994 68.683 75.994C66.4721 75.994 64.0048 75.5151 61.8956 74.2833L55.4166 70.5002L48.9388 74.2833C46.8285 75.5151 44.3612 75.994 42.1503 75.994C39.9395 75.994 37.4733 75.5151 35.363 74.2833L4.40857 56.2078C2.46404 55.0725 0.493647 53.0296 0.238622 50.113Z" fill="#B2F2E1"/>
<path d="M53.3068 19.1519C53.3112 19.1983 53.316 19.2447 53.3213 19.2911C53.5434 21.2249 54.4937 22.748 55.6762 23.8755C55.5903 23.8741 55.5048 23.8734 55.4197 23.8734C54.7286 23.8734 54.0125 23.9202 53.2901 24.0221V19.557C53.2901 19.4205 53.2957 19.2854 53.3068 19.1519Z" fill="#B2F2E1"/>
<path d="M0.238622 45.3659C0.220322 45.5368 0.210938 45.7104 0.210938 45.886V56.1444L0.212093 56.3415C0.269848 59.5283 2.35365 61.7416 4.40857 62.9414L35.3629 81.0169C37.4733 82.2487 39.9395 82.7275 42.1503 82.7275C44.3612 82.7275 46.8285 82.2487 48.9388 81.0169L55.4166 77.2337L61.8956 81.0169C64.0048 82.2487 66.4721 82.7275 68.683 82.7275C70.8938 82.7275 73.3611 82.2487 75.4715 81.0169L79.8932 78.4347C81.9759 77.2184 84.0908 74.9551 84.0908 71.708V62.9414L88.4283 65.5236C90.5375 66.7555 93.0048 67.2343 95.2156 67.2343C97.4265 67.2343 99.8938 66.7555 102.004 65.5236L106.426 62.9414C108.481 61.7416 110.565 59.5283 110.622 56.3415V44.8613C110.564 48.0479 108.481 50.261 106.426 51.4607L102.004 54.0429C99.8938 55.2748 97.4265 55.7536 95.2156 55.7536C93.0048 55.7536 90.5375 55.2748 88.4283 54.0429L84.0065 51.4607C83.9354 51.4191 83.8642 51.3764 83.793 51.3324C83.9848 51.9659 84.0932 52.6506 84.0932 53.3857C84.0932 53.6006 84.0839 53.8112 84.066 54.0175C84.0825 54.1793 84.0908 54.3431 84.0908 54.5084V60.2272C84.0908 63.4744 81.9759 65.7377 79.8932 66.954L75.4715 69.5362C73.3611 70.768 70.8938 71.2468 68.683 71.2468C66.4721 71.2468 64.0048 70.768 61.8956 69.5362L55.4166 65.753L48.9388 69.5362C46.8285 70.768 44.3612 71.2468 42.1503 71.2468C39.9395 71.2468 37.4733 70.768 35.3629 69.5362L4.40857 51.4607C2.46404 50.3254 0.493647 48.2825 0.238622 45.3659Z" fill="#B2F2E1"/>
<path d="M8.83312 33.3303L4.41101 35.9125C2.44088 37.063 0.442558 39.15 0.231795 42.1202C0.217992 42.2596 0.210938 42.4054 0.210938 42.5576V49.4106L0.212093 49.6076C0.269848 52.7944 2.35365 55.0078 4.40857 56.2075L35.3629 74.283C37.4733 75.5148 39.9394 75.9937 42.1503 75.9937C44.3612 75.9937 46.8285 75.5148 48.9388 74.283L55.4166 70.4999L61.8956 74.283C64.0048 75.5148 66.4721 75.9937 68.683 75.9937C70.8938 75.9937 73.3611 75.5148 75.4715 74.283L79.8932 71.7008C81.9759 70.4845 84.0908 68.2213 84.0908 64.9741V59.2552C84.0908 59.0899 84.0824 58.9261 84.066 58.7644C84.0839 58.5581 84.0932 58.3474 84.0932 58.1325C84.0932 57.3974 83.9848 56.7127 83.793 56.0792C83.8641 56.1232 83.9353 56.166 84.0065 56.2075L88.4282 58.7898C90.5375 60.0217 93.0047 60.5004 95.2156 60.5004C97.4265 60.5004 99.8938 60.0217 102.004 58.7898L106.426 56.2075C108.481 55.0078 110.565 52.7944 110.622 49.6076V42.8667C110.625 42.7914 110.626 42.7156 110.626 42.6393C110.626 42.563 110.625 42.4872 110.622 42.412L110.623 27.3339C110.625 27.2717 110.626 27.2091 110.626 27.1461C110.626 23.899 108.511 21.6357 106.428 20.4193L75.4736 2.34395C73.364 1.1121 70.8968 0.633301 68.686 0.633301C66.4751 0.633301 64.008 1.1121 61.8984 2.34394L57.4763 4.92614C55.3933 6.14246 53.2788 8.40575 53.2788 11.6529C53.2788 11.806 53.2835 11.9568 53.2926 12.1055C53.2909 12.1577 53.2901 12.2103 53.2901 12.2634V18.0518C53.2751 18.2815 53.2728 18.5117 53.2809 18.7417C53.2866 18.925 53.3005 19.1081 53.3213 19.2908C53.5433 21.2247 54.4937 22.7477 55.6762 23.8752C55.5903 23.8738 55.5048 23.8731 55.4197 23.8731C53.2088 23.8731 50.7416 24.3519 48.6321 25.5837L44.21 28.1659C42.127 29.3823 40.0125 31.6456 40.0125 34.8927C40.0125 35.1039 40.0214 35.3109 40.0387 35.5137C40.0349 35.5921 40.033 35.6708 40.033 35.75V41.1688L40.0249 41.3011L40.0168 41.446C40.0111 41.5869 40.0099 41.728 40.0122 41.8691C40.0168 42.1632 40.0411 42.4572 40.0838 42.7494C40.1367 43.1099 40.2148 43.4556 40.3147 43.7864L22.4083 33.3303C20.2987 32.0985 17.8316 31.6197 15.6207 31.6197C13.4099 31.6197 10.9427 32.0985 8.83312 33.3303Z" fill="#F4FAF4"/>
<path d="M73.1086 6.48755C70.6663 5.06144 66.7066 5.06144 64.2644 6.48755L59.8423 9.06975C57.4 10.4959 57.4 12.808 59.8423 14.2342L90.2605 31.9963C91.4333 32.6811 92.0922 33.61 92.0922 34.5785V35.205C92.0922 36.1735 91.4333 37.1024 90.2605 37.7872L86.3749 40.0562C83.9326 41.4823 83.9326 43.7944 86.3749 45.2206L90.797 47.8028C93.2393 49.2289 97.199 49.2289 99.6412 47.8028L104.063 45.2206C106.506 43.7944 106.506 41.4823 104.063 40.0562L100.178 37.7872C99.0049 37.1024 98.346 36.1735 98.346 35.205V34.5785C98.346 33.61 99.0049 32.6811 100.178 31.9963L104.063 29.7274C106.506 28.3012 106.506 25.9891 104.063 24.563L73.1086 6.48755Z" fill="#494E62"/>
<path d="M20.0433 37.474C17.6011 36.0478 13.6414 36.0478 11.1991 37.474L6.77701 40.0561C4.33475 41.4823 4.33475 43.7944 6.77701 45.2205L37.7318 63.296C40.174 64.7221 44.1337 64.7221 46.576 63.296L55.4202 58.1316L20.0433 37.474Z" fill="#494E62"/>
<path d="M71.8134 50.6982C71.8134 51.6667 72.4723 52.5956 73.6451 53.2804L77.5307 55.5494C79.973 56.9755 79.973 59.2876 77.5307 60.7138L73.1086 63.296C70.6663 64.7221 66.7066 64.7221 64.2644 63.296L55.4202 58.1316L63.7279 53.2804C64.9007 52.5956 65.5596 51.6667 65.5596 50.6982L65.5596 50.0717C65.5596 49.1032 64.9007 48.1743 63.7279 47.4895L46.576 37.474C44.1337 36.0478 44.1337 33.7357 46.576 32.3096L50.9981 29.7274C53.4403 28.3012 57.4 28.3012 59.8423 29.7274L77.5307 40.0562C79.973 41.4823 79.973 43.7944 77.5307 45.2206L73.6451 47.4895C72.4723 48.1743 71.8134 49.1032 71.8134 50.0717L71.8134 50.6982Z" fill="#494E62"/>
</svg>
