<svg width="463" height="512" viewBox="0 0 463 512" fill="none" xmlns="http://www.w3.org/2000/svg">
<path d="M132.557 405.039C132.557 404.159 131.792 403.446 130.847 403.446H120.911C119.966 403.446 119.201 404.159 119.201 405.039V435.175C119.201 439.444 118.24 442.35 116.612 444.171C115.034 445.936 112.597 446.936 108.971 446.936C105.258 446.936 102.761 445.93 101.147 444.159C99.4883 442.339 98.5109 439.438 98.5109 435.175V420.959C98.5109 420.08 97.7454 419.367 96.8011 419.367H86.7873C85.843 419.367 85.0775 420.08 85.0775 420.959V435.175C85.0775 439.44 84.1057 442.343 82.457 444.163C80.8553 445.932 78.3779 446.936 74.694 446.936C71.1445 446.936 68.6885 445.976 67.041 444.264C65.4392 442.546 64.4646 439.631 64.4646 435.175V405.039C64.4646 404.159 63.6991 403.446 62.7547 403.446H52.7411C51.7968 403.446 51.0312 404.159 51.0312 405.039V435.466C51.0312 442.681 53.0048 448.441 57.2137 452.482C61.4219 456.522 67.3366 458.438 74.694 458.438C78.672 458.438 82.2419 457.853 85.3668 456.637L85.3809 456.631C87.8651 455.64 90.0069 454.356 91.7798 452.768C93.5226 454.358 95.6496 455.642 98.1305 456.631L98.1641 456.644C101.379 457.852 104.991 458.438 108.971 458.438C116.321 458.438 122.214 456.551 126.375 452.555C130.585 448.512 132.557 442.726 132.557 435.466V405.039Z" fill="#494E62"/>
<path d="M206.151 405.039C206.151 404.159 205.385 403.446 204.441 403.446H194.428C193.483 403.446 192.718 404.159 192.718 405.039V424.534H168.253V405.039C168.253 404.159 167.488 403.446 166.543 403.446H156.53C155.586 403.446 154.82 404.159 154.82 405.039V456.117C154.82 456.996 155.586 457.709 156.53 457.709H166.543C167.488 457.709 168.253 456.996 168.253 456.117V435.818H192.718V456.117C192.718 456.996 193.483 457.709 194.428 457.709H204.441C205.385 457.709 206.151 456.996 206.151 456.117V405.039Z" fill="#494E62"/>
<path fill-rule="evenodd" clip-rule="evenodd" d="M277.895 457.709C278.839 457.709 279.604 456.996 279.604 456.117V427.805C279.604 422.606 278.567 418.082 276.407 414.299C274.306 410.481 271.294 407.565 267.381 405.607C263.496 403.661 258.997 402.717 253.939 402.717C248.881 402.717 244.382 403.661 240.497 405.607C236.585 407.565 233.549 410.479 231.397 414.295L231.393 414.302C229.286 418.084 228.273 422.606 228.273 427.805V456.117C228.273 456.996 229.039 457.709 229.983 457.709H239.843C240.787 457.709 241.553 456.996 241.553 456.117V444.574H266.171V456.117C266.171 456.996 266.937 457.709 267.881 457.709H277.895ZM262.94 417.368L262.952 417.38C265 419.361 266.171 422.446 266.171 426.929V433.437H241.553V426.929C241.553 422.446 242.724 419.361 244.772 417.38L244.784 417.368C246.854 415.326 249.801 414.219 253.862 414.219C257.923 414.219 260.87 415.326 262.94 417.368Z" fill="#494E62"/>
<path fill-rule="evenodd" clip-rule="evenodd" d="M337.32 457.017C337.639 457.45 338.166 457.709 338.73 457.709H349.514C350.149 457.709 350.732 457.381 351.027 456.857C351.323 456.334 351.283 455.701 350.923 455.214L339.683 440.004C342.749 438.561 345.209 436.568 347.01 434.012C349.226 430.94 350.3 427.315 350.3 423.208C350.3 419.211 349.31 415.67 347.262 412.652C345.216 409.637 342.273 407.35 338.51 405.777C334.802 404.205 330.495 403.446 325.635 403.446H303.451C302.507 403.446 301.742 404.159 301.742 405.039V456.117C301.742 456.996 302.507 457.709 303.451 457.709H313.465C314.409 457.709 315.175 456.996 315.175 456.117V442.823H325.635C326.081 442.823 326.49 442.818 326.855 442.806L337.32 457.017ZM334.016 416.916C335.81 418.306 336.789 420.322 336.789 423.208C336.789 426.088 335.813 428.137 334.007 429.579C332.173 430.997 329.319 431.831 325.173 431.831H315.175V414.657H325.173C329.326 414.657 332.182 415.494 334.016 416.916Z" fill="#494E62"/>
<path d="M382.614 456.117V438.153H404.397C405.342 438.153 406.107 437.44 406.107 436.561V428.534C406.107 427.655 405.342 426.942 404.397 426.942H382.614V424.156C382.614 420.676 383.685 418.299 385.58 416.738C387.512 415.147 390.528 414.219 394.923 414.219C399.482 414.219 403.121 415.205 405.953 417.066C406.385 417.349 406.933 417.431 407.439 417.287C407.944 417.144 408.35 416.791 408.537 416.331L411.696 408.596C411.981 407.896 411.705 407.106 411.031 406.697C408.849 405.372 406.334 404.384 403.509 403.715C400.686 403.046 397.667 402.717 394.461 402.717C386.821 402.717 380.59 404.569 375.982 408.456C371.398 412.315 369.18 417.619 369.18 424.156V456.117C369.18 456.996 369.946 457.709 370.89 457.709H380.904C381.848 457.709 382.614 456.996 382.614 456.117Z" fill="#494E62"/>
<path d="M384.791 236.303C384.617 245.838 378.318 252.459 372.106 256.049L358.74 263.774C352.36 267.46 344.902 268.892 338.219 268.892C331.535 268.892 324.077 267.46 317.701 263.774L304.59 256.049V282.276C304.59 291.991 298.196 298.762 291.901 302.4L278.535 310.126C272.155 313.811 264.697 315.244 258.014 315.244C251.331 315.244 243.872 313.811 237.496 310.126L217.911 298.808L198.33 310.126C191.95 313.811 184.492 315.244 177.809 315.244C171.126 315.244 163.671 313.811 157.291 310.126L63.7201 256.049C57.5085 252.459 51.2094 245.838 51.0348 236.303L51.0312 235.714V270.06L51.0348 270.649C51.2094 280.184 57.5085 286.805 63.7201 290.395L157.291 344.472C163.671 348.157 171.126 349.59 177.809 349.59C184.492 349.59 191.95 348.157 198.33 344.472L217.911 333.154L237.496 344.472C243.872 348.157 251.331 349.59 258.014 349.59C264.697 349.59 272.155 348.157 278.535 344.472L291.901 336.747C298.196 333.108 304.59 326.337 304.59 316.622V290.395L317.701 298.12C324.077 301.806 331.535 303.238 338.219 303.238C344.902 303.238 352.36 301.806 358.74 298.12L372.106 290.395C378.318 286.805 384.617 280.184 384.791 270.649V236.303Z" fill="#F4FAF4"/>
<path d="M384.76 218.589C384.586 228.124 378.287 234.745 372.075 238.335L358.709 246.06C352.329 249.746 344.871 251.178 338.188 251.178C331.504 251.178 324.046 249.746 317.67 246.06L304.559 238.335V264.562C304.559 274.277 298.165 281.048 291.87 284.686L278.504 292.412C272.124 296.097 264.666 297.53 257.983 297.53C251.3 297.53 243.841 296.097 237.465 292.412L217.88 281.094L198.299 292.412C191.919 296.097 184.461 297.53 177.778 297.53C171.095 297.53 163.64 296.097 157.26 292.412L63.6889 238.335C57.4772 234.745 51.1781 228.124 51.0035 218.589L51 218V252.346L51.0035 252.935C51.1781 262.47 57.4772 269.091 63.6889 272.681L157.26 326.758C163.64 330.443 171.095 331.876 177.778 331.876C184.461 331.876 191.919 330.443 198.299 326.758L217.88 315.44L237.465 326.758C243.841 330.443 251.3 331.876 257.983 331.876C264.666 331.876 272.124 330.443 278.504 326.758L291.87 319.033C298.165 315.394 304.559 308.623 304.559 298.908V272.681L317.67 280.406C324.046 284.092 331.504 285.524 338.188 285.524C344.871 285.524 352.329 284.092 358.709 280.406L372.075 272.681C378.287 269.091 384.586 262.47 384.76 252.935V218.589Z" fill="#F4FAF4"/>
<path d="M51.115 203.468C51.0597 203.979 51.0312 204.498 51.0312 205.024V235.714L51.0348 236.304C51.2094 245.838 57.5085 252.459 63.7201 256.049L157.291 310.126C163.671 313.811 171.126 315.244 177.809 315.244C184.492 315.244 191.95 313.811 198.33 310.126L217.911 298.808L237.496 310.126C243.872 313.811 251.331 315.244 258.014 315.244C264.697 315.244 272.155 313.811 278.535 310.126L291.901 302.401C298.196 298.762 304.59 291.991 304.59 282.276V256.049L317.701 263.774C324.077 267.46 331.535 268.892 338.219 268.892C344.902 268.892 352.36 267.46 358.74 263.774L372.106 256.049C378.318 252.459 384.617 245.838 384.791 236.304V201.958C384.616 211.491 378.317 218.112 372.106 221.702L358.74 229.427C352.36 233.112 344.902 234.545 338.219 234.545C331.535 234.545 324.077 233.112 317.701 229.427L304.335 221.702C304.12 221.577 303.905 221.449 303.689 221.318C304.269 223.213 304.597 225.261 304.597 227.461C304.597 228.104 304.569 228.734 304.515 229.351C304.564 229.835 304.59 230.325 304.59 230.819V247.929C304.59 257.644 298.196 264.415 291.901 268.053L278.535 275.779C272.155 279.464 264.697 280.897 258.014 280.897C251.331 280.897 243.872 279.464 237.496 275.779L217.911 264.461L198.33 275.779C191.95 279.464 184.492 280.897 177.809 280.897C171.126 280.897 163.671 279.464 157.291 275.779L63.7201 221.702C57.8421 218.305 51.8859 212.193 51.115 203.468Z" fill="#B2F2E1"/>
<path d="M51.115 203.468C51.0597 203.979 51.0312 204.498 51.0312 205.024V235.714L51.0348 236.304C51.2094 245.838 57.5085 252.459 63.7201 256.049L157.291 310.126C163.671 313.811 171.126 315.244 177.809 315.244C184.492 315.244 191.95 313.811 198.33 310.126L217.911 298.808L237.496 310.126C243.872 313.811 251.331 315.244 258.014 315.244C264.697 315.244 272.155 313.811 278.535 310.126L291.901 302.401C298.196 298.762 304.59 291.991 304.59 282.276V256.049L317.701 263.774C324.077 267.46 331.535 268.892 338.219 268.892C344.902 268.892 352.36 267.46 358.74 263.774L372.106 256.049C378.318 252.459 384.617 245.838 384.791 236.304V201.958C384.616 211.491 378.317 218.112 372.106 221.702L358.74 229.427C352.36 233.112 344.902 234.545 338.219 234.545C331.535 234.545 324.077 233.112 317.701 229.427L304.335 221.702C304.12 221.577 303.905 221.449 303.689 221.318C304.269 223.213 304.597 225.261 304.597 227.461C304.597 228.104 304.569 228.734 304.515 229.351C304.564 229.835 304.59 230.325 304.59 230.819V247.929C304.59 257.644 298.196 264.415 291.901 268.053L278.535 275.779C272.155 279.464 264.697 280.897 258.014 280.897C251.331 280.897 243.872 279.464 237.496 275.779L217.911 264.461L198.33 275.779C191.95 279.464 184.492 280.897 177.809 280.897C171.126 280.897 163.671 279.464 157.291 275.779L63.7201 221.702C57.8421 218.305 51.8859 212.193 51.115 203.468Z" fill="#B2F2E1"/>
<path d="M211.534 110.84C211.548 110.979 211.562 111.118 211.578 111.256C212.25 117.042 215.122 121.598 218.697 124.972C218.437 124.968 218.179 124.965 217.921 124.965C215.832 124.965 213.668 125.105 211.484 125.41V112.052C211.484 111.644 211.501 111.239 211.534 110.84Z" fill="#B2F2E1"/>
<path d="M77.0951 153.259L63.7276 160.984C57.7722 164.426 51.7314 170.67 51.0943 179.556C51.0525 179.973 51.0312 180.409 51.0312 180.865V201.367L51.0348 201.956C51.2094 211.49 57.5085 218.112 63.7201 221.702L157.291 275.779C163.671 279.464 171.126 280.897 177.809 280.897C184.492 280.897 191.95 279.464 198.33 275.779L217.911 264.46L237.496 275.779C243.872 279.464 251.331 280.897 258.014 280.897C264.697 280.897 272.155 279.464 278.535 275.779L291.901 268.053C298.197 264.415 304.59 257.643 304.59 247.929V230.819C304.59 230.325 304.564 229.835 304.515 229.351C304.569 228.734 304.597 228.104 304.597 227.461C304.597 225.261 304.269 223.213 303.689 221.318C303.905 221.449 304.12 221.577 304.335 221.702L317.701 229.427C324.077 233.112 331.535 234.545 338.219 234.545C344.902 234.545 352.36 233.112 358.74 229.427L372.106 221.702C378.318 218.112 384.617 211.49 384.791 201.956V181.789C384.798 181.564 384.802 181.337 384.802 181.109C384.802 180.881 384.798 180.654 384.791 180.429L384.795 135.319C384.799 135.133 384.802 134.946 384.802 134.757C384.802 125.043 378.41 118.272 372.113 114.633L278.541 60.5558C272.164 56.8704 264.706 55.438 258.023 55.438C251.34 55.438 243.882 56.8704 237.505 60.5558L224.137 68.2811C217.841 71.92 211.449 78.6911 211.449 88.4058C211.449 88.8637 211.463 89.315 211.491 89.7598C211.486 89.9159 211.483 90.0733 211.483 90.2322V107.549C211.438 108.237 211.431 108.925 211.455 109.614C211.473 110.162 211.514 110.71 211.577 111.256C212.249 117.042 215.121 121.598 218.696 124.972C218.436 124.968 218.178 124.965 217.92 124.965C211.237 124.965 203.779 126.398 197.402 130.083L184.035 137.808C177.738 141.447 171.346 148.219 171.346 157.933C171.346 158.565 171.373 159.184 171.426 159.791C171.414 160.025 171.408 160.261 171.408 160.498V176.709L171.384 177.105L171.36 177.539C171.342 177.96 171.339 178.383 171.346 178.805C171.36 179.685 171.433 180.564 171.562 181.438C171.722 182.517 171.958 183.551 172.26 184.541L118.131 153.259C111.754 149.574 104.296 148.141 97.6131 148.141C90.9299 148.141 83.4721 149.574 77.0951 153.259Z" fill="#7BE7CE"/>
<path d="M271.381 72.9524C263.998 68.6858 252.029 68.6858 244.646 72.9524L231.279 80.6776C223.896 84.9442 223.896 91.8616 231.279 96.1282L323.229 149.268C326.775 151.317 328.766 154.096 328.766 156.993V158.868C328.766 161.765 326.775 164.544 323.229 166.593L311.484 173.381C304.101 177.647 304.101 184.565 311.484 188.831L324.851 196.557C332.234 200.823 344.203 200.823 351.586 196.557L364.954 188.831C372.336 184.565 372.336 177.647 364.954 173.381L353.208 166.593C349.663 164.544 347.671 161.765 347.671 158.868V156.993C347.671 154.096 349.663 151.317 353.208 149.268L364.954 142.48C372.336 138.213 372.336 131.296 364.954 127.029L271.381 72.9524Z" fill="#494E62"/>
<path d="M110.975 165.656C103.593 161.389 91.6231 161.389 84.2404 165.656L70.8729 173.381C63.4903 177.647 63.4903 184.565 70.8729 188.831L164.445 242.908C171.828 247.175 183.798 247.175 191.18 242.908L217.915 227.458L110.975 165.656Z" fill="#494E62"/>
<path d="M267.467 205.219C267.467 208.117 269.459 210.896 273.004 212.944L284.75 219.732C292.132 223.999 292.132 230.916 284.75 235.183L271.382 242.908C264 247.175 252.03 247.175 244.647 242.908L217.912 227.458L243.025 212.944C246.571 210.896 248.562 208.117 248.562 205.219V203.345C248.562 200.447 246.571 197.668 243.025 195.619L191.177 165.656C183.795 161.389 183.795 154.472 191.177 150.205L204.545 142.48C211.927 138.213 223.897 138.213 231.28 142.48L284.75 173.381C292.132 177.647 292.132 184.565 284.75 188.831L273.004 195.619C269.459 197.668 267.467 200.447 267.467 203.345V205.219Z" fill="#494E62"/>
</svg>
