<svg width="512" height="206" fill="none" xmlns="http://www.w3.org/2000/svg"><path d="M273.403 84.085a1.22 1.22 0 0 0-1.232-1.207h-7.164c-.68 0-1.232.54-1.232 1.207v22.842c0 3.236-.693 5.438-1.867 6.818-1.138 1.338-2.894 2.096-5.508 2.096-2.677 0-4.477-.763-5.64-2.104-1.196-1.38-1.901-3.579-1.901-6.81V96.152a1.22 1.22 0 0 0-1.232-1.207h-7.219a1.22 1.22 0 0 0-1.233 1.207v10.775c0 3.233-.701 5.433-1.889 6.813-1.155 1.34-2.941 2.101-5.597 2.101-2.558 0-4.329-.727-5.517-2.025-1.154-1.302-1.857-3.512-1.857-6.889V84.085a1.22 1.22 0 0 0-1.233-1.207h-7.219c-.68 0-1.232.54-1.232 1.207v23.063c0 5.468 1.423 9.834 4.457 12.897 3.034 3.062 7.297 4.514 12.601 4.514 2.868 0 5.442-.443 7.695-1.365l.01-.004c1.791-.751 3.335-1.725 4.613-2.929 1.256 1.206 2.789 2.179 4.578 2.929l.024.01c2.318.915 4.922 1.359 7.791 1.359 5.299 0 9.547-1.43 12.546-4.459 3.036-3.064 4.457-7.45 4.457-12.952V84.085ZM326.457 84.085a1.22 1.22 0 0 0-1.233-1.207h-7.219c-.68 0-1.232.54-1.232 1.207v14.777h-17.637V84.085a1.22 1.22 0 0 0-1.232-1.207h-7.219a1.22 1.22 0 0 0-1.233 1.207V122.8c0 .666.552 1.206 1.233 1.206h7.219c.68 0 1.232-.54 1.232-1.206v-15.386h17.637V122.8a1.22 1.22 0 0 0 1.232 1.206h7.219c.681 0 1.233-.54 1.233-1.206V84.085Z" fill="#494E62"/><path fill-rule="evenodd" clip-rule="evenodd" d="M378.176 124.006c.681 0 1.232-.54 1.232-1.206v-21.459c0-3.94-.748-7.37-2.305-10.237-1.515-2.894-3.686-5.104-6.506-6.588-2.801-1.475-6.045-2.19-9.691-2.19-3.646 0-6.89.715-9.691 2.19-2.82 1.484-5.009 3.693-6.56 6.585l-.003.005c-1.519 2.867-2.248 6.294-2.248 10.235V122.8c0 .666.551 1.206 1.232 1.206h7.108c.681 0 1.233-.54 1.233-1.206v-8.749h17.747v8.749c0 .666.552 1.206 1.233 1.206h7.219ZM367.395 93.43l.009.01c1.476 1.5 2.32 3.84 2.32 7.237v4.932h-17.747v-4.932c0-3.398.844-5.737 2.32-7.238l.009-.009c1.492-1.548 3.617-2.387 6.544-2.387 2.928 0 5.053.839 6.545 2.387ZM421.019 123.482c.23.328.611.524 1.017.524h7.774c.458 0 .878-.248 1.091-.645a1.185 1.185 0 0 0-.075-1.245l-8.103-11.529c2.21-1.093 3.984-2.604 5.282-4.542 1.598-2.328 2.371-5.076 2.371-8.189 0-3.03-.713-5.713-2.189-8-1.475-2.285-3.597-4.019-6.31-5.212-2.673-1.19-5.778-1.766-9.281-1.766h-15.993c-.68 0-1.232.54-1.232 1.207V122.8a1.22 1.22 0 0 0 1.232 1.206h7.219c.681 0 1.233-.54 1.233-1.206v-10.076h7.541c.321 0 .616-.004.879-.013l7.544 10.771Zm-2.381-30.395c1.293 1.054 1.999 2.582 1.999 4.77 0 2.182-.704 3.735-2.006 4.829-1.322 1.074-3.379 1.707-6.368 1.707h-7.208V91.375h7.208c2.993 0 5.052.635 6.375 1.712Z" fill="#494E62"/><path d="M453.668 122.8v-13.616h15.704a1.22 1.22 0 0 0 1.233-1.207v-6.083a1.22 1.22 0 0 0-1.233-1.207h-15.704v-2.112c0-2.638.773-4.44 2.139-5.622 1.392-1.206 3.567-1.91 6.735-1.91 3.287 0 5.91.747 7.952 2.158.311.215.706.277 1.071.168.364-.109.656-.377.792-.725l2.277-5.863c.205-.53.006-1.13-.479-1.44-1.573-1.003-3.386-1.752-5.423-2.26-2.035-.506-4.211-.756-6.523-.756-5.508 0-10 1.404-13.322 4.35-3.304 2.925-4.903 6.945-4.903 11.9V122.8c0 .666.552 1.206 1.233 1.206h7.219c.68 0 1.232-.54 1.232-1.206Z" fill="#494E62"/><path d="M177.58 117.515c-.073 3.992-2.711 6.764-5.312 8.267l-5.598 3.234c-2.671 1.543-5.795 2.143-8.593 2.143-2.799 0-5.922-.6-8.592-2.143l-5.491-3.234v10.98c0 4.067-2.678 6.902-5.314 8.426l-5.597 3.234c-2.672 1.543-5.795 2.143-8.594 2.143-2.799 0-5.922-.6-8.592-2.143l-8.202-4.739-8.2 4.739c-2.672 1.543-5.795 2.143-8.594 2.143-2.798 0-5.92-.6-8.592-2.143l-39.185-22.64c-2.601-1.503-5.239-4.275-5.312-8.267l-.002-.246v14.379l.002.247c.073 3.991 2.711 6.764 5.312 8.266l39.185 22.64c2.672 1.543 5.794 2.143 8.592 2.143 2.8 0 5.922-.6 8.594-2.143l8.2-4.738 8.202 4.738c2.67 1.543 5.793 2.143 8.592 2.143 2.799 0 5.922-.6 8.594-2.143l5.597-3.234c2.636-1.523 5.314-4.358 5.314-8.425v-10.981l5.491 3.235c2.67 1.543 5.793 2.142 8.592 2.142 2.798 0 5.922-.599 8.593-2.142l5.598-3.235c2.601-1.502 5.239-4.275 5.312-8.266v-14.38Z" fill="#F4FAF4"/><path d="M37.846 103.768a6.036 6.036 0 0 0-.035.651v12.849l.001.247c.073 3.992 2.711 6.764 5.312 8.267l39.185 22.64c2.672 1.542 5.794 2.142 8.592 2.142 2.8 0 5.922-.6 8.594-2.142l8.2-4.739 8.202 4.739c2.67 1.542 5.793 2.142 8.592 2.142 2.799 0 5.922-.6 8.594-2.142l5.597-3.235c2.636-1.523 5.314-4.358 5.314-8.425v-10.98l5.49 3.234c2.671 1.543 5.794 2.143 8.593 2.143 2.798 0 5.922-.6 8.593-2.143l5.598-3.234c2.601-1.503 5.239-4.275 5.312-8.267v-14.379c-.074 3.991-2.711 6.763-5.312 8.266l-5.598 3.234c-2.671 1.543-5.795 2.143-8.593 2.143-2.799 0-5.922-.6-8.593-2.143l-5.597-3.234c-.09-.052-.18-.106-.27-.161a8.91 8.91 0 0 1 .345 3.363c.021.203.032.408.032.615v7.163c0 4.067-2.678 6.902-5.314 8.426l-5.597 3.234c-2.672 1.543-5.795 2.142-8.594 2.142-2.799 0-5.922-.599-8.592-2.142l-8.202-4.739-8.2 4.739c-2.672 1.543-5.795 2.142-8.594 2.142-2.798 0-5.92-.599-8.592-2.142l-39.185-22.64c-2.461-1.422-4.956-3.981-5.278-7.634ZM105.024 64.988l.019.175c.281 2.422 1.484 4.33 2.981 5.742a19.653 19.653 0 0 0-3.021.183v-5.592c0-.171.007-.34.021-.508Z" fill="#B2F2E1"/><path d="m48.725 82.748-5.598 3.234c-2.494 1.441-5.023 4.055-5.29 7.775a5.497 5.497 0 0 0-.027.548v8.584l.002.246c.073 3.992 2.711 6.764 5.312 8.267l39.185 22.64c2.672 1.543 5.794 2.143 8.592 2.143 2.8 0 5.922-.6 8.594-2.143l8.2-4.738 8.202 4.738c2.67 1.543 5.793 2.143 8.592 2.143 2.799 0 5.922-.6 8.594-2.143l5.597-3.234c2.636-1.524 5.314-4.358 5.314-8.426v-7.163c0-.207-.011-.412-.032-.614a8.95 8.95 0 0 0-.345-3.364c.09.055.18.109.27.161l5.597 3.234c2.671 1.543 5.794 2.143 8.593 2.143 2.798 0 5.922-.6 8.593-2.143l5.598-3.234c2.601-1.503 5.239-4.275 5.312-8.267v-8.443a8.957 8.957 0 0 0 0-.57l.001-18.885c.002-.078.003-.156.003-.235 0-4.067-2.676-6.902-5.313-8.425l-39.186-22.64c-2.67-1.543-5.793-2.143-8.592-2.143-2.799 0-5.922.6-8.593 2.143l-5.597 3.234c-2.637 1.523-5.314 4.358-5.314 8.425 0 .192.006.38.017.567a6.47 6.47 0 0 0-.003.198v7.25a8.305 8.305 0 0 0-.011.864c.007.23.024.46.051.688.281 2.422 1.484 4.33 2.981 5.742a19.653 19.653 0 0 0-.325-.003c-2.799 0-5.922.6-8.592 2.143l-5.598 3.234c-2.637 1.524-5.314 4.359-5.314 8.426 0 .264.012.523.033.778a6.053 6.053 0 0 0-.007.295v6.788l-.01.165-.01.182a8.467 8.467 0 0 0 .085 1.633c.067.451.165.884.292 1.298L65.91 82.748c-2.67-1.543-5.794-2.143-8.592-2.143-2.799 0-5.922.6-8.593 2.143Z" fill="#7BE7CE"/><path d="M130.088 49.127c-3.091-1.786-8.104-1.787-11.195 0l-5.598 3.234c-3.092 1.786-3.092 4.682 0 6.469l38.506 22.247c1.485.858 2.319 2.021 2.319 3.234v.785c0 1.213-.834 2.377-2.319 3.234l-4.919 2.842c-3.091 1.787-3.091 4.683 0 6.469l5.598 3.234c3.092 1.786 8.104 1.786 11.196 0l5.598-3.234c3.092-1.786 3.092-4.682 0-6.469l-4.919-2.842c-1.485-.857-2.319-2.02-2.319-3.234v-.785c0-1.213.834-2.376 2.319-3.234l4.919-2.842c3.092-1.786 3.092-4.682 0-6.468l-39.186-22.64ZM62.913 87.938c-3.091-1.786-8.104-1.786-11.196 0l-5.597 3.234c-3.092 1.787-3.092 4.683 0 6.469l39.185 22.64c3.092 1.786 8.104 1.786 11.196 0l11.196-6.469-44.784-25.874ZM128.449 104.502c0 1.213.834 2.376 2.319 3.234l4.918 2.842c3.092 1.786 3.092 4.682 0 6.468l-5.598 3.235c-3.091 1.786-8.104 1.786-11.195 0l-11.196-6.469 10.516-6.076c1.485-.858 2.319-2.021 2.319-3.234v-.785c0-1.213-.834-2.376-2.319-3.234L96.501 87.938c-3.092-1.786-3.092-4.682 0-6.469l5.598-3.234c3.091-1.786 8.104-1.786 11.196 0l22.391 12.937c3.092 1.787 3.092 4.683 0 6.469l-4.918 2.842c-1.485.858-2.319 2.021-2.319 3.234v.785Z" fill="#494E62"/></svg>