<svg width="2218" height="1221" fill="none" xmlns="http://www.w3.org/2000/svg">
  <path
    d="M2210.18 690.284c-11.87 6.882-23.75 13.763-35.63 20.649-31.26 18.12-62.53 36.236-93.8 54.355-44.78 25.958-89.58 51.911-134.36 77.869-52.15 30.216-104.3 60.436-156.44 90.652-53.42 30.949-106.82 61.903-160.23 92.851-48.58 28.15-97.17 56.3-145.75 84.46-37.55 21.76-75.11 43.52-112.67 65.29-20.75 12.02-41.49 24.04-62.24 36.06-4.67 2.71-8.95 5.46-14.39 6.51-8.28 1.6-16.1-.22-23.24-4.35-13.81-7.99-27.61-15.98-41.42-23.97-28.08-16.26-56.16-32.51-84.24-48.77-39.07-22.61-78.14-45.23-117.21-67.85a603412.8 603412.8 0 0 1-142.115-82.252 2235960.39 2235960.39 0 0 1-155.755-90.156c-54.015-31.266-108.03-62.533-162.05-93.799a2529115.25 2529115.25 0 0 1-156.823-90.773l-143.81-83.24-120.86-69.959a1633393.55 1633393.55 0 0 0-88.28-51.097c-15.664-9.067-31.332-18.134-46.996-27.205-3.3-1.908-6.93-3.633-9.326-6.693l-1.09-2.15-.353-2.216.38-2.217 1.117-2.149c3.062-3.745 8.114-5.947 12.24-8.32 8.6-4.942 17.197-9.885 25.798-14.827l94.454-54.279 134.968-77.564c51.359-29.515 102.723-59.034 154.083-88.548 51.359-29.515 101.355-58.248 152.031-87.373 42.937-24.675 85.879-49.35 128.817-74.03 28.145-16.176 56.29-32.348 84.431-48.524 14.282-8.208 29.571-20.537 47.01-13.66 6.513 2.57 12.584 6.949 18.614 10.42 12.352 7.114 24.708 14.224 37.059 21.338 9.187 5.286 18.306 10.715 27.569 15.872 6.437 3.588 13.272 5.05 20.648 4.053 8.449-1.14 15.789-6.636 23.004-10.787 10.018-5.76 19.898-11.931 30.117-17.32 18.498-9.76 35.158 3.65 50.708 12.601 7.15 4.111 17.88 7.985 23.24 14.617l1.14 2.158c.84 3.311.38 7.038.38 10.407l-.02 22.977c-.01 7.512-.02 15.023-.02 22.53 0 3.472.52 7.436-.4 10.854l-1.14 2.154c-2.79 3.45-7.22 5.398-10.99 7.57l-24.27 13.968c-8.08 4.657-15.94 9.179-23.91 13.768-3.9 2.248-8.527 4.263-11.406 7.847l-1.104 2.14-.371 2.208.367 2.207 1.099 2.14c3.685 4.469 10.025 7.061 14.935 9.889 10.51 6.051 21.02 12.105 31.52 18.156 12.97 7.471 27.73 19.737 43.37 20.184 38.32 1.095 76.83-.018 115.17-.022 5.18 0 10.33-.103 15.32 1.568 7.96 2.668 15.35 8.2 22.57 12.356 14.02 8.07 28.12 17.883 44.55 9.294 31.24-16.323 60.45-36.517 91.69-52.849 14-7.319 26.32-1.202 38.56 5.84 18.67 10.738 37.62 21.092 56.04 32.236 2.16 1.31 4.19 2.619 5.8 4.625l1.11 2.145.37 2.207-.36 2.208-1.1 2.145c-5.64 6.971-17.15 11.18-24.65 15.506l-57.81 33.339-132.98 76.689c-6.8 3.919-13.6 7.842-20.4 11.761-3.52 2.033-7.39 3.838-10 7.056l-1.1 2.145-.37 2.211.37 2.212 1.1 2.15c3.43 4.227 9.37 6.685 13.98 9.343l30.85 17.776c18.27 10.532 36.31 21.717 54.92 31.651 5.25 2.801 10.63 3.646 16.52 3.722 10.64.138 21.29-.004 31.93-.009 11.63 0 23.26-.004 34.89-.009 6.3 0 12.33-.447 18.02-3.441 18.4-9.67 36.15-20.863 54.14-31.252 13.16-7.597 28.25-20.279 44.44-18.54 17.62 1.894 28.7 19.286 47.6 17.002 6.43-.777 11.5-3.99 16.96-7.149 10.44-6.028 20.87-12.056 31.31-18.08 10.44-6.023 21.42-12.369 32.13-18.553 5.25-3.034 10.23-6.412 16.28-7.579 7.59-1.465 14.98-.165 21.72 3.486 10.04 5.438 19.82 11.403 29.71 17.096 2.79 1.604 5.5 3.106 7.58 5.644l1.11 2.149.38 2.212-.37 2.212-1.09 2.149c-8.57 10.886-26.45 12.025-35.09 22.857l-1.1 2.149-.36 2.212.38 2.217 1.11 2.149c7.93 9.674 23.63 10.858 31.41 20.649l1.11 2.149.38 2.217-.37 2.216-1.09 2.149c-3.94 4.902-11.32 7.829-16.61 10.89-12.76 7.378-25.52 14.751-38.29 22.128-29.51 17.052-59.02 34.109-88.53 51.16-6.37 3.682-15.78 7.239-20.54 13.165l-1.1 2.149-.37 2.216.38 2.217 1.11 2.149c5.57 6.877 16.85 10.997 24.25 15.264 15.87 9.143 31.74 18.286 47.61 27.433 16.86 9.719 37.54 27.575 57.95 16.842 26.03-13.683 51.12-29.564 76.57-44.283 16.82-9.728 37.54-27.669 57.94-17.03 13.53 7.047 26.55 15.287 39.77 22.892l23.76 13.683c3.74 2.154 8 4.071 10.77 7.485l1.11 2.153.38 2.221-.36 2.221-1.09 2.154c-2.79 3.544-7.34 5.541-11.16 7.753-8.35 4.835-16.71 9.665-25.06 14.5l-24.7 14.295c-3.93 2.279-8.62 4.33-11.52 7.958l-1.09 2.154-.36 2.221.37 2.221 1.12 2.154c2.5 3.061 6.04 4.768 9.4 6.707 6.75 3.892 13.51 7.784 20.26 11.672l53.07 30.573c9.08 5.228 17.56 11.507 28.48 11.475 9.05-.026 15.73-4.388 23.21-8.718 32.31-18.709 64.61-37.419 96.92-56.129l46.39-26.869c6.6-3.82 13.7-9.218 21.25-11.059 12.73-3.106 22.27 2.649 32.79 8.704 15.13 8.709 30.65 16.972 45.49 26.177 1.93 1.197 3.65 2.449 5.1 4.223l1.12 2.153.38 2.221-.35 2.221-1.09 2.154c-1.29 1.609-2.73 2.663-4.4 3.847l.01-.009Z"
    stroke="#494E62" stroke-width="2" stroke-miterlimit="10" />
</svg>