<svg width="233" height="231" fill="none" xmlns="http://www.w3.org/2000/svg"><path d="M.11 107.746v45.636a24.853 24.853 0 0 0 12.514 21.574l91.334 52.232a24.852 24.852 0 0 0 24.676 0l91.334-52.232a24.852 24.852 0 0 0 12.515-21.574v-45.636l-103.849 59.39a24.857 24.857 0 0 1-24.676 0L.109 107.746Z" fill="#7BE7CE"/><path d="M.11 108.408a9.941 9.941 0 0 0 5.002 8.628l98.839 56.568a24.853 24.853 0 0 0 24.69 0l98.839-56.568a9.942 9.942 0 0 0 5.003-8.628V77.126a24.852 24.852 0 0 0-12.508-21.57L128.641 3.283a24.853 24.853 0 0 0-24.69 0L12.617 55.556A24.853 24.853 0 0 0 .11 77.126v31.282Z" fill="#B2F2E1"/><path d="m128.696 203.965-.016-3.212.398-.23 4.677-8.437 2.737-1.58-5.335 9.611-.36.208-2.101 3.64Zm-2.102 5.812v-18.075l2.285-1.319v18.075l-2.285 1.319Zm7.414-4.28-4.204-4.016 1.574-2.754 5.435 5.15-2.805 1.62ZM138.574 202.86v-13.556l2.286-1.32v13.557l-2.286 1.319Zm1.155-16.314c-.398.229-.739.273-1.025.132-.28-.15-.42-.44-.42-.869 0-.435.14-.887.42-1.355.286-.476.627-.829 1.025-1.059.397-.229.736-.269 1.016-.119.285.141.428.43.428.865 0 .429-.143.882-.428 1.359-.28.468-.619.816-1.016 1.046ZM149.414 183.045v2.119l-6.412 3.702v-2.118l6.412-3.703Zm-4.693-.538 2.286-1.319v12.823c0 .512.066.859.198 1.042a.526.526 0 0 0 .513.225c.214-.036.445-.125.695-.27.184-.105.344-.213.482-.322a38.1 38.1 0 0 0 .321-.256l.412 1.942a7.246 7.246 0 0 1-.565.503 7 7 0 0 1-.917.636c-.602.358-1.162.558-1.682.6-.52.041-.94-.117-1.261-.472-.321-.356-.482-.943-.482-1.761v-13.371ZM139.779 136.636l-2.385 1.377c-.091-.535-.262-.955-.512-1.258a1.81 1.81 0 0 0-.917-.609c-.362-.103-.767-.104-1.215-.004-.444.097-.915.29-1.414.578-.902.521-1.71 1.249-2.423 2.184-.708.933-1.269 2.024-1.682 3.275-.407 1.247-.611 2.6-.611 4.059 0 1.471.204 2.595.611 3.372.413.773.976 1.213 1.689 1.319.714.106 1.516-.098 2.408-.613a7.925 7.925 0 0 0 1.406-1.042 8.874 8.874 0 0 0 1.216-1.398 9.065 9.065 0 0 0 .917-1.651c.255-.594.43-1.208.527-1.84l2.385-1.368a12.752 12.752 0 0 1-.741 2.882c-.362.95-.828 1.86-1.399 2.731a14.278 14.278 0 0 1-1.942 2.365 11.843 11.843 0 0 1-2.384 1.818c-1.356.783-2.563 1.11-3.623.98-1.06-.135-1.896-.721-2.507-1.756-.606-1.039-.91-2.52-.91-4.444 0-1.93.306-3.763.918-5.498.611-1.742 1.447-3.289 2.507-4.642 1.059-1.36 2.265-2.429 3.615-3.209.83-.479 1.605-.788 2.323-.926.724-.147 1.374-.122 1.949.075.576.191 1.053.557 1.43 1.099.377.535.631 1.25.764 2.144ZM147.367 144.726c-1.101.635-2.061.899-2.882.79-.82-.109-1.457-.556-1.911-1.342-.453-.785-.68-1.878-.68-3.278 0-1.407.227-2.767.68-4.082a12.295 12.295 0 0 1 1.911-3.557 9.9 9.9 0 0 1 2.882-2.537c1.1-.636 2.061-.899 2.881-.79.821.109 1.457.559 1.911 1.35.453.791.68 1.89.68 3.296 0 1.401-.227 2.756-.68 4.065a12.313 12.313 0 0 1-1.911 3.548 9.912 9.912 0 0 1-2.881 2.537Zm.007-2.22a5.272 5.272 0 0 0 1.774-1.677 7.771 7.771 0 0 0 1.039-2.338c.229-.856.344-1.72.344-2.591 0-.865-.115-1.593-.344-2.184-.224-.6-.571-.986-1.039-1.156-.469-.171-1.06-.05-1.774.362a5.307 5.307 0 0 0-1.788 1.694 7.987 7.987 0 0 0-1.047 2.361 10.108 10.108 0 0 0-.337 2.577c0 .871.113 1.603.337 2.198.229.591.578.969 1.047 1.134.474.162 1.07.035 1.788-.38ZM157.675 130.452v8.049l-2.285 1.319v-13.556l2.194-1.267v2.207l.145-.084a8.025 8.025 0 0 1 1.269-2.462 7.247 7.247 0 0 1 2.193-1.92c.8-.462 1.501-.672 2.102-.631.601.035 1.068.337 1.399.905.331.567.497 1.41.497 2.528v8.623l-2.286 1.319v-8.305c0-.982-.221-1.622-.665-1.919-.443-.303-1.052-.231-1.826.216a5.14 5.14 0 0 0-1.414 1.214 5.954 5.954 0 0 0-1.323 3.764ZM173.734 115.673v2.118l-6.413 3.703v-2.118l6.413-3.703Zm-4.693-.538 2.285-1.32v12.824c0 .512.066.859.199 1.041a.52.52 0 0 0 .512.225c.214-.035.446-.125.695-.269a3.99 3.99 0 0 0 .482-.322c.138-.109.245-.194.321-.256l.413 1.942a7.292 7.292 0 0 1-.566.503c-.244.206-.55.418-.917.635-.601.359-1.162.559-1.682.6-.519.042-.94-.116-1.261-.472-.321-.356-.481-.943-.481-1.76v-13.371ZM176.262 127.77v-13.556l2.209-1.276v2.154l.122-.071a6.703 6.703 0 0 1 1.131-2.374c.545-.738 1.162-1.306 1.85-1.703a11.587 11.587 0 0 1 .97-.499v2.524a4.356 4.356 0 0 0-.489.186 5.36 5.36 0 0 0-2.148 1.575 6.18 6.18 0 0 0-.993 1.659 4.692 4.692 0 0 0-.367 1.783v8.278l-2.285 1.32ZM187.833 121.389c-.744.429-1.416.659-2.017.688-.602.024-1.078-.169-1.43-.578-.346-.412-.519-1.062-.519-1.95 0-.765.127-1.468.382-2.11a6.837 6.837 0 0 1 1.032-1.769c.433-.538.917-1.036 1.452-1.492a24.44 24.44 0 0 1 1.635-1.279l1.713-1.218c.438-.318.756-.605.955-.861.199-.256.298-.543.298-.86v-.062c0-.771-.189-1.259-.566-1.465-.372-.209-.927-.1-1.666.326-.769.445-1.376.992-1.819 1.642-.438.641-.741 1.249-.909 1.823l-2.148.675a9.592 9.592 0 0 1 1.116-2.639 10.214 10.214 0 0 1 1.704-2.096 10.863 10.863 0 0 1 2.026-1.523c.468-.27.965-.492 1.49-.666.53-.182 1.024-.238 1.483-.168.464.068.843.328 1.139.781.295.448.443 1.165.443 2.154v9.002l-2.232 1.288v-1.853l-.092.053a8.169 8.169 0 0 1-1.803 2.868 7.39 7.39 0 0 1-1.667 1.289Zm.497-2.405a5.88 5.88 0 0 0 1.621-1.368 6.337 6.337 0 0 0 1.031-1.725c.24-.609.36-1.182.36-1.717v-1.747c-.082.141-.24.32-.474.538-.23.209-.492.428-.787.657-.296.224-.584.44-.864.649l-.703.512c-.444.321-.849.663-1.216 1.028-.361.362-.652.75-.871 1.165a2.777 2.777 0 0 0-.321 1.315c0 .653.209 1.027.627 1.121.418.088.95-.054 1.597-.428ZM201.616 113.405c-1.136.656-2.115.924-2.935.803-.815-.129-1.442-.594-1.88-1.394-.438-.8-.658-1.88-.658-3.239 0-1.377.225-2.721.673-4.034a12.393 12.393 0 0 1 1.896-3.574 9.736 9.736 0 0 1 2.881-2.555c.892-.515 1.687-.782 2.385-.803.698-.026 1.261.178 1.689.613.433.433.69 1.081.772 1.946l-2.224 1.285c-.123-.565-.403-.951-.841-1.157-.433-.209-1.014-.103-1.743.318-.637.368-1.195.884-1.674 1.549a7.745 7.745 0 0 0-1.108 2.281 9.231 9.231 0 0 0-.397 2.736c0 .989.13 1.767.39 2.335.259.567.626.912 1.1 1.032.479.118 1.042-.01 1.689-.384a4.89 4.89 0 0 0 1.177-.953c.357-.394.655-.834.895-1.319a5.686 5.686 0 0 0 .512-1.549l2.224-1.284a8.677 8.677 0 0 1-.742 2.775 10.237 10.237 0 0 1-1.658 2.582 9.441 9.441 0 0 1-2.423 1.99ZM214.363 92.216v2.118l-6.413 3.702v-2.118l6.413-3.702Zm-4.693-.538 2.285-1.32v12.824c0 .512.067.859.199 1.041a.52.52 0 0 0 .512.225c.214-.035.446-.125.696-.269.183-.106.344-.213.481-.322.138-.109.245-.194.321-.256l.413 1.942a7.292 7.292 0 0 1-.566.503c-.244.206-.55.417-.917.635-.601.359-1.162.559-1.681.6-.52.041-.941-.116-1.262-.472-.321-.356-.481-.943-.481-1.761v-13.37Z" fill="#494E62"/><path d="M20.967 73.916c-5.35-3.088-5.35-8.095 0-11.183l86.065-49.686c5.349-3.088 14.022-3.088 19.371 0l86.065 49.686c5.35 3.088 5.35 8.095 0 11.183L126.403 123.6c-5.349 3.088-14.022 3.088-19.371 0L20.967 73.916Z" fill="#7BE7CE"/><g clip-path="url(#a)"><path fill-rule="evenodd" clip-rule="evenodd" d="M69.558 63.67c0-1.668 1.147-3.267 3.19-4.446l20.535-11.856c.681-.393 1.604-.614 2.567-.614h30.804c.962 0 1.886.22 2.567.614l30.803 17.784c2.042 1.18 3.19 2.778 3.19 4.446 0 1.668-1.148 3.267-3.19 4.446l-30.803 17.784c-2.043 1.18-4.813 1.842-7.701 1.842-2.889 0-5.659-.662-7.701-1.842L72.748 68.116c-2.043-1.18-3.19-2.778-3.19-4.446Zm8.324-1.482c-.681.393-1.064.926-1.064 1.482 0 .556.383 1.089 1.064 1.482l41.071 23.712c.681.393 1.604.614 2.567.614.962 0 1.886-.22 2.567-.614L154.89 71.08c.681-.393 1.063-.926 1.063-1.482 0-.556-.382-1.089-1.063-1.482l-28.236-16.302-12.835 7.41c-1.418.818-3.716.818-5.134 0l-12.835-7.41-17.968 10.374Zm26.732-11.242h13.275l-6.637 3.832-6.638-3.832ZM95.85 69.597c-1.417-.819-1.417-2.145 0-2.964l5.134-2.964c1.418-.819 3.716-.819 5.134 0 1.418.818 1.418 2.145 0 2.964l-5.134 2.964c-1.418.819-3.716.819-5.134 0Zm10.268 5.928c-1.418-.818-1.418-2.145 0-2.964l20.536-11.856c1.417-.819 3.716-.819 5.133 0 1.418.818 1.418 2.145 0 2.964l-20.535 11.856c-1.418.819-3.716.819-5.134 0Zm10.268 5.928c-1.418-.818-1.418-2.145 0-2.964l20.535-11.856c1.418-.819 3.717-.819 5.134 0 1.418.819 1.418 2.145 0 2.964L121.52 81.454c-1.418.819-3.717.819-5.134 0Z" fill="#494E62"/></g><defs><clipPath id="a"><path fill="#fff" transform="matrix(.86603 -.5 .86603 .5 54.781 66.635)" d="M0 0h71.137v71.137H0z"/></clipPath></defs></svg>