<svg width="1026" height="975" fill="none" xmlns="http://www.w3.org/2000/svg"><g opacity=".1"><path d="M567.991 974.378c-18.344 0-36.766-1.496-54.952-4.409-18.186 2.913-36.608 4.409-54.951 4.409-42.198 0-106.124-7.873-170.759-45.583l-128.324-74.869C62.092 797.558 3.047 697.732 1 587.042v-129.19c0-8.897.315-17.478 1.102-26.295 8.109-102.896 65.343-192.802 157.06-246.179l18.186-10.628c34.64-20.233 72.35-33.852 112.422-40.702 24.563-30.624 55.109-56.998 89.119-76.837l18.107-10.55C461.867 8.951 525.793 1 567.991 1c42.197 0 106.123 7.873 170.758 45.583l128.246 74.79C965.955 179.237 1025 281.11 1025 394.083v192.959c-2.05 110.69-61.171 210.516-158.084 267.042l-18.186 10.628c-15.273 8.896-31.412 16.69-48.102 23.067-13.619 11.258-28.263 21.413-43.614 30.388l-18.108 10.55c-64.87 37.788-128.797 45.74-170.994 45.74l.079-.079Z" stroke="#fff" stroke-opacity=".1" stroke-miterlimit="0"/><path d="M567.988 927.141c-18.422 0-36.844-1.732-54.951-5.117-18.107 3.385-36.529 5.117-54.951 5.117-36.372 0-91.402-6.771-146.983-39.206l-128.246-74.79C100.351 765.121 50.044 680.254 48.313 586.096V457.772c0-7.558.236-14.801.944-22.122 6.85-87.466 55.66-163.988 133.757-209.414l18.186-10.628c41.174-24.012 82.033-33.852 114.626-37.474 22.595-32.514 52.275-59.832 86.915-80.065l18.186-10.628c55.738-32.436 110.847-39.285 147.14-39.285 36.293 0 91.402 6.77 146.983 39.206l128.246 74.791c84.316 49.283 134.623 135.961 134.623 231.85v192.093c-1.732 94.079-52.039 178.947-134.623 227.049l-18.265 10.628c-15.351 8.975-31.648 16.454-48.495 22.437-13.305 11.573-27.712 21.965-43.143 30.939l-18.186 10.629c-55.738 32.435-110.768 39.284-147.14 39.284l-.079.079Z" stroke="#fff" stroke-opacity=".3" stroke-miterlimit="0"/><path d="M567.994 879.912a252.767 252.767 0 0 1-54.951-6.062 252.78 252.78 0 0 1-54.951 6.062c-30.546 0-76.759-5.669-123.208-32.751l-128.246-74.79C138.461 732.693 96.893 662.705 95.555 585.316V457.857c0-6.14.236-12.045.708-18.028 5.669-72.035 45.898-135.174 110.454-172.727l18.265-10.628c43.85-25.586 87.544-32.12 118.011-32.75 19.446-34.797 48.26-64.162 83.45-84.71l18.186-10.628c46.607-27.161 92.819-32.83 123.365-32.83 30.546 0 76.759 5.669 123.208 32.751l128.246 74.79c69.594 40.702 111.162 112.107 111.162 191.07v191.228c-1.417 77.388-42.985 147.376-111.241 187.133l-18.265 10.629c-15.43 8.974-31.884 16.217-49.125 21.649-12.754 12.124-27.004 22.752-42.513 31.806L691.28 847.24c-46.606 27.161-92.819 32.829-123.365 32.829l.079-.157Z" stroke="#fff" stroke-opacity=".6" stroke-miterlimit="0"/><path d="M567.993 832.668c-18.579 0-37.238-2.598-54.951-7.558-17.714 4.96-36.372 7.558-54.951 7.558-24.721 0-62.116-4.566-99.432-26.295l-128.246-74.79c-53.771-31.333-86.6-86.363-87.702-147.14V457.771c0-4.723.157-9.29.551-13.935 4.409-56.604 36.214-106.281 87.151-135.961l18.264-10.628c37.395-21.807 74.712-26.373 99.511-26.373 8.109 0 16.218.472 24.248 1.495 13.698-38.182 40.938-71.169 77.703-92.582l18.265-10.628c37.474-21.808 74.79-26.374 99.51-26.374 24.721 0 62.116 4.566 99.432 26.295l128.246 74.79c54.952 32.121 87.702 88.253 87.702 150.211v190.362c-1.102 60.777-33.931 115.807-87.78 147.14l-18.265 10.628a191.66 191.66 0 0 1-50.07 20.312c-11.967 12.911-25.823 23.933-41.489 33.065l-18.265 10.628c-37.474 21.807-74.79 26.373-99.511 26.373l.079.079Z" stroke="#fff" stroke-opacity=".9" stroke-miterlimit="0"/><path d="M567.976 785.432c-14.25 0-34.01-1.968-54.951-9.998-20.942 8.03-40.702 9.998-54.952 9.998-18.894 0-47.393-3.464-75.656-19.918l-128.246-74.79c-39.442-22.988-63.454-63.06-64.241-107.147V457.771c0-3.385.157-6.691.393-9.84 3.228-41.175 26.531-77.468 63.926-99.275l18.265-10.628c28.263-16.454 56.762-19.918 75.735-19.918 14.171 0 33.695 1.968 54.479 9.841 2.362-1.89 4.803-3.7 7.243-5.432 2.519-42.04 26.059-79.751 64.084-101.952l18.264-10.628c28.342-16.454 56.841-19.918 75.736-19.918 18.894 0 47.393 3.464 75.656 19.918l128.246 74.791c40.229 23.539 64.241 64.398 64.241 109.43v189.574c-.787 44.166-24.878 84.238-64.32 107.226l-18.264 10.628c-18.029 10.55-36.215 15.746-51.881 18.107-10.392 14.093-23.855 26.059-39.679 35.27l-18.264 10.628c-28.342 16.454-56.841 19.918-75.735 19.918l-.079-.079Z" stroke="#fff" stroke-miterlimit="0"/><path d="M567.996 738.192c-13.068 0-32.75-2.362-51.881-13.462l-3.07-1.811-2.992 1.732c-19.209 11.179-38.812 13.541-51.881 13.541-13.068 0-32.75-2.362-51.881-13.462l-128.167-74.791c-25.035-14.564-40.308-39.757-40.78-67.233V457.767c0-1.968 0-3.858.236-5.747 2.047-25.901 16.847-48.653 40.623-62.588l18.265-10.707c19.13-11.179 38.812-13.462 51.881-13.462 13.068 0 32.75 2.362 51.88 13.541l12.99 7.558c7.007-11.573 17.084-21.571 29.759-28.893l14.171-8.266v-19.21c0-28.105 15.273-53.691 40.859-68.649l18.265-10.707c19.13-11.179 38.812-13.541 51.881-13.541 13.068 0 32.75 2.362 51.881 13.462l128.246 74.79c25.586 14.959 40.859 40.623 40.859 68.65v188.708c-.551 27.476-15.745 52.669-40.859 67.233l-18.265 10.628c-19.131 11.179-38.812 13.541-51.881 13.541-1.417 0-2.834 0-4.409-.079-6.613 16.297-18.815 30.389-35.269 39.994l-18.265 10.707c-19.209 11.179-38.812 13.541-51.96 13.541l-.236-.079Z" stroke="#fff" stroke-miterlimit="0"/><path d="M739.385 559.492c-.11.111-.214.229-.324.334a43.17 43.17 0 0 1-3.07 2.778c-.065.052-.123.104-.188.157a45.088 45.088 0 0 1-2.987 2.234c-.019.013-.032.026-.051.032a45.426 45.426 0 0 1-2.573 1.632l-18.671 10.927c-8.521 4.985-19.343 7.73-30.482 7.73s-21.955-2.745-30.476-7.73l-12.878-7.678v30.659c0 1.415-.11 2.765-.265 4.081-.045.38-.103.747-.155 1.114a33.553 33.553 0 0 1-.569 2.902c-.052.203-.071.419-.123.623l17.643 10.521c7.402 4.33 16.938 6.728 26.823 6.728 9.885 0 19.42-2.398 26.855-6.748l18.671-10.927c4.7-2.745 15.651-10.659 15.91-24.803V555.98c-.065.079-.129.138-.194.223a39.12 39.12 0 0 1-2.903 3.289h.007Zm-112.076 65.596c-.078.078-.149.157-.22.229a42.933 42.933 0 0 1-3.135 2.83c-.052.046-.104.085-.155.131a43.02 43.02 0 0 1-2.981 2.228c-.032.019-.058.045-.09.065a46.326 46.326 0 0 1-2.567 1.631l-18.67 10.927c-8.521 4.986-19.344 7.731-30.483 7.731s-21.954-2.745-30.475-7.731l-25.543-14.943-25.543 14.943c-8.521 4.986-19.343 7.731-30.475 7.731-11.133 0-21.955-2.745-30.476-7.731l-130.714-76.464a42.846 42.846 0 0 1-2.625-1.67 45.007 45.007 0 0 1-2.993-2.241 3.32 3.32 0 0 0-.162-.137 44.45 44.45 0 0 1-3.122-2.824 4.014 4.014 0 0 1-.239-.249 40.937 40.937 0 0 1-3.013-3.413c-.045-.052-.091-.098-.136-.151v28.124c.259 14.105 11.217 22.018 15.91 24.763l130.708 76.465c7.435 4.349 16.97 6.747 26.849 6.747 9.878 0 19.42-2.398 26.855-6.747l29.163-17.066 29.17 17.066c7.428 4.349 16.964 6.747 26.849 6.747 9.884 0 19.42-2.398 26.855-6.747l18.67-10.928c4.784-2.797 15.911-10.861 15.911-25.274v-27.599c-.033.045-.072.078-.11.124a38.638 38.638 0 0 1-3.032 3.433h.019Z" fill="#fff" fill-opacity=".2"/><path d="M627.302 576.527c-.077.078-.148.157-.219.229a42.94 42.94 0 0 1-3.136 2.83c-.052.046-.103.085-.155.131a43.015 43.015 0 0 1-2.98 2.228c-.033.019-.059.045-.091.065a46.336 46.336 0 0 1-2.566 1.631l-18.671 10.928c-8.521 4.985-19.343 7.73-30.482 7.73s-21.955-2.745-30.476-7.73l-25.543-14.943-25.542 14.943c-8.521 4.985-19.343 7.73-30.476 7.73-11.132 0-21.955-2.745-30.476-7.73l-130.707-76.471-.084-.059a46.556 46.556 0 0 1-3.013-1.952c-.271-.19-.543-.374-.808-.57a46.01 46.01 0 0 1-2.14-1.691 35.004 35.004 0 0 1-1.48-1.297 37.03 37.03 0 0 1-1.578-1.52c-.316-.321-.633-.642-.937-.969a38.098 38.098 0 0 1-2.062-2.424c-.059-.072-.123-.138-.181-.21v28.124c.213 11.451 7.48 18.828 12.723 22.667a35.994 35.994 0 0 0 3.193 2.096l130.708 76.465c7.434 4.349 16.97 6.747 26.849 6.747 9.878 0 19.42-2.398 26.855-6.747l29.163-17.066 29.17 17.066c7.428 4.349 16.964 6.747 26.848 6.747 9.885 0 19.421-2.398 26.856-6.747l18.67-10.928c4.784-2.797 15.91-10.861 15.91-25.274v-27.6c-.032.046-.071.079-.11.125a38.321 38.321 0 0 1-3.032 3.433v.013Zm112.083-65.596c-.11.111-.214.223-.324.334a44.272 44.272 0 0 1-3.058 2.765c-.071.058-.135.117-.206.176a45.559 45.559 0 0 1-2.923 2.188l-.135.099a46.204 46.204 0 0 1-2.412 1.533c-.039.019-.09.059-.129.078l-18.671 10.921c-8.521 4.985-19.349 7.73-30.482 7.73-11.132 0-21.955-2.745-30.475-7.73l-12.904-7.547c.026.531.032 1.055.032 1.585 0 .898-.032 1.789-.103 2.654.058.694.09 1.388.09 2.096V552.019c0 1.409-.11 2.752-.259 4.062-.045.38-.103.753-.161 1.127a32.66 32.66 0 0 1-.563 2.876c-.051.209-.071.432-.122.642l17.642 10.521c7.409 4.33 16.945 6.728 26.823 6.728 8.644 0 17.029-1.835 23.972-5.208a44.882 44.882 0 0 0 2.883-1.54l18.671-10.927c4.694-2.745 15.652-10.665 15.91-24.803v-28.078c-.064.079-.129.138-.194.217a40.343 40.343 0 0 1-2.902 3.295Z" fill="#fff" fill-opacity=".6"/><path d="M726.578 366.694 595.864 290.23c-7.435-4.35-16.971-6.748-26.849-6.748s-19.414 2.398-26.849 6.748l-18.671 10.927c-4.784 2.798-15.91 10.862-15.91 25.274 0 .57.02 1.14.052 1.697V353.5a27.508 27.508 0 0 0 .103 4.822c.744 6.486 3.711 12.257 8.832 17.144l6.833 6.532-10.409-.197c-9.878 0-19.414 2.398-26.848 6.748l-18.671 10.92c-4.784 2.798-15.91 10.869-15.91 25.274 0 .787.032 1.553.097 2.306l.019.249-.013.249c-.013.269-.019.544-.019.819l-.078 24.311c-.013.459-.019.989-.013 1.52.013 1.081.104 2.162.265 3.243.194 1.304.479 2.601.86 3.852l2.683 8.916-83.578-48.891c-7.435-4.35-16.97-6.747-26.849-6.747-9.878 0-19.414 2.397-26.849 6.747l-18.67 10.921c-4.448 2.601-14.908 10.089-15.846 23.341a15.259 15.259 0 0 0-.077 1.586v29.801c.019.746.077 1.474.148 2.188.046.432.104.851.168 1.271.059.366.11.74.181 1.094.084.445.188.871.298 1.303.077.308.155.623.239.924.129.445.272.884.42 1.317.091.262.181.524.285.779.168.446.355.878.543 1.304.097.223.2.445.304.662.206.439.426.864.659 1.277.103.19.207.374.31.557.246.426.498.838.763 1.245.104.157.207.314.311.465.278.406.556.806.846 1.192.104.138.207.269.311.4.297.38.595.753.905 1.113.103.125.213.243.317.367.303.347.614.688.931 1.016.109.118.226.229.336.347.304.314.614.616.924.91.123.118.246.223.369.341.297.275.594.544.892.793.142.118.278.229.414.347.271.223.536.445.801.655l.55.419c.207.158.42.321.62.472.259.19.505.36.757.531.116.078.233.163.342.242.731.491 1.403.911 1.979 1.245l130.707 76.464c7.435 4.35 16.971 6.748 26.849 6.748s19.421-2.398 26.855-6.748l29.163-17.066 29.17 17.066c7.428 4.35 16.964 6.748 26.849 6.748 9.885 0 19.42-2.398 26.855-6.748l18.671-10.927a37.672 37.672 0 0 0 5.812-4.199c4.842-4.259 10.104-11.17 10.104-21.075v-24.193c0-.577-.026-1.14-.084-1.704l-.032-.347.032-.347c.065-.767.104-1.553.104-2.352 0-1.31-.091-2.601-.278-3.872-.007-.052-.026-.104-.033-.157a26.739 26.739 0 0 0-.795-3.583l-2.806-9.27h.013l-.013-.033 8.062 5.012.925.57 18.67 10.927c7.429 4.35 16.971 6.748 26.849 6.748 9.879 0 19.421-2.398 26.855-6.748l18.671-10.927a37.91 37.91 0 0 0 6.471-4.809c1.83-1.69 3.672-3.76 5.25-6.23 2.353-3.688 4.092-8.248 4.189-13.764l.013-94.951c0-14.412-11.126-22.477-15.91-25.274l-.032-.007Zm-136.63 135.83 16.408 9.598c10.312 6.033 10.312 15.814 0 21.848l-18.67 10.92c-10.312 6.034-27.037 6.034-37.348 0l-37.348-21.848-37.348 21.848c-10.311 6.034-27.036 6.034-37.348 0L307.58 468.426c-10.311-6.034-10.311-15.814 0-21.848l18.671-10.92c10.312-6.034 27.036-6.034 37.348 0l149.385 87.391 35.078-20.525c4.952-2.895 7.732-6.826 7.732-10.92v-2.653c0-4.095-2.78-8.025-7.732-10.921l-72.426-42.366c-10.312-6.033-10.312-15.814 0-21.848l18.67-10.92c10.312-6.034 27.037-6.034 37.348 0l74.689 43.695c10.312 6.034 10.312 15.815 0 21.848l-16.408 9.597c-4.952 2.896-7.732 6.827-7.732 10.921v2.653c0 4.095 2.78 8.025 7.732 10.921l.013-.007Zm112.037-65.543 16.408 9.597c10.312 6.034 10.312 15.814 0 21.848l-18.677 10.921c-10.312 6.033-27.036 6.033-37.348 0l-18.677-10.921c-10.311-6.034-10.311-15.814 0-21.848l16.408-9.597c4.952-2.896 7.732-6.826 7.732-10.921v-2.653c0-4.094-2.78-8.025-7.732-10.921l-128.445-75.141c-10.311-6.033-10.311-15.814 0-21.847l18.671-10.921c10.311-6.034 27.036-6.034 37.348 0l130.714 76.464c10.311 6.034 10.311 15.814 0 21.848l-16.408 9.597c-4.952 2.896-7.739 6.827-7.739 10.921v2.653c0 4.095 2.787 8.025 7.739 10.921h.006Z" fill="#fff"/></g></svg>