<svg width="1024" height="853" viewBox="0 0 1024 853" fill="none" xmlns="http://www.w3.org/2000/svg">
<g opacity="0.1">
<path d="M566.991 852.378C548.647 852.378 530.225 850.882 512.039 847.969C493.853 850.882 475.431 852.378 457.088 852.378C414.89 852.378 350.964 844.505 286.329 806.795L158.005 731.926C61.092 675.558 2.0469 575.732 0 465.042V335.852C0 326.955 0.314907 318.374 1.10218 309.557C9.21104 206.661 66.4454 116.755 158.162 63.3782L176.348 52.75C210.988 32.5173 248.698 18.8975 288.77 12.0483C313.333 -18.5764 343.879 -44.9499 377.889 -64.7891L395.996 -75.3385C460.867 -113.049 524.793 -121 566.991 -121C609.188 -121 673.114 -113.127 737.749 -75.4172L865.995 -0.62672C964.955 57.2375 1024 159.11 1024 272.083V465.042C1021.95 575.732 962.829 675.558 865.916 732.084L847.73 742.712C832.457 751.608 816.318 759.402 799.628 765.779C786.009 777.037 771.365 787.192 756.014 796.167L737.906 806.717C673.036 844.505 609.109 852.457 566.912 852.457L566.991 852.378Z" stroke="black" stroke-opacity="0.1" stroke-miterlimit="0"/>
<path d="M566.988 805.142C548.566 805.142 530.144 803.41 512.037 800.025C493.93 803.41 475.508 805.142 457.086 805.142C420.714 805.142 365.684 798.371 310.103 765.936L181.857 691.146C99.3509 643.122 49.0445 558.255 47.3125 464.097V335.773C47.3125 328.215 47.5487 320.972 48.2572 313.651C55.1065 226.185 103.917 149.663 182.014 104.237L200.2 93.6091C241.374 69.5975 282.233 59.7566 314.826 56.1352C337.421 23.621 367.101 -3.6972 401.741 -23.93L419.927 -34.5581C475.665 -66.9935 530.774 -73.8428 567.067 -73.8428C603.36 -73.8428 658.469 -67.0723 714.05 -34.6368L842.296 40.1536C926.612 89.4366 976.919 176.115 976.919 272.004V464.097C975.187 558.176 924.88 643.043 842.296 691.146L824.031 701.774C808.68 710.749 792.383 718.228 775.536 724.211C762.231 735.784 747.824 746.176 732.393 755.15L714.207 765.779C658.469 798.214 603.439 805.063 567.067 805.063L566.988 805.142Z" stroke="black" stroke-opacity="0.3" stroke-miterlimit="0"/>
<path d="M566.994 757.911C548.493 757.911 530.071 755.864 512.043 751.849C494.014 755.864 475.592 757.911 457.092 757.911C426.546 757.911 380.333 752.243 333.884 725.16L205.638 650.37C137.461 610.692 95.893 540.704 94.5547 463.315V335.856C94.5547 329.716 94.7909 323.811 95.2632 317.828C100.932 245.793 141.161 182.654 205.717 145.101L223.982 134.473C267.832 108.887 311.526 102.353 341.993 101.723C361.439 66.9257 390.253 37.5606 425.443 17.0129L443.629 6.38474C490.236 -20.776 536.448 -26.4443 566.994 -26.4443C597.54 -26.4443 643.753 -20.776 690.202 6.30601L818.448 81.0965C888.042 121.798 929.61 193.203 929.61 272.166V463.394C928.193 540.782 886.625 610.77 818.369 650.527L800.104 661.156C784.674 670.13 768.22 677.373 750.979 682.805C738.225 694.929 723.975 705.557 708.466 714.611L690.28 725.239C643.674 752.4 597.461 758.068 566.915 758.068L566.994 757.911Z" stroke="black" stroke-opacity="0.6" stroke-miterlimit="0"/>
<path d="M566.993 710.669C548.414 710.669 529.755 708.071 512.042 703.111C494.328 708.071 475.67 710.669 457.091 710.669C432.37 710.669 394.975 706.103 357.659 684.374L229.413 609.584C175.642 578.251 142.813 523.221 141.711 462.444V335.772C141.711 331.048 141.868 326.482 142.262 321.837C146.671 265.233 178.476 215.556 229.413 185.876L247.677 175.248C285.072 153.441 322.389 148.875 347.188 148.875C355.297 148.875 363.406 149.347 371.436 150.37C385.134 112.188 412.374 79.2014 449.139 57.7877L467.404 47.1596C504.878 25.3523 542.194 20.7861 566.914 20.7861C591.635 20.7861 629.03 25.3523 666.346 47.0809L794.592 121.871C849.544 153.992 882.294 210.124 882.294 272.082V462.444C881.192 523.221 848.363 578.251 794.514 609.584L776.249 620.212C760.661 629.266 743.892 636.115 726.179 640.524C714.212 653.435 700.356 664.456 684.69 673.589L666.425 684.217C628.951 706.024 591.635 710.59 566.914 710.59L566.993 710.669Z" stroke="black" stroke-opacity="0.9" stroke-miterlimit="0"/>
<path d="M566.976 663.433C552.726 663.433 532.966 661.465 512.025 653.435C491.083 661.465 471.323 663.433 457.073 663.433C438.179 663.433 409.68 659.969 381.417 643.515L253.171 568.725C213.729 545.737 189.717 505.665 188.93 461.578V335.772C188.93 332.387 189.087 329.081 189.323 325.931C192.551 284.757 215.854 248.464 253.249 226.657L271.514 216.029C299.777 199.575 328.276 196.111 347.249 196.111C361.42 196.111 380.944 198.079 401.728 205.952C404.09 204.062 406.531 202.252 408.971 200.52C411.49 158.48 435.03 120.769 473.055 98.5685L491.319 87.9403C519.661 71.4864 548.16 68.0225 567.055 68.0225C585.949 68.0225 614.448 71.4864 642.711 87.9403L770.957 162.731C811.186 186.27 835.198 227.129 835.198 272.161V461.735C834.411 505.901 810.32 545.973 770.878 568.961L752.614 579.589C734.585 590.139 716.399 595.335 700.733 597.696C690.341 611.789 676.878 623.755 661.054 632.966L642.79 643.594C614.448 660.048 585.949 663.512 567.055 663.512L566.976 663.433Z" stroke="black" stroke-miterlimit="0"/>
<path d="M566.996 616.193C553.928 616.193 534.246 613.831 515.115 602.731L512.045 600.92L509.053 602.652C489.844 613.831 470.241 616.193 457.172 616.193C444.104 616.193 424.422 613.831 405.291 602.731L277.124 527.94C252.089 513.376 236.816 488.183 236.344 460.707V335.768C236.344 333.8 236.344 331.91 236.58 330.021C238.627 304.12 253.427 281.368 277.203 267.433L295.468 256.726C314.598 245.547 334.28 243.264 347.349 243.264C360.417 243.264 380.099 245.626 399.229 256.805L412.219 264.363C419.226 252.79 429.303 242.792 441.978 235.47L456.149 227.204V210.671C456.149 209.805 456.149 208.86 456.149 207.994C456.149 179.889 471.422 154.303 497.008 139.345L515.273 128.638C534.403 117.458 554.085 115.097 567.154 115.097C580.222 115.097 599.904 117.458 619.035 128.559L747.281 203.349C772.867 218.308 788.14 243.972 788.14 271.999V460.707C787.589 488.183 772.395 513.376 747.281 527.94L729.016 538.568C709.885 549.747 690.204 552.109 677.135 552.109C675.718 552.109 674.301 552.109 672.726 552.03C666.113 568.327 653.911 582.419 637.457 592.024L619.192 602.731C599.983 613.91 580.38 616.272 567.232 616.272L566.996 616.193Z" stroke="black" stroke-miterlimit="0"/>
<path d="M738.385 437.492C738.275 437.603 738.171 437.721 738.061 437.826C737.027 438.854 735.999 439.778 734.991 440.604C734.926 440.656 734.868 440.708 734.803 440.761C733.756 441.612 732.747 442.359 731.816 442.995C731.797 443.008 731.784 443.021 731.765 443.027C730.808 443.676 729.935 444.226 729.192 444.659L710.521 455.586C702 460.571 691.178 463.316 680.039 463.316C668.9 463.316 658.084 460.571 649.563 455.586L636.685 447.908V478.567C636.685 479.982 636.575 481.332 636.42 482.648C636.375 483.028 636.317 483.395 636.265 483.762C636.116 484.758 635.922 485.727 635.696 486.664C635.644 486.867 635.625 487.083 635.573 487.287L653.216 497.808C660.618 502.138 670.154 504.536 680.039 504.536C689.924 504.536 699.459 502.138 706.894 497.788L725.565 486.861C730.265 484.116 741.216 476.202 741.475 462.058V433.98C741.41 434.059 741.346 434.118 741.281 434.203C740.344 435.395 739.367 436.489 738.378 437.492H738.385ZM626.309 503.088C626.231 503.166 626.16 503.245 626.089 503.317C625.035 504.365 623.982 505.309 622.954 506.147C622.902 506.193 622.85 506.232 622.799 506.278C621.758 507.13 620.749 507.87 619.818 508.506C619.786 508.525 619.76 508.551 619.728 508.571C618.777 509.22 617.905 509.763 617.161 510.202L598.491 521.129C589.97 526.115 579.147 528.86 568.008 528.86C556.869 528.86 546.054 526.115 537.533 521.129L511.99 506.186L486.447 521.129C477.926 526.115 467.104 528.86 455.972 528.86C444.839 528.86 434.017 526.115 425.496 521.129L294.782 444.665C294.039 444.233 293.166 443.683 292.215 443.034C292.196 443.021 292.177 443.008 292.157 442.995C291.226 442.353 290.211 441.612 289.164 440.754C289.112 440.708 289.061 440.663 289.002 440.617C287.981 439.778 286.934 438.841 285.88 437.793C285.796 437.715 285.718 437.629 285.641 437.544C284.619 436.509 283.604 435.369 282.628 434.131C282.583 434.079 282.537 434.033 282.492 433.98V462.104C282.751 476.209 293.709 484.122 298.402 486.867L429.11 563.332C436.545 567.681 446.08 570.079 455.959 570.079C465.837 570.079 475.379 567.681 482.814 563.332L511.977 546.266L541.147 563.332C548.575 567.681 558.111 570.079 567.996 570.079C577.88 570.079 587.416 567.681 594.851 563.332L613.521 552.404C618.305 549.607 629.432 541.543 629.432 527.13V499.531C629.399 499.576 629.36 499.609 629.322 499.655C628.345 500.906 627.324 502.046 626.29 503.088H626.309Z" fill="black" fill-opacity="0.2"/>
<path d="M626.302 454.528C626.225 454.606 626.154 454.685 626.083 454.757C625.029 455.805 623.975 456.749 622.947 457.587C622.895 457.633 622.844 457.672 622.792 457.718C621.751 458.57 620.743 459.31 619.812 459.946C619.779 459.965 619.753 459.991 619.721 460.011C618.771 460.66 617.898 461.203 617.155 461.642L598.484 472.57C589.963 477.555 579.141 480.3 568.002 480.3C556.863 480.3 546.047 477.555 537.526 472.57L511.983 457.627L486.441 472.57C477.92 477.555 467.098 480.3 455.965 480.3C444.833 480.3 434.01 477.555 425.489 472.57L294.782 396.099C294.782 396.099 294.724 396.059 294.698 396.04C293.838 395.535 292.81 394.874 291.685 394.088C291.414 393.898 291.142 393.714 290.877 393.518C290.192 393.013 289.468 392.437 288.737 391.827C288.227 391.402 287.735 390.976 287.257 390.53C286.733 390.052 286.203 389.548 285.679 389.01C285.363 388.689 285.046 388.368 284.742 388.041C284.037 387.281 283.352 386.475 282.68 385.617C282.621 385.545 282.557 385.479 282.499 385.407V413.531C282.712 424.982 289.979 432.359 295.222 436.198C296.431 437.082 297.53 437.783 298.415 438.294L429.123 514.758C436.557 519.108 446.093 521.506 455.972 521.506C465.85 521.506 475.392 519.108 482.827 514.758L511.99 497.693L541.16 514.758C548.588 519.108 558.124 521.506 568.008 521.506C577.893 521.506 587.429 519.108 594.864 514.758L613.534 503.831C618.318 501.034 629.444 492.97 629.444 478.557V450.957C629.412 451.003 629.373 451.036 629.334 451.082C628.358 452.333 627.337 453.473 626.302 454.515V454.528ZM738.385 388.932C738.275 389.043 738.171 389.155 738.061 389.266C737.033 390.288 736.005 391.205 735.003 392.03C734.932 392.089 734.868 392.148 734.797 392.207C733.775 393.039 732.786 393.767 731.874 394.395C731.829 394.428 731.784 394.461 731.739 394.494C730.846 395.103 730.032 395.607 729.327 396.027C729.288 396.046 729.237 396.086 729.198 396.105L710.527 407.026C702.007 412.011 691.178 414.756 680.045 414.756C668.913 414.756 658.09 412.011 649.57 407.026L636.666 399.479C636.692 400.01 636.698 400.534 636.698 401.064C636.698 401.962 636.666 402.853 636.595 403.718C636.653 404.412 636.685 405.106 636.685 405.814V430.007C636.685 430.007 636.685 430.014 636.685 430.02C636.685 431.429 636.575 432.772 636.426 434.082C636.381 434.462 636.323 434.835 636.265 435.209C636.116 436.198 635.929 437.154 635.702 438.085C635.651 438.294 635.631 438.517 635.58 438.727L653.222 449.248C660.631 453.578 670.167 455.976 680.045 455.976C688.689 455.976 697.074 454.141 704.017 450.768C705.006 450.283 705.969 449.772 706.9 449.228L725.571 438.301C730.265 435.556 741.223 427.636 741.481 413.498V385.42C741.417 385.499 741.352 385.558 741.287 385.637C740.343 386.835 739.374 387.923 738.385 388.932Z" fill="black" fill-opacity="0.6"/>
<path d="M725.578 244.694L594.864 168.23C587.429 163.88 577.893 161.482 568.015 161.482C558.137 161.482 548.601 163.88 541.166 168.23L522.495 179.157C517.711 181.955 506.585 190.019 506.585 204.431C506.585 205.001 506.605 205.571 506.637 206.128V231.5C506.572 232.594 506.559 233.44 506.592 234.291C506.611 234.972 506.663 235.647 506.74 236.322C507.484 242.808 510.451 248.579 515.572 253.466L522.405 259.998L511.996 259.801C502.118 259.801 492.582 262.199 485.148 266.549L466.477 277.469C461.693 280.267 450.567 288.338 450.567 302.743C450.567 303.53 450.599 304.296 450.664 305.049L450.683 305.298L450.67 305.547C450.657 305.816 450.651 306.091 450.651 306.366L450.573 330.677C450.56 331.136 450.554 331.666 450.56 332.197C450.573 333.278 450.664 334.359 450.825 335.44C451.019 336.744 451.304 338.041 451.685 339.292L454.368 348.208L370.79 299.317C363.355 294.967 353.82 292.57 343.941 292.57C334.063 292.57 324.527 294.967 317.092 299.317L298.422 310.238C293.974 312.839 283.514 320.327 282.576 333.579C282.518 334.156 282.499 334.647 282.499 335.165V364.966C282.518 365.712 282.576 366.44 282.647 367.154C282.693 367.586 282.751 368.005 282.815 368.425C282.874 368.791 282.925 369.165 282.996 369.519C283.08 369.964 283.184 370.39 283.294 370.822C283.371 371.13 283.449 371.445 283.533 371.746C283.662 372.191 283.805 372.63 283.953 373.063C284.044 373.325 284.134 373.587 284.238 373.842C284.406 374.288 284.593 374.72 284.781 375.146C284.878 375.369 284.981 375.591 285.085 375.808C285.291 376.247 285.511 376.672 285.744 377.085C285.847 377.275 285.951 377.459 286.054 377.642C286.3 378.068 286.552 378.48 286.817 378.887C286.921 379.044 287.024 379.201 287.128 379.352C287.406 379.758 287.684 380.158 287.974 380.544C288.078 380.682 288.181 380.813 288.285 380.944C288.582 381.324 288.88 381.697 289.19 382.057C289.293 382.182 289.403 382.3 289.507 382.424C289.81 382.771 290.121 383.112 290.438 383.44C290.547 383.558 290.664 383.669 290.774 383.787C291.078 384.101 291.388 384.403 291.698 384.697C291.821 384.815 291.944 384.92 292.067 385.038C292.364 385.313 292.661 385.582 292.959 385.831C293.101 385.949 293.237 386.06 293.373 386.178C293.644 386.401 293.909 386.623 294.174 386.833C294.362 386.977 294.543 387.115 294.724 387.252C294.931 387.41 295.144 387.573 295.344 387.724C295.603 387.914 295.849 388.084 296.101 388.255C296.217 388.333 296.334 388.418 296.443 388.497C297.174 388.988 297.846 389.408 298.422 389.742L429.129 466.206C436.564 470.556 446.1 472.954 455.978 472.954C465.856 472.954 475.399 470.556 482.833 466.206L511.996 449.14L541.166 466.206C548.594 470.556 558.13 472.954 568.015 472.954C577.9 472.954 587.435 470.556 594.87 466.206L613.541 455.279C615.034 454.408 617.148 453.019 619.353 451.08C624.195 446.821 629.457 439.91 629.457 430.005V405.812C629.457 405.235 629.431 404.672 629.373 404.108L629.341 403.761L629.373 403.414C629.438 402.647 629.477 401.861 629.477 401.062C629.477 399.752 629.386 398.461 629.199 397.19C629.192 397.138 629.173 397.086 629.166 397.033C628.979 395.815 628.72 394.622 628.371 393.45L625.565 384.18H625.578L625.565 384.147L633.627 389.159L634.552 389.729L653.222 400.656C660.651 405.006 670.193 407.404 680.071 407.404C689.95 407.404 699.492 405.006 706.926 400.656L725.597 389.729C727.233 388.772 729.631 387.174 732.068 384.92C733.898 383.23 735.74 381.16 737.318 378.69C739.671 375.002 741.41 370.442 741.507 364.926L741.52 269.975C741.52 255.563 730.394 247.498 725.61 244.701L725.578 244.694ZM588.948 380.524L605.356 390.122C615.668 396.155 615.668 405.936 605.356 411.97L586.686 422.89C576.374 428.924 559.649 428.924 549.338 422.89L511.99 401.042L474.642 422.89C464.331 428.924 447.606 428.924 437.294 422.89L306.58 346.426C296.269 340.392 296.269 330.612 306.58 324.578L325.251 313.658C335.563 307.624 352.287 307.624 362.599 313.658L511.984 401.049L547.062 380.524C552.014 377.629 554.794 373.698 554.794 369.604V366.951C554.794 362.856 552.014 358.926 547.062 356.03L474.636 313.664C464.324 307.631 464.324 297.85 474.636 291.816L493.306 280.896C503.618 274.862 520.343 274.862 530.654 280.896L605.343 324.591C615.655 330.625 615.655 340.406 605.343 346.439L588.935 356.036C583.983 358.932 581.203 362.863 581.203 366.957V369.61C581.203 373.705 583.983 377.635 588.935 380.531L588.948 380.524ZM700.985 314.981L717.393 324.578C727.705 330.612 727.705 340.392 717.393 346.426L698.716 357.347C688.404 363.38 671.68 363.38 661.368 357.347L642.691 346.426C632.38 340.392 632.38 330.612 642.691 324.578L659.099 314.981C664.051 312.085 666.831 308.155 666.831 304.06V301.407C666.831 297.313 664.051 293.382 659.099 290.486L530.654 215.345C520.343 209.312 520.343 199.531 530.654 193.498L549.325 182.577C559.636 176.543 576.361 176.543 586.673 182.577L717.387 259.041C727.698 265.075 727.698 274.855 717.387 280.889L700.979 290.486C696.027 293.382 693.24 297.313 693.24 301.407V304.06C693.24 308.155 696.027 312.085 700.979 314.981H700.985Z" fill="black"/>
</g>
</svg>
