<svg width="1025" height="678" fill="none" xmlns="http://www.w3.org/2000/svg"><path d="M0 209.247h7.287l93.492-.022c16.413-.007 31.764.959 46.585-7.294 44.545-24.811 87.401-53.149 132.611-76.709 22.145-11.541 42.228-2.771 61.892 8.575 19.761 11.405 39.417 21.223 62.101 10.357 20.493-9.818 39.903-22.901 59.552-34.277 24.029-13.914 47.804-28.48 72.176-41.78 15.912-8.688 34.747-8.86 50.734-.218 12.698 6.86 25.052 14.446 37.556 21.658 8.311 4.785 19.223 9.189 25.449 16.828l1.861 3.602.628 3.707-.605 3.707-1.832 3.602c-14.454 18.153-44.335 20.063-58.67 38.306l-1.831 3.602-.606 3.707.628 3.715 1.861 3.602c13.005 16.408 39.253 18.393 52.512 34.606l1.861 3.602.628 3.715-.605 3.714-1.831 3.602c-7.968 9.923-23.693 15.884-34.343 22.055L461.076 330.95c-21.338 12.364-42.676 24.721-64.014 37.085-8.849 5.13-21.181 10.043-27.773 18.258l-1.839 3.602-.605 3.715.627 3.714 1.854 3.603c4.081 5.055 9.873 7.863 15.381 11.046 10.972 6.335 21.936 12.671 32.908 19.007 29.761 17.187 59.515 34.381 89.277 51.568 12.81 7.399 26.33 17.779 40.74 21.935 14.985 4.314 29.814 1.386 43.028-6.275 46.899-27.185 93.798-54.377 140.697-81.57 12.28-7.122 24.761-16.363 38.147-21.388 15.838-5.946 32.437-2.666 46.623 5.519 23.475 13.548 46.959 27.103 70.435 40.65 11.158 6.441 22.309 12.874 33.468 19.314 5.516 3.19 11.33 6.006 15.419 11.061l1.861 3.61.635 3.722-.598 3.722-1.831 3.609c-4.828 6.081-12.668 9.526-19.245 13.338-13.767 7.983-27.535 15.974-41.302 23.957-13.961 8.103-27.93 16.199-41.891 24.302-6.39 3.707-14.007 7.054-18.663 12.993l-1.831 3.61-.605 3.722.628 3.722 1.861 3.609c7.182 8.837 20.628 14.072 30.195 19.599 37.138 21.448 74.268 42.889 111.399 64.33 8.318 4.808 16.734 10.814 25.778 14.244 13.744 5.205 28.98 3.587 42.02-2.591v.007M.037 148.715c25.636 0 51.28-.015 76.915-.015 19.567 0 45.068 3.976 63.76-3.827 19.874-8.298 38.544-21.89 57.124-32.637 25.867-14.97 51.675-30.046 77.609-44.904 15.86-9.091 34.881-11.315 51.578-2.628 20.329 10.582 37.542 26.159 61.862 23.328 18.648-2.172 36.526-16.573 52.228-25.657 28.08-16.251 56.16-32.502 84.232-48.753 15.957-9.234 30.942-15.892 49.956-10.934 9.417 2.456 17.863 8.507 26.189 13.315 12.952 7.467 26.173 14.596 38.909 22.437 3.431 2.112 6.555 4.254 9.133 7.422l1.861 3.594.628 3.707-.605 3.707-1.831 3.603c-14.335 18.243-44.224 20.145-58.679 38.298l-1.831 3.602-.605 3.707.628 3.707 1.861 3.602c13.259 16.214 39.507 18.191 52.519 34.607l1.861 3.602.628 3.714-.605 3.715-1.831 3.602c-6.592 8.215-18.924 13.121-27.774 18.25-21.338 12.357-42.683 24.721-64.022 37.078L403.706 303.69c-10.658 6.171-26.383 12.132-34.358 22.063l-1.838 3.602-.606 3.714.628 3.715 1.854 3.602c9.312 11.525 28.176 18.43 40.553 25.575l79.598 45.967c28.199 16.288 62.781 46.206 96.908 28.226 43.52-22.932 85.464-49.54 128.021-74.208 28.125-16.304 62.766-46.364 96.892-28.541 22.617 11.81 44.396 25.613 66.489 38.366 13.244 7.646 26.487 15.285 39.739 22.931 6.256 3.61 13.363 6.823 17.997 12.544l1.861 3.61.635 3.714-.597 3.715-1.832 3.61c-4.656 5.938-12.272 9.286-18.655 12.993-13.968 8.103-27.93 16.198-41.899 24.301-13.767 7.984-27.534 15.974-41.308 23.957-6.577 3.82-14.417 7.257-19.253 13.338l-1.831 3.61-.606 3.722.628 3.722 1.861 3.61c5.979 7.376 16.518 11.697 24.537 16.325l54.65 31.551c27.616 15.944 54.829 33.311 83.155 47.952 14.828 7.661 32.271 6.755 47.071-.262" stroke="#494E62" stroke-miterlimit="10"/></svg>