<svg width="1999" height="969" fill="none" xmlns="http://www.w3.org/2000/svg"><path d="M2163.56 1282.27c-12.92 6.11-28.03 7.71-41.66 2.57-8.96-3.4-17.31-9.34-25.55-14.09-36.82-21.21-73.63-42.42-110.45-63.63-9.48-5.47-22.81-10.64-29.93-19.38l-1.85-3.57-.62-3.68.6-3.69 1.81-3.57c4.62-5.87 12.17-9.18 18.51-12.85 13.84-8.01 27.69-16.02 41.53-24.03l40.95-23.7c6.52-3.77 14.29-7.17 19.08-13.19l1.81-3.57.6-3.68-.63-3.68-1.85-3.57c-4.05-5-9.82-7.79-15.29-10.94-11.06-6.37-22.11-12.73-33.18-19.1-23.27-13.4-46.55-26.81-69.83-40.21-14.06-8.1-30.52-11.34-46.22-5.46-13.27 4.97-25.65 14.11-37.82 21.16-46.5 26.89-93 53.79-139.5 80.67-13.1 7.58-27.8 10.48-42.65 6.21-14.29-4.11-27.7-14.38-40.4-21.7-29.5-16.99-59-34-88.51-51-10.88-6.27-21.75-12.53-32.62-18.8-5.47-3.15-11.21-5.92-15.25-10.92l-1.84-3.57-.62-3.67.6-3.67 1.82-3.57c6.53-8.123 18.76-12.982 27.53-18.055 21.16-12.229 42.32-24.451 63.47-36.68 48.91-28.265 97.83-56.537 146.75-84.802 10.56-6.103 26.15-11.999 34.05-21.813l1.81-3.563.6-3.674-.62-3.674-1.85-3.563c-13.14-16.036-39.16-17.999-52.06-34.227l-1.84-3.563-.63-3.674.6-3.666 1.82-3.563c14.21-18.043 43.84-19.932 58.17-37.887l1.81-3.562.6-3.667-.62-3.666-1.84-3.563c-6.18-7.555-16.99-11.91-25.23-16.643-12.4-7.133-24.65-14.637-37.24-21.421-15.85-8.548-34.52-8.378-50.3.214-24.16 13.155-47.73 27.562-71.56 41.324-19.48 11.251-38.72 24.191-59.04 33.902-22.49 10.747-41.98 1.037-61.57-10.244-19.49-11.222-39.4-19.895-61.36-8.481-44.82 23.302-87.31 51.33-131.48 75.869-14.69 8.163-29.91 7.207-46.18 7.215l-92.69.022h-7.23l.04-59.871c25.42 0 50.84-.014 76.26-.014 19.39 0 44.68 3.933 63.21-3.785 19.7-8.207 38.21-21.651 56.63-32.28 25.65-14.806 51.24-29.717 76.95-44.412 15.72-8.992 34.58-11.192 51.14-2.6 20.15 10.466 37.22 25.873 61.33 23.073 18.49-2.148 36.21-16.392 51.78-25.377 27.84-16.073 55.68-32.146 83.51-48.219 15.82-9.133 30.68-15.717 49.53-10.814 9.33 2.43 17.71 8.414 25.96 13.17 12.84 7.384 25.95 14.436 38.58 22.191 3.4 2.089 6.5 4.207 9.05 7.34l1.85 3.555.62 3.667-.6 3.666-1.82 3.563c-14.21 18.043-43.84 19.925-58.17 37.879l-1.82 3.563-.6 3.667.63 3.666 1.84 3.563c13.15 16.036 39.17 17.991 52.07 34.227l1.85 3.563.62 3.674-.6 3.674-1.82 3.562c-6.53 8.126-18.76 12.977-27.53 18.051-21.16 12.222-42.32 24.451-63.48 36.672l-146.76 84.795c-10.56 6.103-26.16 11.999-34.06 21.821l-1.82 3.563-.6 3.674.62 3.673 1.84 3.563c9.23 11.399 27.93 18.229 40.2 25.295 26.31 15.155 52.61 30.307 78.92 45.467 27.96 16.11 62.24 45.7 96.08 27.91 43.14-22.68 84.73-48.99 126.92-73.392 27.88-16.125 62.23-45.856 96.06-28.228 22.43 11.681 44.02 25.332 65.92 37.946 13.13 7.563 26.26 15.114 39.4 22.684 6.2 3.57 13.25 6.74 17.84 12.4l1.85 3.57.63 3.68-.59 3.67-1.82 3.57c-4.62 5.87-12.17 9.19-18.49 12.85-13.85 8.02-27.7 16.02-41.54 24.04-13.65 7.89-27.3 15.8-40.96 23.69-6.52 3.78-14.29 7.18-19.09 13.19l-1.81 3.57-.6 3.69.62 3.68 1.84 3.57c5.93 7.29 16.38 11.57 24.33 16.14l54.18 31.21c27.38 15.77 54.36 32.95 82.45 47.43 14.7 7.57 31.99 6.68 46.66-.26l-.14 59.92v-.01Z" stroke="#F4FAF4" stroke-opacity=".4" stroke-miterlimit="10" style="mix-blend-mode:overlay"/><path d="M1078.33 2014.95c13.55-7.85 27.1-15.71 40.65-23.56 36.86-21.35 73.71-42.71 110.56-64.05 54.72-31.7 109.44-63.41 164.15-95.1 66.42-38.48 132.84-76.97 199.26-115.45 72.62-42.07 145.24-84.15 217.86-126.22 73.13-42.37 146.26-84.73 219.39-127.1 67.94-39.36 135.88-78.73 203.82-118.09 57.27-33.18 114.53-66.35 171.79-99.53 40.29-23.34 80.57-46.68 120.86-70.02 18.2-10.55 36.85-20.59 54.72-31.7 3.23-2.02 6.24-4.14 8.65-7.17l1.81-3.57.59-3.68-.64-3.68-1.85-3.57c-5.05-6.16-13.07-9.64-19.84-13.55-14.25-8.2-28.51-16.4-42.76-24.59-17.91-10.3-38.12-26.79-59.6-27.99-15.32-.86-26.47 5.3-39.06 12.59-22.38 12.96-44.75 25.92-67.13 38.87-56.49 32.72-112.99 65.43-169.48 98.15-11.22 6.48-22.64 14.9-34.93 19.31-17.68 6.33-34 .96-49.34-7.87-47.79-27.52-97-53.43-143.69-82.76-3.06-1.92-5.74-3.95-8.04-6.77l-1.84-3.57-.62-3.68.6-3.68 1.81-3.57c4.62-5.87 12.17-9.19 18.5-12.85 13.85-8.02 27.7-16.02 41.54-24.04l40.96-23.69c6.52-3.77 14.29-7.17 19.08-13.19l1.82-3.57.59-3.67-.63-3.67-1.85-3.57c-4.06-5-9.81-7.79-15.28-10.94-11.07-6.37-22.13-12.73-33.19-19.1-23.28-13.399-46.55-26.798-69.83-40.198-14.08-8.095-30.53-11.332-46.23-5.458-13.27 4.97-25.65 14.11-37.82 21.154-46.51 26.887-93.01 53.782-139.51 80.672-13.1 7.57-27.8 10.47-42.67 6.2-14.29-4.11-27.69-14.37-40.4-21.69-29.5-17-59.01-34-88.52-50.998-10.88-6.266-21.75-12.532-32.63-18.799-5.46-3.148-11.2-5.925-15.25-10.925l-1.84-3.563-.62-3.674.6-3.673 1.82-3.563c6.54-8.126 18.76-12.985 27.55-18.058 21.15-12.222 42.31-24.451 63.47-36.672l146.76-84.795c10.56-6.104 26.15-11.992 34.05-21.814l1.81-3.562.61-3.674-.63-3.674-1.84-3.563c-13.16-16.036-39.17-17.991-52.07-34.227l-1.85-3.563-.62-3.667.6-3.666 1.82-3.563c14.22-18.043 43.84-19.925 58.17-37.879l1.82-3.563.6-3.666-.63-3.667-1.84-3.555c-9.11-11.185-27-17.666-39.14-24.643s-23.78-15.829-37.19-18.695c-27.25-5.815-50.72 13.725-72.86 26.502-30.64 17.688-60.82 36.768-92.15 53.212-29.46 15.458-52.73-4.311-78-17.525-25.27-13.214-44.72-1.541-65.56 10.488-35.3 20.369-70.59 40.746-105.88 61.115-8.76 5.051-16.8 9.762-27.12 10.91-12.24 1.356-25 .356-37.26.363-22.15 0-44.3.008-66.44.015-11.28 0-23.67 1.207-34.77-1.4-8.67-2.037-16.14-7.103-23.76-11.496-16.65-9.592-33.3-19.184-49.95-28.783-31.4-18.095-63.401-35.427-94.315-54.345-3.513-2.148-6.766-4.303-9.411-7.555l-1.83-3.555-.615-3.667.607-3.666 1.83-3.556c9.359-11.562 28.44-18.532 40.881-25.709 31.943-18.421 63.893-36.835 95.833-55.256 73.48-42.368 146.96-84.736 220.45-127.103 11.27-6.496 22.54-13 33.81-19.496 5.84-3.362 12.24-6.355 16.56-11.68l1.82-3.556.6-3.659-.61-3.659-1.84-3.555c-6.28-7.592-17.16-11.999-25.51-16.799-17.62-10.133-35.24-20.273-52.86-30.406-21.28-12.243-44.78-31.783-70.88-28.835-9.09 1.03-16.48 4.866-24.21 9.318-13.9 8.007-27.79 16.021-41.7 24.028-32.34 18.643-64.69 37.279-97.04 55.923-18.72 10.792-38.42 12.117-57.557 1.163-16.065-9.192-32.078-18.466-48.12-27.695-9.1-5.237-17.933-8.074-28.558-8.348-64.319-1.651-128.882.03-193.23.037-8.892 0-17.643-.289-26.001-3.762-9.389-3.904-18.133-10.037-26.906-15.088-30.929-17.814-62.385-34.932-92.877-53.486-3.542-2.155-6.854-4.311-9.492-7.6l-1.823-3.548-.607-3.659.615-3.659 1.83-3.548c4.594-5.799 12.041-9.058 18.325-12.673 13.412-7.718 26.817-15.436 40.229-23.147 13.412-7.71 26.431-15.213 39.65-22.813 6.44-3.704 13.998-7.022 18.799-12.873l1.89-3.57c1.4-5.489.652-11.666.659-17.251l.03-38.079c.008-12.452.022-24.895.03-37.346 0-5.756.881-12.326-.63-17.984l-1.882-3.57c-9.47-11.422-27.832-18.074-40.31-25.251-13.613-7.83-27.817-18.74-42.993-23.399-13.071-4.014-27.572-2.674-39.621 3.734-17.643 9.377-34.738 19.976-52.055 29.931-11.745 6.755-23.267 15.14-37.08 16.703-12.018 1.355-23.045-1.467-33.426-7.303-36.19-20.355-71.988-41.435-107.97-62.152C312.236 7.734 289.636-7.34 263.078 6.512c-5.676 2.963-11.144 6.4-16.687 9.592-38.954 22.384-77.916 44.768-116.87 67.152C63.209 121.357-3.109 159.458-69.421 197.56l-245.93 141.302c-85.94 49.383-171.889 98.765-257.829 148.14a7000073.18 7000073.18 0 0 1-234.644 134.814c-58.791 33.776-117.574 67.551-176.365 101.334-27.641 15.881-55.701 31.213-82.991 47.686-3.59 2.171-6.99 4.311-9.68 7.689l-1.85 3.563-.63 3.673.59 3.674 1.8 3.563c4.94 6.155 13.27 9.822 19.99 13.71 13.79 7.978 27.58 15.962 41.37 23.94 52.142 30.176 104.278 60.352 156.422 90.52 77.827 45.042 155.661 90.082 233.488 135.122 95.048 55.01 190.088 110.01 285.135 165.01l311.352 180.18c104.05 60.21 208.094 120.43 312.145 180.64 95.84 55.46 191.681 110.93 287.514 166.39 79.153 45.81 158.306 91.62 237.459 137.42 53.997 31.25 107.993 62.49 161.982 93.74 20.296 11.75 40.313 24.45 61.083 35.35 14.91 7.83 32.39 7.09 47.35.01l-.01-.08Z" stroke="#F4FAF4" stroke-opacity=".4" stroke-miterlimit="10" style="mix-blend-mode:overlay"/><path d="M2582.58 1203.22c-19.69 11.41-39.38 22.82-59.06 34.23-51.83 30.04-103.65 60.06-155.48 90.1-74.24 43.03-148.49 86.05-222.73 129.07-86.44 50.09-172.88 100.18-259.31 150.27-88.54 51.3-177.07 102.61-265.6 153.91-80.52 46.66-161.05 93.33-241.58 139.99-62.26 36.08-124.51 72.15-186.77 108.23-34.39 19.92-68.77 39.86-103.16 59.78-7.75 4.49-14.84 9.04-23.85 10.78-13.74 2.66-26.7-.36-38.53-7.2-22.88-13.25-45.767-26.5-68.656-39.75-46.542-26.94-93.091-53.87-139.633-80.82-64.763-37.49-129.534-74.97-194.297-112.47-78.523-45.45-157.047-90.9-235.563-136.35-86.059-49.81-172.118-99.62-258.178-149.44-89.534-51.83-179.069-103.65-268.611-155.48-86.652-50.15-173.296-100.3-259.948-150.46-79.457-45.99-158.922-91.99-238.379-137.98-66.778-38.66-133.557-77.31-200.335-115.963-48.78-28.236-97.56-56.471-146.332-84.699-25.968-15.029-51.938-30.058-77.898-45.094-5.47-3.163-11.49-6.022-15.46-11.095l-1.81-3.563-.58-3.674.63-3.674 1.85-3.563c5.07-6.207 13.45-9.858 20.29-13.791 14.25-8.192 28.5-16.385 42.76-24.577l156.565-89.972 223.721-128.57 255.407-146.776c85.133-48.923 168.006-96.55 252.005-144.829 71.173-40.901 142.353-81.802 213.526-122.711 46.653-26.813 93.306-53.619 139.952-80.432 23.674-13.607 49.016-34.042 77.923-22.643 10.796 4.259 20.859 11.518 30.855 17.273 20.474 11.792 40.955 23.576 61.428 35.368 15.228 8.763 30.344 17.762 45.698 26.31 10.67 5.948 22 8.37 34.226 6.718 14.005-1.889 26.172-11 38.132-17.881 16.606-9.547 32.982-19.776 49.921-28.709 30.67-16.177 58.279 6.052 84.058 20.888 11.841 6.814 29.64 13.236 38.517 24.228l1.882 3.577c1.394 5.489.638 11.666.63 17.251l-.029 38.087c-.008 12.451-.023 24.902-.03 37.346 0 5.755.86 12.325-.659 17.991l-1.89 3.57c-4.624 5.719-11.967 8.948-18.221 12.548-13.405 7.718-26.817 15.436-40.221 23.154-13.405 7.718-26.432 15.214-39.644 22.821-6.469 3.725-14.13 7.066-18.902 13.006l-1.831 3.548-.615 3.659.608 3.659 1.823 3.548c6.113 7.407 16.62 11.703 24.756 16.392 17.414 10.029 34.835 20.065 52.248 30.094 21.496 12.385 45.972 32.717 71.892 33.458 63.518 1.814 127.347-.03 190.895-.037 8.588 0 17.132-.171 25.394 2.6 13.197 4.421 25.453 13.591 37.42 20.48 23.23 13.377 46.61 29.642 73.84 15.406 51.79-27.057 100.21-60.529 151.99-87.602 23.2-12.132 43.63-1.992 63.92 9.681 30.94 17.799 62.35 34.961 92.89 53.434 3.58 2.17 6.94 4.34 9.61 7.666l1.84 3.555.62 3.659-.6 3.659-1.83 3.556c-9.34 11.555-28.43 18.532-40.86 25.702-31.95 18.421-63.88 36.842-95.83 55.263-73.48 42.375-146.95 84.743-220.42 127.119-11.273 6.495-22.543 12.999-33.814 19.495-5.839 3.37-12.249 6.362-16.576 11.695l-1.83 3.556-.608 3.666.615 3.666 1.83 3.563c5.684 7.007 15.532 11.081 23.171 15.488l51.132 29.465c30.29 17.458 60.2 35.998 91.04 52.464 8.7 4.644 17.61 6.044 27.38 6.17 17.63.229 35.29-.008 52.93-.015 19.27 0 38.55-.008 57.82-.015 10.45 0 20.44-.741 29.89-5.703 30.5-16.029 59.91-34.584 89.74-51.805 21.81-12.592 46.82-33.613 73.65-30.731 29.21 3.14 47.58 31.968 78.91 28.183 10.66-1.289 19.05-6.614 28.11-11.851 17.3-9.992 34.6-19.984 51.9-29.968 17.3-9.985 35.51-20.503 53.25-30.754 8.71-5.029 16.96-10.629 26.99-12.562 12.58-2.43 24.84-.274 36.01 5.777 16.63 9.014 32.84 18.903 49.24 28.339 4.63 2.659 9.12 5.148 12.56 9.355l1.85 3.563.62 3.666-.6 3.667-1.82 3.563c-14.21 18.043-43.83 19.932-58.16 37.886l-1.82 3.563-.6 3.666.62 3.674 1.85 3.563c13.14 16.036 39.17 17.999 52.06 34.228l1.84 3.562.63 3.674-.6 3.674-1.82 3.563c-6.53 8.125-18.75 12.977-27.53 18.051-21.15 12.228-42.31 24.45-63.46 36.679-48.92 28.265-97.84 56.537-146.75 84.802-10.57 6.103-26.16 11.999-34.06 21.819l-1.82 3.56-.6 3.68.62 3.67 1.84 3.57c9.23 11.39 27.93 18.22 40.2 25.3 26.31 15.15 52.6 30.31 78.91 45.47 27.96 16.11 62.24 45.71 96.07 27.92 43.14-22.68 84.72-49.01 126.92-73.41 27.87-16.12 62.22-45.861 96.04-28.23 22.42 11.69 44.01 25.34 65.92 37.95l39.39 22.68c6.2 3.57 13.25 6.75 17.84 12.41l1.85 3.57.63 3.68-.6 3.68-1.81 3.57c-4.62 5.87-12.17 9.18-18.5 12.85-13.84 8.02-27.69 16.02-41.53 24.04-13.65 7.89-27.3 15.8-40.95 23.69-6.52 3.78-14.29 7.18-19.09 13.19l-1.81 3.57-.6 3.68.62 3.69 1.85 3.57c4.15 5.07 10.01 7.9 15.58 11.11 11.2 6.46 22.39 12.91 33.59 19.35l87.96 50.68c15.05 8.67 29.11 19.07 47.21 19.02 15.01-.04 26.08-7.27 38.48-14.45 53.55-31.01 107.1-62.03 160.65-93.04 25.63-14.84 51.26-29.69 76.89-44.54 10.94-6.33 22.71-15.28 35.22-18.33 21.11-5.15 36.92 4.39 54.35 14.43 25.09 14.44 50.81 28.13 75.41 43.39 3.21 1.98 6.06 4.06 8.46 7l1.85 3.57.64 3.68-.59 3.68-1.8 3.57c-2.14 2.67-4.53 4.42-7.3 6.38l.03-.02Z" stroke="#F4FAF4" stroke-opacity=".4" stroke-miterlimit="10" style="mix-blend-mode:overlay"/></svg>