<svg width="1999" height="909" fill="none" xmlns="http://www.w3.org/2000/svg"><path d="M2582.58 1143.22c-19.69 11.41-39.38 22.82-59.06 34.23-51.83 30.04-103.65 60.06-155.48 90.1-74.24 43.03-148.49 86.05-222.73 129.07-86.44 50.09-172.88 100.18-259.31 150.27-88.54 51.3-177.07 102.61-265.6 153.91-80.52 46.66-161.05 93.33-241.58 139.99-62.26 36.08-124.51 72.15-186.77 108.23-34.39 19.92-68.77 39.86-103.16 59.78-7.75 4.49-14.84 9.04-23.85 10.78-13.74 2.66-26.7-.36-38.53-7.2-22.88-13.25-45.767-26.5-68.656-39.75-46.542-26.94-93.091-53.87-139.633-80.82-64.763-37.49-129.534-74.97-194.297-112.47-78.523-45.45-157.047-90.9-235.563-136.35-86.059-49.81-172.118-99.62-258.178-149.44-89.534-51.83-179.069-103.65-268.611-155.48-86.652-50.15-173.296-100.3-259.948-150.46-79.457-45.99-158.922-91.99-238.379-137.98-66.778-38.66-133.557-77.307-200.335-115.963-48.78-28.236-97.56-56.471-146.332-84.699-25.968-15.029-51.938-30.058-77.898-45.094-5.47-3.163-11.49-6.022-15.46-11.095l-1.81-3.563-.58-3.674.63-3.674 1.85-3.563c5.07-6.207 13.45-9.858 20.29-13.791 14.25-8.192 28.5-16.385 42.76-24.577l156.565-89.972 223.721-128.57 255.407-146.776c85.133-48.923 168.006-96.55 252.005-144.829 71.173-40.901 142.353-81.802 213.526-122.711 46.653-26.813 93.306-53.619 139.952-80.432C251.21 13.04 276.552-7.395 305.459 4.004c10.796 4.259 20.859 11.518 30.855 17.273 20.474 11.792 40.955 23.576 61.428 35.368 15.228 8.763 30.344 17.762 45.698 26.31 10.67 5.948 22 8.37 34.226 6.718 14.005-1.889 26.172-11 38.132-17.88 16.606-9.548 32.982-19.777 49.921-28.71 30.67-16.177 58.279 6.052 84.058 20.888 11.841 6.814 29.64 13.236 38.517 24.228l1.882 3.577c1.394 5.489.638 11.666.63 17.251l-.029 38.087c-.008 12.451-.023 24.902-.03 37.346 0 5.755.86 12.325-.659 17.991l-1.89 3.57c-4.624 5.719-11.967 8.948-18.221 12.548-13.405 7.718-26.817 15.436-40.221 23.154-13.405 7.718-26.432 15.214-39.644 22.821-6.469 3.725-14.13 7.066-18.902 13.006l-1.831 3.548-.615 3.659.608 3.659 1.823 3.548c6.113 7.407 16.62 11.703 24.756 16.392 17.414 10.029 34.835 20.065 52.248 30.094 21.496 12.385 45.972 32.717 71.892 33.458 63.518 1.814 127.347-.03 190.895-.037 8.588 0 17.132-.171 25.394 2.6 13.197 4.421 25.453 13.591 37.42 20.48 23.23 13.377 46.61 29.642 73.84 15.406 51.79-27.057 100.21-60.529 151.99-87.602 23.2-12.132 43.63-1.992 63.92 9.681 30.94 17.799 62.35 34.961 92.89 53.434 3.58 2.17 6.94 4.34 9.61 7.666l1.84 3.555.62 3.659-.6 3.659-1.83 3.556c-9.34 11.555-28.43 18.532-40.86 25.702-31.95 18.421-63.88 36.842-95.83 55.263-73.48 42.375-146.95 84.743-220.42 127.119-11.273 6.495-22.543 12.999-33.814 19.495-5.839 3.37-12.249 6.362-16.576 11.695l-1.83 3.556-.608 3.666.615 3.666 1.83 3.563c5.684 7.007 15.532 11.081 23.171 15.488l51.132 29.465c30.29 17.458 60.2 35.998 91.04 52.464 8.7 4.644 17.61 6.044 27.38 6.17 17.63.229 35.29-.008 52.93-.015 19.27 0 38.55-.008 57.82-.015 10.45 0 20.44-.741 29.89-5.703 30.5-16.029 59.91-34.584 89.74-51.805 21.81-12.592 46.82-33.613 73.65-30.731 29.21 3.14 47.58 31.968 78.91 28.183 10.66-1.289 19.05-6.614 28.11-11.851 17.3-9.992 34.6-19.984 51.9-29.968 17.3-9.985 35.51-20.503 53.25-30.754 8.71-5.029 16.96-10.629 26.99-12.562 12.58-2.43 24.84-.274 36.01 5.777 16.63 9.014 32.84 18.903 49.24 28.339 4.63 2.659 9.12 5.148 12.56 9.355l1.85 3.563.62 3.666-.6 3.667-1.82 3.563c-14.21 18.043-43.83 19.932-58.16 37.886l-1.82 3.563-.6 3.666.62 3.674 1.85 3.563c13.14 16.036 39.17 17.999 52.06 34.228l1.84 3.562.63 3.674-.6 3.674-1.82 3.563c-6.53 8.125-18.75 12.977-27.53 18.051-21.15 12.228-42.31 24.45-63.46 36.679-48.92 28.265-97.84 56.537-146.75 84.802-10.57 6.103-26.16 11.999-34.06 21.821l-1.82 3.563-.6 3.674.62 3.673 1.84 3.563c9.23 11.4 27.93 18.229 40.2 25.302 26.31 15.155 52.6 30.313 78.91 45.473 27.96 16.11 62.24 45.71 96.07 27.92 43.14-22.68 84.72-49.01 126.92-73.407 27.87-16.125 62.22-45.864 96.04-28.228 22.42 11.68 44.01 25.339 65.92 37.946l39.39 22.679c6.2 3.57 13.25 6.75 17.84 12.41l1.85 3.57.63 3.68-.6 3.68-1.81 3.57c-4.62 5.87-12.17 9.18-18.5 12.85-13.84 8.02-27.69 16.02-41.53 24.04-13.65 7.89-27.3 15.8-40.95 23.69-6.52 3.78-14.29 7.18-19.09 13.19l-1.81 3.57-.6 3.68.62 3.69 1.85 3.57c4.15 5.07 10.01 7.9 15.58 11.11 11.2 6.46 22.39 12.91 33.59 19.35l87.96 50.68c15.05 8.67 29.11 19.07 47.21 19.02 15.01-.04 26.08-7.27 38.48-14.45 53.55-31.01 107.1-62.03 160.65-93.04 25.63-14.84 51.26-29.69 76.89-44.54 10.94-6.33 22.71-15.28 35.22-18.33 21.11-5.15 36.92 4.39 54.35 14.43 25.09 14.44 50.81 28.13 75.41 43.39 3.21 1.98 6.06 4.06 8.46 7l1.85 3.57.64 3.68-.59 3.68-1.8 3.57c-2.14 2.67-4.53 4.42-7.3 6.38l.03-.02Z" stroke="#F4FAF4" stroke-opacity=".4" stroke-miterlimit="10" style="mix-blend-mode:overlay"/></svg>