<svg width="1024" height="357" fill="none" xmlns="http://www.w3.org/2000/svg">
  <g clip-path="url(#a)" stroke="#F4FAF4" stroke-opacity=".1" stroke-miterlimit="10">
    <path
      d="M917.326 1892.95c13.553-7.85 27.098-15.71 40.651-23.56 36.857-21.35 73.703-42.71 110.563-64.05 54.72-31.7 109.43-63.41 164.15-95.1 66.42-38.48 132.83-76.97 199.26-115.45 72.62-42.07 145.24-84.15 217.86-126.22 73.13-42.37 146.26-84.73 219.38-127.1 67.95-39.36 135.89-78.73 203.83-118.09 57.26-33.18 114.53-66.35 171.79-99.53 40.28-23.34 80.57-46.68 120.85-70.02 18.21-10.55 36.86-20.59 54.72-31.7 3.23-2.02 6.24-4.14 8.66-7.17l1.81-3.57.58-3.68-.63-3.68-1.86-3.57c-5.04-6.163-13.06-9.644-19.83-13.548-14.25-8.199-28.51-16.399-42.76-24.591-17.91-10.303-38.12-26.791-59.6-27.991-15.32-.859-26.47 5.304-39.06 12.592-22.38 12.955-44.75 25.917-67.13 38.872-56.49 32.716-112.99 65.426-169.49 98.146-11.21 6.48-22.64 14.9-34.93 19.31-17.68 6.33-34 .96-49.33-7.87-47.79-27.52-97-53.43-143.69-82.76-3.06-1.92-5.74-3.95-8.04-6.77l-1.85-3.57-.62-3.679.6-3.682 1.82-3.57c4.61-5.874 12.17-9.184 18.5-12.851l41.54-24.036 40.96-23.694c6.52-3.771 14.29-7.17 19.08-13.185l1.81-3.57.59-3.674-.63-3.674-1.84-3.57c-4.06-4.999-9.82-7.784-15.29-10.932-11.06-6.37-22.12-12.733-33.18-19.103l-69.84-40.198c-14.07-8.095-30.53-11.332-46.22-5.458-13.27 4.97-25.65 14.11-37.83 21.154l-139.51 80.669c-13.1 7.577-27.8 10.473-42.66 6.207-14.3-4.111-27.69-14.377-40.4-21.695-29.51-16.999-59.01-33.998-88.52-50.997-10.88-6.266-21.76-12.532-32.63-18.799-5.47-3.148-11.21-5.925-15.25-10.925l-1.84-3.563-.62-3.674.6-3.673 1.82-3.563c6.53-8.126 18.76-12.985 27.54-18.058 21.16-12.222 42.32-24.451 63.48-36.672l146.76-84.795c10.56-6.104 26.15-11.992 34.05-21.814l1.81-3.562.6-3.674-.62-3.674-1.85-3.563c-13.15-16.036-39.17-17.991-52.07-34.227l-1.84-3.563-.62-3.667.6-3.666 1.81-3.563c14.22-18.043 43.85-19.925 58.18-37.879l1.81-3.563.6-3.666-.62-3.667-1.84-3.555c-9.11-11.185-27.01-17.666-39.14-24.643-12.14-6.977-23.78-15.829-37.19-18.695-27.25-5.815-50.73 13.725-72.86 26.502-30.64 17.688-60.83 36.768-92.16 53.212-29.46 15.458-52.73-4.311-77.99-17.525-25.27-13.214-44.72-1.541-65.57 10.488-35.29 20.369-70.58 40.746-105.88 61.115-8.75 5.051-16.79 9.762-27.12 10.91-12.23 1.356-24.99.356-37.26.363-22.14 0-44.29.008-66.43.015-11.289 0-23.671 1.207-34.771-1.4-8.677-2.037-16.146-7.103-23.764-11.496-16.65-9.592-33.3-19.184-49.95-28.783-31.404-18.095-63.4-35.427-94.314-54.345-3.513-2.148-6.766-4.303-9.411-7.555l-1.83-3.555-.615-3.667.607-3.666 1.831-3.556c9.358-11.562 28.439-18.532 40.88-25.709 31.945-18.421 63.889-36.835 95.833-55.256 73.484-42.368 146.964-84.736 220.444-127.103 11.27-6.496 22.54-13 33.81-19.496 5.84-3.362 12.25-6.355 16.57-11.68l1.82-3.556.6-3.659-.62-3.659-1.83-3.555c-6.29-7.592-17.17-11.999-25.51-16.799-17.62-10.133-35.24-20.273-52.86-30.406-21.28-12.243-44.78-31.783-70.89-28.835-9.09 1.03-16.48 4.866-24.2 9.318-13.9 8.007-27.8 16.021-41.7 24.028-32.344 18.643-64.696 37.279-97.04 55.923-18.725 10.792-38.421 12.117-57.561 1.163-16.065-9.192-32.078-18.466-48.12-27.695-9.1-5.237-17.932-8.074-28.558-8.348-64.319-1.651-128.882.03-193.23.037-8.892 0-17.643-.289-26.001-3.762-9.389-3.904-18.133-10.037-26.906-15.088-30.929-17.814-62.384-34.932-92.876-53.486-3.542-2.155-6.855-4.311-9.493-7.6l-1.823-3.548-.607-3.659.615-3.659 1.83-3.548c4.594-5.799 12.041-9.058 18.325-12.673 13.412-7.718 26.817-15.436 40.229-23.147 13.412-7.71 26.431-15.213 39.65-22.813 6.44-3.703 13.998-7.022 18.8-12.873l1.889-3.57c1.401-5.489.652-11.666.66-17.251l.029-38.08c.008-12.45.022-24.894.03-37.345 0-5.756.882-12.326-.63-17.985l-1.882-3.57c-9.47-11.421-27.832-18.073-40.31-25.25-13.612-7.83-27.817-18.74-42.993-23.399-13.071-4.014-27.572-2.674-39.621 3.734-17.643 9.377-34.738 19.976-52.055 29.931-11.745 6.755-23.267 15.14-37.079 16.703-12.019 1.355-23.045-1.467-33.427-7.303-36.19-20.355-71.988-41.435-107.97-62.152-22.623-13.022-45.223-28.095-71.781-14.244-5.676 2.963-11.144 6.4-16.687 9.592C46.433-83.512 7.471-61.128-31.483-38.744-97.794-.643-164.114 37.459-230.425 75.56l-245.93 141.302c-85.94 49.383-171.888 98.765-257.829 148.14-78.212 44.938-156.424 89.876-234.644 134.814A1951743.88 1951743.88 0 0 0-1145.19 601.15c-27.64 15.881-55.7 31.213-82.99 47.686-3.6 2.171-6.99 4.311-9.68 7.689l-1.85 3.563-.63 3.673.58 3.674 1.81 3.563c4.93 6.155 13.26 9.822 19.98 13.71 13.79 7.978 27.58 15.962 41.37 23.94 52.15 30.176 104.28 60.352 156.43 90.52 77.825 45.042 155.659 90.084 233.486 135.125 95.048 55.004 190.088 110.007 285.136 165.007l311.351 180.18c104.05 60.21 208.094 120.43 312.145 180.64 95.84 55.46 191.681 110.93 287.514 166.39 79.153 45.81 158.306 91.62 237.459 137.42 53.997 31.25 107.993 62.49 161.982 93.74 20.296 11.75 40.31 24.45 61.081 35.35 14.908 7.83 32.396 7.09 47.357.01l-.015-.08Z"
      style="mix-blend-mode:overlay" />
    <path
      d="M2421.57 1081.22c-19.69 11.41-39.38 22.82-59.06 34.23-51.82 30.04-103.65 60.06-155.48 90.1-74.24 43.03-148.49 86.05-222.73 129.07-86.44 50.09-172.87 100.18-259.31 150.27-88.53 51.3-177.06 102.61-265.6 153.91-80.52 46.66-161.05 93.33-241.57 139.99-62.26 36.08-124.51 72.15-186.77 108.23-34.392 19.92-68.775 39.86-103.164 59.78-7.751 4.49-14.842 9.04-23.853 10.78-13.738 2.66-26.698-.36-38.524-7.2-22.89-13.25-45.772-26.5-68.661-39.75-46.542-26.94-93.091-53.87-139.633-80.82-64.763-37.49-129.534-74.97-194.297-112.47-78.523-45.45-157.047-90.9-235.563-136.35-86.059-49.81-172.118-99.62-258.177-149.44-89.535-51.83-179.069-103.65-268.611-155.48-86.653-50.15-173.297-100.3-259.949-150.46-79.457-45.99-158.922-91.99-238.379-137.98-66.778-38.657-133.557-77.307-200.335-115.963l-146.334-84.699c-25.96-15.029-51.93-30.058-77.9-45.094-5.47-3.163-11.48-6.022-15.46-11.095l-1.8-3.563-.59-3.674.63-3.674 1.85-3.563c5.08-6.207 13.45-9.858 20.29-13.791 14.26-8.192 28.51-16.385 42.76-24.577l156.57-89.972 223.721-128.57 255.406-146.776c85.133-48.923 168.006-96.55 252.005-144.829 71.173-40.901 142.353-81.802 213.526-122.71C-26.77 18.265 19.884-8.54 66.53-35.354c23.674-13.607 49.017-34.042 77.923-22.643 10.796 4.259 20.859 11.518 30.855 17.273 20.474 11.792 40.955 23.576 61.429 35.368 15.227 8.763 30.343 17.762 45.697 26.31 10.67 5.948 22 8.37 34.226 6.718 14.005-1.889 26.172-11 38.132-17.88 16.606-9.548 32.982-19.777 49.921-28.71 30.67-16.177 58.279 6.052 84.058 20.888 11.842 6.814 29.64 13.236 38.517 24.228l1.883 3.577c1.393 5.489.637 11.666.63 17.251l-.03 38.087c-.008 12.45-.022 24.902-.03 37.346 0 5.755.86 12.325-.659 17.991l-1.89 3.57c-4.624 5.719-11.967 8.948-18.221 12.548-13.405 7.718-26.817 15.436-40.221 23.154-13.405 7.718-26.432 15.214-39.644 22.821-6.468 3.725-14.13 7.066-18.902 13.006l-1.831 3.548-.614 3.659.607 3.659 1.823 3.548c6.113 7.407 16.62 11.703 24.757 16.392l52.247 30.094c21.497 12.385 45.972 32.717 71.892 33.458 63.518 1.814 127.347-.03 190.895-.037 8.588 0 17.132-.171 25.394 2.6 13.197 4.421 25.453 13.591 37.42 20.48 23.23 13.377 46.609 29.642 73.841 15.406 51.788-27.057 100.212-60.529 151.995-87.602 23.2-12.132 43.63-1.992 63.92 9.681 30.93 17.799 62.34 34.961 92.88 53.434 3.59 2.17 6.94 4.34 9.62 7.666l1.84 3.555.61 3.659-.6 3.659-1.82 3.556c-9.35 11.555-28.43 18.532-40.87 25.702l-95.82 55.263c-73.481 42.375-146.951 84.743-220.428 127.119-11.271 6.495-22.541 12.999-33.812 19.495-5.839 3.37-12.248 6.362-16.576 11.695l-1.83 3.556-.608 3.666.615 3.666 1.831 3.563c5.683 7.007 15.531 11.081 23.171 15.488l51.128 29.465c30.292 17.458 60.199 35.998 91.039 52.464 8.699 4.644 17.614 6.044 27.38 6.17 17.64.229 35.29-.008 52.93-.015 19.27 0 38.55-.008 57.83-.015 10.44 0 20.43-.741 29.88-5.703 30.5-16.029 59.91-34.584 89.74-51.805 21.81-12.592 46.83-33.613 73.65-30.731 29.22 3.14 47.58 31.968 78.91 28.183 10.66-1.289 19.06-6.614 28.11-11.851 17.3-9.992 34.6-19.984 51.9-29.968 17.3-9.985 35.51-20.503 53.26-30.754 8.7-5.029 16.96-10.629 26.98-12.562 12.59-2.43 24.84-.274 36.01 5.777 16.63 9.014 32.85 18.903 49.25 28.339 4.62 2.659 9.12 5.148 12.56 9.355l1.84 3.563.62 3.666-.6 3.667-1.81 3.563c-14.21 18.043-43.84 19.932-58.17 37.886l-1.82 3.563-.6 3.666.63 3.674 1.84 3.563c13.15 16.036 39.17 17.999 52.06 34.228l1.85 3.562.62 3.674-.6 3.674-1.81 3.563c-6.54 8.125-18.76 12.977-27.53 18.051l-63.47 36.679c-48.91 28.265-97.83 56.537-146.75 84.802-10.56 6.103-26.15 11.999-34.05 21.821l-1.82 3.563-.6 3.674.62 3.673 1.84 3.563c9.23 11.4 27.92 18.229 40.19 25.302 26.31 15.155 52.61 30.31 78.91 45.472 27.96 16.11 62.24 45.711 96.07 27.917 43.14-22.681 84.73-49.005 126.92-73.403 27.88-16.125 62.22-45.864 96.05-28.228 22.41 11.68 44.01 25.339 65.91 37.946l39.39 22.68c6.2 3.57 13.25 6.747 17.85 12.406l1.84 3.57.63 3.682-.59 3.681-1.82 3.57c-4.61 5.874-12.17 9.185-18.49 12.851-13.85 8.014-27.69 16.019-41.54 24.039-13.65 7.89-27.29 15.8-40.94 23.69-6.52 3.78-14.3 7.18-19.09 13.19l-1.82 3.57-.6 3.68.62 3.69 1.85 3.57c4.15 5.07 10.01 7.9 15.58 11.11 11.2 6.46 22.4 12.91 33.59 19.35l87.97 50.68c15.05 8.67 29.1 19.07 47.21 19.02 15-.04 26.08-7.27 38.47-14.45 53.56-31.01 107.1-62.03 160.65-93.04 25.63-14.84 51.27-29.69 76.9-44.54 10.93-6.33 22.71-15.278 35.22-18.329 21.11-5.148 36.91 4.392 54.35 14.429 25.09 14.44 50.81 28.13 75.41 43.39 3.2 1.98 6.05 4.06 8.45 7l1.86 3.57.63 3.68-.58 3.68-1.81 3.57c-2.13 2.67-4.53 4.42-7.29 6.38l.02-.02Z"
      style="mix-blend-mode:overlay" />
  </g>
  <defs>
    <clipPath id="a">
      <path fill="#fff" d="M0 0h1024v357H0z" />
    </clipPath>
  </defs>
</svg>