<svg width="513" height="206" viewBox="0 0 513 206" fill="none" xmlns="http://www.w3.org/2000/svg">
<path d="M273.61 84.1001C273.61 83.4342 273.058 82.8944 272.378 82.8944H265.214C264.534 82.8944 263.982 83.4342 263.982 84.1001V106.924C263.982 110.157 263.289 112.358 262.115 113.737C260.978 115.074 259.221 115.831 256.607 115.831C253.93 115.831 252.13 115.069 250.967 113.728C249.771 112.35 249.066 110.153 249.066 106.924V96.1574C249.066 95.4915 248.514 94.9517 247.834 94.9517H240.615C239.934 94.9517 239.382 95.4915 239.382 96.1574V106.924C239.382 110.154 238.681 112.352 237.493 113.731C236.338 115.07 234.552 115.831 231.897 115.831C229.338 115.831 227.567 115.104 226.379 113.807C225.225 112.507 224.522 110.299 224.522 106.924V84.1001C224.522 83.4342 223.97 82.8944 223.289 82.8944H216.071C215.39 82.8944 214.838 83.4342 214.838 84.1001V107.145C214.838 112.609 216.261 116.971 219.295 120.031C222.329 123.091 226.593 124.542 231.897 124.542C234.764 124.542 237.338 124.099 239.591 123.178L239.601 123.174C241.392 122.423 242.936 121.451 244.214 120.248C245.47 121.452 247.003 122.424 248.792 123.174L248.816 123.184C251.134 124.098 253.738 124.542 256.607 124.542C261.906 124.542 266.154 123.113 269.153 120.086C272.189 117.025 273.61 112.643 273.61 107.145V84.1001Z" fill="white"/>
<path d="M326.664 84.1001C326.664 83.4342 326.112 82.8944 325.431 82.8944H318.212C317.532 82.8944 316.98 83.4342 316.98 84.1001V98.8652H299.343V84.1001C299.343 83.4342 298.791 82.8944 298.111 82.8944H290.892C290.211 82.8944 289.659 83.4342 289.659 84.1001V122.784C289.659 123.45 290.211 123.99 290.892 123.99H298.111C298.791 123.99 299.343 123.45 299.343 122.784V107.411H316.98V122.784C316.98 123.45 317.532 123.99 318.212 123.99H325.431C326.112 123.99 326.664 123.45 326.664 122.784V84.1001Z" fill="white"/>
<path fill-rule="evenodd" clip-rule="evenodd" d="M378.383 123.99C379.064 123.99 379.615 123.45 379.615 122.784V101.342C379.615 97.4046 378.867 93.9786 377.31 91.1134C375.795 88.2217 373.624 86.0139 370.804 84.5303C368.003 83.0569 364.759 82.3418 361.113 82.3418C357.467 82.3418 354.223 83.0569 351.422 84.5303C348.602 86.0138 346.413 88.2207 344.862 91.1105L344.859 91.1159C343.34 93.9801 342.611 97.4049 342.611 101.342V122.784C342.611 123.45 343.162 123.99 343.843 123.99H350.951C351.632 123.99 352.184 123.45 352.184 122.784V114.042H369.931V122.784C369.931 123.45 370.483 123.99 371.164 123.99H378.383ZM367.602 93.4381L367.611 93.4468C369.087 94.947 369.931 97.284 369.931 100.679V105.607H352.184V100.679C352.184 97.284 353.028 94.947 354.504 93.4469L354.513 93.438C356.005 91.891 358.13 91.0532 361.057 91.0532C363.985 91.0532 366.11 91.891 367.602 93.4381Z" fill="white"/>
<path fill-rule="evenodd" clip-rule="evenodd" d="M421.226 123.466C421.456 123.794 421.837 123.99 422.243 123.99H430.017C430.475 123.99 430.895 123.741 431.108 123.345C431.321 122.949 431.292 122.469 431.033 122.1L422.93 110.581C425.14 109.488 426.914 107.979 428.212 106.043C429.81 103.717 430.583 100.971 430.583 97.8605C430.583 94.8334 429.87 92.152 428.394 89.8665C426.919 87.5829 424.797 85.8508 422.084 84.6593C419.411 83.4688 416.306 82.8944 412.803 82.8944H396.81C396.13 82.8944 395.578 83.4342 395.578 84.1001V122.784C395.578 123.45 396.13 123.99 396.81 123.99H404.029C404.71 123.99 405.262 123.45 405.262 122.784V112.716H412.803C413.124 112.716 413.419 112.712 413.682 112.703L421.226 123.466ZM418.845 93.0951C420.138 94.1481 420.844 95.6746 420.844 97.8605C420.844 100.042 420.14 101.594 418.838 102.686C417.516 103.76 415.459 104.391 412.47 104.391H405.262V91.3847H412.47C415.463 91.3847 417.522 92.0186 418.845 93.0951Z" fill="white"/>
<path d="M453.875 122.784V109.179H469.579C470.26 109.179 470.812 108.639 470.812 107.973V101.895C470.812 101.229 470.26 100.689 469.579 100.689H453.875V98.5789C453.875 95.9432 454.648 94.1431 456.014 92.961C457.406 91.7559 459.581 91.0532 462.749 91.0532C466.036 91.0532 468.659 91.7993 470.701 93.2089C471.012 93.4237 471.408 93.4857 471.772 93.3768C472.136 93.268 472.428 93.0005 472.564 92.6522L474.841 86.7944C475.046 86.2644 474.847 85.6657 474.362 85.356C472.789 84.3525 470.976 83.6041 468.939 83.0974C466.904 82.5911 464.728 82.3418 462.416 82.3418C456.908 82.3418 452.417 83.7445 449.094 86.688C445.79 89.6112 444.191 93.6277 444.191 98.5789V122.784C444.191 123.45 444.743 123.99 445.424 123.99H452.643C453.323 123.99 453.875 123.45 453.875 122.784Z" fill="white"/>
<path d="M177.787 117.503C177.714 121.492 175.076 124.262 172.475 125.763L166.877 128.995C164.206 130.537 161.082 131.136 158.284 131.136C155.485 131.136 152.362 130.537 149.692 128.995L144.201 125.763V136.735C144.201 140.799 141.523 143.631 138.887 145.154L133.29 148.385C130.618 149.927 127.495 150.526 124.696 150.526C121.897 150.526 118.774 149.927 116.104 148.385L107.902 143.651L99.702 148.385C97.0305 149.927 93.9072 150.526 91.1085 150.526C88.3098 150.526 85.1879 149.927 82.5164 148.385L43.3313 125.763C40.73 124.262 38.0922 121.492 38.019 117.503L38.0176 117.257V131.625L38.019 131.871C38.0922 135.86 40.73 138.63 43.3313 140.131L82.5164 162.753C85.1879 164.295 88.3098 164.894 91.1085 164.894C93.9072 164.894 97.0305 164.295 99.702 162.753L107.902 158.018L116.104 162.753C118.774 164.295 121.897 164.894 124.696 164.894C127.495 164.894 130.618 164.295 133.29 162.753L138.887 159.521C141.523 157.999 144.201 155.167 144.201 151.103V140.131L149.692 143.363C152.362 144.905 155.485 145.504 158.284 145.504C161.082 145.504 164.206 144.905 166.877 143.363L172.475 140.131C175.076 138.63 177.714 135.86 177.787 131.871L177.787 117.503Z" fill="#7BE7CE"/>
<path d="M38.0526 103.767C38.0295 103.981 38.0176 104.198 38.0176 104.418V117.257L38.019 117.503C38.0922 121.492 40.73 124.262 43.3313 125.763L82.5164 148.385C85.1879 149.927 88.3097 150.526 91.1085 150.526C93.9072 150.526 97.0305 149.927 99.702 148.385L107.902 143.65L116.104 148.385C118.774 149.927 121.897 150.526 124.696 150.526C127.495 150.526 130.618 149.927 133.29 148.385L138.887 145.153C141.523 143.631 144.201 140.799 144.201 136.735V125.763L149.692 128.995C152.362 130.537 155.485 131.136 158.284 131.136C161.082 131.136 164.206 130.537 166.877 128.995L172.475 125.763C175.076 124.262 177.714 121.492 177.787 117.503V103.136C177.714 107.124 175.076 109.893 172.475 111.395L166.877 114.627C164.206 116.168 161.082 116.768 158.284 116.768C155.485 116.768 152.362 116.168 149.692 114.627L144.094 111.395C144.004 111.343 143.914 111.289 143.824 111.234C144.067 112.027 144.204 112.884 144.204 113.804C144.204 114.073 144.192 114.337 144.169 114.595C144.19 114.797 144.201 115.002 144.201 115.209V122.366C144.201 126.43 141.523 129.263 138.887 130.785L133.29 134.017C130.618 135.558 127.495 136.158 124.696 136.158C121.897 136.158 118.774 135.558 116.104 134.017L107.902 129.282L99.702 134.017C97.0305 135.558 93.9072 136.158 91.1085 136.158C88.3097 136.158 85.1879 135.558 82.5164 134.017L43.3313 111.395C40.8698 109.974 38.3755 107.417 38.0526 103.767Z" fill="#B2F2E1"/>
<path d="M105.231 65.0186C105.237 65.0767 105.243 65.1348 105.25 65.1928C105.531 67.6131 106.734 69.5192 108.231 70.9303C108.122 70.9285 108.014 70.9276 107.906 70.9276C107.031 70.9276 106.125 70.9862 105.21 71.1138V65.5255C105.21 65.3548 105.217 65.1857 105.231 65.0186Z" fill="#B2F2E1"/>
<path d="M48.9324 82.7639L43.3344 85.9955C40.8405 87.4353 38.3108 90.0472 38.044 93.7645C38.0265 93.939 38.0176 94.1214 38.0176 94.312V102.889L38.019 103.135C38.0922 107.124 40.73 109.894 43.3313 111.395L82.5164 134.017C85.1879 135.559 88.3097 136.158 91.1085 136.158C93.9072 136.158 97.0305 135.559 99.702 134.017L107.902 129.282L116.104 134.017C118.774 135.559 121.897 136.158 124.696 136.158C127.495 136.158 130.618 135.559 133.29 134.017L138.887 130.785C141.523 129.263 144.201 126.431 144.201 122.367V115.209C144.201 115.003 144.19 114.798 144.169 114.595C144.192 114.337 144.204 114.073 144.204 113.804C144.204 112.884 144.067 112.027 143.824 111.235C143.914 111.29 144.004 111.343 144.094 111.395L149.692 114.627C152.362 116.169 155.485 116.768 158.284 116.768C161.082 116.768 164.206 116.169 166.877 114.627L172.475 111.395C175.076 109.894 177.714 107.124 177.787 103.135V94.6988C177.79 94.6046 177.791 94.5098 177.791 94.4142C177.791 94.3187 177.79 94.2239 177.787 94.1297L177.788 75.2591C177.79 75.1813 177.791 75.103 177.791 75.0242C177.791 70.9603 175.115 68.1277 172.478 66.6055L133.292 43.9837C130.622 42.442 127.499 41.8428 124.7 41.8428C121.901 41.8428 118.778 42.442 116.107 43.9837L110.51 47.2154C107.873 48.7376 105.196 51.5702 105.196 55.6341C105.196 55.8256 105.202 56.0144 105.214 56.2005C105.211 56.2658 105.21 56.3317 105.21 56.3981V63.6424C105.191 63.9299 105.188 64.218 105.199 64.5058C105.206 64.7352 105.223 64.9644 105.25 65.1931C105.531 67.6133 106.734 69.5194 108.231 70.9306C108.122 70.9288 108.014 70.9279 107.906 70.9279C105.107 70.9279 101.984 71.5271 99.3137 73.0688L93.7158 76.3005C91.0789 77.8227 88.4022 80.6553 88.4022 84.7192C88.4022 84.9835 88.4135 85.2426 88.4354 85.4964C88.4306 85.5945 88.4282 85.693 88.4282 85.7922V92.5738L88.4179 92.7394L88.4077 92.9207C88.4004 93.0971 88.3989 93.2737 88.4019 93.4503C88.4077 93.8184 88.4384 94.1863 88.4925 94.552C88.5595 95.0033 88.6583 95.4358 88.7848 95.8499L66.1171 82.7639C63.4466 81.2222 60.3234 80.623 57.5247 80.623C54.726 80.623 51.6029 81.2222 48.9324 82.7639Z" fill="#F4FAF4"/>
<path d="M130.295 49.1697C127.204 47.3849 122.191 47.3849 119.1 49.1697L113.502 52.4013C110.41 54.1862 110.41 57.0799 113.502 58.8647L152.008 81.0944C153.493 81.9515 154.327 83.114 154.327 84.3261V85.1102C154.327 86.3223 153.493 87.4848 152.008 88.3419L147.089 91.1815C143.998 92.9663 143.998 95.8601 147.089 97.6449L152.687 100.877C155.779 102.661 160.791 102.661 163.883 100.877L169.481 97.6449C172.573 95.8601 172.573 92.9663 169.481 91.1815L164.562 88.3419C163.077 87.4848 162.243 86.3224 162.243 85.1102V84.3261C162.243 83.114 163.077 81.9515 164.562 81.0944L169.481 78.2548C172.573 76.47 172.573 73.5762 169.481 71.7914L130.295 49.1697Z" fill="#494E62"/>
<path d="M63.1203 87.9498C60.0287 86.165 55.0161 86.165 51.9245 87.9498L46.3265 91.1815C43.2349 92.9663 43.2349 95.8601 46.3265 97.6449L85.512 120.267C88.6037 122.051 93.6162 122.051 96.7079 120.267L107.904 113.803L63.1203 87.9498Z" fill="#494E62"/>
<path d="M128.656 104.5C128.656 105.712 129.49 106.875 130.975 107.732L135.893 110.572C138.985 112.356 138.985 115.25 135.893 117.035L130.295 120.267C127.204 122.051 122.191 122.051 119.1 120.267L107.904 113.803L118.42 107.732C119.905 106.875 120.739 105.712 120.739 104.5L120.739 103.716C120.739 102.504 119.905 101.342 118.42 100.485L96.7079 87.9498C93.6162 86.165 93.6162 83.2713 96.7079 81.4865L102.306 78.2548C105.397 76.47 110.41 76.47 113.502 78.2548L135.893 91.1815C138.985 92.9663 138.985 95.8601 135.893 97.6449L130.975 100.485C129.49 101.342 128.656 102.504 128.656 103.716L128.656 104.5Z" fill="#494E62"/>
</svg>
