<svg width="174" height="196" viewBox="0 0 174 196" fill="none" xmlns="http://www.w3.org/2000/svg">
<path d="M39.3107 169.935C39.3107 169.512 38.9417 169.169 38.4865 169.169H33.6971C33.242 169.169 32.873 169.512 32.873 169.935V184.445C32.873 186.501 32.4099 187.9 31.6251 188.777C30.8644 189.627 29.6899 190.108 27.9425 190.108C26.1528 190.108 24.9489 189.624 24.1713 188.771C23.3716 187.895 22.9005 186.498 22.9005 184.445V177.601C22.9005 177.177 22.5315 176.834 22.0764 176.834H17.2499C16.7947 176.834 16.4258 177.177 16.4258 177.601V184.445C16.4258 186.499 15.9573 187.897 15.1626 188.773C14.3906 189.625 13.1966 190.108 11.4209 190.108C9.71013 190.108 8.52628 189.646 7.7322 188.822C6.96015 187.995 6.49039 186.591 6.49039 184.445V169.935C6.49039 169.512 6.12141 169.169 5.66626 169.169H0.839751C0.384599 169.169 0.015625 169.512 0.015625 169.935V184.586C0.015625 188.059 0.966893 190.833 2.99554 192.778C5.02387 194.724 7.87472 195.646 11.4209 195.646C13.3383 195.646 15.059 195.364 16.5652 194.779L16.572 194.776C17.7694 194.299 18.8017 193.681 19.6562 192.916C20.4962 193.682 21.5214 194.3 22.7172 194.776L22.7334 194.782C24.2831 195.364 26.0242 195.646 27.9425 195.646C31.4849 195.646 34.3252 194.737 36.3308 192.813C38.3604 190.867 39.3107 188.081 39.3107 184.586V169.935Z" fill="#494E62"/>
<path d="M74.782 169.935C74.782 169.512 74.4131 169.169 73.9579 169.169H69.1314C68.6762 169.169 68.3073 169.512 68.3073 169.935V179.322H56.5155V169.935C56.5155 169.512 56.1466 169.169 55.6914 169.169H50.8649C50.4098 169.169 50.0408 169.512 50.0408 169.935V194.528C50.0408 194.952 50.4098 195.295 50.8649 195.295H55.6914C56.1466 195.295 56.5155 194.952 56.5155 194.528V184.755H68.3073V194.528C68.3073 194.952 68.6762 195.295 69.1314 195.295H73.9579C74.4131 195.295 74.782 194.952 74.782 194.528V169.935Z" fill="#494E62"/>
<path fill-rule="evenodd" clip-rule="evenodd" d="M109.361 195.295C109.816 195.295 110.185 194.952 110.185 194.528V180.897C110.185 178.394 109.685 176.215 108.644 174.394C107.631 172.556 106.179 171.152 104.294 170.209C102.421 169.272 100.253 168.817 97.8146 168.817C95.3766 168.817 93.2082 169.272 91.3354 170.209C89.4499 171.152 87.9865 172.555 86.9493 174.392L86.9474 174.395C85.9318 176.216 85.444 178.394 85.444 180.897V194.528C85.444 194.952 85.813 195.295 86.2681 195.295H91.0204C91.4755 195.295 91.8445 194.952 91.8445 194.528V188.971H103.71V194.528C103.71 194.952 104.079 195.295 104.535 195.295H109.361ZM102.153 175.872L102.159 175.877C103.146 176.831 103.71 178.317 103.71 180.475V183.608H91.8445V180.475C91.8445 178.317 92.4089 176.831 93.3962 175.877L93.4019 175.872C94.3997 174.888 95.8199 174.356 97.7775 174.356C99.7351 174.356 101.155 174.888 102.153 175.872Z" fill="#494E62"/>
<path fill-rule="evenodd" clip-rule="evenodd" d="M138.006 194.962C138.16 195.17 138.414 195.295 138.686 195.295H143.884C144.19 195.295 144.471 195.137 144.613 194.885C144.756 194.633 144.736 194.328 144.563 194.094L139.145 186.77C140.623 186.076 141.809 185.116 142.677 183.885C143.745 182.406 144.262 180.661 144.262 178.683C144.262 176.759 143.785 175.054 142.798 173.601C141.812 172.149 140.393 171.048 138.58 170.291C136.792 169.534 134.716 169.169 132.374 169.169H121.682C121.227 169.169 120.858 169.512 120.858 169.935V194.528C120.858 194.952 121.227 195.295 121.682 195.295H126.508C126.963 195.295 127.332 194.952 127.332 194.528V188.128H132.374C132.589 188.128 132.786 188.125 132.962 188.119L138.006 194.962ZM136.414 175.654C137.278 176.323 137.75 177.294 137.75 178.683C137.75 180.07 137.28 181.057 136.41 181.751C135.525 182.434 134.15 182.835 132.152 182.835H127.332V174.566H132.152C134.153 174.566 135.53 174.969 136.414 175.654Z" fill="#494E62"/>
<path d="M159.835 194.528V185.879H170.335C170.79 185.879 171.159 185.536 171.159 185.113V181.248C171.159 180.825 170.79 180.482 170.335 180.482H159.835V179.14C159.835 177.464 160.352 176.32 161.265 175.569C162.196 174.802 163.65 174.356 165.768 174.356C167.966 174.356 169.719 174.83 171.085 175.726C171.293 175.863 171.557 175.902 171.801 175.833C172.044 175.764 172.24 175.594 172.33 175.372L173.852 171.648C173.99 171.311 173.857 170.931 173.532 170.734C172.481 170.096 171.268 169.62 169.907 169.298C168.546 168.976 167.091 168.817 165.545 168.817C161.863 168.817 158.86 169.709 156.638 171.58C154.429 173.439 153.36 175.992 153.36 179.14V194.528C153.36 194.952 153.729 195.295 154.184 195.295H159.011C159.466 195.295 159.835 194.952 159.835 194.528Z" fill="#494E62"/>
<path d="M160.886 88.6925C160.802 93.2831 157.766 96.4713 154.772 98.1995L148.329 101.919C145.255 103.694 141.66 104.383 138.438 104.383C135.217 104.383 131.622 103.694 128.549 101.919L122.229 98.1995V110.827C122.229 115.505 119.148 118.765 116.113 120.517L109.671 124.237C106.596 126.011 103.001 126.701 99.78 126.701C96.5588 126.701 92.9639 126.011 89.8908 124.237L80.4509 118.787L71.0127 124.237C67.9378 126.011 64.343 126.701 61.1217 126.701C57.9005 126.701 54.3073 126.011 51.2324 124.237L6.13162 98.1995C3.13758 96.4713 0.101458 93.2831 0.017308 88.6925L0.015625 88.4087V104.946L0.017308 105.23C0.101458 109.82 3.13758 113.008 6.13162 114.737L51.2324 140.774C54.3073 142.548 57.9005 143.238 61.1217 143.238C64.343 143.238 67.9378 142.548 71.0127 140.774L80.4509 135.324L89.8908 140.774C92.9639 142.548 96.5588 143.238 99.7801 143.238C103.001 143.238 106.596 142.548 109.671 140.774L116.113 137.054C119.148 135.302 122.229 132.042 122.229 127.364V114.737L128.549 118.456C131.622 120.231 135.217 120.92 138.438 120.92C141.66 120.92 145.255 120.231 148.329 118.456L154.772 114.737C157.766 113.008 160.802 109.82 160.886 105.23L160.886 88.6925Z" fill="#F4FAF4"/>
<path d="M0.0559619 72.8822C0.0292983 73.1284 0.015625 73.3784 0.015625 73.6314V88.4083L0.017308 88.6921C0.101458 93.2827 3.13758 96.4709 6.13162 98.1991L51.2324 124.236C54.3073 126.011 57.9005 126.7 61.1217 126.7C64.343 126.7 67.9378 126.011 71.0127 124.236L80.4509 118.787L89.8908 124.236C92.9639 126.011 96.5588 126.7 99.78 126.7C103.001 126.7 106.596 126.011 109.671 124.236L116.113 120.517C119.148 118.765 122.229 115.505 122.229 110.827V98.1991L128.549 101.919C131.622 103.693 135.217 104.383 138.438 104.383C141.66 104.383 145.255 103.693 148.329 101.919L154.772 98.1991C157.766 96.4709 160.802 93.2827 160.886 88.6921V72.1554C160.802 76.7455 157.766 79.9334 154.772 81.6616L148.329 85.3812C145.255 87.1557 141.66 87.8453 138.438 87.8453C135.217 87.8453 131.622 87.1557 128.549 85.3812L122.107 81.6616C122.003 81.6017 121.899 81.5401 121.796 81.4767C122.075 82.3893 122.233 83.3755 122.233 84.4344C122.233 84.744 122.219 85.0474 122.193 85.3446C122.217 85.5776 122.229 85.8135 122.229 86.0517V94.2895C122.229 98.9669 119.148 102.227 116.113 103.979L109.671 107.699C106.596 109.473 103.001 110.163 99.7801 110.163C96.5588 110.163 92.9639 109.473 89.8908 107.699L80.4509 102.249L71.0127 107.699C67.9378 109.473 64.343 110.163 61.1217 110.163C57.9005 110.163 54.3073 109.473 51.2325 107.699L6.13162 81.6616C3.29842 80.0262 0.427536 77.0835 0.0559619 72.8822Z" fill="#B2F2E1"/>
<path d="M77.3768 28.2837C77.3832 28.3506 77.3902 28.4174 77.3979 28.4843C77.7215 31.2699 79.1062 33.4637 80.8291 35.088C80.7039 35.0859 80.5793 35.0849 80.4553 35.0849C79.4484 35.0849 78.405 35.1523 77.3525 35.2991V28.8672C77.3525 28.6707 77.3607 28.4761 77.3768 28.2837Z" fill="#B2F2E1"/>
<path d="M12.5782 48.7079L6.13517 52.4275C3.26468 54.0846 0.353099 57.0909 0.0460147 61.3693C0.0259032 61.5702 0.015625 61.7801 0.015625 61.9995V71.8709L0.017308 72.1547C0.101458 76.7453 3.13758 79.9335 6.13162 81.6617L51.2325 107.699C54.3073 109.473 57.9005 110.163 61.1217 110.163C64.343 110.163 67.9378 109.473 71.0127 107.699L80.4509 102.249L89.8908 107.699C92.9639 109.473 96.5588 110.163 99.7801 110.163C103.001 110.163 106.596 109.473 109.671 107.699L116.113 103.979C119.148 102.227 122.229 98.9671 122.229 94.2896V86.0518C122.229 85.8137 122.217 85.5778 122.193 85.3447C122.219 85.0476 122.233 84.7442 122.233 84.4346C122.233 83.3757 122.075 82.3895 121.796 81.4769C121.899 81.5402 122.003 81.6019 122.107 81.6617L128.549 85.3813C131.622 87.1558 135.217 87.8455 138.438 87.8455C141.66 87.8455 145.255 87.1558 148.329 85.3813L154.772 81.6617C157.766 79.9335 160.802 76.7453 160.886 72.1547V62.4446C160.889 62.3363 160.891 62.2271 160.891 62.1171C160.891 62.0072 160.889 61.898 160.886 61.7897L160.888 40.0702C160.89 39.9806 160.891 39.8904 160.891 39.7997C160.891 35.1223 157.81 31.8621 154.775 30.11L109.674 4.07301C106.6 2.29857 103.006 1.60889 99.7844 1.60889C96.5632 1.60889 92.9685 2.29857 89.8949 4.07301L83.4518 7.79259C80.4169 9.54465 77.336 12.8048 77.336 17.4823C77.336 17.7027 77.3428 17.92 77.3562 18.1342C77.3537 18.2094 77.3525 18.2852 77.3525 18.3616V26.6996C77.3306 27.0305 77.3272 27.3621 77.339 27.6934C77.3474 27.9574 77.3676 28.2212 77.3979 28.4844C77.7215 31.2701 79.1062 33.4639 80.8291 35.0881C80.7039 35.0861 80.5793 35.085 80.4553 35.085C77.2341 35.085 73.6394 35.7747 70.5657 37.5492L64.1226 41.2687C61.0877 43.0208 58.0069 46.281 58.0069 50.9584C58.0069 51.2626 58.0199 51.5608 58.0451 51.853C58.0396 51.9658 58.0368 52.0793 58.0368 52.1934V59.9989L58.025 60.1895L58.0132 60.3982C58.0048 60.6012 58.0031 60.8044 58.0065 61.0076C58.0132 61.4313 58.0486 61.8548 58.1108 62.2757C58.1879 62.7951 58.3017 63.2929 58.4472 63.7695L32.3574 48.7079C29.2837 46.9334 25.689 46.2438 22.4678 46.2438C19.2466 46.2438 15.6519 46.9334 12.5782 48.7079Z" fill="#7BE7CE"/>
<path d="M106.225 10.0417C102.666 7.98741 96.897 7.98741 93.3386 10.0417L86.8956 13.7612C83.3372 15.8155 83.3372 19.1461 86.8956 21.2004L131.215 46.7861C132.924 47.7726 133.884 49.1106 133.884 50.5057V51.4082C133.884 52.8034 132.924 54.1413 131.215 55.1278L125.554 58.3961C121.995 60.4504 121.995 63.781 125.554 65.8353L131.997 69.5548C135.555 71.6091 141.325 71.6091 144.883 69.5548L151.326 65.8353C154.885 63.781 154.885 60.4504 151.326 58.3961L145.665 55.1278C143.956 54.1413 142.996 52.8034 142.996 51.4082V50.5057C142.996 49.1106 143.956 47.7726 145.665 46.7861L151.326 43.5178C154.885 41.4636 154.885 38.133 151.326 36.0787L106.225 10.0417Z" fill="#494E62"/>
<path d="M28.9081 54.6766C25.3497 52.6223 19.5804 52.6223 16.022 54.6766L9.57896 58.3961C6.02056 60.4504 6.02056 63.781 9.57896 65.8353L54.6803 91.8723C58.2387 93.9266 64.008 93.9266 67.5664 91.8723L80.4525 84.4331L28.9081 54.6766Z" fill="#494E62"/>
<path d="M104.338 73.7257C104.338 75.1208 105.298 76.4588 107.006 77.4453L112.668 80.7136C116.226 82.7678 116.226 86.0985 112.668 88.1527L106.225 91.8723C102.666 93.9266 96.897 93.9266 93.3386 91.8723L80.4525 84.4331L92.557 77.4453C94.2658 76.4588 95.2258 75.1208 95.2258 73.7257L95.2258 72.8232C95.2258 71.428 94.2658 70.0901 92.557 69.1036L67.5664 54.6766C64.008 52.6223 64.008 49.2917 67.5664 47.2374L74.0095 43.5178C77.5679 41.4636 83.3372 41.4636 86.8956 43.5178L112.668 58.3961C116.226 60.4504 116.226 63.781 112.668 65.8353L107.006 69.1036C105.298 70.0901 104.338 71.4281 104.338 72.8232L104.338 73.7257Z" fill="#494E62"/>
</svg>
