<svg width="464" height="512" viewBox="0 0 464 512" fill="none" xmlns="http://www.w3.org/2000/svg">
<rect width="463" height="512" transform="translate(0.75)" fill="#494E62"/>
<path d="M133.307 403.344C133.307 402.465 132.542 401.753 131.597 401.753H121.661C120.716 401.753 119.951 402.465 119.951 403.344V433.448C119.951 437.713 118.99 440.615 117.362 442.434C115.784 444.198 113.347 445.196 109.721 445.196C106.008 445.196 103.511 444.191 101.897 442.423C100.238 440.605 99.2608 437.707 99.2608 433.448V419.247C99.2608 418.369 98.4953 417.657 97.551 417.657H87.5374C86.5931 417.657 85.8276 418.369 85.8276 419.247V433.448C85.8276 437.709 84.8557 440.608 83.2069 442.427C81.6053 444.193 79.1279 445.196 75.444 445.196C71.8946 445.196 69.4384 444.237 67.7909 442.527C66.1892 440.812 65.2145 437.899 65.2145 433.448V403.344C65.2145 402.465 64.449 401.753 63.5047 401.753H53.4911C52.5468 401.753 51.7812 402.465 51.7812 403.344V433.739C51.7812 440.946 53.7549 446.7 57.9637 450.737C62.1719 454.773 68.0866 456.687 75.444 456.687C79.422 456.687 82.992 456.102 86.1169 454.887L86.1309 454.882C88.6152 453.892 90.7569 452.609 92.5297 451.022C94.2726 452.611 96.3995 453.893 98.8805 454.882L98.914 454.895C102.129 456.101 105.742 456.687 109.721 456.687C117.071 456.687 122.964 454.801 127.125 450.809C131.336 446.771 133.307 440.991 133.307 433.739V403.344Z" fill="white"/>
<path d="M206.9 403.344C206.9 402.465 206.135 401.753 205.19 401.753H195.177C194.232 401.753 193.467 402.465 193.467 403.344V422.819H169.002V403.344C169.002 402.465 168.237 401.753 167.293 401.753H157.279C156.335 401.753 155.569 402.465 155.569 403.344V454.367C155.569 455.246 156.335 455.958 157.279 455.958H167.293C168.237 455.958 169.002 455.246 169.002 454.367V434.09H193.467V454.367C193.467 455.246 194.232 455.958 195.177 455.958H205.19C206.135 455.958 206.9 455.246 206.9 454.367V403.344Z" fill="white"/>
<path fill-rule="evenodd" clip-rule="evenodd" d="M278.642 455.958C279.586 455.958 280.351 455.246 280.351 454.367V426.086C280.351 420.892 279.314 416.373 277.154 412.594C275.053 408.78 272.041 405.868 268.128 403.911C264.243 401.968 259.744 401.024 254.686 401.024C249.628 401.024 245.129 401.968 241.244 403.911C237.332 405.868 234.296 408.779 232.144 412.59L232.14 412.597C230.033 416.375 229.021 420.893 229.021 426.086V454.367C229.021 455.246 229.786 455.958 230.73 455.958H240.59C241.534 455.958 242.3 455.246 242.3 454.367V442.837H266.918V454.367C266.918 455.246 267.684 455.958 268.628 455.958H278.642ZM263.687 415.66L263.699 415.672C265.747 417.651 266.918 420.733 266.918 425.211V431.711H242.3V425.211C242.3 420.733 243.471 417.651 245.519 415.672L245.531 415.66C247.601 413.62 250.548 412.515 254.609 412.515C258.67 412.515 261.617 413.62 263.687 415.66Z" fill="white"/>
<path fill-rule="evenodd" clip-rule="evenodd" d="M338.072 455.267C338.391 455.699 338.918 455.958 339.482 455.958H350.266C350.901 455.958 351.484 455.63 351.78 455.107C352.075 454.585 352.035 453.952 351.675 453.466L340.435 438.272C343.501 436.831 345.961 434.84 347.762 432.286C349.978 429.218 351.052 425.596 351.052 421.493C351.052 417.501 350.062 413.964 348.014 410.949C345.968 407.937 343.025 405.653 339.262 404.081C335.554 402.511 331.247 401.753 326.387 401.753H304.203C303.259 401.753 302.494 402.465 302.494 403.344V454.367C302.494 455.246 303.259 455.958 304.203 455.958H314.217C315.161 455.958 315.927 455.246 315.927 454.367V441.088H326.387C326.833 441.088 327.242 441.082 327.607 441.071L338.072 455.267ZM334.768 415.208C336.562 416.597 337.541 418.61 337.541 421.493C337.541 424.371 336.565 426.418 334.759 427.858C332.925 429.274 330.071 430.108 325.925 430.108H315.927V412.952H325.925C330.078 412.952 332.934 413.788 334.768 415.208Z" fill="white"/>
<path d="M383.361 454.367V436.423H405.144C406.089 436.423 406.854 435.711 406.854 434.833V426.815C406.854 425.936 406.089 425.224 405.144 425.224H383.361V422.441C383.361 418.965 384.432 416.59 386.327 415.031C388.259 413.442 391.275 412.515 395.67 412.515C400.229 412.515 403.868 413.499 406.7 415.358C407.132 415.641 407.68 415.723 408.186 415.58C408.691 415.436 409.097 415.083 409.284 414.624L412.443 406.897C412.728 406.198 412.452 405.409 411.778 405C409.596 403.677 407.081 402.689 404.256 402.021C401.433 401.353 398.414 401.024 395.208 401.024C387.568 401.024 381.337 402.875 376.729 406.757C372.145 410.613 369.927 415.911 369.927 422.441V454.367C369.927 455.246 370.693 455.958 371.637 455.958H381.651C382.595 455.958 383.361 455.246 383.361 454.367Z" fill="white"/>
<path d="M385.541 234.787C385.367 244.311 379.068 250.926 372.856 254.511L359.49 262.228C353.11 265.91 345.652 267.341 338.969 267.341C332.286 267.341 324.827 265.91 318.451 262.228L305.34 254.511V280.711C305.34 290.415 298.947 297.179 292.651 300.814L279.285 308.531C272.905 312.212 265.447 313.643 258.764 313.643C252.081 313.643 244.622 312.212 238.246 308.531L218.661 297.225L199.08 308.531C192.7 312.212 185.242 313.643 178.559 313.643C171.876 313.643 164.421 312.212 158.041 308.531L64.4702 254.511C58.2584 250.926 51.9593 244.311 51.7847 234.787L51.7812 234.198V268.508L51.7847 269.097C51.9593 278.621 58.2584 285.235 64.4702 288.821L158.041 342.841C164.421 346.522 171.876 347.953 178.559 347.953C185.242 347.953 192.7 346.522 199.08 342.841L218.661 331.534L238.246 342.841C244.622 346.522 252.081 347.953 258.764 347.953C265.447 347.953 272.905 346.522 279.285 342.841L292.651 335.123C298.947 331.489 305.34 324.725 305.34 315.02V288.821L318.451 296.538C324.827 300.22 332.286 301.65 338.969 301.65C345.652 301.65 353.11 300.22 359.49 296.538L372.856 288.821C379.068 285.235 385.367 278.621 385.541 269.097L385.541 234.787Z" fill="#7BE7CE"/>
<path d="M51.8649 201.987C51.8096 202.497 51.7812 203.016 51.7812 203.541V234.199L51.7847 234.788C51.9593 244.312 58.2584 250.926 64.4702 254.512L158.041 308.532C164.421 312.213 171.876 313.644 178.559 313.644C185.242 313.644 192.7 312.213 199.08 308.532L218.661 297.225L238.246 308.532C244.622 312.213 252.081 313.644 258.764 313.644C265.447 313.644 272.905 312.213 279.285 308.532L292.651 300.814C298.947 297.18 305.34 290.416 305.34 280.711V254.512L318.451 262.229C324.827 265.911 332.286 267.341 338.969 267.341C345.652 267.341 353.11 265.911 359.49 262.229L372.856 254.512C379.068 250.926 385.367 244.312 385.541 234.788V200.479C385.366 210.002 379.067 216.616 372.856 220.201L359.49 227.918C353.11 231.6 345.652 233.031 338.969 233.031C332.286 233.031 324.827 231.6 318.451 227.918L305.085 220.201C304.87 220.077 304.655 219.949 304.44 219.818C305.019 221.711 305.347 223.757 305.347 225.954C305.347 226.596 305.319 227.226 305.265 227.842C305.315 228.326 305.34 228.815 305.34 229.309V246.401C305.34 256.105 298.947 262.869 292.651 266.504L279.285 274.221C272.905 277.902 265.447 279.333 258.764 279.333C252.081 279.333 244.622 277.902 238.246 274.221L218.661 262.915L199.08 274.221C192.7 277.902 185.242 279.333 178.559 279.333C171.876 279.333 164.421 277.902 158.041 274.221L64.4702 220.201C58.5921 216.808 52.6358 210.703 51.8649 201.987Z" fill="#B2F2E1"/>
<path d="M212.284 109.458C212.297 109.596 212.311 109.735 212.327 109.874C212.999 115.653 215.871 120.205 219.446 123.574C219.186 123.57 218.928 123.568 218.67 123.568C216.581 123.568 214.417 123.708 212.233 124.013V110.668C212.233 110.26 212.25 109.857 212.284 109.458Z" fill="#B2F2E1"/>
<path d="M77.845 151.831L64.4776 159.548C58.5221 162.986 52.4814 169.223 51.8443 178.1C51.8026 178.517 51.7812 178.952 51.7812 179.407V199.888L51.7847 200.477C51.9593 210.001 58.2584 216.615 64.4702 220.201L158.041 274.221C164.421 277.902 171.876 279.333 178.559 279.333C185.242 279.333 192.7 277.902 199.08 274.221L218.661 262.914L238.246 274.221C244.622 277.902 252.081 279.333 258.764 279.333C265.447 279.333 272.905 277.902 279.285 274.221L292.651 266.503C298.947 262.868 305.34 256.105 305.34 246.4V229.309C305.34 228.815 305.315 228.326 305.265 227.842C305.319 227.226 305.347 226.596 305.347 225.954C305.347 223.757 305.019 221.711 304.44 219.817C304.655 219.949 304.87 220.077 305.085 220.201L318.451 227.918C324.827 231.6 332.286 233.03 338.969 233.03C345.652 233.03 353.11 231.6 359.49 227.918L372.856 220.201C379.068 216.615 385.367 210.001 385.541 200.477V180.331C385.548 180.106 385.552 179.88 385.552 179.652C385.552 179.423 385.548 179.197 385.541 178.972L385.545 133.91C385.549 133.724 385.552 133.537 385.552 133.349C385.552 123.645 379.16 116.881 372.863 113.246L279.291 59.2266C272.914 55.5452 265.456 54.1143 258.773 54.1143C252.09 54.1143 244.632 55.5452 238.255 59.2266L224.887 66.9437C218.591 70.5787 212.199 77.3427 212.199 87.047C212.199 87.5043 212.213 87.9552 212.241 88.3995C212.236 88.5555 212.233 88.7128 212.233 88.8714V106.17C212.188 106.857 212.181 107.545 212.205 108.232C212.223 108.78 212.264 109.327 212.327 109.873C212.999 115.653 215.871 120.204 219.446 123.574C219.186 123.57 218.928 123.568 218.67 123.568C211.987 123.568 204.529 124.999 198.152 128.68L184.785 136.397C178.488 140.032 172.096 146.796 172.096 156.5C172.096 157.131 172.123 157.75 172.176 158.356C172.164 158.59 172.158 158.826 172.158 159.063V175.257L172.134 175.652L172.11 176.085C172.092 176.506 172.089 176.928 172.096 177.35C172.11 178.229 172.183 179.107 172.312 179.981C172.472 181.058 172.708 182.091 173.01 183.08L118.881 151.831C112.504 148.15 105.046 146.719 98.3631 146.719C91.68 146.719 84.2221 148.15 77.845 151.831Z" fill="#F4FAF4"/>
<path d="M272.135 71.6101C264.753 67.3481 252.783 67.3481 245.4 71.6101L232.033 79.3271C224.65 83.5891 224.65 90.4992 232.033 94.7612L323.983 147.844C327.529 149.891 329.52 152.667 329.52 155.561V157.434C329.52 160.328 327.529 163.104 323.983 165.151L312.238 171.932C304.855 176.194 304.855 183.104 312.238 187.366L325.605 195.083C332.988 199.345 344.957 199.345 352.34 195.083L365.708 187.366C373.09 183.104 373.09 176.194 365.708 171.932L353.962 165.151C350.417 163.104 348.425 160.328 348.425 157.434V155.561C348.425 152.667 350.417 149.891 353.962 147.844L365.708 141.063C373.09 136.801 373.09 129.891 365.708 125.629L272.135 71.6101Z" fill="#494E62"/>
<path d="M111.725 164.215C104.343 159.953 92.3731 159.953 84.9904 164.215L71.6229 171.932C64.2403 176.194 64.2403 183.104 71.6229 187.366L165.195 241.385C172.578 245.647 184.548 245.647 191.93 241.385L218.665 225.951L111.725 164.215Z" fill="#494E62"/>
<path d="M268.22 203.736C268.22 206.631 270.212 209.406 273.757 211.453L285.503 218.234C292.885 222.496 292.885 229.406 285.503 233.668L272.135 241.385C264.753 245.647 252.783 245.647 245.4 241.385L218.665 225.951L243.778 211.453C247.324 209.406 249.315 206.631 249.315 203.736L249.315 201.864C249.315 198.969 247.324 196.193 243.778 194.147L191.93 164.215C184.548 159.953 184.548 153.043 191.93 148.781L205.298 141.063C212.68 136.801 224.65 136.801 232.033 141.063L285.503 171.932C292.885 176.194 292.885 183.104 285.503 187.366L273.757 194.147C270.212 196.193 268.22 198.969 268.22 201.864L268.22 203.736Z" fill="#494E62"/>
</svg>
