<svg width="512" height="206" viewBox="0 0 512 206" fill="none" xmlns="http://www.w3.org/2000/svg">
<rect width="512" height="206" fill="white"/>
<g clip-path="url(#clip0_1152_90210)">
<path d="M271.942 82.4297H264.759C264.076 82.4297 263.524 82.9705 263.524 83.6423V106.559C263.524 109.804 262.828 112.016 261.654 113.401C260.513 114.745 258.754 115.503 256.132 115.503C253.51 115.503 251.645 114.736 250.479 113.393C249.281 112.008 248.573 109.804 248.573 106.559V95.7481C248.573 95.0804 248.021 94.5355 247.338 94.5355H240.101C239.418 94.5355 238.866 95.0763 238.866 95.7481V106.559C238.866 109.804 238.163 112.008 236.972 113.393C235.815 114.736 234.023 115.503 231.36 115.503C228.697 115.503 227.02 114.773 225.83 113.471C224.672 112.164 223.968 109.947 223.968 106.559V83.6423C223.968 82.9746 223.416 82.4297 222.733 82.4297H215.497C214.814 82.4297 214.262 82.9705 214.262 83.6423V106.781C214.262 112.266 215.689 116.646 218.729 119.718C221.772 122.791 226.046 124.249 231.364 124.249C234.24 124.249 236.821 123.803 239.079 122.881H239.091C240.887 122.123 242.433 121.148 243.713 119.939C244.973 121.148 246.511 122.123 248.303 122.877L248.327 122.885C250.651 123.803 253.261 124.249 256.136 124.249C261.45 124.249 265.708 122.815 268.715 119.775C271.758 116.703 273.181 112.303 273.181 106.781V83.6423C273.181 82.9746 272.629 82.4297 271.946 82.4297H271.942Z" fill="black"/>
<path d="M325.131 82.4289H317.895C317.212 82.4289 316.659 82.9697 316.659 83.6415V98.4676H298.98V83.6415C298.98 82.9738 298.428 82.4289 297.745 82.4289H290.509C289.826 82.4289 289.273 82.9697 289.273 83.6415V122.483C289.273 123.15 289.826 123.695 290.509 123.695H297.745C298.428 123.695 298.98 123.154 298.98 122.483V107.046H316.659V122.483C316.659 123.15 317.212 123.695 317.895 123.695H325.131C325.814 123.695 326.366 123.154 326.366 122.483V83.6374C326.366 82.9697 325.814 82.4248 325.131 82.4248V82.4289Z" fill="black"/>
<path d="M370.617 84.0718C367.811 82.5929 364.559 81.876 360.902 81.876C357.245 81.876 353.993 82.5929 351.187 84.0718C348.36 85.563 346.164 87.7753 344.609 90.6798C343.088 93.5598 342.355 97.0011 342.355 100.954V122.483C342.355 123.15 342.908 123.695 343.591 123.695H350.716C351.4 123.695 351.952 123.155 351.952 122.483V113.708H369.746V122.483C369.746 123.15 370.298 123.695 370.981 123.695H378.217C378.9 123.695 379.452 123.155 379.452 122.483V100.954C379.452 97.0011 378.7 93.5598 377.141 90.6839C375.624 87.7794 373.443 85.563 370.617 84.0759V84.0718ZM369.741 105.236H351.948V100.287C351.948 96.8782 352.794 94.5308 354.275 93.0273L354.283 93.0191C355.781 91.4664 357.908 90.6266 360.845 90.6266C363.782 90.6266 365.909 91.4664 367.406 93.0191L367.414 93.0273C368.895 94.5349 369.741 96.8782 369.741 100.287V105.236Z" fill="black"/>
<path d="M422.872 110.226C425.089 109.128 426.868 107.612 428.169 105.67C429.773 103.335 430.546 100.578 430.546 97.4565C430.546 94.3348 429.83 91.7252 428.349 89.431C426.872 87.1368 424.745 85.3998 422.025 84.2036C419.346 83.0073 416.233 82.4297 412.719 82.4297H396.688C396.005 82.4297 395.453 82.9705 395.453 83.6423V122.483C395.453 123.151 396.005 123.696 396.688 123.696H403.925C404.608 123.696 405.16 123.155 405.16 122.483V112.377H412.719C413.042 112.377 413.337 112.373 413.603 112.364L421.166 123.172C421.395 123.499 421.776 123.696 422.185 123.696H429.977C430.435 123.696 430.857 123.446 431.069 123.049C431.282 122.651 431.253 122.168 430.996 121.799L422.872 110.234V110.226ZM418.769 102.299C417.444 103.376 415.382 104.011 412.384 104.011H405.156V90.9509H412.384C415.386 90.9509 417.448 91.5859 418.773 92.6674C420.07 93.7244 420.778 95.2565 420.778 97.4524C420.778 99.6482 420.07 101.201 418.769 102.299V102.299Z" fill="black"/>
<path d="M474.433 84.8996C472.858 83.8918 471.038 83.1421 468.997 82.63C466.955 82.122 464.775 81.8721 462.456 81.8721C456.934 81.8721 452.43 83.2813 449.1 86.2351C445.787 89.1683 444.184 93.2036 444.184 98.1729V122.475C444.184 123.142 444.736 123.687 445.419 123.687H452.655C453.338 123.687 453.89 123.147 453.89 122.475V108.816H469.635C470.318 108.816 470.87 108.275 470.87 107.604V101.499C470.87 100.832 470.318 100.291 469.635 100.291H453.89V98.1729C453.89 95.5265 454.664 93.7198 456.034 92.5318C457.429 91.3232 459.609 90.6145 462.787 90.6145C465.966 90.6145 468.714 91.3642 470.76 92.7776C471.071 92.9947 471.467 93.0561 471.831 92.9455C472.195 92.8349 472.49 92.5686 472.625 92.2163L474.907 86.3334C475.112 85.8008 474.916 85.1986 474.429 84.8873L474.433 84.8996Z" fill="black"/>
<path d="M141.409 129.345C141.384 129.365 141.364 129.39 141.343 129.415C141.028 129.726 140.709 130.004 140.402 130.254C140.386 130.267 140.37 130.279 140.357 130.291C140.042 130.545 139.74 130.762 139.461 130.955C139.453 130.959 139.445 130.967 139.437 130.975C139.151 131.168 138.889 131.328 138.664 131.459L133.052 134.703C130.491 136.182 127.239 136.998 123.893 136.998C120.547 136.998 117.295 136.182 114.734 134.703L107.056 130.263L99.3785 134.703C96.8179 136.182 93.5659 136.998 90.2199 136.998C86.8739 136.998 83.6219 136.182 81.0612 134.703L41.7759 111.991C41.7759 111.991 41.7596 111.979 41.7514 111.975C41.4937 111.823 41.1828 111.631 40.8474 111.393C40.7656 111.336 40.6838 111.282 40.6061 111.225C40.4015 111.074 40.1847 110.906 39.9639 110.721C39.8125 110.594 39.6612 110.467 39.518 110.336C39.3585 110.193 39.203 110.045 39.0435 109.885C38.9494 109.791 38.8512 109.693 38.7612 109.599C38.5485 109.373 38.344 109.132 38.1436 108.878C38.1272 108.857 38.1068 108.837 38.0904 108.816V117.169C38.1558 120.57 40.3402 122.761 41.915 123.9C42.2791 124.163 42.6104 124.371 42.8722 124.523L82.1575 147.235C84.3909 148.526 87.2584 149.239 90.2281 149.239C93.1978 149.239 96.0652 148.526 98.2987 147.235L107.065 142.168L115.831 147.235C118.064 148.526 120.927 149.239 123.901 149.239C126.875 149.239 129.738 148.526 131.972 147.235L137.584 143.991C139.024 143.159 142.366 140.762 142.366 136.481V128.284C142.366 128.284 142.345 128.308 142.333 128.321C142.039 128.694 141.732 129.029 141.421 129.341L141.409 129.345ZM175.094 124.285C175.061 124.318 175.028 124.351 174.996 124.384C174.685 124.691 174.374 124.961 174.071 125.207C174.051 125.224 174.034 125.24 174.014 125.252C173.699 125.506 173.396 125.727 173.114 125.916C173.11 125.916 173.106 125.924 173.098 125.928C172.811 126.121 172.55 126.285 172.325 126.412L166.712 129.656C164.152 131.135 160.9 131.95 157.554 131.95C154.208 131.95 150.956 131.135 148.395 129.656L144.526 127.374V136.481C144.526 136.903 144.493 137.301 144.448 137.694C144.436 137.805 144.419 137.915 144.399 138.026C144.354 138.321 144.296 138.612 144.227 138.89C144.211 138.952 144.206 139.017 144.19 139.075L149.491 142.2C151.717 143.487 154.584 144.2 157.554 144.2C160.524 144.2 163.391 143.487 165.624 142.196L171.237 138.952C172.648 138.136 175.941 135.785 176.018 131.582V123.241C175.998 123.265 175.977 123.282 175.961 123.306C175.679 123.663 175.384 123.986 175.09 124.285H175.094ZM175.094 109.861C175.061 109.894 175.028 109.926 174.996 109.959C174.685 110.262 174.378 110.537 174.075 110.779C174.055 110.795 174.034 110.815 174.014 110.832C173.707 111.078 173.409 111.295 173.135 111.483C173.122 111.491 173.106 111.504 173.094 111.512C172.824 111.692 172.582 111.844 172.37 111.967C172.357 111.975 172.341 111.983 172.333 111.991L166.721 115.236C164.16 116.719 160.904 117.534 157.562 117.534C154.22 117.534 150.964 116.719 148.403 115.236L144.526 112.995C144.534 113.151 144.538 113.306 144.538 113.466C144.538 113.732 144.53 113.999 144.509 114.253C144.526 114.457 144.538 114.666 144.538 114.875V122.061C144.538 122.479 144.505 122.88 144.46 123.269C144.448 123.384 144.427 123.495 144.411 123.605C144.366 123.9 144.309 124.183 144.243 124.458C144.227 124.519 144.223 124.589 144.206 124.646L149.508 127.772C151.733 129.058 154.6 129.771 157.57 129.771C160.168 129.771 162.687 129.226 164.774 128.222C165.072 128.079 165.363 127.927 165.641 127.764L171.253 124.519C172.664 123.704 175.957 121.352 176.035 117.149V108.808C176.014 108.833 175.994 108.849 175.977 108.874C175.695 109.23 175.401 109.554 175.106 109.853L175.094 109.861ZM171.245 67.0214L131.964 44.3051C129.73 43.0146 126.863 42.3018 123.893 42.3018C120.923 42.3018 118.06 43.0146 115.822 44.3051L110.21 47.5497C108.77 48.3813 105.428 50.7779 105.428 55.059C105.428 55.2269 105.433 55.3949 105.445 55.5629V63.1008C105.424 63.4245 105.424 63.6785 105.433 63.9284C105.441 64.1332 105.453 64.3299 105.477 64.5306C105.702 66.4561 106.594 68.1726 108.132 69.6228L110.186 71.5647L107.056 71.5073C104.087 71.5073 101.223 72.2201 98.9859 73.5106L93.3737 76.7552C91.9338 77.5869 88.5919 79.9834 88.5919 84.2645C88.5919 84.498 88.6 84.7275 88.6205 84.9487L88.6287 85.0224V85.0962C88.6205 85.1781 88.6205 85.26 88.6205 85.3379L88.596 92.5604C88.5919 92.6956 88.5878 92.8554 88.596 93.011C88.6 93.3306 88.6287 93.6542 88.6737 93.9738C88.7309 94.363 88.8168 94.748 88.9314 95.1168L89.7372 97.7632L64.6174 83.2403C62.384 81.9458 59.5165 81.237 56.5468 81.237C53.5771 81.237 50.7096 81.9499 48.4762 83.2403L42.864 86.4849C41.5264 87.2592 38.3849 89.4797 38.1027 93.4207C38.0863 93.5928 38.0781 93.7403 38.0781 93.8918V102.745C38.0822 102.966 38.1027 103.183 38.1231 103.396C38.1354 103.523 38.1558 103.65 38.1722 103.773C38.1886 103.884 38.2049 103.99 38.2254 104.097C38.2499 104.228 38.2827 104.355 38.3154 104.482C38.3399 104.576 38.3604 104.666 38.389 104.756C38.4299 104.887 38.4708 105.019 38.5158 105.146C38.5444 105.223 38.569 105.301 38.6017 105.379C38.6549 105.51 38.7081 105.641 38.7653 105.764C38.794 105.83 38.8267 105.895 38.8553 105.961C38.9167 106.092 38.9862 106.219 39.0517 106.342C39.0844 106.399 39.113 106.452 39.1457 106.506C39.2194 106.633 39.2971 106.756 39.3748 106.874C39.4035 106.919 39.4362 106.969 39.4689 107.014C39.5507 107.137 39.6366 107.251 39.7225 107.366C39.7511 107.407 39.7839 107.444 39.8166 107.485C39.9066 107.599 39.9966 107.71 40.0866 107.817C40.1193 107.853 40.152 107.89 40.1806 107.923C40.2747 108.026 40.3647 108.128 40.4588 108.226C40.4915 108.263 40.5283 108.296 40.5611 108.329C40.6551 108.423 40.7451 108.513 40.8392 108.599C40.876 108.632 40.9129 108.665 40.9497 108.701C41.0397 108.783 41.1296 108.861 41.2155 108.939C41.2565 108.976 41.2974 109.009 41.3424 109.042C41.4242 109.107 41.5019 109.173 41.5837 109.234C41.641 109.279 41.6941 109.316 41.7473 109.357C41.8087 109.402 41.8741 109.451 41.9355 109.496C42.0132 109.554 42.0868 109.603 42.1605 109.652C42.1932 109.677 42.23 109.701 42.2627 109.722C42.4836 109.869 42.684 109.992 42.8558 110.09L82.1411 132.803C84.3745 134.093 87.242 134.806 90.2117 134.806C93.1814 134.806 96.0489 134.093 98.2823 132.803L107.048 127.735L115.814 132.803C118.048 134.093 120.911 134.806 123.885 134.806C126.859 134.806 129.722 134.093 131.955 132.803L137.568 129.558C138.018 129.3 138.652 128.886 139.314 128.313C140.77 127.047 142.349 124.994 142.349 122.053V114.867C142.349 114.695 142.341 114.527 142.325 114.359L142.313 114.257L142.321 114.154C142.341 113.925 142.349 113.695 142.349 113.458C142.349 113.069 142.321 112.684 142.268 112.307C142.268 112.29 142.259 112.278 142.255 112.262C142.198 111.901 142.12 111.545 142.014 111.196L141.171 108.443V108.435L143.593 109.922L143.871 110.094L149.483 113.339C151.717 114.629 154.584 115.342 157.554 115.342C160.524 115.342 163.391 114.629 165.624 113.339L171.237 110.094C171.727 109.812 172.447 109.336 173.18 108.665C173.728 108.161 174.284 107.546 174.759 106.813C175.466 105.719 175.986 104.363 176.018 102.724V74.5266C176.022 70.2455 172.676 67.8489 171.241 67.0214H171.245ZM130.18 107.37L135.113 110.221C138.214 112.012 138.214 114.92 135.113 116.711L129.501 119.955C126.4 121.745 121.377 121.745 118.277 119.955L107.052 113.466L95.828 119.955C92.7274 121.745 87.7042 121.745 84.6036 119.955L45.3224 97.2389C42.2218 95.4486 42.2218 92.5399 45.3224 90.7496L50.9346 87.505C54.0352 85.7148 59.0584 85.7148 62.159 87.505L107.056 113.462L117.598 107.366C119.087 106.506 119.921 105.338 119.921 104.121V103.335C119.921 102.118 119.087 100.95 117.598 100.09L95.8321 87.505C92.7315 85.7148 92.7315 82.8061 95.8321 81.0158L101.444 77.7712C104.545 75.9809 109.568 75.9809 112.669 77.7712L135.117 90.7496C138.218 92.5399 138.218 95.4486 135.117 97.2389L130.184 100.09C128.695 100.95 127.861 102.118 127.861 103.335V104.121C127.861 105.338 128.695 106.506 130.184 107.366L130.18 107.37ZM163.853 87.9024L168.786 90.7537C171.887 92.544 171.887 95.4527 168.786 97.243L163.174 100.488C160.074 102.278 155.05 102.278 151.95 100.488L146.338 97.243C143.237 95.4527 143.237 92.544 146.338 90.7537L151.271 87.9024C152.76 87.0421 153.594 85.8745 153.594 84.6578V83.8712C153.594 82.6545 152.76 81.4869 151.271 80.6266L112.669 58.3077C109.568 56.5174 109.568 53.6087 112.669 51.8185L118.281 48.5738C121.381 46.7836 126.405 46.7836 129.505 48.5738L168.79 71.2861C171.891 73.0764 171.891 75.985 168.79 77.7753L163.857 80.6266C162.368 81.4869 161.534 82.6545 161.534 83.8712V84.6578C161.534 85.8745 162.372 87.0421 163.857 87.9024H163.853ZM141.409 143.778C141.384 143.798 141.364 143.823 141.343 143.847C141.028 144.159 140.709 144.437 140.402 144.687C140.386 144.699 140.37 144.712 140.357 144.724C140.042 144.978 139.74 145.195 139.461 145.388C139.453 145.392 139.445 145.4 139.437 145.408C139.151 145.601 138.889 145.76 138.664 145.892L133.052 149.136C130.491 150.615 127.239 151.43 123.893 151.43C120.547 151.43 117.295 150.615 114.734 149.136L107.056 144.695L99.3785 149.136C96.8179 150.615 93.5659 151.43 90.2199 151.43C86.8739 151.43 83.6219 150.615 81.0612 149.136L41.7759 126.416C41.551 126.289 41.2892 126.125 41.0028 125.932C40.9988 125.932 40.9906 125.924 40.9865 125.92C40.7042 125.732 40.4015 125.51 40.0866 125.256C40.0702 125.244 40.0538 125.228 40.0375 125.215C39.7307 124.965 39.4157 124.687 39.1008 124.376C39.0762 124.351 39.0517 124.326 39.0271 124.302C38.7203 123.995 38.4135 123.655 38.1231 123.286C38.1108 123.269 38.0945 123.257 38.0822 123.241V131.594C38.1599 135.785 41.4528 138.132 42.864 138.948L82.1493 161.66C84.3827 162.95 87.2502 163.663 90.2199 163.663C93.1896 163.663 96.0571 162.95 98.2905 161.66L107.056 156.592L115.822 161.66C118.056 162.95 120.919 163.663 123.893 163.663C126.867 163.663 129.73 162.95 131.964 161.66L137.576 158.415C139.016 157.584 142.358 155.187 142.358 150.91V142.713C142.358 142.713 142.337 142.737 142.325 142.749C142.03 143.122 141.724 143.458 141.413 143.769L141.409 143.778Z" fill="black"/>
</g>
<defs>
<clipPath id="clip0_1152_90210">
<rect width="438" height="121.426" fill="white" transform="translate(37 42.2871)"/>
</clipPath>
</defs>
</svg>
