<svg width="512" height="206" viewBox="0 0 512 206" fill="none" xmlns="http://www.w3.org/2000/svg">
<rect width="512" height="206" fill="white"/>
<path d="M273.401 84.085C273.401 83.4185 272.849 82.8783 272.169 82.8783H265.005C264.325 82.8783 263.773 83.4185 263.773 84.085V106.927C263.773 110.163 263.08 112.365 261.906 113.745C260.769 115.083 259.012 115.841 256.398 115.841C253.721 115.841 251.921 115.078 250.758 113.737C249.562 112.357 248.857 110.158 248.857 106.927V96.1519C248.857 95.4854 248.305 94.9452 247.625 94.9452H240.406C239.725 94.9452 239.173 95.4854 239.173 96.1519V106.927C239.173 110.16 238.472 112.36 237.284 113.74C236.129 115.08 234.343 115.841 231.688 115.841C229.129 115.841 227.358 115.114 226.17 113.816C225.016 112.514 224.313 110.304 224.313 106.927V84.085C224.313 83.4185 223.761 82.8783 223.08 82.8783H215.862C215.181 82.8783 214.629 83.4185 214.629 84.085V107.148C214.629 112.616 216.052 116.982 219.086 120.045C222.12 123.107 226.384 124.559 231.688 124.559C234.555 124.559 237.129 124.116 239.382 123.194L239.392 123.19C241.183 122.439 242.727 121.465 244.005 120.261C245.261 121.467 246.794 122.44 248.583 123.19L248.607 123.2C250.925 124.115 253.529 124.559 256.398 124.559C261.697 124.559 265.945 123.129 268.944 120.1C271.98 117.036 273.401 112.65 273.401 107.148V84.085Z" fill="#494E62"/>
<path d="M326.455 84.085C326.455 83.4185 325.903 82.8783 325.222 82.8783H318.003C317.323 82.8783 316.771 83.4185 316.771 84.085V98.8619H299.134V84.085C299.134 83.4185 298.582 82.8783 297.902 82.8783H290.683C290.002 82.8783 289.45 83.4185 289.45 84.085V122.8C289.45 123.466 290.002 124.006 290.683 124.006H297.902C298.582 124.006 299.134 123.466 299.134 122.8V107.414H316.771V122.8C316.771 123.466 317.323 124.006 318.003 124.006H325.222C325.903 124.006 326.455 123.466 326.455 122.8V84.085Z" fill="#494E62"/>
<path fill-rule="evenodd" clip-rule="evenodd" d="M378.174 124.006C378.855 124.006 379.406 123.466 379.406 122.8V101.341C379.406 97.4001 378.658 93.9713 377.101 91.1039C375.586 88.2098 373.415 86.0002 370.595 84.5155C367.794 83.0409 364.55 82.3252 360.904 82.3252C357.258 82.3252 354.014 83.0409 351.213 84.5155C348.393 86.0002 346.204 88.2088 344.653 91.1009L344.65 91.1063C343.131 93.9728 342.402 97.4004 342.402 101.341V122.8C342.402 123.466 342.954 124.006 343.634 124.006H350.742C351.423 124.006 351.975 123.466 351.975 122.8V114.051H369.722V122.8C369.722 123.466 370.274 124.006 370.955 124.006H378.174ZM367.393 93.4304L367.402 93.4391C368.878 94.9405 369.722 97.2793 369.722 100.677V105.609H351.975V100.677C351.975 97.2793 352.819 94.9405 354.295 93.4392L354.304 93.4303C355.796 91.882 357.921 91.0435 360.849 91.0435C363.776 91.0435 365.901 91.882 367.393 93.4304Z" fill="#494E62"/>
<path fill-rule="evenodd" clip-rule="evenodd" d="M421.017 123.482C421.247 123.81 421.628 124.006 422.034 124.006H429.808C430.266 124.006 430.686 123.758 430.899 123.361C431.112 122.964 431.083 122.485 430.824 122.116L422.721 110.587C424.932 109.494 426.705 107.983 428.003 106.045C429.601 103.717 430.375 100.969 430.375 97.8563C430.375 94.8268 429.661 92.1432 428.185 89.8559C426.71 87.5705 424.588 85.837 421.875 84.6445C419.202 83.4531 416.097 82.8783 412.594 82.8783H396.601C395.921 82.8783 395.369 83.4185 395.369 84.085V122.8C395.369 123.466 395.921 124.006 396.601 124.006H403.82C404.501 124.006 405.053 123.466 405.053 122.8V112.724H412.594C412.915 112.724 413.21 112.72 413.473 112.711L421.017 123.482ZM418.636 93.0871C419.929 94.1409 420.635 95.6687 420.635 97.8563C420.635 100.039 419.931 101.592 418.629 102.686C417.307 103.76 415.25 104.393 412.261 104.393H405.053V91.3754H412.261C415.254 91.3754 417.313 92.0098 418.636 93.0871Z" fill="#494E62"/>
<path d="M453.666 122.8V109.184H469.37C470.051 109.184 470.603 108.644 470.603 107.977V101.894C470.603 101.227 470.051 100.687 469.37 100.687H453.666V98.5753C453.666 95.9375 454.439 94.1359 455.805 92.9529C457.197 91.7469 459.372 91.0435 462.54 91.0435C465.827 91.0435 468.45 91.7903 470.492 93.201C470.803 93.416 471.199 93.478 471.563 93.3691C471.927 93.2601 472.219 92.9924 472.355 92.6438L474.632 86.7813C474.838 86.251 474.638 85.6517 474.153 85.3418C472.58 84.3375 470.767 83.5885 468.73 83.0814C466.695 82.5746 464.519 82.3252 462.207 82.3252C456.699 82.3252 452.208 83.729 448.885 86.6749C445.581 89.6004 443.982 93.6202 443.982 98.5753V122.8C443.982 123.466 444.534 124.006 445.215 124.006H452.434C453.114 124.006 453.666 123.466 453.666 122.8Z" fill="#494E62"/>
<path d="M177.582 117.515C177.509 121.507 174.871 124.279 172.27 125.782L166.672 129.016C164.001 130.559 160.877 131.159 158.079 131.159C155.28 131.159 152.156 130.559 149.486 129.016L143.996 125.782V136.762C143.996 140.829 141.318 143.664 138.682 145.188L133.085 148.422C130.413 149.965 127.29 150.565 124.491 150.565C121.692 150.565 118.569 149.965 115.899 148.422L107.697 143.683L99.497 148.422C96.8255 149.965 93.7021 150.565 90.9034 150.565C88.1047 150.565 84.9828 149.965 82.3113 148.422L43.1263 125.782C40.5249 124.279 37.8871 121.507 37.814 117.515L37.8125 117.269V131.648L37.814 131.895C37.8871 135.886 40.5249 138.659 43.1263 140.161L82.3113 162.801C84.9828 164.344 88.1047 164.944 90.9034 164.944C93.7021 164.944 96.8255 164.344 99.497 162.801L107.697 158.063L115.899 162.801C118.569 164.344 121.692 164.944 124.491 164.944C127.29 164.944 130.413 164.344 133.085 162.801L138.682 159.567C141.318 158.044 143.996 155.209 143.996 151.142V140.161L149.486 143.396C152.157 144.939 155.28 145.538 158.079 145.538C160.877 145.538 164.001 144.939 166.672 143.396L172.27 140.161C174.871 138.659 177.509 135.886 177.582 131.895L177.582 117.515Z" fill="#F4FAF4"/>
<path d="M37.8475 103.768C37.8244 103.982 37.8125 104.199 37.8125 104.419V117.268L37.814 117.515C37.8871 121.507 40.5249 124.279 43.1263 125.782L82.3113 148.422C84.9828 149.964 88.1047 150.564 90.9034 150.564C93.7021 150.564 96.8254 149.964 99.497 148.422L107.697 143.683L115.899 148.422C118.569 149.964 121.692 150.564 124.491 150.564C127.29 150.564 130.413 149.964 133.085 148.422L138.682 145.187C141.318 143.664 143.996 140.829 143.996 136.762V125.782L149.486 129.016C152.156 130.559 155.28 131.159 158.079 131.159C160.877 131.159 164.001 130.559 166.672 129.016L172.27 125.782C174.871 124.279 177.509 121.507 177.582 117.515V103.136C177.508 107.127 174.871 109.899 172.27 111.402L166.672 114.636C164.001 116.179 160.877 116.779 158.079 116.779C155.28 116.779 152.156 116.179 149.486 114.636L143.889 111.402C143.799 111.35 143.709 111.296 143.619 111.241C143.862 112.035 143.999 112.892 143.999 113.813C143.999 114.082 143.987 114.346 143.964 114.604C143.985 114.807 143.996 115.012 143.996 115.219V122.382C143.996 126.449 141.318 129.284 138.682 130.808L133.085 134.042C130.413 135.585 127.29 136.184 124.491 136.184C121.692 136.184 118.569 135.585 115.899 134.042L107.697 129.303L99.497 134.042C96.8254 135.585 93.7021 136.184 90.9034 136.184C88.1047 136.184 84.9828 135.585 82.3113 134.042L43.1263 111.402C40.6647 109.98 38.1704 107.421 37.8475 103.768Z" fill="#B2F2E1"/>
<path d="M105.026 64.9883C105.032 65.0464 105.038 65.1046 105.045 65.1627C105.326 67.5849 106.529 69.4925 108.026 70.9048C107.917 70.903 107.809 70.9021 107.701 70.9021C106.826 70.9021 105.92 70.9607 105.005 71.0884V65.4957C105.005 65.3248 105.012 65.1556 105.026 64.9883Z" fill="#B2F2E1"/>
<path d="M48.7273 82.7478L43.1294 85.9821C40.6354 87.423 38.1057 90.037 37.8389 93.7573C37.8214 93.932 37.8125 94.1145 37.8125 94.3053V102.889L37.814 103.135C37.8871 107.127 40.5249 109.899 43.1263 111.402L82.3113 134.042C84.9828 135.585 88.1047 136.185 90.9034 136.185C93.7021 136.185 96.8254 135.585 99.4969 134.042L107.697 129.304L115.899 134.042C118.569 135.585 121.692 136.185 124.491 136.185C127.29 136.185 130.413 135.585 133.085 134.042L138.682 130.808C141.318 129.284 143.996 126.45 143.996 122.382V115.219C143.996 115.012 143.985 114.807 143.964 114.605C143.987 114.346 143.999 114.082 143.999 113.813C143.999 112.892 143.862 112.035 143.619 111.241C143.709 111.296 143.799 111.35 143.889 111.402L149.486 114.636C152.156 116.179 155.28 116.779 158.079 116.779C160.877 116.779 164.001 116.179 166.672 114.636L172.27 111.402C174.871 109.899 177.509 107.127 177.582 103.135V94.6923C177.585 94.5981 177.586 94.5031 177.586 94.4075C177.586 94.3119 177.585 94.217 177.582 94.1228L177.583 75.2371C177.585 75.1592 177.586 75.0808 177.586 75.0019C177.586 70.9348 174.91 68.0999 172.273 66.5765L133.087 43.9366C130.417 42.3936 127.293 41.7939 124.495 41.7939C121.696 41.7939 118.573 42.3936 115.902 43.9366L110.304 47.1708C107.668 48.6943 104.991 51.5291 104.991 55.5963C104.991 55.788 104.997 55.9769 105.008 56.1631C105.006 56.2285 105.005 56.2944 105.005 56.3609V63.611C104.986 63.8988 104.983 64.1871 104.993 64.4752C105.001 64.7047 105.018 64.9341 105.045 65.163C105.326 67.5851 106.529 69.4928 108.026 70.9051C107.917 70.9033 107.809 70.9024 107.701 70.9024C104.902 70.9024 101.779 71.5021 99.1086 73.045L93.5107 76.2793C90.8738 77.8027 88.1971 80.6376 88.1971 84.7047C88.1971 84.9692 88.2084 85.2285 88.2303 85.4826C88.2255 85.5807 88.2231 85.6793 88.2231 85.7785V92.5656L88.2129 92.7314L88.2026 92.9128C88.1953 93.0894 88.1939 93.2661 88.1968 93.4428C88.2026 93.8112 88.2333 94.1794 88.2874 94.5454C88.3544 94.997 88.4532 95.4299 88.5797 95.8443L65.9121 82.7478C63.2415 81.2049 60.1184 80.6052 57.3197 80.6052C54.521 80.6052 51.3978 81.2049 48.7273 82.7478Z" fill="#7BE7CE"/>
<path d="M130.092 49.1268C127.001 47.3406 121.988 47.3405 118.896 49.1268L113.299 52.3611C110.207 54.1473 110.207 57.0434 113.299 58.8296L151.805 81.0771C153.29 81.9349 154.124 83.0983 154.124 84.3114V85.0962C154.124 86.3092 153.29 87.4726 151.805 88.3304L146.886 91.1723C143.794 92.9586 143.794 95.8546 146.886 97.6409L152.484 100.875C155.576 102.661 160.588 102.661 163.68 100.875L169.278 97.6409C172.369 95.8546 172.369 92.9586 169.278 91.1723L164.359 88.3304C162.874 87.4726 162.04 86.3092 162.04 85.0962V84.3114C162.04 83.0983 162.874 81.9349 164.359 81.0771L169.278 78.2352C172.369 76.449 172.369 73.5529 169.278 71.7667L130.092 49.1268Z" fill="#494E62"/>
<path d="M62.9172 87.938C59.8256 86.1518 54.813 86.1518 51.7213 87.938L46.1234 91.1723C43.0318 92.9585 43.0318 95.8546 46.1234 97.6408L85.3089 120.281C88.4006 122.067 93.4131 122.067 96.5048 120.281L107.701 113.812L62.9172 87.938Z" fill="#494E62"/>
<path d="M128.453 104.502C128.453 105.715 129.287 106.878 130.771 107.736L135.69 110.578C138.782 112.364 138.782 115.26 135.69 117.046L130.092 120.281C127.001 122.067 121.988 122.067 118.896 120.281L107.701 113.812L118.217 107.736C119.702 106.878 120.536 105.715 120.536 104.502L120.536 103.717C120.536 102.504 119.702 101.341 118.217 100.483L96.5048 87.938C93.4131 86.1518 93.4131 83.2557 96.5048 81.4695L102.103 78.2352C105.194 76.449 110.207 76.449 113.299 78.2352L135.69 91.1723C138.782 92.9585 138.782 95.8546 135.69 97.6409L130.771 100.483C129.287 101.341 128.453 102.504 128.453 103.717L128.453 104.502Z" fill="#494E62"/>
</svg>
