<svg width="464" height="512" viewBox="0 0 464 512" fill="none" xmlns="http://www.w3.org/2000/svg">
<rect width="463" height="512" transform="translate(0.25)" fill="black"/>
<path d="M133.374 403.533C133.374 402.659 132.613 401.951 131.674 401.951H121.795C120.856 401.951 120.095 402.659 120.095 403.533V433.464C120.095 437.705 119.139 440.591 117.52 442.4C115.951 444.153 113.528 445.146 109.924 445.146C106.232 445.146 103.748 444.147 102.144 442.388C100.495 440.581 99.5227 437.699 99.5227 433.464V419.345C99.5227 418.472 98.7616 417.764 97.8227 417.764H87.8663C86.9274 417.764 86.1662 418.472 86.1662 419.345V433.464C86.1662 437.701 85.1999 440.584 83.5606 442.392C81.9681 444.149 79.5049 445.146 75.842 445.146C72.3128 445.146 69.8707 444.193 68.2327 442.492C66.64 440.786 65.671 437.891 65.671 433.464V403.533C65.671 402.659 64.9098 401.951 63.9709 401.951H54.0145C53.0756 401.951 52.3145 402.659 52.3145 403.533V433.754C52.3145 440.92 54.2768 446.641 58.4616 450.655C62.6457 454.668 68.5266 456.571 75.842 456.571C79.7973 456.571 83.3468 455.989 86.4539 454.782L86.4678 454.776C88.9379 453.792 91.0674 452.516 92.8301 450.939C94.563 452.518 96.6778 453.793 99.1445 454.776L99.1779 454.789C102.375 455.989 105.966 456.571 109.924 456.571C117.231 456.571 123.09 454.696 127.227 450.727C131.414 446.712 133.374 440.965 133.374 433.754V403.533Z" fill="white"/>
<path d="M206.547 403.533C206.547 402.659 205.786 401.951 204.847 401.951H194.89C193.951 401.951 193.19 402.659 193.19 403.533V422.896H168.866V403.533C168.866 402.659 168.105 401.951 167.166 401.951H157.209C156.27 401.951 155.509 402.659 155.509 403.533V454.265C155.509 455.138 156.27 455.846 157.209 455.846H167.166C168.105 455.846 168.866 455.138 168.866 454.265V434.104H193.19V454.265C193.19 455.138 193.951 455.846 194.89 455.846H204.847C205.786 455.846 206.547 455.138 206.547 454.265V403.533Z" fill="white"/>
<path fill-rule="evenodd" clip-rule="evenodd" d="M277.879 455.846C278.817 455.846 279.579 455.138 279.579 454.265V426.145C279.579 420.981 278.547 416.488 276.399 412.73C274.31 408.938 271.315 406.042 267.425 404.097C263.562 402.164 259.089 401.227 254.06 401.227C249.031 401.227 244.557 402.164 240.694 404.097C236.805 406.042 233.786 408.936 231.646 412.726L231.642 412.733C229.547 416.49 228.541 420.981 228.541 426.145V454.265C228.541 455.138 229.302 455.846 230.241 455.846H240.044C240.983 455.846 241.744 455.138 241.744 454.265V442.8H266.222V454.265C266.222 455.138 266.983 455.846 267.922 455.846H277.879ZM263.009 415.779L263.021 415.79C265.058 417.758 266.222 420.823 266.222 425.275V431.738H241.744V425.275C241.744 420.823 242.908 417.758 244.945 415.79L244.957 415.779C247.015 413.75 249.945 412.651 253.983 412.651C258.021 412.651 260.951 413.75 263.009 415.779Z" fill="white"/>
<path fill-rule="evenodd" clip-rule="evenodd" d="M336.969 455.159C337.286 455.589 337.811 455.846 338.371 455.846H349.094C349.725 455.846 350.305 455.52 350.598 455.001C350.892 454.481 350.852 453.852 350.494 453.368L339.319 438.261C342.368 436.828 344.814 434.849 346.604 432.31C348.807 429.259 349.875 425.658 349.875 421.579C349.875 417.609 348.891 414.092 346.855 411.095C344.82 408.1 341.894 405.829 338.152 404.266C334.466 402.705 330.183 401.951 325.352 401.951H303.294C302.355 401.951 301.594 402.659 301.594 403.533V454.265C301.594 455.138 302.355 455.846 303.294 455.846H313.251C314.19 455.846 314.951 455.138 314.951 454.265V441.061H325.352C325.795 441.061 326.201 441.056 326.564 441.044L336.969 455.159ZM333.684 415.329C335.468 416.71 336.442 418.712 336.442 421.579C336.442 424.439 335.471 426.475 333.676 427.907C331.852 429.315 329.014 430.144 324.892 430.144H314.951V413.086H324.892C329.021 413.086 331.861 413.917 333.684 415.329Z" fill="white"/>
<path d="M381.999 454.265V436.423H403.658C404.597 436.423 405.358 435.715 405.358 434.841V426.869C405.358 425.996 404.597 425.288 403.658 425.288H381.999V422.521C381.999 419.064 383.064 416.703 384.949 415.153C386.869 413.573 389.868 412.651 394.238 412.651C398.771 412.651 402.389 413.63 405.206 415.478C405.635 415.76 406.18 415.841 406.682 415.699C407.185 415.556 407.588 415.205 407.775 414.748L410.915 407.066C411.199 406.371 410.924 405.586 410.254 405.18C408.085 403.864 405.584 402.882 402.775 402.218C399.968 401.553 396.967 401.227 393.778 401.227C386.182 401.227 379.987 403.066 375.405 406.926C370.848 410.76 368.643 416.028 368.643 422.521V454.265C368.643 455.138 369.404 455.846 370.343 455.846H380.299C381.238 455.846 381.999 455.138 381.999 454.265Z" fill="white"/>
<path d="M384.167 235.94C383.994 245.41 377.731 251.986 371.554 255.552L358.264 263.225C351.922 266.885 344.506 268.308 337.861 268.308C331.216 268.308 323.8 266.885 317.461 263.225L304.424 255.552V281.601C304.424 291.25 298.067 297.975 291.808 301.589L278.518 309.262C272.175 312.923 264.759 314.346 258.114 314.346C251.469 314.346 244.054 312.923 237.714 309.262L218.241 298.021L198.771 309.262C192.428 312.923 185.013 314.346 178.368 314.346C171.723 314.346 164.31 312.923 157.967 309.262L64.9309 255.552C58.7546 251.986 52.4915 245.41 52.3179 235.94L52.3145 235.354V269.468L52.3179 270.054C52.4915 279.523 58.7546 286.1 64.9309 289.665L157.967 343.376C164.31 347.036 171.723 348.459 178.368 348.459C185.013 348.459 192.428 347.036 198.771 343.376L218.241 332.134L237.714 343.376C244.054 347.036 251.469 348.459 258.114 348.459C264.759 348.459 272.175 347.036 278.518 343.376L291.808 335.703C298.067 332.089 304.424 325.364 304.424 315.715V289.665L317.461 297.338C323.8 300.999 331.216 302.421 337.861 302.421C344.506 302.421 351.922 300.999 358.264 297.338L371.554 289.665C377.731 286.1 383.994 279.523 384.167 270.054L384.167 235.94Z" fill="#CDCDCD"/>
<path d="M52.3977 203.326C52.3427 203.834 52.3145 204.35 52.3145 204.872V235.354L52.3179 235.94C52.4915 245.409 58.7546 251.986 64.9309 255.551L157.967 309.262C164.31 312.922 171.723 314.345 178.368 314.345C185.013 314.345 192.428 312.922 198.771 309.262L218.241 298.021L237.714 309.262C244.054 312.922 251.469 314.345 258.114 314.345C264.759 314.345 272.175 312.922 278.518 309.262L291.808 301.589C298.067 297.975 304.424 291.25 304.424 281.601V255.551L317.461 263.224C323.8 266.885 331.216 268.307 337.861 268.307C344.506 268.307 351.922 266.885 358.264 263.224L371.554 255.551C377.731 251.986 383.994 245.409 384.167 235.94V201.827C383.993 211.295 377.73 217.872 371.554 221.437L358.264 229.11C351.922 232.77 344.506 234.193 337.861 234.193C331.216 234.193 323.8 232.77 317.461 229.11L304.171 221.437C303.957 221.313 303.743 221.186 303.529 221.055C304.106 222.938 304.431 224.972 304.431 227.157C304.431 227.795 304.403 228.421 304.35 229.034C304.399 229.515 304.424 230.002 304.424 230.493V247.486C304.424 257.135 298.067 263.86 291.808 267.474L278.518 275.148C272.175 278.808 264.759 280.231 258.114 280.231C251.469 280.231 244.054 278.808 237.714 275.148L218.241 263.906L198.771 275.148C192.428 278.808 185.013 280.231 178.368 280.231C171.723 280.231 164.31 278.808 157.967 275.148L64.9309 221.437C59.0864 218.063 53.1642 211.993 52.3977 203.326Z" fill="#E7E7E7"/>
<path d="M211.9 111.326C211.913 111.464 211.927 111.602 211.943 111.739C212.611 117.486 215.467 122.011 219.021 125.362C218.763 125.358 218.506 125.356 218.25 125.356C216.173 125.356 214.021 125.495 211.849 125.797V112.529C211.849 112.124 211.866 111.723 211.9 111.326Z" fill="#E7E7E7"/>
<path d="M78.2293 153.458L64.9382 161.131C59.0168 164.549 53.0106 170.751 52.3771 179.577C52.3357 179.991 52.3145 180.424 52.3145 180.877V201.24L52.3179 201.825C52.4915 211.295 58.7546 217.872 64.9309 221.437L157.967 275.148C164.31 278.808 171.723 280.231 178.368 280.231C185.013 280.231 192.428 278.808 198.771 275.148L218.241 263.906L237.714 275.148C244.054 278.808 251.469 280.231 258.114 280.231C264.759 280.231 272.175 278.808 278.518 275.148L291.808 267.475C298.067 263.861 304.424 257.135 304.424 247.486V230.493C304.424 230.002 304.399 229.515 304.35 229.034C304.403 228.421 304.431 227.796 304.431 227.157C304.431 224.973 304.106 222.938 303.529 221.056C303.743 221.186 303.957 221.313 304.171 221.437L317.461 229.11C323.8 232.77 331.216 234.193 337.861 234.193C344.506 234.193 351.922 232.77 358.264 229.11L371.554 221.437C377.731 217.872 383.994 211.295 384.167 201.825V181.795C384.174 181.571 384.178 181.346 384.178 181.119C384.178 180.892 384.174 180.667 384.167 180.444L384.171 135.639C384.175 135.455 384.178 135.269 384.178 135.082C384.178 125.433 377.822 118.707 371.562 115.093L278.524 61.3825C272.184 57.722 264.768 56.2993 258.123 56.2993C251.478 56.2993 244.063 57.722 237.722 61.3825L224.431 69.0554C218.171 72.6697 211.815 79.395 211.815 89.0438C211.815 89.4986 211.829 89.9469 211.857 90.3886C211.852 90.5438 211.849 90.7001 211.849 90.8579V108.058C211.804 108.741 211.797 109.424 211.822 110.108C211.839 110.653 211.881 111.197 211.943 111.74C212.611 117.486 215.467 122.012 219.021 125.362C218.763 125.358 218.506 125.356 218.25 125.356C211.605 125.356 204.19 126.779 197.849 130.439L184.558 138.112C178.297 141.726 171.942 148.452 171.942 158.1C171.942 158.728 171.969 159.343 172.021 159.946C172.01 160.178 172.004 160.413 172.004 160.648V176.75L171.98 177.143L171.955 177.573C171.938 177.992 171.934 178.411 171.941 178.83C171.955 179.704 172.028 180.578 172.157 181.446C172.316 182.518 172.55 183.545 172.85 184.528L119.031 153.458C112.69 149.797 105.275 148.375 98.6301 148.375C91.9852 148.375 84.5699 149.797 78.2293 153.458Z" fill="#F9F9F9"/>
<path d="M271.409 73.6948C264.068 69.4572 252.167 69.4572 244.827 73.6948L231.536 81.3678C224.195 85.6054 224.195 92.476 231.536 96.7137L322.961 149.493C326.486 151.528 328.466 154.288 328.466 157.166V159.028C328.466 161.906 326.486 164.666 322.961 166.701L311.282 173.443C303.942 177.681 303.942 184.551 311.282 188.789L324.573 196.462C331.914 200.7 343.815 200.7 351.155 196.462L364.447 188.789C371.787 184.551 371.787 177.681 364.447 173.443L352.768 166.701C349.243 164.666 347.263 161.906 347.263 159.028V157.166C347.263 154.288 349.243 151.528 352.768 149.493L364.447 142.751C371.787 138.514 371.787 131.643 364.447 127.405L271.409 73.6948Z" fill="black"/>
<path d="M111.916 165.77C104.575 161.533 92.674 161.533 85.3336 165.77L72.0425 173.443C64.702 177.681 64.702 184.551 72.0425 188.789L165.08 242.5C172.421 246.737 184.322 246.737 191.662 242.5L218.245 227.154L111.916 165.77Z" fill="black"/>
<path d="M267.516 205.066C267.516 207.944 269.496 210.704 273.021 212.739L284.7 219.481C292.04 223.719 292.04 230.589 284.7 234.827L271.409 242.5C264.068 246.737 252.167 246.737 244.827 242.5L218.245 227.154L243.214 212.739C246.739 210.704 248.72 207.944 248.72 205.066L248.72 203.204C248.72 200.326 246.739 197.566 243.214 195.531L191.662 165.77C184.322 161.533 184.322 154.662 191.662 150.424L204.953 142.751C212.294 138.514 224.195 138.514 231.536 142.751L284.7 173.443C292.04 177.681 292.04 184.551 284.7 188.789L273.021 195.531C269.496 197.566 267.516 200.326 267.516 203.204L267.516 205.066Z" fill="black"/>
</svg>
