<svg width="463" height="512" viewBox="0 0 463 512" fill="none" xmlns="http://www.w3.org/2000/svg">
<rect width="463" height="512" fill="black"/>
<g clip-path="url(#clip0_1152_90238)">
<path d="M132.579 403.242C132.579 402.363 131.813 401.649 130.867 401.649H120.927C119.982 401.649 119.215 402.359 119.215 403.242V433.33C119.215 437.59 118.256 440.492 116.624 442.31C115.044 444.071 112.609 445.072 108.979 445.072C105.348 445.072 102.762 444.067 101.149 442.301C99.4895 440.483 98.5114 437.585 98.5114 433.33V419.136C98.5114 418.258 97.7449 417.548 96.7998 417.548H86.7793C85.8342 417.548 85.0677 418.258 85.0677 419.136V433.33C85.0677 437.585 84.0943 440.488 82.4438 442.305C80.8404 444.071 78.3623 445.072 74.6758 445.072C70.9892 445.072 68.6663 444.114 67.0158 442.404C65.4124 440.69 64.439 437.778 64.439 433.33V403.242C64.439 402.363 63.6725 401.649 62.7274 401.649H52.7116C51.7665 401.649 51 402.359 51 403.242V433.621C51 440.826 52.9749 446.575 57.1881 450.609C61.3966 454.644 67.3168 456.556 74.6805 456.556C78.6633 456.556 82.2322 455.969 85.3592 454.757H85.3733C87.8608 453.766 90.0003 452.479 91.7778 450.891C93.5223 452.479 95.6477 453.761 98.1305 454.752L98.1634 454.766C101.38 455.973 104.996 456.556 108.979 456.556C116.333 456.556 122.229 454.672 126.391 450.68C130.604 446.641 132.579 440.868 132.579 433.616V403.237V403.242Z" fill="white"/>
<path d="M206.215 403.242C206.215 402.363 205.448 401.649 204.503 401.649H194.483C193.538 401.649 192.771 402.359 192.771 403.242V422.705H168.291V403.242C168.291 402.363 167.525 401.649 166.58 401.649H156.559C155.614 401.649 154.848 402.359 154.848 403.242V454.24C154.848 455.118 155.614 455.828 156.559 455.828H166.58C167.525 455.828 168.291 455.118 168.291 454.24V433.973H192.771V454.24C192.771 455.118 193.538 455.828 194.483 455.828H204.503C205.448 455.828 206.215 455.118 206.215 454.24V403.242Z" fill="white"/>
<path fill-rule="evenodd" clip-rule="evenodd" d="M278.002 455.827C278.947 455.827 279.713 455.118 279.713 454.24V425.974C279.713 420.784 278.674 416.266 276.516 412.489C274.414 408.68 271.4 405.768 267.487 403.81C263.599 401.87 259.099 400.926 254.034 400.926C248.97 400.926 244.47 401.87 240.581 403.81C236.669 405.764 233.627 408.676 231.478 412.485C229.371 416.266 228.355 420.779 228.355 425.969V454.235C228.355 455.113 229.122 455.823 230.067 455.823H239.932C240.878 455.823 241.644 455.113 241.644 454.235V442.709H266.279V454.235C266.279 455.113 267.045 455.823 267.991 455.823H278.011L278.002 455.827ZM263.039 415.552L263.053 415.566C265.103 417.543 266.274 420.624 266.274 425.1V431.596H241.639V425.1C241.639 420.624 242.81 417.543 244.86 415.566L244.874 415.552C246.948 413.513 249.896 412.41 253.959 412.41C258.022 412.41 260.97 413.513 263.044 415.552H263.039Z" fill="white"/>
<path fill-rule="evenodd" clip-rule="evenodd" d="M337.471 455.137C337.791 455.569 338.317 455.827 338.882 455.827H349.673C350.308 455.827 350.891 455.503 351.187 454.977C351.484 454.456 351.441 453.822 351.084 453.333L339.836 438.148C342.907 436.707 345.366 434.72 347.167 432.165C349.386 429.098 350.458 425.476 350.458 421.376C350.458 417.276 349.466 413.852 347.421 410.836C345.375 407.826 342.427 405.543 338.665 403.969C334.955 402.401 330.643 401.645 325.781 401.645H303.587C302.641 401.645 301.875 402.354 301.875 403.237V454.235C301.875 455.113 302.641 455.823 303.587 455.823H313.607C314.552 455.823 315.319 455.113 315.319 454.235V440.962H325.786C326.233 440.962 326.642 440.962 327.008 440.943L337.48 455.132L337.471 455.137ZM334.165 415.101C335.957 416.491 336.94 418.502 336.94 421.385C336.94 424.269 335.961 426.308 334.156 427.75C332.317 429.163 329.463 429.999 325.316 429.999H315.309V412.851H325.316C329.468 412.851 332.327 413.687 334.165 415.106V415.101Z" fill="white"/>
<path d="M382.787 454.236V436.303H404.586C405.531 436.303 406.298 435.594 406.298 434.711V426.698C406.298 425.82 405.531 425.106 404.586 425.106H382.787V422.325C382.787 418.85 383.859 416.478 385.754 414.918C387.686 413.331 390.705 412.401 395.102 412.401C399.498 412.401 403.302 413.387 406.138 415.242C406.571 415.524 407.116 415.609 407.624 415.463C408.127 415.322 408.536 414.965 408.724 414.51L411.884 406.788C412.171 406.088 411.893 405.299 411.221 404.891C409.039 403.566 406.519 402.58 403.697 401.913C400.871 401.246 397.853 400.917 394.641 400.917C386.995 400.917 380.765 402.768 376.152 406.647C371.567 410.499 369.348 415.797 369.348 422.325V454.236C369.348 455.114 370.114 455.823 371.059 455.823H381.08C382.025 455.823 382.791 455.114 382.791 454.236H382.787Z" fill="white"/>
<path d="M302.109 265.539C302.052 265.596 302 265.652 301.949 265.704C301.182 266.455 300.416 267.131 299.668 267.733C299.631 267.766 299.593 267.794 299.555 267.827C298.798 268.437 298.065 268.968 297.388 269.424C297.364 269.438 297.345 269.456 297.322 269.47C296.631 269.935 295.996 270.325 295.455 270.64L281.875 278.474C275.677 282.049 267.806 284.017 259.704 284.017C251.602 284.017 243.735 282.049 237.538 278.474L218.959 267.761L200.38 278.474C194.183 282.049 186.311 284.017 178.214 284.017C170.117 284.017 162.245 282.049 156.048 278.474L60.978 223.648C60.978 223.648 60.9357 223.62 60.9169 223.606C60.2915 223.244 59.5438 222.77 58.7256 222.206C58.5281 222.07 58.3307 221.938 58.1379 221.797C57.6394 221.436 57.1128 221.022 56.5814 220.586C56.2099 220.28 55.8526 219.975 55.5046 219.656C55.1237 219.313 54.7381 218.951 54.3573 218.566C54.1269 218.336 53.8964 218.106 53.6754 217.871C53.1629 217.326 52.6645 216.748 52.1754 216.133C52.1331 216.081 52.0861 216.034 52.0438 215.983V236.146C52.1989 244.356 57.4843 249.645 61.2978 252.397C62.1771 253.031 62.9765 253.534 63.6207 253.9L158.69 308.722C164.098 311.841 171.034 313.56 178.219 313.56C185.404 313.56 192.344 311.841 197.752 308.722L218.964 296.487L240.18 308.722C245.583 311.841 252.519 313.56 259.709 313.56C266.898 313.56 273.834 311.841 279.242 308.722L292.822 300.888C296.301 298.882 304.394 293.1 304.394 282.767V262.979C304.37 263.012 304.342 263.036 304.314 263.069C303.604 263.966 302.861 264.783 302.109 265.53V265.539ZM383.631 253.327C383.551 253.407 383.476 253.492 383.396 253.567C382.644 254.304 381.896 254.967 381.163 255.558C381.116 255.596 381.073 255.634 381.026 255.671C380.264 256.282 379.531 256.817 378.854 257.273C378.84 257.282 378.83 257.292 378.816 257.296C378.12 257.761 377.485 258.156 376.945 258.466L363.365 266.3C357.167 269.874 349.296 271.842 341.194 271.842C333.092 271.842 325.225 269.874 319.027 266.3L309.66 260.795V282.777C309.66 283.791 309.58 284.759 309.468 285.703C309.435 285.975 309.392 286.238 309.355 286.501C309.247 287.215 309.106 287.91 308.941 288.582C308.903 288.728 308.889 288.883 308.852 289.028L321.684 296.571C327.068 299.676 334.004 301.395 341.194 301.395C348.383 301.395 355.319 299.676 360.727 296.557L374.307 288.723C377.725 286.755 385.691 281.081 385.879 270.941V250.81C385.832 250.866 385.785 250.909 385.738 250.97C385.056 251.824 384.346 252.609 383.627 253.327H383.631ZM383.631 218.51C383.551 218.589 383.476 218.669 383.396 218.749C382.649 219.482 381.901 220.139 381.172 220.731C381.12 220.774 381.073 220.816 381.022 220.858C380.279 221.455 379.559 221.976 378.896 222.427C378.863 222.45 378.83 222.474 378.797 222.497C378.148 222.934 377.556 223.296 377.043 223.596C377.015 223.61 376.978 223.639 376.949 223.653L363.369 231.482C357.172 235.057 349.296 237.025 341.198 237.025C333.101 237.025 325.23 235.057 319.032 231.482L309.646 226.072C309.665 226.452 309.67 226.828 309.67 227.208C309.67 227.852 309.646 228.49 309.595 229.11C309.637 229.608 309.66 230.106 309.66 230.613V247.959C309.66 247.959 309.66 247.964 309.66 247.968C309.66 248.978 309.58 249.941 309.472 250.88C309.439 251.153 309.397 251.42 309.355 251.688C309.247 252.397 309.11 253.083 308.946 253.75C308.908 253.9 308.894 254.06 308.856 254.21L321.689 261.754C327.077 264.858 334.013 266.577 341.198 266.577C347.485 266.577 353.584 265.262 358.634 262.843C359.354 262.496 360.054 262.129 360.731 261.739L374.311 253.905C377.725 251.937 385.696 246.259 385.884 236.123V215.992C385.837 216.048 385.79 216.091 385.743 216.147C385.056 217.007 384.351 217.786 383.631 218.51V218.51ZM374.321 115.104L279.246 60.2821C273.839 57.1634 266.903 55.4443 259.718 55.4443C252.533 55.4443 245.597 57.1634 240.19 60.2821L226.61 68.1164C223.13 70.122 215.037 75.9038 215.037 86.2369C215.037 86.6455 215.051 87.0542 215.075 87.4534V105.644C215.028 106.429 215.019 107.035 215.042 107.645C215.056 108.134 215.094 108.617 215.15 109.101C215.691 113.751 217.849 117.889 221.573 121.393L226.544 126.076L218.973 125.935C211.788 125.935 204.852 127.654 199.445 130.772L185.865 138.602C182.385 140.608 174.292 146.394 174.292 156.723C174.292 157.286 174.316 157.836 174.363 158.376L174.377 158.554L174.368 158.733C174.358 158.925 174.354 159.123 174.354 159.32L174.297 176.75C174.288 177.079 174.283 177.459 174.288 177.84C174.297 178.615 174.363 179.39 174.481 180.165C174.622 181.099 174.829 182.029 175.106 182.926L177.057 189.319L116.267 154.266C110.859 151.147 103.924 149.428 96.7385 149.428C89.5535 149.428 82.6177 151.147 77.2101 154.266L63.6301 162.096C60.3949 163.96 52.7867 169.329 52.1049 178.831C52.0626 179.244 52.0485 179.596 52.0485 179.967V201.333C52.0626 201.869 52.1049 202.39 52.1566 202.902C52.1895 203.212 52.2319 203.513 52.2789 203.813C52.3212 204.076 52.3588 204.344 52.4105 204.598C52.4717 204.917 52.5469 205.222 52.6268 205.532C52.6833 205.753 52.7397 205.978 52.8008 206.194C52.8949 206.514 52.9983 206.829 53.1065 207.139C53.1723 207.326 53.2381 207.514 53.3134 207.697C53.4356 208.017 53.572 208.327 53.7084 208.632C53.7789 208.792 53.8541 208.952 53.9294 209.107C54.0798 209.421 54.2397 209.727 54.409 210.022C54.4842 210.159 54.5595 210.29 54.6347 210.422C54.8134 210.727 54.9968 211.023 55.1896 211.314C55.2648 211.427 55.34 211.54 55.4153 211.648C55.6175 211.939 55.8197 212.225 56.0313 212.502C56.1065 212.601 56.1817 212.695 56.257 212.789C56.4733 213.061 56.6896 213.329 56.9153 213.587C56.9905 213.677 57.0705 213.761 57.1457 213.85C57.3667 214.099 57.5924 214.344 57.8228 214.578C57.9027 214.663 57.9874 214.743 58.0673 214.827C58.2883 215.053 58.514 215.269 58.7397 215.48C58.8291 215.565 58.9184 215.64 59.0078 215.724C59.2241 215.922 59.4404 216.114 59.6567 216.293C59.7601 216.377 59.8589 216.457 59.9576 216.542C60.1551 216.701 60.3479 216.861 60.5407 217.011C60.6771 217.115 60.8087 217.213 60.9404 217.312C61.0909 217.425 61.246 217.542 61.3918 217.65C61.5799 217.786 61.7586 217.908 61.942 218.031C62.0266 218.087 62.1113 218.148 62.1912 218.204C62.7225 218.557 63.2116 218.857 63.6301 219.097L158.7 273.918C164.107 277.037 171.043 278.756 178.228 278.756C185.413 278.756 192.354 277.037 197.761 273.918L218.973 261.683L240.19 273.918C245.592 277.037 252.528 278.756 259.718 278.756C266.908 278.756 273.844 277.037 279.251 273.918L292.831 266.084C293.917 265.459 295.455 264.464 297.058 263.073C300.58 260.02 304.408 255.065 304.408 247.964V230.618C304.408 230.205 304.389 229.801 304.347 229.397L304.323 229.148L304.347 228.899C304.394 228.35 304.422 227.786 304.422 227.213C304.422 226.274 304.356 225.348 304.22 224.437C304.215 224.399 304.201 224.362 304.196 224.324C304.06 223.451 303.872 222.596 303.618 221.755L301.577 215.109H301.587L301.577 215.086L307.441 218.679L308.113 219.087L321.693 226.922C327.096 230.04 334.037 231.759 341.222 231.759C348.407 231.759 355.347 230.04 360.755 226.922L374.335 219.087C375.525 218.402 377.269 217.256 379.042 215.64C380.373 214.428 381.713 212.944 382.86 211.173C384.572 208.529 385.837 205.26 385.907 201.305L385.917 133.229C385.917 122.896 377.824 117.114 374.344 115.108L374.321 115.104ZM274.944 212.488L286.878 219.369C294.378 223.695 294.378 230.707 286.878 235.033L273.298 242.863C265.798 247.189 253.633 247.189 246.133 242.863L218.968 227.199L191.804 242.863C184.304 247.189 172.139 247.189 164.639 242.863L69.5643 188.041C62.0642 183.715 62.0642 176.703 69.5643 172.377L83.1443 164.548C90.6444 160.222 102.809 160.222 110.309 164.548L218.964 227.204L244.478 212.488C248.08 210.412 250.102 207.594 250.102 204.659V202.756C250.102 199.821 248.08 197.003 244.478 194.927L191.799 164.552C184.299 160.226 184.299 153.214 191.799 148.888L205.379 141.059C212.879 136.733 225.044 136.733 232.544 141.059L286.869 172.387C294.369 176.712 294.369 183.725 286.869 188.051L274.934 194.931C271.333 197.007 269.311 199.826 269.311 202.761V204.663C269.311 207.599 271.333 210.417 274.934 212.493L274.944 212.488ZM356.434 165.496L368.368 172.377C375.868 176.703 375.868 183.715 368.368 188.041L354.783 195.871C347.283 200.197 335.118 200.197 327.618 195.871L314.033 188.041C306.533 183.715 306.533 176.703 314.033 172.377L325.968 165.496C329.57 163.42 331.592 160.602 331.592 157.667V155.764C331.592 152.829 329.57 150.011 325.968 147.935L232.544 94.0619C225.044 89.7361 225.044 82.7237 232.544 78.3979L246.124 70.5682C253.624 66.2424 265.789 66.2424 273.289 70.5682L368.363 125.39C375.863 129.716 375.863 136.728 368.363 141.054L356.429 147.935C352.827 150.011 350.8 152.829 350.8 155.764V157.667C350.8 160.602 352.827 163.42 356.429 165.496H356.434ZM302.113 300.357C302.057 300.413 302.005 300.47 301.953 300.521C301.187 301.273 300.421 301.949 299.673 302.55C299.635 302.583 299.598 302.611 299.56 302.644C298.803 303.255 298.069 303.786 297.392 304.241C297.369 304.255 297.35 304.274 297.326 304.288C296.635 304.753 296 305.143 295.46 305.458L281.88 313.292C275.682 316.866 267.811 318.834 259.709 318.834C251.607 318.834 243.74 316.866 237.542 313.292L218.964 302.579L200.385 313.292C194.188 316.866 186.316 318.834 178.219 318.834C170.122 318.834 162.25 316.866 156.053 313.292L60.978 258.47C60.4373 258.16 59.8025 257.766 59.1112 257.301C59.0971 257.292 59.083 257.282 59.0689 257.273C58.3918 256.812 57.6535 256.282 56.8918 255.666C56.8542 255.634 56.8165 255.601 56.7742 255.568C56.0313 254.967 55.2695 254.295 54.503 253.543C54.4419 253.487 54.3855 253.426 54.3291 253.365C53.5861 252.623 52.8478 251.806 52.1378 250.918C52.1049 250.88 52.072 250.847 52.0391 250.81V270.973C52.2272 281.086 60.1974 286.76 63.6113 288.728L158.681 343.549C164.089 346.668 171.024 348.387 178.209 348.387C185.394 348.387 192.335 346.668 197.743 343.549L218.954 331.314L240.171 343.549C245.574 346.668 252.509 348.387 259.699 348.387C266.889 348.387 273.825 346.668 279.232 343.549L292.812 335.715C296.292 333.709 304.384 327.928 304.384 317.594V297.807C304.361 297.839 304.333 297.863 304.305 297.896C303.595 298.793 302.852 299.61 302.099 300.357H302.113Z" fill="white"/>
</g>
<defs>
<clipPath id="clip0_1152_90238">
<rect width="361" height="401.111" fill="white" transform="translate(51 55.4443)"/>
</clipPath>
</defs>
</svg>
