<svg width="464" height="512" viewBox="0 0 464 512" fill="none" xmlns="http://www.w3.org/2000/svg">
<path d="M133.059 402.997C133.059 402.119 132.294 401.407 131.349 401.407H121.413C120.468 401.407 119.703 402.119 119.703 402.997V433.101C119.703 437.366 118.742 440.269 117.114 442.088C115.536 443.851 113.099 444.85 109.473 444.85C105.76 444.85 103.263 443.845 101.649 442.076C99.9902 440.258 99.0128 437.36 99.0128 433.101V418.9C99.0128 418.022 98.2473 417.31 97.303 417.31H87.2893C86.345 417.31 85.5795 418.022 85.5795 418.9V433.101C85.5795 437.362 84.6076 440.261 82.9589 442.08C81.3572 443.847 78.8799 444.85 75.196 444.85C71.6465 444.85 69.1904 443.891 67.5429 442.181C65.9411 440.465 64.9665 437.553 64.9665 433.101V402.997C64.9665 402.119 64.201 401.407 63.2566 401.407H53.243C52.2987 401.407 51.5332 402.119 51.5332 402.997V433.392C51.5332 440.6 53.5068 446.353 57.7157 450.39C61.9239 454.426 67.8386 456.34 75.196 456.34C79.174 456.34 82.7439 455.755 85.8688 454.54L85.8829 454.535C88.3671 453.545 90.5088 452.262 92.2817 450.675C94.0245 452.264 96.1515 453.546 98.6324 454.535L98.666 454.548C101.881 455.754 105.493 456.34 109.473 456.34C116.823 456.34 122.716 454.454 126.877 450.463C131.087 446.424 133.059 440.644 133.059 433.392V402.997Z" fill="black"/>
<path d="M206.652 402.997C206.652 402.119 205.886 401.407 204.942 401.407H194.929C193.984 401.407 193.219 402.119 193.219 402.997V422.472H168.754V402.997C168.754 402.119 167.989 401.407 167.044 401.407H157.031C156.087 401.407 155.321 402.119 155.321 402.997V454.021C155.321 454.899 156.087 455.611 157.031 455.611H167.044C167.989 455.611 168.754 454.899 168.754 454.021V433.744H193.219V454.021C193.219 454.899 193.984 455.611 194.929 455.611H204.942C205.886 455.611 206.652 454.899 206.652 454.021V402.997Z" fill="black"/>
<path fill-rule="evenodd" clip-rule="evenodd" d="M278.394 455.611C279.338 455.611 280.103 454.899 280.103 454.021V425.739C280.103 420.546 279.066 416.027 276.906 412.247C274.805 408.433 271.793 405.521 267.88 403.564C263.995 401.621 259.496 400.678 254.438 400.678C249.38 400.678 244.881 401.621 240.996 403.564C237.084 405.521 234.048 408.432 231.896 412.244L231.892 412.251C229.785 416.029 228.772 420.546 228.772 425.739V454.021C228.772 454.899 229.538 455.611 230.482 455.611H240.342C241.286 455.611 242.052 454.899 242.052 454.021V442.491H266.67V454.021C266.67 454.899 267.436 455.611 268.38 455.611H278.394ZM263.439 415.314L263.451 415.325C265.499 417.304 266.67 420.386 266.67 424.864V431.365H242.052V424.864C242.052 420.386 243.223 417.304 245.271 415.325L245.283 415.314C247.353 413.273 250.3 412.168 254.361 412.168C258.422 412.168 261.369 413.273 263.439 415.314Z" fill="black"/>
<path fill-rule="evenodd" clip-rule="evenodd" d="M337.824 454.92C338.143 455.352 338.67 455.611 339.234 455.611H350.018C350.653 455.611 351.236 455.284 351.531 454.761C351.827 454.238 351.787 453.606 351.427 453.119L340.187 437.925C343.253 436.484 345.713 434.493 347.514 431.939C349.73 428.871 350.804 425.249 350.804 421.147C350.804 417.154 349.814 413.617 347.766 410.603C345.72 407.591 342.777 405.306 339.014 403.734C335.306 402.164 330.999 401.407 326.139 401.407H303.955C303.011 401.407 302.246 402.119 302.246 402.997V454.021C302.246 454.899 303.011 455.611 303.955 455.611H313.969C314.913 455.611 315.679 454.899 315.679 454.021V440.741H326.139C326.585 440.741 326.994 440.736 327.359 440.724L337.824 454.92ZM334.52 414.861C336.314 416.25 337.293 418.264 337.293 421.147C337.293 424.024 336.317 426.071 334.511 427.512C332.677 428.928 329.823 429.761 325.677 429.761H315.679V412.605H325.677C329.83 412.605 332.686 413.441 334.52 414.861Z" fill="black"/>
<path d="M383.113 454.021V436.076H404.896C405.841 436.076 406.606 435.364 406.606 434.486V426.468C406.606 425.59 405.841 424.878 404.896 424.878H383.113V422.094C383.113 418.618 384.184 416.244 386.079 414.684C388.011 413.095 391.027 412.168 395.422 412.168C399.981 412.168 403.62 413.152 406.452 415.011C406.884 415.295 407.432 415.376 407.938 415.233C408.443 415.089 408.849 414.736 409.036 414.277L412.195 406.551C412.48 405.852 412.204 405.062 411.53 404.653C409.348 403.33 406.833 402.343 404.008 401.674C401.185 401.007 398.166 400.678 394.96 400.678C387.32 400.678 381.089 402.528 376.481 406.41C371.897 410.266 369.679 415.564 369.679 422.094V454.021C369.679 454.899 370.445 455.611 371.389 455.611H381.403C382.347 455.611 383.113 454.899 383.113 454.021Z" fill="black"/>
<path d="M385.293 234.442C385.119 243.966 378.82 250.581 372.608 254.167L359.242 261.884C352.862 265.565 345.404 266.996 338.721 266.996C332.037 266.996 324.579 265.565 318.203 261.884L305.092 254.167V280.366C305.092 290.07 298.698 296.834 292.403 300.469L279.037 308.186C272.657 311.867 265.199 313.299 258.516 313.299C251.833 313.299 244.374 311.867 237.998 308.186L218.413 296.88L198.832 308.186C192.452 311.867 184.994 313.299 178.311 313.299C171.628 313.299 164.173 311.867 157.793 308.186L64.2221 254.167C58.0104 250.581 51.7113 243.966 51.5367 234.442L51.5332 233.854V268.163L51.5367 268.752C51.7113 278.276 58.0104 284.891 64.2221 288.476L157.793 342.496C164.173 346.177 171.628 347.608 178.311 347.608C184.994 347.608 192.452 346.177 198.832 342.496L218.413 331.19L237.998 342.496C244.374 346.177 251.833 347.608 258.516 347.608C265.199 347.608 272.657 346.177 279.037 342.496L292.403 334.779C298.699 331.144 305.092 324.38 305.092 314.676V288.476L318.203 296.193C324.579 299.875 332.037 301.306 338.721 301.306C345.404 301.306 352.862 299.875 359.242 296.193L372.608 288.476C378.82 284.891 385.119 278.276 385.293 268.752L385.293 234.442Z" fill="#F4FAF4"/>
<path d="M51.6169 201.64C51.5616 202.151 51.5332 202.67 51.5332 203.195V233.853L51.5367 234.441C51.7113 243.966 58.0104 250.58 64.2221 254.166L157.793 308.185C164.173 311.867 171.628 313.298 178.311 313.298C184.994 313.298 192.452 311.867 198.832 308.185L218.413 296.879L237.998 308.185C244.374 311.867 251.833 313.298 258.516 313.298C265.199 313.298 272.657 311.867 279.037 308.185L292.403 300.468C298.698 296.833 305.092 290.069 305.092 280.365V254.166L318.203 261.883C324.579 265.565 332.037 266.995 338.721 266.995C345.404 266.995 352.862 265.565 359.242 261.883L372.608 254.166C378.82 250.58 385.119 243.966 385.293 234.441V200.132C385.118 209.656 378.819 216.27 372.608 219.855L359.242 227.572C352.862 231.254 345.404 232.685 338.721 232.685C332.037 232.685 324.579 231.254 318.203 227.572L304.837 219.855C304.622 219.731 304.407 219.603 304.191 219.472C304.771 221.365 305.099 223.411 305.099 225.608C305.099 226.25 305.071 226.88 305.017 227.496C305.066 227.98 305.092 228.469 305.092 228.963V246.054C305.092 255.759 298.699 262.523 292.403 266.158L279.037 273.875C272.657 277.556 265.199 278.987 258.516 278.987C251.833 278.987 244.374 277.556 237.998 273.875L218.413 262.568L198.832 273.875C192.452 277.556 184.994 278.987 178.311 278.987C171.628 278.987 164.173 277.556 157.793 273.875L64.2221 219.855C58.3441 216.462 52.3878 210.357 51.6169 201.64Z" fill="#E7E7E7"/>
<path d="M212.035 109.111C212.049 109.25 212.063 109.389 212.079 109.527C212.751 115.307 215.623 119.858 219.198 123.228C218.938 123.224 218.68 123.222 218.422 123.222C216.333 123.222 214.169 123.362 211.985 123.666V110.322C211.985 109.914 212.002 109.51 212.035 109.111Z" fill="#E7E7E7"/>
<path d="M77.597 151.485L64.2295 159.202C58.2741 162.641 52.2334 168.878 51.5963 177.754C51.5545 178.171 51.5332 178.607 51.5332 179.062V199.542L51.5367 200.131C51.7113 209.655 58.0104 216.27 64.2221 219.855L157.793 273.875C164.173 277.556 171.628 278.987 178.311 278.987C184.994 278.987 192.452 277.556 198.832 273.875L218.413 262.569L237.998 273.875C244.374 277.556 251.833 278.987 258.516 278.987C265.199 278.987 272.657 277.556 279.037 273.875L292.403 266.158C298.699 262.523 305.092 255.759 305.092 246.054V228.963C305.092 228.469 305.066 227.98 305.017 227.496C305.071 226.88 305.099 226.25 305.099 225.608C305.099 223.411 304.771 221.365 304.191 219.472C304.407 219.603 304.622 219.731 304.837 219.855L318.203 227.572C324.579 231.254 332.037 232.685 338.721 232.685C345.404 232.685 352.862 231.254 359.242 227.572L372.608 219.855C378.82 216.27 385.119 209.655 385.293 200.131V179.985C385.3 179.76 385.304 179.534 385.304 179.306C385.304 179.078 385.3 178.851 385.293 178.626L385.297 133.565C385.301 133.379 385.304 133.192 385.304 133.004C385.304 123.299 378.912 116.535 372.615 112.9L279.043 58.8809C272.666 55.1995 265.208 53.7686 258.525 53.7686C251.842 53.7686 244.384 55.1995 238.007 58.8809L224.639 66.598C218.343 70.233 211.951 76.9969 211.951 86.7013C211.951 87.1586 211.965 87.6095 211.993 88.0538C211.988 88.2098 211.985 88.3671 211.985 88.5257V105.825C211.94 106.511 211.933 107.199 211.957 107.886C211.975 108.434 212.016 108.982 212.079 109.528C212.751 115.307 215.623 119.859 219.198 123.228C218.938 123.224 218.68 123.222 218.422 123.222C211.739 123.222 204.281 124.653 197.904 128.334L184.537 136.051C178.24 139.686 171.848 146.45 171.848 156.155C171.848 156.786 171.875 157.404 171.928 158.011C171.916 158.245 171.91 158.48 171.91 158.717V174.911L171.886 175.306L171.862 175.739C171.844 176.161 171.841 176.582 171.848 177.004C171.862 177.883 171.935 178.761 172.064 179.635C172.224 180.712 172.46 181.745 172.762 182.734L118.633 151.485C112.256 147.804 104.798 146.373 98.1151 146.373C91.4319 146.373 83.974 147.804 77.597 151.485Z" fill="#CDCDCD"/>
<path d="M271.887 71.2644C264.504 67.0024 252.535 67.0024 245.152 71.2644L231.785 78.9814C224.402 83.2434 224.402 90.1535 231.785 94.4155L323.735 147.499C327.281 149.545 329.272 152.321 329.272 155.216V157.088C329.272 159.983 327.281 162.758 323.735 164.805L311.99 171.586C304.607 175.848 304.607 182.758 311.99 187.02L325.357 194.737C332.74 198.999 344.709 198.999 352.092 194.737L365.46 187.02C372.842 182.758 372.842 175.848 365.46 171.586L353.714 164.805C350.169 162.758 348.177 159.983 348.177 157.088V155.216C348.177 152.321 350.168 149.545 353.714 147.499L365.459 140.718C372.842 136.456 372.842 129.546 365.459 125.284L271.887 71.2644Z" fill="black"/>
<path d="M111.477 163.869C104.095 159.607 92.125 159.607 84.7424 163.869L71.3749 171.586C63.9922 175.848 63.9922 182.758 71.3749 187.02L164.947 241.039C172.33 245.301 184.3 245.301 191.682 241.039L218.417 225.605L111.477 163.869Z" fill="black"/>
<path d="M267.972 203.39C267.972 206.285 269.964 209.061 273.509 211.107L285.255 217.888C292.637 222.15 292.637 229.06 285.255 233.322L271.887 241.039C264.504 245.301 252.535 245.301 245.152 241.039L218.417 225.605L243.53 211.107C247.076 209.061 249.067 206.285 249.067 203.39L249.067 201.518C249.067 198.623 247.076 195.848 243.53 193.801L191.682 163.869C184.3 159.607 184.3 152.697 191.682 148.435L205.05 140.718C212.432 136.456 224.402 136.456 231.785 140.718L285.255 171.586C292.637 175.848 292.637 182.758 285.255 187.02L273.509 193.801C269.964 195.848 267.972 198.623 267.972 201.518L267.972 203.39Z" fill="black"/>
</svg>
