<svg width="512" height="206" viewBox="0 0 512 206" fill="none" xmlns="http://www.w3.org/2000/svg">
<path d="M273.403 84.085C273.403 83.4185 272.851 82.8783 272.171 82.8783H265.007C264.327 82.8783 263.775 83.4185 263.775 84.085V106.927C263.775 110.163 263.082 112.365 261.908 113.745C260.77 115.083 259.014 115.841 256.4 115.841C253.723 115.841 251.923 115.078 250.76 113.737C249.564 112.357 248.859 110.158 248.859 106.927V96.1519C248.859 95.4854 248.307 94.9452 247.627 94.9452H240.408C239.727 94.9452 239.175 95.4854 239.175 96.1519V106.927C239.175 110.16 238.474 112.36 237.286 113.74C236.131 115.08 234.345 115.841 231.689 115.841C229.131 115.841 227.36 115.114 226.172 113.816C225.018 112.514 224.315 110.304 224.315 106.927V84.085C224.315 83.4185 223.763 82.8783 223.082 82.8783H215.863C215.183 82.8783 214.631 83.4185 214.631 84.085V107.148C214.631 112.616 216.054 116.982 219.088 120.045C222.122 123.107 226.385 124.559 231.689 124.559C234.557 124.559 237.131 124.116 239.384 123.194L239.394 123.19C241.185 122.439 242.729 121.465 244.007 120.261C245.263 121.467 246.796 122.44 248.585 123.19L248.609 123.2C250.927 124.115 253.531 124.559 256.4 124.559C261.699 124.559 265.947 123.129 268.946 120.1C271.982 117.036 273.403 112.65 273.403 107.148V84.085Z" fill="#494E62"/>
<path d="M326.457 84.085C326.457 83.4185 325.905 82.8783 325.224 82.8783H318.005C317.325 82.8783 316.773 83.4185 316.773 84.085V98.8619H299.136V84.085C299.136 83.4185 298.584 82.8783 297.904 82.8783H290.685C290.004 82.8783 289.452 83.4185 289.452 84.085V122.8C289.452 123.466 290.004 124.006 290.685 124.006H297.904C298.584 124.006 299.136 123.466 299.136 122.8V107.414H316.773V122.8C316.773 123.466 317.325 124.006 318.005 124.006H325.224C325.905 124.006 326.457 123.466 326.457 122.8V84.085Z" fill="#494E62"/>
<path fill-rule="evenodd" clip-rule="evenodd" d="M378.176 124.006C378.857 124.006 379.408 123.466 379.408 122.8V101.341C379.408 97.4001 378.66 93.9713 377.103 91.1039C375.588 88.2098 373.417 86.0002 370.597 84.5155C367.796 83.0409 364.552 82.3252 360.906 82.3252C357.26 82.3252 354.016 83.0409 351.215 84.5155C348.395 86.0002 346.206 88.2088 344.655 91.1009L344.652 91.1063C343.133 93.9728 342.404 97.4004 342.404 101.341V122.8C342.404 123.466 342.955 124.006 343.636 124.006H350.744C351.425 124.006 351.977 123.466 351.977 122.8V114.051H369.724V122.8C369.724 123.466 370.276 124.006 370.957 124.006H378.176ZM367.395 93.4304L367.404 93.4391C368.88 94.9405 369.724 97.2793 369.724 100.677V105.609H351.977V100.677C351.977 97.2793 352.821 94.9405 354.297 93.4392L354.306 93.4303C355.798 91.882 357.923 91.0435 360.85 91.0435C363.778 91.0435 365.903 91.882 367.395 93.4304Z" fill="#494E62"/>
<path fill-rule="evenodd" clip-rule="evenodd" d="M421.019 123.482C421.249 123.81 421.63 124.006 422.036 124.006H429.81C430.268 124.006 430.688 123.758 430.901 123.361C431.114 122.964 431.085 122.485 430.826 122.116L422.723 110.587C424.933 109.494 426.707 107.983 428.005 106.045C429.603 103.717 430.376 100.969 430.376 97.8563C430.376 94.8268 429.663 92.1432 428.187 89.8559C426.712 87.5705 424.59 85.837 421.877 84.6445C419.204 83.4531 416.099 82.8783 412.596 82.8783H396.603C395.923 82.8783 395.371 83.4185 395.371 84.085V122.8C395.371 123.466 395.923 124.006 396.603 124.006H403.822C404.503 124.006 405.055 123.466 405.055 122.8V112.724H412.596C412.917 112.724 413.212 112.72 413.475 112.711L421.019 123.482ZM418.638 93.0871C419.931 94.1409 420.637 95.6687 420.637 97.8563C420.637 100.039 419.933 101.592 418.631 102.686C417.309 103.76 415.252 104.393 412.263 104.393H405.055V91.3754H412.263C415.256 91.3754 417.315 92.0098 418.638 93.0871Z" fill="#494E62"/>
<path d="M453.668 122.8V109.184H469.372C470.053 109.184 470.605 108.644 470.605 107.977V101.894C470.605 101.227 470.053 100.687 469.372 100.687H453.668V98.5753C453.668 95.9375 454.441 94.1359 455.807 92.9529C457.199 91.7469 459.374 91.0435 462.542 91.0435C465.829 91.0435 468.452 91.7903 470.494 93.201C470.805 93.416 471.2 93.478 471.565 93.3691C471.929 93.2601 472.221 92.9924 472.357 92.6438L474.634 86.7813C474.839 86.251 474.64 85.6517 474.155 85.3418C472.582 84.3375 470.769 83.5885 468.732 83.0814C466.697 82.5746 464.521 82.3252 462.209 82.3252C456.701 82.3252 452.209 83.729 448.887 86.6749C445.583 89.6004 443.984 93.6202 443.984 98.5753V122.8C443.984 123.466 444.536 124.006 445.217 124.006H452.436C453.116 124.006 453.668 123.466 453.668 122.8Z" fill="#494E62"/>
<path d="M177.58 117.515C177.507 121.507 174.869 124.279 172.268 125.782L166.67 129.016C163.999 130.559 160.875 131.159 158.077 131.159C155.278 131.159 152.155 130.559 149.485 129.016L143.994 125.782V136.762C143.994 140.829 141.316 143.664 138.68 145.188L133.083 148.422C130.411 149.965 127.288 150.565 124.489 150.565C121.69 150.565 118.567 149.965 115.897 148.422L107.695 143.683L99.495 148.422C96.8235 149.965 93.7002 150.565 90.9014 150.565C88.1027 150.565 84.9808 149.965 82.3093 148.422L43.1243 125.782C40.523 124.279 37.8851 121.507 37.812 117.515L37.8105 117.269V131.648L37.812 131.895C37.8851 135.886 40.523 138.659 43.1243 140.161L82.3093 162.801C84.9808 164.344 88.1027 164.944 90.9014 164.944C93.7002 164.944 96.8235 164.344 99.495 162.801L107.695 158.063L115.897 162.801C118.567 164.344 121.69 164.944 124.489 164.944C127.288 164.944 130.411 164.344 133.083 162.801L138.68 159.567C141.316 158.044 143.994 155.209 143.994 151.142V140.161L149.485 143.396C152.155 144.939 155.278 145.538 158.077 145.538C160.875 145.538 163.999 144.939 166.67 143.396L172.268 140.161C174.869 138.659 177.507 135.886 177.58 131.895L177.58 117.515Z" fill="#F4FAF4"/>
<path d="M37.8456 103.768C37.8224 103.982 37.8105 104.199 37.8105 104.419V117.268L37.812 117.515C37.8851 121.507 40.523 124.279 43.1243 125.782L82.3093 148.422C84.9808 149.964 88.1027 150.564 90.9014 150.564C93.7002 150.564 96.8235 149.964 99.495 148.422L107.695 143.683L115.897 148.422C118.567 149.964 121.69 150.564 124.489 150.564C127.288 150.564 130.411 149.964 133.083 148.422L138.68 145.187C141.316 143.664 143.994 140.829 143.994 136.762V125.782L149.484 129.016C152.155 130.559 155.278 131.159 158.077 131.159C160.875 131.159 163.999 130.559 166.67 129.016L172.268 125.782C174.869 124.279 177.507 121.507 177.58 117.515V103.136C177.506 107.127 174.869 109.899 172.268 111.402L166.67 114.636C163.999 116.179 160.875 116.779 158.077 116.779C155.278 116.779 152.155 116.179 149.484 114.636L143.887 111.402C143.797 111.35 143.707 111.296 143.617 111.241C143.86 112.035 143.997 112.892 143.997 113.813C143.997 114.082 143.985 114.346 143.962 114.604C143.983 114.807 143.994 115.012 143.994 115.219V122.382C143.994 126.449 141.316 129.284 138.68 130.808L133.083 134.042C130.411 135.585 127.288 136.184 124.489 136.184C121.69 136.184 118.567 135.585 115.897 134.042L107.695 129.303L99.495 134.042C96.8235 135.585 93.7002 136.184 90.9014 136.184C88.1027 136.184 84.9808 135.585 82.3093 134.042L43.1243 111.402C40.6627 109.98 38.1684 107.421 37.8456 103.768Z" fill="#B2F2E1"/>
<path d="M105.024 64.9883C105.03 65.0464 105.036 65.1046 105.043 65.1627C105.324 67.5849 106.527 69.4925 108.024 70.9048C107.915 70.903 107.807 70.9021 107.699 70.9021C106.824 70.9021 105.918 70.9607 105.003 71.0884V65.4957C105.003 65.3248 105.01 65.1556 105.024 64.9883Z" fill="#B2F2E1"/>
<path d="M48.7253 82.7478L43.1274 85.9821C40.6334 87.423 38.1038 90.037 37.837 93.7573C37.8195 93.932 37.8105 94.1145 37.8105 94.3053V102.889L37.812 103.135C37.8851 107.127 40.523 109.899 43.1243 111.402L82.3093 134.042C84.9808 135.585 88.1027 136.185 90.9014 136.185C93.7001 136.185 96.8235 135.585 99.495 134.042L107.695 129.304L115.897 134.042C118.567 135.585 121.69 136.185 124.489 136.185C127.288 136.185 130.411 135.585 133.083 134.042L138.68 130.808C141.316 129.284 143.994 126.45 143.994 122.382V115.219C143.994 115.012 143.983 114.807 143.962 114.605C143.985 114.346 143.997 114.082 143.997 113.813C143.997 112.892 143.86 112.035 143.617 111.241C143.707 111.296 143.797 111.35 143.887 111.402L149.484 114.636C152.155 116.179 155.278 116.779 158.077 116.779C160.875 116.779 163.999 116.179 166.67 114.636L172.268 111.402C174.869 109.899 177.507 107.127 177.58 103.135V94.6923C177.583 94.5981 177.584 94.5031 177.584 94.4075C177.584 94.3119 177.583 94.217 177.58 94.1228L177.581 75.2371C177.583 75.1592 177.584 75.0808 177.584 75.0019C177.584 70.9348 174.908 68.0999 172.271 66.5765L133.085 43.9366C130.415 42.3936 127.292 41.7939 124.493 41.7939C121.694 41.7939 118.571 42.3936 115.9 43.9366L110.303 47.1708C107.666 48.6943 104.989 51.5291 104.989 55.5963C104.989 55.788 104.995 55.9769 105.006 56.1631C105.004 56.2285 105.003 56.2944 105.003 56.3609V63.611C104.984 63.8988 104.981 64.1871 104.992 64.4752C104.999 64.7047 105.016 64.9341 105.043 65.163C105.324 67.5851 106.527 69.4928 108.024 70.9051C107.915 70.9033 107.807 70.9024 107.699 70.9024C104.9 70.9024 101.777 71.5021 99.1067 73.045L93.5087 76.2793C90.8719 77.8027 88.1951 80.6376 88.1951 84.7047C88.1951 84.9692 88.2065 85.2285 88.2284 85.4826C88.2236 85.5807 88.2212 85.6793 88.2212 85.7785V92.5656L88.2109 92.7314L88.2007 92.9128C88.1934 93.0894 88.1919 93.2661 88.1948 93.4428C88.2007 93.8112 88.2314 94.1794 88.2855 94.5454C88.3525 94.997 88.4513 95.4299 88.5777 95.8443L65.9101 82.7478C63.2396 81.2049 60.1164 80.6052 57.3177 80.6052C54.519 80.6052 51.3958 81.2049 48.7253 82.7478Z" fill="#7BE7CE"/>
<path d="M130.088 49.1268C126.997 47.3406 121.984 47.3405 118.893 49.1268L113.295 52.3611C110.203 54.1473 110.203 57.0434 113.295 58.8296L151.801 81.0771C153.286 81.9349 154.12 83.0983 154.12 84.3114V85.0962C154.12 86.3092 153.286 87.4726 151.801 88.3304L146.882 91.1723C143.791 92.9586 143.791 95.8546 146.882 97.6409L152.48 100.875C155.572 102.661 160.584 102.661 163.676 100.875L169.274 97.6409C172.366 95.8546 172.366 92.9586 169.274 91.1723L164.355 88.3304C162.87 87.4726 162.036 86.3092 162.036 85.0962V84.3114C162.036 83.0983 162.87 81.9349 164.355 81.0771L169.274 78.2352C172.366 76.449 172.366 73.5529 169.274 71.7667L130.088 49.1268Z" fill="#494E62"/>
<path d="M62.9133 87.938C59.8216 86.1518 54.8091 86.1518 51.7174 87.938L46.1195 91.1723C43.0279 92.9585 43.0279 95.8546 46.1195 97.6408L85.305 120.281C88.3967 122.067 93.4092 122.067 96.5009 120.281L107.697 113.812L62.9133 87.938Z" fill="#494E62"/>
<path d="M128.449 104.502C128.449 105.715 129.283 106.878 130.768 107.736L135.686 110.578C138.778 112.364 138.778 115.26 135.686 117.046L130.088 120.281C126.997 122.067 121.984 122.067 118.893 120.281L107.697 113.812L118.213 107.736C119.698 106.878 120.532 105.715 120.532 104.502L120.532 103.717C120.532 102.504 119.698 101.341 118.213 100.483L96.5009 87.938C93.4092 86.1518 93.4092 83.2557 96.5009 81.4695L102.099 78.2352C105.19 76.449 110.203 76.449 113.295 78.2352L135.686 91.1723C138.778 92.9585 138.778 95.8546 135.686 97.6409L130.768 100.483C129.283 101.341 128.449 102.504 128.449 103.717L128.449 104.502Z" fill="#494E62"/>
</svg>
