<svg width="404" height="112" viewBox="0 0 404 112" fill="none" xmlns="http://www.w3.org/2000/svg">
<g clip-path="url(#clip0_1118_90369)">
<path d="M216.707 37.0259H210.081C209.451 37.0259 208.942 37.5247 208.942 38.1444V59.2825C208.942 62.2753 208.301 64.3158 207.218 65.593C206.165 66.8324 204.543 67.5314 202.124 67.5314C199.706 67.5314 197.985 66.8248 196.91 65.5854C195.804 64.3082 195.152 62.2753 195.152 59.2825V49.3105C195.152 48.6946 194.642 48.192 194.012 48.192H187.338C186.708 48.192 186.198 48.6908 186.198 49.3105V59.2825C186.198 62.2753 185.549 64.3082 184.452 65.5854C183.384 66.8248 181.731 67.5314 179.275 67.5314C176.819 67.5314 175.272 66.8588 174.174 65.6572C173.106 64.4518 172.457 62.4075 172.457 59.2825V38.1444C172.457 37.5285 171.948 37.0259 171.318 37.0259H164.643C164.013 37.0259 163.504 37.5247 163.504 38.1444V59.4866C163.504 64.5463 164.821 68.5857 167.624 71.4197C170.431 74.2538 174.374 75.599 179.279 75.599C181.931 75.599 184.312 75.1871 186.395 74.3369H186.406C188.062 73.6379 189.488 72.7385 190.669 71.6238C191.831 72.7385 193.25 73.6379 194.903 74.3331L194.925 74.3407C197.068 75.1871 199.476 75.599 202.128 75.599C207.029 75.599 210.957 74.2765 213.73 71.4727C216.537 68.6386 217.85 64.5803 217.85 59.4866V38.1444C217.85 37.5285 217.341 37.0259 216.711 37.0259H216.707Z" fill="black"/>
<path d="M265.765 37.0262H259.091C258.461 37.0262 257.952 37.525 257.952 38.1447V51.8199H241.645V38.1447C241.645 37.5288 241.135 37.0262 240.505 37.0262H233.831C233.201 37.0262 232.691 37.525 232.691 38.1447V73.9707C232.691 74.5867 233.201 75.0892 233.831 75.0892H240.505C241.135 75.0892 241.645 74.5904 241.645 73.9707V59.7325H257.952V73.9707C257.952 74.5867 258.461 75.0892 259.091 75.0892H265.765C266.395 75.0892 266.905 74.5904 266.905 73.9707V38.141C266.905 37.525 266.395 37.0225 265.765 37.0225V37.0262Z" fill="black"/>
<path d="M307.724 38.5415C305.136 37.1774 302.136 36.5161 298.763 36.5161C295.39 36.5161 292.39 37.1774 289.802 38.5415C287.195 39.917 285.169 41.9575 283.735 44.6366C282.332 47.293 281.656 50.4671 281.656 54.1136V73.9707C281.656 74.5867 282.166 75.0892 282.796 75.0892H289.368C289.998 75.0892 290.508 74.5905 290.508 73.9707V65.8767H306.92V73.9707C306.92 74.5867 307.43 75.0892 308.06 75.0892H314.734C315.364 75.0892 315.873 74.5905 315.873 73.9707V54.1136C315.873 50.4671 315.179 47.293 313.742 44.6404C312.342 41.9612 310.331 39.917 307.724 38.5453V38.5415ZM306.916 58.0623H290.504V53.4977C290.504 50.3538 291.285 48.1886 292.651 46.8018L292.658 46.7942C294.039 45.3621 296.001 44.5874 298.71 44.5874C301.419 44.5874 303.381 45.3621 304.762 46.7942L304.77 46.8018C306.135 48.1923 306.916 50.3538 306.916 53.4977V58.0623Z" fill="black"/>
<path d="M355.923 62.6645C357.968 61.6518 359.609 60.2536 360.809 58.4625C362.288 56.3087 363.001 53.7656 363.001 50.8862C363.001 48.0068 362.341 45.5998 360.975 43.4837C359.613 41.3676 357.651 39.7654 355.142 38.6621C352.671 37.5587 349.8 37.0259 346.559 37.0259H331.772C331.142 37.0259 330.633 37.5247 330.633 38.1444V73.9704C330.633 74.5863 331.142 75.0889 331.772 75.0889H338.447C339.077 75.0889 339.586 74.5901 339.586 73.9704V64.6483H346.559C346.857 64.6483 347.128 64.6445 347.374 64.637L354.35 74.6052C354.561 74.9075 354.912 75.0889 355.289 75.0889H362.477C362.899 75.0889 363.288 74.8584 363.484 74.4918C363.68 74.1253 363.654 73.6794 363.416 73.3393L355.923 62.672V62.6645ZM352.139 55.3526C350.916 56.3465 349.015 56.9322 346.249 56.9322H339.582V44.8856H346.249C349.019 44.8856 350.92 45.4713 352.143 46.4689C353.339 47.4438 353.991 48.857 353.991 50.8824C353.991 52.9078 353.339 54.34 352.139 55.3526V55.3526Z" fill="black"/>
<path d="M403.479 39.3047C402.027 38.3751 400.348 37.6836 398.465 37.2113C396.582 36.7427 394.571 36.5122 392.432 36.5122C387.339 36.5122 383.184 37.8121 380.113 40.5365C377.057 43.2421 375.578 46.9641 375.578 51.5477V73.9631C375.578 74.579 376.087 75.0816 376.718 75.0816H383.392C384.022 75.0816 384.531 74.5828 384.531 73.9631V61.3648H399.054C399.684 61.3648 400.193 60.866 400.193 60.2463V54.616C400.193 54.0001 399.684 53.5013 399.054 53.5013H384.531V51.5477C384.531 49.1067 385.245 47.4403 386.508 46.3444C387.795 45.2297 389.806 44.576 392.738 44.576C395.669 44.576 398.205 45.2675 400.091 46.5711C400.378 46.7714 400.744 46.8281 401.08 46.7261C401.416 46.6241 401.687 46.3784 401.812 46.0535L403.917 40.6272C404.106 40.136 403.925 39.5805 403.476 39.2933L403.479 39.3047Z" fill="black"/>
<path d="M96.3055 80.3C96.2828 80.3189 96.2639 80.3416 96.2451 80.3643C95.9546 80.6515 95.6603 80.9084 95.3773 81.1389C95.3622 81.1503 95.3471 81.1616 95.3358 81.1729C95.0453 81.4072 94.7661 81.6075 94.5095 81.7851C94.502 81.7889 94.4944 81.7964 94.4869 81.804C94.2228 81.9816 93.9813 82.1289 93.7738 82.2499L88.5972 85.2426C86.2354 86.6067 83.2358 87.3587 80.1495 87.3587C77.0632 87.3587 74.0637 86.6067 71.7018 85.2426L64.6199 81.1465L57.538 85.2426C55.1762 86.6067 52.1766 87.3587 49.0903 87.3587C46.004 87.3587 43.0045 86.6067 40.6426 85.2426L4.40687 64.2934C4.40687 64.2934 4.39178 64.2821 4.38423 64.2783C4.14654 64.1385 3.85979 63.9609 3.5504 63.7417C3.47494 63.6888 3.39948 63.6397 3.3278 63.5868C3.13915 63.447 2.93918 63.292 2.73544 63.122C2.59584 63.0049 2.45624 62.8877 2.32418 62.7668C2.17704 62.6345 2.03366 62.4985 1.88652 62.3511C1.79974 62.2642 1.70919 62.1735 1.62618 62.0866C1.42999 61.8788 1.24134 61.6559 1.05646 61.4216C1.04137 61.4027 1.0225 61.3838 1.00741 61.3649V69.0697C1.06778 72.206 3.08255 74.2276 4.53515 75.2781C4.87095 75.52 5.17656 75.7127 5.41803 75.8525L41.6538 96.8017C43.7138 97.992 46.3587 98.6495 49.0979 98.6495C51.8371 98.6495 54.4819 97.992 56.542 96.8017L64.6275 92.1274L72.713 96.8017C74.773 97.992 77.4141 98.6495 80.1571 98.6495C82.9 98.6495 85.5411 97.992 87.6012 96.8017L92.7777 93.8089C94.1058 93.0419 97.1883 90.8313 97.1883 86.8826V79.3214C97.1883 79.3214 97.1695 79.344 97.1581 79.3554C96.8865 79.6992 96.6035 80.0091 96.3168 80.2963L96.3055 80.3ZM127.376 75.6333C127.346 75.6636 127.316 75.6938 127.285 75.724C126.999 76.0074 126.712 76.2568 126.433 76.4835C126.414 76.4986 126.399 76.5138 126.38 76.5251C126.089 76.7594 125.81 76.9634 125.55 77.1373C125.546 77.1373 125.542 77.1448 125.535 77.1486C125.271 77.3262 125.029 77.4773 124.822 77.5945L119.645 80.5872C117.283 81.9513 114.284 82.7033 111.197 82.7033C108.111 82.7033 105.112 81.9513 102.75 80.5872L99.1805 78.4825V86.8826C99.1805 87.2718 99.1503 87.6383 99.1088 88.0011C99.0975 88.1031 99.0824 88.2051 99.0635 88.3071C99.022 88.5792 98.9692 88.8475 98.905 89.1044C98.8899 89.1611 98.8862 89.2216 98.8711 89.2745L103.761 92.1576C105.813 93.3442 108.458 94.0017 111.197 94.0017C113.937 94.0017 116.581 93.3442 118.642 92.1539L123.818 89.1611C125.12 88.4092 128.157 86.2402 128.229 82.3632V74.6698C128.21 74.6924 128.191 74.7075 128.176 74.7302C127.916 75.059 127.644 75.3575 127.372 75.6333H127.376ZM127.376 62.3285C127.346 62.3587 127.316 62.3889 127.285 62.4192C126.999 62.6988 126.716 62.952 126.437 63.1749C126.418 63.19 126.399 63.2089 126.38 63.224C126.097 63.4507 125.822 63.651 125.569 63.8248C125.557 63.8324 125.542 63.8437 125.531 63.8513C125.282 64.0176 125.059 64.1574 124.863 64.2707C124.852 64.2783 124.837 64.2858 124.829 64.2934L119.653 67.2861C117.291 68.654 114.288 69.406 111.205 69.406C108.122 69.406 105.119 68.654 102.757 67.2861L99.1805 65.2192C99.188 65.3628 99.1918 65.5064 99.1918 65.6537C99.1918 65.8994 99.1842 66.145 99.1654 66.3793C99.1805 66.5682 99.1918 66.7609 99.1918 66.9536V73.5815C99.1918 73.9669 99.1616 74.3372 99.1201 74.6962C99.1088 74.802 99.0899 74.904 99.0748 75.0061C99.0333 75.2781 98.9805 75.5389 98.9201 75.792C98.905 75.8487 98.9013 75.913 98.8862 75.9659L103.776 78.849C105.828 80.0355 108.473 80.693 111.213 80.693C113.608 80.693 115.933 80.1905 117.857 79.2647C118.132 79.1324 118.4 78.9926 118.657 78.8415L123.833 75.8487C125.135 75.0967 128.172 72.9278 128.244 69.0508V61.3573C128.225 61.38 128.206 61.3951 128.191 61.4178C127.931 61.7465 127.659 62.0451 127.387 62.3209L127.376 62.3285ZM123.826 22.8144L87.5936 1.86146C85.5336 0.671168 82.8887 0.0136719 80.1495 0.0136719C77.4103 0.0136719 74.7693 0.671168 72.7054 1.86146L67.5289 4.85421C66.2008 5.62129 63.1183 7.83183 63.1183 11.7806C63.1183 11.9355 63.1221 12.0904 63.1334 12.2454V19.1982C63.1145 19.4967 63.1145 19.731 63.1221 19.9615C63.1296 20.1504 63.1409 20.3318 63.1636 20.517C63.3711 22.293 64.1936 23.8763 65.6122 25.2139L67.5063 27.005L64.6199 26.9521C61.8807 26.9521 59.2397 27.6096 57.1758 28.7999L51.9993 31.7927C50.6712 32.5597 47.5887 34.7703 47.5887 38.7191C47.5887 38.9344 47.5962 39.146 47.6151 39.3501L47.6226 39.4181V39.4861C47.6151 39.5617 47.6151 39.6373 47.6151 39.7091L47.5925 46.371C47.5887 46.4957 47.5849 46.643 47.5925 46.7866C47.5962 47.0814 47.6226 47.3799 47.6641 47.6746C47.717 48.0336 47.7962 48.3888 47.9018 48.7289L48.6451 51.1699L25.4752 37.7744C23.4152 36.5803 20.7703 35.9266 18.0311 35.9266C15.2919 35.9266 12.6471 36.5841 10.587 37.7744L5.41049 40.7671C4.17672 41.4813 1.27907 43.5294 1.01873 47.1645C1.00364 47.3232 0.996094 47.4592 0.996094 47.599V55.7648C0.999867 55.9689 1.01873 56.1692 1.0376 56.3657C1.04892 56.4828 1.06778 56.5999 1.08287 56.7133C1.09796 56.8153 1.11306 56.9136 1.13192 57.0118C1.15456 57.1327 1.18474 57.2499 1.21493 57.367C1.23756 57.4539 1.25643 57.5371 1.28284 57.6202C1.32057 57.7411 1.3583 57.862 1.3998 57.9792C1.42621 58.051 1.44885 58.1228 1.47904 58.1946C1.52808 58.3155 1.57713 58.4364 1.62996 58.5498C1.65637 58.6102 1.68655 58.6707 1.71296 58.7311C1.76956 58.852 1.8337 58.9692 1.89406 59.0826C1.92425 59.1355 1.95066 59.1846 1.98084 59.2337C2.04876 59.3508 2.12044 59.4642 2.19213 59.5738C2.21854 59.6153 2.24872 59.6607 2.27891 59.7023C2.35437 59.8156 2.4336 59.9214 2.51283 60.0272C2.53924 60.065 2.56943 60.099 2.59961 60.1368C2.68262 60.2426 2.76562 60.3446 2.84863 60.4429C2.87881 60.4769 2.909 60.5109 2.93541 60.5411C3.02219 60.6356 3.10519 60.7301 3.19197 60.8208C3.22215 60.8548 3.25611 60.885 3.2863 60.9152C3.37307 61.0021 3.45608 61.0853 3.54286 61.1646C3.57682 61.1949 3.61077 61.2251 3.64473 61.2591C3.72773 61.3347 3.81074 61.4065 3.88997 61.4783C3.9277 61.5123 3.96543 61.5425 4.00694 61.5727C4.0824 61.6332 4.15408 61.6936 4.22954 61.7503C4.28236 61.7919 4.33141 61.8259 4.38046 61.8637C4.43706 61.9052 4.49742 61.9506 4.55402 61.9922C4.6257 62.0451 4.69362 62.0904 4.76153 62.1358C4.79172 62.1584 4.82567 62.1811 4.85586 62.2C5.0596 62.336 5.24447 62.4494 5.40294 62.5401L41.6387 83.4893C43.6987 84.6796 46.3436 85.3371 49.0828 85.3371C51.822 85.3371 54.4668 84.6796 56.5269 83.4893L64.6124 78.815L72.6979 83.4893C74.7579 84.6796 77.399 85.3371 80.142 85.3371C82.8849 85.3371 85.526 84.6796 87.5861 83.4893L92.7626 80.4965C93.1777 80.2585 93.7625 79.8768 94.3737 79.3478C95.7169 78.1802 97.1732 76.287 97.1732 73.5739V66.9461C97.1732 66.7874 97.1657 66.6324 97.1506 66.4775L97.1393 66.383L97.1468 66.2886C97.1657 66.077 97.1732 65.8653 97.1732 65.6462C97.1732 65.2872 97.1468 64.932 97.0978 64.5844C97.0978 64.5692 97.0902 64.5579 97.0865 64.5428C97.0336 64.2103 96.962 63.8815 96.8639 63.5603L96.0866 61.021V61.0135L98.3202 62.3851L98.5768 62.5439L103.753 65.5366C105.813 66.7269 108.458 67.3844 111.197 67.3844C113.937 67.3844 116.581 66.7269 118.642 65.5366L123.818 62.5439C124.271 62.2831 124.935 61.8448 125.61 61.2251C126.116 60.7603 126.629 60.1935 127.067 59.5171C127.719 58.5082 128.198 57.2574 128.229 55.7459V29.737C128.232 25.7883 125.146 23.5777 123.822 22.8144H123.826ZM85.9486 60.031L90.4988 62.661C93.3588 64.3123 93.3588 66.9952 90.4988 68.6465L85.3223 71.6392C82.4624 73.2905 77.8291 73.2905 74.9692 71.6392L64.6162 65.6537L54.2631 71.6392C51.4032 73.2905 46.7699 73.2905 43.91 71.6392L7.67805 50.6862C4.81813 49.0349 4.81813 46.3521 7.67805 44.7008L12.8546 41.708C15.7145 40.0567 20.3477 40.0567 23.2077 41.708L64.6199 65.65L74.3429 60.0272C75.7163 59.2337 76.486 58.1568 76.486 57.0345V56.309C76.486 55.1867 75.7163 54.1098 74.3429 53.3162L54.2669 41.708C51.4069 40.0567 51.4069 37.3738 54.2669 35.7225L59.4434 32.7298C62.3033 31.0785 66.9365 31.0785 69.7965 32.7298L90.5026 44.7008C93.3625 46.3521 93.3625 49.0349 90.5026 50.6862L85.9524 53.3162C84.579 54.1098 83.8093 55.1867 83.8093 56.309V57.0345C83.8093 58.1568 84.579 59.2337 85.9524 60.0272L85.9486 60.031ZM117.008 42.0746L121.558 44.7045C124.418 46.3558 124.418 49.0387 121.558 50.69L116.382 53.6828C113.522 55.3341 108.888 55.3341 106.028 53.6828L100.852 50.69C97.992 49.0387 97.992 46.3558 100.852 44.7045L105.402 42.0746C106.775 41.281 107.545 40.2041 107.545 39.0818V38.3563C107.545 37.234 106.775 36.1571 105.402 35.3636L69.7965 14.7771C66.9365 13.1258 66.9365 10.4429 69.7965 8.79163L74.973 5.79889C77.8329 4.14759 82.4661 4.14759 85.3261 5.79889L121.562 26.7481C124.422 28.3994 124.422 31.0823 121.562 32.7336L117.012 35.3636C115.638 36.1571 114.869 37.234 114.869 38.3563V39.0818C114.869 40.2041 115.642 41.281 117.012 42.0746H117.008ZM96.3055 93.6125C96.2828 93.6313 96.2639 93.654 96.2451 93.6767C95.9546 93.9639 95.6603 94.2208 95.3773 94.4513C95.3622 94.4627 95.3471 94.474 95.3358 94.4853C95.0453 94.7196 94.7661 94.9199 94.5095 95.0975C94.502 95.1013 94.4944 95.1088 94.4869 95.1164C94.2228 95.294 93.9813 95.4414 93.7738 95.5623L88.5972 98.555C86.2354 99.9191 83.2358 100.671 80.1495 100.671C77.0632 100.671 74.0637 99.9191 71.7018 98.555L64.6199 94.4589L57.538 98.555C55.1762 99.9191 52.1766 100.671 49.0903 100.671C46.004 100.671 43.0045 99.9191 40.6426 98.555L4.40687 77.5983C4.19936 77.4811 3.95789 77.33 3.69378 77.1524C3.69 77.1524 3.68246 77.1448 3.67869 77.141C3.41835 76.9672 3.13915 76.7632 2.84863 76.5289C2.83354 76.5175 2.81845 76.5024 2.80335 76.4911C2.52038 76.2606 2.22986 76.0036 1.93934 75.7165C1.9167 75.6938 1.89406 75.6711 1.87143 75.6484C1.58845 75.365 1.30548 75.0514 1.0376 74.7113C1.02628 74.6962 1.01119 74.6849 0.999867 74.6698V82.3746C1.07155 86.2402 4.10881 88.4054 5.41049 89.1573L41.6462 110.107C43.7063 111.297 46.3511 111.954 49.0903 111.954C51.8295 111.954 54.4744 111.297 56.5344 110.107L64.6199 105.432L72.7054 110.107C74.7655 111.297 77.4066 111.954 80.1495 111.954C82.8925 111.954 85.5336 111.297 87.5936 110.107L92.7702 107.114C94.0983 106.347 97.1808 104.136 97.1808 100.191V92.63C97.1808 92.63 97.1619 92.6527 97.1506 92.664C96.8789 93.0079 96.596 93.3177 96.3092 93.6049L96.3055 93.6125Z" fill="black"/>
</g>
<defs>
<clipPath id="clip0_1118_90369">
<rect width="404" height="112" fill="white"/>
</clipPath>
</defs>
</svg>
