<svg width="513" height="206" viewBox="0 0 513 206" fill="none" xmlns="http://www.w3.org/2000/svg">
<path d="M273.11 84.1148C273.11 83.4489 272.558 82.9091 271.878 82.9091H264.714C264.034 82.9091 263.482 83.4489 263.482 84.1148V106.938C263.482 110.172 262.789 112.372 261.615 113.751C260.478 115.088 258.721 115.845 256.107 115.845C253.43 115.845 251.63 115.083 250.467 113.743C249.271 112.364 248.566 110.167 248.566 106.938V96.172C248.566 95.5061 248.014 94.9663 247.334 94.9663H240.115C239.434 94.9663 238.882 95.5061 238.882 96.172V106.938C238.882 110.169 238.181 112.367 236.993 113.746C235.838 115.085 234.052 115.845 231.397 115.845C228.838 115.845 227.067 115.119 225.879 113.822C224.725 112.521 224.022 110.313 224.022 106.938V84.1148C224.022 83.4489 223.47 82.9091 222.789 82.9091H215.571C214.89 82.9091 214.338 83.4489 214.338 84.1148V107.159C214.338 112.623 215.761 116.985 218.795 120.046C221.829 123.106 226.093 124.557 231.397 124.557C234.264 124.557 236.838 124.113 239.091 123.193L239.101 123.188C240.892 122.438 242.436 121.465 243.714 120.262C244.97 121.467 246.503 122.439 248.292 123.188L248.316 123.198C250.634 124.113 253.238 124.557 256.107 124.557C261.406 124.557 265.654 123.127 268.653 120.101C271.689 117.039 273.11 112.657 273.11 107.159V84.1148Z" fill="white"/>
<path d="M326.164 84.1148C326.164 83.4489 325.612 82.9091 324.931 82.9091H317.712C317.032 82.9091 316.48 83.4489 316.48 84.1148V98.8799H298.843V84.1148C298.843 83.4489 298.291 82.9091 297.611 82.9091H290.392C289.711 82.9091 289.159 83.4489 289.159 84.1148V122.798C289.159 123.464 289.711 124.004 290.392 124.004H297.611C298.291 124.004 298.843 123.464 298.843 122.798V107.425H316.48V122.798C316.48 123.464 317.032 124.004 317.712 124.004H324.931C325.612 124.004 326.164 123.464 326.164 122.798V84.1148Z" fill="white"/>
<path fill-rule="evenodd" clip-rule="evenodd" d="M377.883 124.004C378.564 124.004 379.115 123.464 379.115 122.798V101.357C379.115 97.4193 378.367 93.9932 376.81 91.1281C375.295 88.2363 373.124 86.0286 370.304 84.545C367.503 83.0716 364.259 82.3564 360.613 82.3564C356.967 82.3564 353.723 83.0716 350.922 84.545C348.102 86.0285 345.913 88.2353 344.362 91.1252L344.359 91.1305C342.84 93.9947 342.111 97.4195 342.111 101.357V122.798C342.111 123.464 342.662 124.004 343.343 124.004H350.451C351.132 124.004 351.684 123.464 351.684 122.798V114.057H369.431V122.798C369.431 123.464 369.983 124.004 370.664 124.004H377.883ZM367.102 93.4527L367.111 93.4615C368.587 94.9616 369.431 97.2986 369.431 100.694V105.622H351.684V100.694C351.684 97.2986 352.528 94.9616 354.004 93.4615L354.013 93.4527C355.505 91.9056 357.63 91.0678 360.557 91.0678C363.485 91.0678 365.61 91.9056 367.102 93.4527Z" fill="white"/>
<path fill-rule="evenodd" clip-rule="evenodd" d="M420.726 123.48C420.956 123.808 421.337 124.004 421.743 124.004H429.517C429.975 124.004 430.395 123.756 430.608 123.36C430.821 122.963 430.792 122.484 430.533 122.115L422.43 110.596C424.64 109.503 426.414 107.994 427.712 106.057C429.31 103.731 430.083 100.986 430.083 97.8751C430.083 94.8481 429.37 92.1666 427.894 89.8812C426.419 87.5975 424.297 85.8655 421.584 84.6739C418.911 83.4834 415.806 82.9091 412.303 82.9091H396.31C395.63 82.9091 395.078 83.4489 395.078 84.1148V122.798C395.078 123.464 395.63 124.004 396.31 124.004H403.529C404.21 124.004 404.762 123.464 404.762 122.798V112.731H412.303C412.624 112.731 412.919 112.727 413.182 112.717L420.726 123.48ZM418.345 93.1098C419.638 94.1627 420.344 95.6893 420.344 97.8751C420.344 100.056 419.64 101.608 418.338 102.701C417.016 103.774 414.959 104.406 411.97 104.406H404.762V91.3994H411.97C414.963 91.3994 417.022 92.0333 418.345 93.1098Z" fill="white"/>
<path d="M453.375 122.798V109.194H469.079C469.76 109.194 470.312 108.654 470.312 107.988V101.909C470.312 101.243 469.76 100.704 469.079 100.704H453.375V98.5935C453.375 95.9578 454.148 94.1577 455.514 92.9756C456.906 91.7706 459.081 91.0678 462.249 91.0678C465.536 91.0678 468.159 91.814 470.201 93.2235C470.512 93.4383 470.908 93.5003 471.272 93.3915C471.636 93.2826 471.928 93.0151 472.064 92.6668L474.341 86.809C474.546 86.2791 474.347 85.6803 473.862 85.3706C472.289 84.3671 470.476 83.6188 468.439 83.1121C466.404 82.6057 464.228 82.3564 461.916 82.3564C456.408 82.3564 451.917 83.7592 448.594 86.7027C445.29 89.6259 443.691 93.6424 443.691 98.5935V122.798C443.691 123.464 444.243 124.004 444.924 124.004H452.143C452.823 124.004 453.375 123.464 453.375 122.798Z" fill="white"/>
<path d="M177.287 117.518C177.214 121.506 174.576 124.277 171.975 125.778L166.377 129.01C163.706 130.552 160.582 131.151 157.784 131.151C154.985 131.151 151.862 130.552 149.192 129.01L143.701 125.778V136.75C143.701 140.813 141.023 143.646 138.387 145.168L132.79 148.4C130.118 149.942 126.995 150.541 124.196 150.541C121.397 150.541 118.274 149.942 115.604 148.4L107.402 143.665L99.202 148.4C96.5305 149.942 93.4072 150.541 90.6085 150.541C87.8098 150.541 84.6879 149.942 82.0164 148.4L42.8313 125.778C40.23 124.277 37.5922 121.506 37.519 117.518L37.5176 117.271V131.639L37.519 131.886C37.5922 135.874 40.23 138.644 42.8313 140.146L82.0164 162.768C84.6879 164.309 87.8098 164.909 90.6085 164.909C93.4072 164.909 96.5305 164.309 99.202 162.768L107.402 158.033L115.604 162.768C118.274 164.309 121.397 164.909 124.196 164.909C126.995 164.909 130.118 164.309 132.79 162.768L138.387 159.536C141.023 158.014 143.701 155.181 143.701 151.117V140.146L149.192 143.378C151.862 144.919 154.985 145.519 157.784 145.519C160.582 145.519 163.706 144.919 166.377 143.378L171.975 140.146C174.576 138.644 177.214 135.874 177.287 131.886L177.287 117.518Z" fill="#CDCDCD"/>
<path d="M37.5526 103.782C37.5295 103.996 37.5176 104.213 37.5176 104.433V117.271L37.519 117.518C37.5922 121.506 40.23 124.276 42.8313 125.778L82.0164 148.4C84.6879 149.941 87.8097 150.541 90.6085 150.541C93.4072 150.541 96.5305 149.941 99.202 148.4L107.402 143.665L115.604 148.4C118.274 149.941 121.397 150.541 124.196 150.541C126.995 150.541 130.118 149.941 132.79 148.4L138.387 145.168C141.023 143.646 143.701 140.813 143.701 136.749V125.778L149.192 129.01C151.862 130.551 154.985 131.151 157.784 131.151C160.582 131.151 163.706 130.551 166.377 129.01L171.975 125.778C174.576 124.276 177.214 121.506 177.287 117.518V103.15C177.214 107.138 174.576 109.908 171.975 111.41L166.377 114.641C163.706 116.183 160.582 116.782 157.784 116.782C154.985 116.782 151.862 116.183 149.192 114.641L143.594 111.41C143.504 111.358 143.414 111.304 143.324 111.249C143.567 112.042 143.704 112.899 143.704 113.819C143.704 114.088 143.692 114.351 143.669 114.609C143.69 114.812 143.701 115.017 143.701 115.224V122.381C143.701 126.445 141.023 129.278 138.387 130.8L132.79 134.031C130.118 135.573 126.995 136.172 124.196 136.172C121.397 136.172 118.274 135.573 115.604 134.031L107.402 129.297L99.202 134.031C96.5305 135.573 93.4072 136.172 90.6085 136.172C87.8097 136.172 84.6879 135.573 82.0164 134.031L42.8313 111.41C40.3698 109.989 37.8755 107.432 37.5526 103.782Z" fill="#E7E7E7"/>
<path d="M104.731 65.0332C104.737 65.0913 104.743 65.1494 104.75 65.2075C105.031 67.6277 106.234 69.5338 107.731 70.945C107.622 70.9432 107.514 70.9423 107.406 70.9423C106.531 70.9423 105.625 71.0008 104.71 71.1284V65.5402C104.71 65.3694 104.717 65.2003 104.731 65.0332Z" fill="#E7E7E7"/>
<path d="M48.4324 82.7785L42.8344 86.0102C40.3405 87.45 37.8108 90.0619 37.544 93.7792C37.5265 93.9537 37.5176 94.1361 37.5176 94.3267V102.903L37.519 103.15C37.5922 107.138 40.23 109.908 42.8313 111.41L82.0164 134.032C84.6879 135.573 87.8097 136.173 90.6085 136.173C93.4072 136.173 96.5305 135.573 99.202 134.032L107.402 129.297L115.604 134.032C118.274 135.573 121.397 136.173 124.196 136.173C126.995 136.173 130.118 135.573 132.79 134.032L138.387 130.8C141.023 129.278 143.701 126.445 143.701 122.381V115.224C143.701 115.017 143.69 114.812 143.669 114.61C143.692 114.352 143.704 114.088 143.704 113.819C143.704 112.899 143.567 112.042 143.324 111.249C143.414 111.304 143.504 111.358 143.594 111.41L149.192 114.642C151.862 116.183 154.985 116.782 157.784 116.782C160.582 116.782 163.706 116.183 166.377 114.642L171.975 111.41C174.576 109.908 177.214 107.138 177.287 103.15V94.7134C177.29 94.6193 177.291 94.5244 177.291 94.4289C177.291 94.3334 177.29 94.2385 177.287 94.1444L177.288 75.2738C177.29 75.1959 177.291 75.1176 177.291 75.0388C177.291 70.9749 174.615 68.1424 171.978 66.6201L132.792 43.9983C130.122 42.4566 126.999 41.8574 124.2 41.8574C121.401 41.8574 118.278 42.4566 115.607 43.9983L110.01 47.23C107.373 48.7523 104.696 51.5848 104.696 55.6487C104.696 55.8403 104.702 56.0291 104.714 56.2151C104.711 56.2804 104.71 56.3463 104.71 56.4127V63.657C104.691 63.9445 104.688 64.2326 104.699 64.5205C104.706 64.7499 104.723 64.9791 104.75 65.2077C105.031 67.628 106.234 69.5341 107.731 70.9452C107.622 70.9434 107.514 70.9426 107.406 70.9426C104.607 70.9426 101.484 71.5418 98.8137 73.0835L93.2158 76.3151C90.5789 77.8374 87.9022 80.67 87.9022 84.7338C87.9022 84.9981 87.9135 85.2572 87.9354 85.5111C87.9306 85.6091 87.9282 85.7077 87.9282 85.8068V92.5885L87.9179 92.7541L87.9077 92.9354C87.9004 93.1118 87.8989 93.2883 87.9019 93.4649C87.9077 93.833 87.9384 94.2009 87.9925 94.5667C88.0595 95.0179 88.1583 95.4504 88.2848 95.8645L65.6171 82.7785C62.9466 81.2368 59.8234 80.6376 57.0247 80.6376C54.226 80.6376 51.1029 81.2368 48.4324 82.7785Z" fill="#F9F9F9"/>
<path d="M129.795 49.1843C126.704 47.3995 121.691 47.3995 118.6 49.1843L113.002 52.416C109.91 54.2008 109.91 57.0945 113.002 58.8794L151.508 81.1091C152.993 81.9662 153.827 83.1286 153.827 84.3407V85.1249C153.827 86.337 152.993 87.4995 151.508 88.3566L146.589 91.1962C143.498 92.981 143.498 95.8747 146.589 97.6595L152.187 100.891C155.279 102.676 160.291 102.676 163.383 100.891L168.981 97.6595C172.073 95.8747 172.073 92.981 168.981 91.1962L164.062 88.3566C162.577 87.4995 161.743 86.337 161.743 85.1249V84.3407C161.743 83.1286 162.577 81.9662 164.062 81.1091L168.981 78.2694C172.073 76.4846 172.073 73.5909 168.981 71.8061L129.795 49.1843Z" fill="black"/>
<path d="M62.6203 87.9645C59.5287 86.1797 54.5161 86.1797 51.4245 87.9645L45.8265 91.1962C42.7349 92.981 42.7349 95.8747 45.8265 97.6595L85.012 120.281C88.1037 122.066 93.1162 122.066 96.2079 120.281L107.404 113.818L62.6203 87.9645Z" fill="black"/>
<path d="M128.156 104.515C128.156 105.727 128.99 106.89 130.475 107.747L135.393 110.586C138.485 112.371 138.485 115.265 135.393 117.05L129.795 120.281C126.704 122.066 121.691 122.066 118.6 120.281L107.404 113.818L117.92 107.747C119.405 106.89 120.239 105.727 120.239 104.515L120.239 103.731C120.239 102.519 119.405 101.356 117.92 100.499L96.2079 87.9645C93.1162 86.1797 93.1162 83.2859 96.2079 81.5011L101.806 78.2694C104.897 76.4846 109.91 76.4846 113.002 78.2694L135.393 91.1962C138.485 92.981 138.485 95.8747 135.393 97.6595L130.475 100.499C128.99 101.356 128.156 102.519 128.156 103.731L128.156 104.515Z" fill="black"/>
</svg>
