<svg width="174" height="195" viewBox="0 0 174 195" fill="none" xmlns="http://www.w3.org/2000/svg">
<path d="M39.3107 168.352C39.3107 167.928 38.9417 167.585 38.4865 167.585H33.6971C33.242 167.585 32.873 167.928 32.873 168.352V182.862C32.873 184.917 32.4099 186.316 31.6251 187.193C30.8644 188.043 29.6899 188.524 27.9425 188.524C26.1528 188.524 24.9489 188.04 24.1713 187.188C23.3716 186.311 22.9005 184.915 22.9005 182.862V176.017C22.9005 175.594 22.5315 175.251 22.0764 175.251H17.2499C16.7947 175.251 16.4258 175.594 16.4258 176.017V182.862C16.4258 184.916 15.9573 186.313 15.1626 187.19C14.3906 188.041 13.1966 188.524 11.4209 188.524C9.71013 188.524 8.52628 188.062 7.7322 187.238C6.96015 186.411 6.49039 185.007 6.49039 182.862V168.352C6.49039 167.928 6.12141 167.585 5.66626 167.585H0.839751C0.384599 167.585 0.015625 167.928 0.015625 168.352V183.002C0.015625 186.476 0.966893 189.249 2.99554 191.195C5.02387 193.14 7.87472 194.063 11.4209 194.063C13.3383 194.063 15.059 193.781 16.5652 193.195L16.572 193.193C17.7694 192.716 18.8017 192.097 19.6562 191.332C20.4962 192.098 21.5214 192.716 22.7172 193.193L22.7334 193.199C24.2831 193.781 26.0242 194.063 27.9425 194.063C31.4849 194.063 34.3252 193.154 36.3308 191.23C38.3604 189.283 39.3107 186.498 39.3107 183.002V168.352Z" fill="black"/>
<path d="M74.782 168.352C74.782 167.928 74.4131 167.585 73.9579 167.585H69.1314C68.6762 167.585 68.3073 167.928 68.3073 168.352V177.739H56.5155V168.352C56.5155 167.928 56.1466 167.585 55.6914 167.585H50.8649C50.4098 167.585 50.0408 167.928 50.0408 168.352V192.945C50.0408 193.368 50.4098 193.711 50.8649 193.711H55.6914C56.1466 193.711 56.5155 193.368 56.5155 192.945V183.171H68.3073V192.945C68.3073 193.368 68.6762 193.711 69.1314 193.711H73.9579C74.4131 193.711 74.782 193.368 74.782 192.945V168.352Z" fill="black"/>
<path fill-rule="evenodd" clip-rule="evenodd" d="M109.361 193.711C109.816 193.711 110.185 193.368 110.185 192.945V179.313C110.185 176.81 109.685 174.632 108.644 172.81C107.631 170.972 106.179 169.568 104.294 168.625C102.421 167.689 100.253 167.234 97.8146 167.234C95.3766 167.234 93.2082 167.689 91.3354 168.625C89.4499 169.568 87.9865 170.971 86.9493 172.809L86.9474 172.812C85.9318 174.633 85.444 176.81 85.444 179.313V192.945C85.444 193.368 85.813 193.711 86.2681 193.711H91.0204C91.4755 193.711 91.8445 193.368 91.8445 192.945V187.387H103.71V192.945C103.71 193.368 104.079 193.711 104.535 193.711H109.361ZM102.153 174.288L102.159 174.294C103.146 175.248 103.71 176.733 103.71 178.892V182.025H91.8445V178.892C91.8445 176.733 92.4089 175.248 93.3962 174.294L93.4019 174.288C94.3997 173.305 95.8199 172.772 97.7775 172.772C99.7351 172.772 101.155 173.305 102.153 174.288Z" fill="black"/>
<path fill-rule="evenodd" clip-rule="evenodd" d="M138.006 193.378C138.16 193.587 138.414 193.711 138.686 193.711H143.884C144.19 193.711 144.471 193.554 144.613 193.302C144.756 193.05 144.736 192.745 144.563 192.51L139.145 185.187C140.623 184.492 141.809 183.533 142.677 182.302C143.745 180.823 144.262 179.077 144.262 177.1C144.262 175.175 143.785 173.471 142.798 172.018C141.812 170.566 140.393 169.465 138.58 168.707C136.792 167.95 134.716 167.585 132.374 167.585H121.682C121.227 167.585 120.858 167.928 120.858 168.352V192.945C120.858 193.368 121.227 193.711 121.682 193.711H126.508C126.963 193.711 127.332 193.368 127.332 192.945V186.544H132.374C132.589 186.544 132.786 186.542 132.962 186.536L138.006 193.378ZM136.414 174.07C137.278 174.74 137.75 175.71 137.75 177.1C137.75 178.487 137.28 179.473 136.41 180.168C135.525 180.85 134.15 181.252 132.152 181.252H127.332V172.983H132.152C134.153 172.983 135.53 173.386 136.414 174.07Z" fill="black"/>
<path d="M159.835 192.945V184.296H170.335C170.79 184.296 171.159 183.953 171.159 183.529V179.665C171.159 179.241 170.79 178.898 170.335 178.898H159.835V177.557C159.835 175.881 160.352 174.737 161.265 173.985C162.196 173.219 163.65 172.772 165.768 172.772C167.966 172.772 169.719 173.247 171.085 174.143C171.293 174.279 171.557 174.319 171.801 174.249C172.044 174.18 172.24 174.01 172.33 173.789L173.852 170.065C173.99 169.728 173.857 169.347 173.532 169.15C172.481 168.512 171.268 168.036 169.907 167.714C168.546 167.392 167.091 167.234 165.545 167.234C161.863 167.234 158.86 168.126 156.638 169.997C154.429 171.855 153.36 174.409 153.36 177.557V192.945C153.36 193.368 153.729 193.711 154.184 193.711H159.011C159.466 193.711 159.835 193.368 159.835 192.945Z" fill="black"/>
<path d="M160.886 87.109C160.802 91.6996 157.766 94.8878 154.772 96.616L148.329 100.336C145.255 102.11 141.66 102.8 138.438 102.8C135.217 102.8 131.622 102.11 128.549 100.336L122.229 96.616V109.244C122.229 113.921 119.148 117.182 116.113 118.934L109.671 122.653C106.596 124.427 103.001 125.117 99.78 125.117C96.5588 125.117 92.9639 124.427 89.8908 122.653L80.4509 117.204L71.0127 122.653C67.9378 124.427 64.343 125.117 61.1217 125.117C57.9005 125.117 54.3073 124.427 51.2324 122.653L6.13162 96.616C3.13758 94.8878 0.101458 91.6996 0.017308 87.109L0.015625 86.8252V103.362L0.017308 103.646C0.101458 108.237 3.13758 111.425 6.13162 113.153L51.2324 139.19C54.3073 140.965 57.9005 141.654 61.1217 141.654C64.343 141.654 67.9378 140.965 71.0127 139.19L80.4509 133.741L89.8908 139.19C92.9639 140.965 96.5588 141.654 99.7801 141.654C103.001 141.654 106.596 140.965 109.671 139.19L116.113 135.471C119.148 133.719 122.229 130.458 122.229 125.781V113.153L128.549 116.873C131.622 118.647 135.217 119.337 138.438 119.337C141.66 119.337 145.255 118.647 148.329 116.873L154.772 113.153C157.766 111.425 160.802 108.237 160.886 103.646L160.886 87.109Z" fill="#F4FAF4"/>
<path d="M0.0559619 71.2987C0.0292983 71.5449 0.015625 71.7949 0.015625 72.048V86.8248L0.017308 87.1086C0.101458 91.6992 3.13758 94.8874 6.13162 96.6156L51.2324 122.653C54.3073 124.427 57.9005 125.117 61.1217 125.117C64.343 125.117 67.9378 124.427 71.0127 122.653L80.4509 117.203L89.8908 122.653C92.9639 124.427 96.5588 125.117 99.78 125.117C103.001 125.117 106.596 124.427 109.671 122.653L116.113 118.933C119.148 117.181 122.229 113.921 122.229 109.244V96.6156L128.549 100.335C131.622 102.11 135.217 102.799 138.438 102.799C141.66 102.799 145.255 102.11 148.329 100.335L154.772 96.6156C157.766 94.8874 160.802 91.6992 160.886 87.1086V70.5719C160.802 75.162 157.766 78.3499 154.772 80.0781L148.329 83.7977C145.255 85.5722 141.66 86.2618 138.438 86.2618C135.217 86.2618 131.622 85.5722 128.549 83.7977L122.107 80.0781C122.003 80.0182 121.899 79.9566 121.796 79.8932C122.075 80.8058 122.233 81.7921 122.233 82.8509C122.233 83.1605 122.219 83.4639 122.193 83.7611C122.217 83.9941 122.229 84.23 122.229 84.4682V92.706C122.229 97.3834 119.148 100.644 116.113 102.396L109.671 106.115C106.596 107.89 103.001 108.579 99.7801 108.579C96.5588 108.579 92.9639 107.89 89.8908 106.115L80.4509 100.666L71.0127 106.115C67.9378 107.89 64.343 108.579 61.1217 108.579C57.9005 108.579 54.3073 107.89 51.2325 106.115L6.13162 80.0781C3.29842 78.4427 0.427536 75.5 0.0559619 71.2987Z" fill="#E7E7E7"/>
<path d="M77.3768 26.7002C77.3832 26.7671 77.3902 26.834 77.3979 26.9008C77.7215 29.6864 79.1062 31.8803 80.8291 33.5045C80.7039 33.5024 80.5793 33.5014 80.4553 33.5014C79.4484 33.5014 78.405 33.5688 77.3525 33.7156V27.2837C77.3525 27.0872 77.3607 26.8926 77.3768 26.7002Z" fill="#E7E7E7"/>
<path d="M12.5782 47.1244L6.13517 50.844C3.26468 52.5011 0.353099 55.5074 0.0460147 59.7858C0.0259032 59.9867 0.015625 60.1966 0.015625 60.416V70.2874L0.017308 70.5712C0.101458 75.1618 3.13758 78.35 6.13162 80.0782L51.2325 106.115C54.3073 107.89 57.9005 108.579 61.1217 108.579C64.343 108.579 67.9378 107.89 71.0127 106.115L80.4509 100.666L89.8908 106.115C92.9639 107.89 96.5588 108.579 99.7801 108.579C103.001 108.579 106.596 107.89 109.671 106.115L116.113 102.396C119.148 100.644 122.229 97.3836 122.229 92.7061V84.4683C122.229 84.2302 122.217 83.9943 122.193 83.7612C122.219 83.4641 122.233 83.1607 122.233 82.8511C122.233 81.7922 122.075 80.806 121.796 79.8934C121.899 79.9567 122.003 80.0184 122.107 80.0782L128.549 83.7978C131.622 85.5723 135.217 86.262 138.438 86.262C141.66 86.262 145.255 85.5723 148.329 83.7978L154.772 80.0782C157.766 78.35 160.802 75.1618 160.886 70.5712V60.8611C160.889 60.7528 160.891 60.6436 160.891 60.5336C160.891 60.4237 160.889 60.3145 160.886 60.2062L160.888 38.4867C160.89 38.3971 160.891 38.3069 160.891 38.2162C160.891 33.5388 157.81 30.2786 154.775 28.5265L109.674 2.48952C106.6 0.715078 103.006 0.0253906 99.7844 0.0253906C96.5632 0.0253906 92.9685 0.715078 89.8949 2.48952L83.4518 6.20909C80.4169 7.96116 77.336 11.2213 77.336 15.8988C77.336 16.1192 77.3428 16.3365 77.3562 16.5507C77.3537 16.6259 77.3525 16.7017 77.3525 16.7781V25.1161C77.3306 25.447 77.3272 25.7786 77.339 26.1099C77.3474 26.3739 77.3676 26.6377 77.3979 26.9009C77.7215 29.6866 79.1062 31.8804 80.8291 33.5046C80.7039 33.5026 80.5793 33.5015 80.4553 33.5015C77.2341 33.5015 73.6394 34.1912 70.5657 35.9657L64.1226 39.6852C61.0877 41.4373 58.0069 44.6975 58.0069 49.3749C58.0069 49.6791 58.0199 49.9773 58.0451 50.2695C58.0396 50.3823 58.0368 50.4958 58.0368 50.6099V58.4154L58.025 58.606L58.0132 58.8147C58.0048 59.0177 58.0031 59.2209 58.0065 59.4241C58.0132 59.8478 58.0486 60.2713 58.1108 60.6922C58.1879 61.2116 58.3017 61.7094 58.4472 62.186L32.3574 47.1244C29.2837 45.35 25.689 44.6603 22.4678 44.6603C19.2466 44.6603 15.6519 45.35 12.5782 47.1244Z" fill="#CDCDCD"/>
<path d="M106.225 8.45818C102.666 6.40391 96.897 6.40391 93.3386 8.45818L86.8956 12.1778C83.3372 14.232 83.3372 17.5626 86.8956 19.6169L131.215 45.2027C132.924 46.1891 133.884 47.5271 133.884 48.9222V49.8247C133.884 51.2199 132.924 52.5578 131.215 53.5443L125.554 56.8126C121.995 58.8669 121.995 62.1975 125.554 64.2518L131.997 67.9714C135.555 70.0256 141.325 70.0256 144.883 67.9714L151.326 64.2518C154.885 62.1975 154.885 58.8669 151.326 56.8126L145.665 53.5443C143.956 52.5578 142.996 51.2199 142.996 49.8248V48.9222C142.996 47.5271 143.956 46.1891 145.665 45.2027L151.326 41.9343C154.885 39.8801 154.885 36.5495 151.326 34.4952L106.225 8.45818Z" fill="black"/>
<path d="M28.9081 53.0931C25.3497 51.0388 19.5804 51.0388 16.022 53.0931L9.57896 56.8126C6.02056 58.8669 6.02056 62.1975 9.57896 64.2518L54.6803 90.2888C58.2387 92.3431 64.008 92.3431 67.5664 90.2888L80.4525 82.8496L28.9081 53.0931Z" fill="black"/>
<path d="M104.338 72.1422C104.338 73.5373 105.298 74.8753 107.006 75.8618L112.668 79.1301C116.226 81.1843 116.226 84.515 112.668 86.5692L106.225 90.2888C102.666 92.3431 96.897 92.3431 93.3386 90.2888L80.4525 82.8496L92.557 75.8618C94.2658 74.8753 95.2258 73.5373 95.2258 72.1422L95.2258 71.2397C95.2258 69.8446 94.2658 68.5066 92.557 67.5201L67.5664 53.0931C64.008 51.0388 64.008 47.7082 67.5664 45.6539L74.0095 41.9343C77.5679 39.8801 83.3372 39.8801 86.8956 41.9343L112.668 56.8126C116.226 58.8669 116.226 62.1975 112.668 64.2518L107.006 67.5201C105.298 68.5066 104.338 69.8446 104.338 71.2397L104.338 72.1422Z" fill="black"/>
</svg>
