<svg width="463" height="512" viewBox="0 0 463 512" fill="none" xmlns="http://www.w3.org/2000/svg">
<path d="M132.559 405.039C132.559 404.159 131.794 403.446 130.849 403.446H120.913C119.968 403.446 119.203 404.159 119.203 405.039V435.175C119.203 439.444 118.242 442.35 116.614 444.171C115.036 445.936 112.599 446.936 108.973 446.936C105.26 446.936 102.763 445.93 101.149 444.159C99.4902 442.339 98.5128 439.438 98.5128 435.175V420.959C98.5128 420.08 97.7473 419.367 96.803 419.367H86.7893C85.845 419.367 85.0795 420.08 85.0795 420.959V435.175C85.0795 439.44 84.1076 442.343 82.4589 444.163C80.8572 445.932 78.3799 446.936 74.696 446.936C71.1465 446.936 68.6904 445.976 67.0429 444.264C65.4411 442.546 64.4665 439.631 64.4665 435.175V405.039C64.4665 404.159 63.701 403.446 62.7566 403.446H52.743C51.7987 403.446 51.0332 404.159 51.0332 405.039V435.466C51.0332 442.681 53.0068 448.441 57.2157 452.482C61.4239 456.522 67.3386 458.438 74.696 458.438C78.674 458.438 82.2439 457.853 85.3688 456.637L85.3829 456.631C87.8671 455.64 90.0088 454.356 91.7817 452.768C93.5245 454.358 95.6515 455.642 98.1324 456.631L98.166 456.644C101.381 457.852 104.993 458.438 108.973 458.438C116.323 458.438 122.216 456.551 126.377 452.555C130.587 448.512 132.559 442.726 132.559 435.466V405.039Z" fill="#494E62"/>
<path d="M206.152 405.039C206.152 404.159 205.386 403.446 204.442 403.446H194.429C193.484 403.446 192.719 404.159 192.719 405.039V424.534H168.254V405.039C168.254 404.159 167.489 403.446 166.544 403.446H156.531C155.587 403.446 154.821 404.159 154.821 405.039V456.117C154.821 456.996 155.587 457.709 156.531 457.709H166.544C167.489 457.709 168.254 456.996 168.254 456.117V435.818H192.719V456.117C192.719 456.996 193.484 457.709 194.429 457.709H204.442C205.386 457.709 206.152 456.996 206.152 456.117V405.039Z" fill="#494E62"/>
<path fill-rule="evenodd" clip-rule="evenodd" d="M277.894 457.709C278.838 457.709 279.603 456.996 279.603 456.117V427.805C279.603 422.606 278.566 418.082 276.406 414.299C274.305 410.481 271.293 407.565 267.38 405.607C263.495 403.661 258.996 402.717 253.938 402.717C248.88 402.717 244.381 403.661 240.496 405.607C236.584 407.565 233.548 410.479 231.396 414.295L231.392 414.302C229.285 418.084 228.272 422.606 228.272 427.805V456.117C228.272 456.996 229.038 457.709 229.982 457.709H239.842C240.786 457.709 241.552 456.996 241.552 456.117V444.574H266.17V456.117C266.17 456.996 266.936 457.709 267.88 457.709H277.894ZM262.939 417.368L262.951 417.38C264.999 419.361 266.17 422.446 266.17 426.929V433.437H241.552V426.929C241.552 422.446 242.723 419.361 244.771 417.38L244.783 417.368C246.853 415.326 249.8 414.219 253.861 414.219C257.922 414.219 260.869 415.326 262.939 417.368Z" fill="#494E62"/>
<path fill-rule="evenodd" clip-rule="evenodd" d="M337.324 457.017C337.643 457.45 338.17 457.709 338.734 457.709H349.518C350.153 457.709 350.736 457.381 351.031 456.857C351.327 456.334 351.287 455.701 350.927 455.214L339.687 440.004C342.753 438.561 345.213 436.568 347.014 434.012C349.23 430.94 350.304 427.315 350.304 423.208C350.304 419.211 349.314 415.67 347.266 412.652C345.22 409.637 342.277 407.35 338.514 405.777C334.806 404.205 330.499 403.446 325.639 403.446H303.455C302.511 403.446 301.746 404.159 301.746 405.039V456.117C301.746 456.996 302.511 457.709 303.455 457.709H313.469C314.413 457.709 315.179 456.996 315.179 456.117V442.823H325.639C326.085 442.823 326.494 442.818 326.859 442.806L337.324 457.017ZM334.02 416.916C335.814 418.306 336.793 420.322 336.793 423.208C336.793 426.088 335.817 428.137 334.011 429.579C332.177 430.997 329.323 431.831 325.177 431.831H315.179V414.657H325.177C329.33 414.657 332.186 415.494 334.02 416.916Z" fill="#494E62"/>
<path d="M382.613 456.117V438.153H404.396C405.341 438.153 406.106 437.44 406.106 436.561V428.534C406.106 427.655 405.341 426.942 404.396 426.942H382.613V424.156C382.613 420.676 383.684 418.299 385.579 416.738C387.511 415.147 390.527 414.219 394.922 414.219C399.481 414.219 403.12 415.205 405.952 417.066C406.384 417.349 406.932 417.431 407.438 417.287C407.943 417.144 408.349 416.791 408.536 416.331L411.695 408.596C411.98 407.896 411.704 407.106 411.03 406.697C408.848 405.372 406.333 404.384 403.508 403.715C400.685 403.046 397.666 402.717 394.46 402.717C386.82 402.717 380.589 404.569 375.981 408.456C371.397 412.315 369.179 417.619 369.179 424.156V456.117C369.179 456.996 369.945 457.709 370.889 457.709H380.903C381.847 457.709 382.613 456.996 382.613 456.117Z" fill="#494E62"/>
<path d="M384.793 236.303C384.619 245.838 378.32 252.459 372.108 256.049L358.742 263.774C352.362 267.46 344.904 268.892 338.221 268.892C331.537 268.892 324.079 267.46 317.703 263.774L304.592 256.049V282.276C304.592 291.991 298.198 298.762 291.903 302.4L278.537 310.126C272.157 313.811 264.699 315.244 258.016 315.244C251.333 315.244 243.874 313.811 237.498 310.126L217.913 298.808L198.332 310.126C191.952 313.811 184.494 315.244 177.811 315.244C171.128 315.244 163.673 313.811 157.293 310.126L63.7221 256.049C57.5104 252.459 51.2113 245.838 51.0367 236.303L51.0332 235.714V270.06L51.0367 270.649C51.2113 280.184 57.5104 286.805 63.7221 290.395L157.293 344.472C163.673 348.157 171.128 349.59 177.811 349.59C184.494 349.59 191.952 348.157 198.332 344.472L217.913 333.154L237.498 344.472C243.874 348.157 251.333 349.59 258.016 349.59C264.699 349.59 272.157 348.157 278.537 344.472L291.903 336.747C298.198 333.108 304.592 326.337 304.592 316.622V290.395L317.703 298.12C324.079 301.806 331.537 303.238 338.221 303.238C344.904 303.238 352.362 301.806 358.742 298.12L372.108 290.395C378.32 286.805 384.619 280.184 384.793 270.649L384.793 236.303Z" fill="#F4FAF4"/>
<path d="M51.1169 203.468C51.0616 203.979 51.0332 204.498 51.0332 205.024V235.714L51.0367 236.304C51.2113 245.838 57.5104 252.459 63.7221 256.049L157.293 310.126C163.673 313.811 171.128 315.244 177.811 315.244C184.494 315.244 191.952 313.811 198.332 310.126L217.913 298.808L237.498 310.126C243.874 313.811 251.333 315.244 258.016 315.244C264.699 315.244 272.157 313.811 278.537 310.126L291.903 302.401C298.198 298.762 304.592 291.991 304.592 282.276V256.049L317.703 263.774C324.079 267.46 331.537 268.892 338.221 268.892C344.904 268.892 352.362 267.46 358.742 263.774L372.108 256.049C378.32 252.459 384.619 245.838 384.793 236.304V201.958C384.618 211.491 378.319 218.112 372.108 221.702L358.742 229.427C352.362 233.112 344.904 234.545 338.221 234.545C331.537 234.545 324.079 233.112 317.703 229.427L304.337 221.702C304.122 221.577 303.907 221.449 303.691 221.318C304.271 223.213 304.599 225.261 304.599 227.461C304.599 228.104 304.571 228.734 304.517 229.351C304.566 229.835 304.592 230.325 304.592 230.819V247.929C304.592 257.644 298.198 264.415 291.903 268.053L278.537 275.779C272.157 279.464 264.699 280.897 258.016 280.897C251.333 280.897 243.874 279.464 237.498 275.779L217.913 264.461L198.332 275.779C191.952 279.464 184.494 280.897 177.811 280.897C171.128 280.897 163.673 279.464 157.293 275.779L63.7221 221.702C57.844 218.305 51.8878 212.193 51.1169 203.468Z" fill="#B2F2E1"/>
<path d="M211.535 110.84C211.549 110.979 211.563 111.118 211.579 111.256C212.251 117.042 215.123 121.598 218.698 124.972C218.438 124.968 218.18 124.965 217.922 124.965C215.833 124.965 213.669 125.105 211.485 125.41V112.052C211.485 111.644 211.502 111.239 211.535 110.84Z" fill="#B2F2E1"/>
<path d="M77.097 153.259L63.7295 160.984C57.7741 164.426 51.7334 170.67 51.0963 179.556C51.0545 179.973 51.0332 180.409 51.0332 180.865V201.367L51.0367 201.956C51.2113 211.49 57.5104 218.112 63.7221 221.702L157.293 275.779C163.673 279.464 171.128 280.897 177.811 280.897C184.494 280.897 191.952 279.464 198.332 275.779L217.913 264.46L237.498 275.779C243.874 279.464 251.333 280.897 258.016 280.897C264.699 280.897 272.157 279.464 278.537 275.779L291.903 268.053C298.199 264.415 304.592 257.643 304.592 247.929V230.819C304.592 230.325 304.566 229.835 304.517 229.351C304.571 228.734 304.599 228.104 304.599 227.461C304.599 225.261 304.271 223.213 303.691 221.318C303.907 221.449 304.122 221.577 304.337 221.702L317.703 229.427C324.079 233.112 331.537 234.545 338.221 234.545C344.904 234.545 352.362 233.112 358.742 229.427L372.108 221.702C378.32 218.112 384.619 211.49 384.793 201.956V181.789C384.8 181.564 384.804 181.337 384.804 181.109C384.804 180.881 384.8 180.654 384.793 180.429L384.797 135.319C384.801 135.133 384.804 134.946 384.804 134.757C384.804 125.043 378.412 118.272 372.115 114.633L278.543 60.5558C272.166 56.8704 264.708 55.438 258.025 55.438C251.342 55.438 243.884 56.8704 237.507 60.5558L224.139 68.2811C217.843 71.92 211.451 78.6911 211.451 88.4058C211.451 88.8637 211.465 89.315 211.493 89.7598C211.488 89.9159 211.485 90.0733 211.485 90.2322V107.549C211.44 108.237 211.433 108.925 211.457 109.614C211.475 110.162 211.516 110.71 211.579 111.256C212.251 117.042 215.123 121.598 218.698 124.972C218.438 124.968 218.18 124.965 217.922 124.965C211.239 124.965 203.781 126.398 197.404 130.083L184.037 137.808C177.74 141.447 171.348 148.219 171.348 157.933C171.348 158.565 171.375 159.184 171.428 159.791C171.416 160.025 171.41 160.261 171.41 160.498V176.709L171.386 177.105L171.362 177.539C171.344 177.96 171.341 178.383 171.348 178.805C171.362 179.685 171.435 180.564 171.564 181.438C171.724 182.517 171.96 183.551 172.262 184.541L118.133 153.259C111.756 149.574 104.298 148.141 97.6151 148.141C90.9319 148.141 83.474 149.574 77.097 153.259Z" fill="#7BE7CE"/>
<path d="M271.385 72.9524C264.002 68.6858 252.033 68.6858 244.65 72.9524L231.283 80.6776C223.9 84.9442 223.9 91.8616 231.283 96.1282L323.233 149.268C326.779 151.317 328.77 154.096 328.77 156.993V158.868C328.77 161.765 326.779 164.544 323.233 166.593L311.488 173.381C304.105 177.647 304.105 184.565 311.488 188.831L324.855 196.557C332.238 200.823 344.207 200.823 351.59 196.557L364.958 188.831C372.34 184.565 372.34 177.647 364.958 173.381L353.212 166.593C349.667 164.544 347.675 161.765 347.675 158.868V156.993C347.675 154.096 349.667 151.317 353.212 149.268L364.958 142.48C372.34 138.213 372.34 131.296 364.958 127.029L271.385 72.9524Z" fill="#494E62"/>
<path d="M110.975 165.656C103.593 161.389 91.6231 161.389 84.2404 165.656L70.8729 173.381C63.4903 177.647 63.4903 184.565 70.8729 188.831L164.445 242.908C171.828 247.175 183.798 247.175 191.18 242.908L217.915 227.458L110.975 165.656Z" fill="#494E62"/>
<path d="M267.47 205.219C267.47 208.117 269.462 210.896 273.007 212.944L284.753 219.732C292.135 223.999 292.135 230.916 284.753 235.183L271.385 242.908C264.003 247.175 252.033 247.175 244.65 242.908L217.915 227.458L243.028 212.944C246.574 210.896 248.565 208.117 248.565 205.219L248.565 203.345C248.565 200.447 246.574 197.668 243.028 195.619L191.18 165.656C183.798 161.389 183.798 154.472 191.18 150.205L204.548 142.48C211.93 138.213 223.9 138.213 231.283 142.48L284.753 173.381C292.135 177.647 292.135 184.565 284.753 188.831L273.007 195.619C269.462 197.668 267.47 200.447 267.47 203.345L267.47 205.219Z" fill="#494E62"/>
</svg>
