<svg width="175" height="195" viewBox="0 0 175 195" fill="none" xmlns="http://www.w3.org/2000/svg">
<path d="M39.8107 169.019C39.8107 168.595 39.4417 168.252 38.9865 168.252H34.1971C33.742 168.252 33.373 168.595 33.373 169.019V183.529C33.373 185.584 32.9099 186.983 32.1251 187.86C31.3644 188.71 30.1899 189.191 28.4425 189.191C26.6528 189.191 25.4489 188.707 24.6713 187.855C23.8716 186.978 23.4005 185.582 23.4005 183.529V176.684C23.4005 176.261 23.0315 175.918 22.5764 175.918H17.7499C17.2947 175.918 16.9258 176.261 16.9258 176.684V183.529C16.9258 185.582 16.4573 186.98 15.6626 187.857C14.8906 188.708 13.6966 189.191 11.9209 189.191C10.2101 189.191 9.02628 188.729 8.2322 187.905C7.46015 187.078 6.99039 185.674 6.99039 183.529V169.019C6.99039 168.595 6.62141 168.252 6.16626 168.252H1.33975C0.884599 168.252 0.515625 168.595 0.515625 169.019V183.669C0.515625 187.143 1.46689 189.916 3.49554 191.862C5.52387 193.807 8.37472 194.73 11.9209 194.73C13.8383 194.73 15.559 194.448 17.0652 193.862L17.072 193.86C18.2694 193.383 19.3017 192.764 20.1562 191.999C20.9962 192.765 22.0214 193.383 23.2172 193.86L23.2334 193.866C24.7831 194.448 26.5242 194.73 28.4425 194.73C31.9849 194.73 34.8252 193.821 36.8308 191.897C38.8604 189.95 39.8107 187.165 39.8107 183.669V169.019Z" fill="white"/>
<path d="M75.282 169.019C75.282 168.595 74.9131 168.252 74.4579 168.252H69.6314C69.1762 168.252 68.8073 168.595 68.8073 169.019V178.406H57.0155V169.019C57.0155 168.595 56.6466 168.252 56.1914 168.252H51.3649C50.9098 168.252 50.5408 168.595 50.5408 169.019V193.612C50.5408 194.035 50.9098 194.378 51.3649 194.378H56.1914C56.6466 194.378 57.0155 194.035 57.0155 193.612V183.838H68.8073V193.612C68.8073 194.035 69.1762 194.378 69.6314 194.378H74.4579C74.9131 194.378 75.282 194.035 75.282 193.612V169.019Z" fill="white"/>
<path fill-rule="evenodd" clip-rule="evenodd" d="M109.861 194.378C110.316 194.378 110.685 194.035 110.685 193.612V179.98C110.685 177.477 110.185 175.299 109.144 173.477C108.131 171.639 106.679 170.235 104.794 169.292C102.921 168.356 100.753 167.901 98.3146 167.901C95.8766 167.901 93.7082 168.356 91.8354 169.292C89.9499 170.235 88.4865 171.638 87.4493 173.476L87.4474 173.479C86.4318 175.3 85.944 177.477 85.944 179.98V193.612C85.944 194.035 86.313 194.378 86.7681 194.378H91.5204C91.9755 194.378 92.3445 194.035 92.3445 193.612V188.054H104.21V193.612C104.21 194.035 104.579 194.378 105.035 194.378H109.861ZM102.653 174.955L102.659 174.961C103.646 175.915 104.21 177.4 104.21 179.559V182.692H92.3445V179.559C92.3445 177.4 92.9089 175.915 93.8962 174.961L93.9019 174.955C94.8997 173.972 96.3199 173.439 98.2775 173.439C100.235 173.439 101.655 173.972 102.653 174.955Z" fill="white"/>
<path fill-rule="evenodd" clip-rule="evenodd" d="M138.506 194.045C138.66 194.254 138.914 194.378 139.186 194.378H144.384C144.69 194.378 144.971 194.221 145.113 193.969C145.256 193.717 145.236 193.412 145.063 193.177L139.645 185.854C141.123 185.159 142.309 184.2 143.177 182.969C144.245 181.49 144.762 179.744 144.762 177.767C144.762 175.842 144.285 174.138 143.298 172.685C142.312 171.233 140.893 170.132 139.08 169.374C137.292 168.617 135.216 168.252 132.874 168.252H122.182C121.727 168.252 121.358 168.595 121.358 169.019V193.612C121.358 194.035 121.727 194.378 122.182 194.378H127.008C127.463 194.378 127.832 194.035 127.832 193.612V187.211H132.874C133.089 187.211 133.286 187.209 133.462 187.203L138.506 194.045ZM136.914 174.737C137.778 175.407 138.25 176.377 138.25 177.767C138.25 179.154 137.78 180.14 136.91 180.835C136.025 181.517 134.65 181.919 132.652 181.919H127.832V173.65H132.652C134.653 173.65 136.03 174.053 136.914 174.737Z" fill="white"/>
<path d="M160.335 193.612V184.963H170.835C171.29 184.963 171.659 184.62 171.659 184.196V180.332C171.659 179.908 171.29 179.565 170.835 179.565H160.335V178.224C160.335 176.548 160.852 175.404 161.765 174.652C162.696 173.886 164.15 173.439 166.268 173.439C168.466 173.439 170.219 173.914 171.585 174.81C171.793 174.946 172.057 174.986 172.301 174.916C172.544 174.847 172.74 174.677 172.83 174.456L174.352 170.732C174.49 170.395 174.357 170.014 174.032 169.817C172.981 169.179 171.768 168.703 170.407 168.381C169.046 168.059 167.591 167.901 166.045 167.901C162.363 167.901 159.36 168.793 157.138 170.664C154.929 172.522 153.86 175.076 153.86 178.224V193.612C153.86 194.035 154.229 194.378 154.684 194.378H159.511C159.966 194.378 160.335 194.035 160.335 193.612Z" fill="white"/>
<path d="M161.386 87.776C161.302 92.3666 158.266 95.5548 155.272 97.283L148.829 101.003C145.755 102.777 142.16 103.467 138.938 103.467C135.717 103.467 132.122 102.777 129.049 101.003L122.729 97.283V109.911C122.729 114.588 119.648 117.849 116.613 119.601L110.171 123.32C107.096 125.094 103.501 125.784 100.28 125.784C97.0588 125.784 93.4639 125.094 90.3908 123.32L80.9509 117.871L71.5127 123.32C68.4378 125.094 64.843 125.784 61.6217 125.784C58.4005 125.784 54.8073 125.094 51.7324 123.32L6.63162 97.283C3.63758 95.5548 0.601458 92.3666 0.517308 87.776L0.515625 87.4922V104.029L0.517308 104.313C0.601458 108.904 3.63758 112.092 6.63162 113.82L51.7324 139.857C54.8073 141.632 58.4005 142.321 61.6217 142.321C64.843 142.321 68.4378 141.632 71.5127 139.857L80.9509 134.408L90.3908 139.857C93.4639 141.632 97.0588 142.321 100.28 142.321C103.501 142.321 107.096 141.632 110.171 139.857L116.613 136.138C119.648 134.386 122.729 131.125 122.729 126.448V113.82L129.049 117.54C132.122 119.314 135.717 120.004 138.938 120.004C142.16 120.004 145.755 119.314 148.829 117.54L155.272 113.82C158.266 112.092 161.302 108.904 161.386 104.313L161.386 87.776Z" fill="#CDCDCD"/>
<path d="M0.555962 71.9657C0.529298 72.2119 0.515625 72.4619 0.515625 72.7149V87.4918L0.517308 87.7756C0.601458 92.3662 3.63758 95.5544 6.63162 97.2826L51.7324 123.32C54.8073 125.094 58.4005 125.784 61.6217 125.784C64.843 125.784 68.4378 125.094 71.5127 123.32L80.9509 117.87L90.3908 123.32C93.4639 125.094 97.0588 125.784 100.28 125.784C103.501 125.784 107.096 125.094 110.171 123.32L116.613 119.6C119.648 117.848 122.729 114.588 122.729 109.911V97.2826L129.049 101.002C132.122 102.777 135.717 103.466 138.938 103.466C142.16 103.466 145.755 102.777 148.829 101.002L155.272 97.2826C158.266 95.5544 161.302 92.3662 161.386 87.7756V71.2389C161.302 75.829 158.266 79.0169 155.272 80.7451L148.829 84.4647C145.755 86.2392 142.16 86.9288 138.938 86.9288C135.717 86.9288 132.122 86.2392 129.049 84.4647L122.607 80.7451C122.503 80.6852 122.399 80.6236 122.296 80.5602C122.575 81.4728 122.733 82.459 122.733 83.5179C122.733 83.8275 122.719 84.1309 122.693 84.4281C122.717 84.6611 122.729 84.897 122.729 85.1352V93.373C122.729 98.0504 119.648 101.311 116.613 103.063L110.171 106.782C107.096 108.557 103.501 109.246 100.28 109.246C97.0588 109.246 93.4639 108.557 90.3908 106.782L80.9509 101.333L71.5127 106.782C68.4378 108.557 64.843 109.246 61.6217 109.246C58.4005 109.246 54.8073 108.557 51.7325 106.782L6.63162 80.7451C3.79842 79.1097 0.927536 76.167 0.555962 71.9657Z" fill="#E7E7E7"/>
<path d="M77.8768 27.3672C77.8832 27.4341 77.8902 27.5009 77.8979 27.5678C78.2215 30.3534 79.6062 32.5472 81.3291 34.1715C81.2039 34.1694 81.0793 34.1684 80.9553 34.1684C79.9484 34.1684 78.905 34.2358 77.8525 34.3826V27.9507C77.8525 27.7542 77.8607 27.5596 77.8768 27.3672Z" fill="#E7E7E7"/>
<path d="M13.0782 47.7914L6.63517 51.511C3.76468 53.1681 0.853099 56.1743 0.546015 60.4528C0.525903 60.6537 0.515625 60.8636 0.515625 61.083V70.9544L0.517308 71.2382C0.601458 75.8288 3.63758 79.017 6.63162 80.7452L51.7325 106.782C54.8073 108.557 58.4005 109.246 61.6217 109.246C64.843 109.246 68.4378 108.557 71.5127 106.782L80.9509 101.333L90.3908 106.782C93.4639 108.557 97.0588 109.246 100.28 109.246C103.501 109.246 107.096 108.557 110.171 106.782L116.613 103.063C119.648 101.311 122.729 98.0506 122.729 93.3731V85.1353C122.729 84.8972 122.717 84.6613 122.693 84.4282C122.719 84.1311 122.733 83.8277 122.733 83.5181C122.733 82.4592 122.575 81.4729 122.296 80.5604C122.399 80.6237 122.503 80.6853 122.607 80.7452L129.049 84.4648C132.122 86.2393 135.717 86.9289 138.938 86.9289C142.16 86.9289 145.755 86.2393 148.829 84.4648L155.272 80.7452C158.266 79.017 161.302 75.8288 161.386 71.2382V61.5281C161.389 61.4197 161.391 61.3106 161.391 61.2006C161.391 61.0907 161.389 60.9815 161.386 60.8732L161.388 39.1537C161.39 39.064 161.391 38.9739 161.391 38.8832C161.391 34.2058 158.31 30.9456 155.275 29.1935L110.174 3.15651C107.1 1.38207 103.506 0.692383 100.284 0.692383C97.0632 0.692383 93.4685 1.38207 90.3949 3.15651L83.9518 6.87608C80.9169 8.62815 77.836 11.8883 77.836 16.5658C77.836 16.7862 77.8428 17.0035 77.8562 17.2177C77.8537 17.2929 77.8525 17.3687 77.8525 17.4451V25.7831C77.8306 26.114 77.8272 26.4456 77.839 26.7769C77.8474 27.0409 77.8676 27.3047 77.8979 27.5679C78.2215 30.3536 79.6062 32.5474 81.3291 34.1716C81.2039 34.1696 81.0793 34.1685 80.9553 34.1685C77.7341 34.1685 74.1394 34.8582 71.0657 36.6327L64.6226 40.3522C61.5877 42.1043 58.5069 45.3645 58.5069 50.0419C58.5069 50.3461 58.5199 50.6443 58.5451 50.9365C58.5396 51.0493 58.5368 51.1628 58.5368 51.2769V59.0824L58.525 59.273L58.5132 59.4817C58.5048 59.6847 58.5031 59.8879 58.5065 60.0911C58.5132 60.5148 58.5486 60.9383 58.6108 61.3592C58.6879 61.8786 58.8017 62.3764 58.9472 62.853L32.8574 47.7914C29.7837 46.0169 26.189 45.3273 22.9678 45.3273C19.7466 45.3273 16.1519 46.0169 13.0782 47.7914Z" fill="#F9F9F9"/>
<path d="M106.725 9.12517C103.166 7.07091 97.397 7.07091 93.8386 9.12517L87.3956 12.8447C83.8372 14.899 83.8372 18.2296 87.3956 20.2839L131.715 45.8696C133.424 46.8561 134.384 48.1941 134.384 49.5892V50.4917C134.384 51.8868 133.424 53.2248 131.715 54.2113L126.054 57.4796C122.495 59.5339 122.495 62.8645 126.054 64.9188L132.497 68.6383C136.055 70.6926 141.825 70.6926 145.383 68.6383L151.826 64.9188C155.385 62.8645 155.385 59.5339 151.826 57.4796L146.165 54.2113C144.456 53.2248 143.496 51.8869 143.496 50.4917V49.5892C143.496 48.1941 144.456 46.8561 146.165 45.8696L151.826 42.6013C155.385 40.5471 155.385 37.2165 151.826 35.1622L106.725 9.12517Z" fill="black"/>
<path d="M29.4081 53.76C25.8497 51.7058 20.0804 51.7058 16.522 53.76L10.079 57.4796C6.52056 59.5339 6.52056 62.8645 10.079 64.9188L55.1803 90.9558C58.7387 93.01 64.508 93.01 68.0664 90.9558L80.9525 83.5166L29.4081 53.76Z" fill="black"/>
<path d="M104.838 72.8092C104.838 74.2043 105.798 75.5423 107.506 76.5288L113.168 79.7971C116.726 81.8513 116.726 85.1819 113.168 87.2362L106.725 90.9558C103.166 93.01 97.397 93.01 93.8386 90.9558L80.9525 83.5166L93.057 76.5288C94.7658 75.5423 95.7258 74.2043 95.7258 72.8092L95.7258 71.9067C95.7258 70.5115 94.7658 69.1736 93.057 68.1871L68.0664 53.76C64.508 51.7058 64.508 48.3752 68.0664 46.3209L74.5095 42.6013C78.0679 40.5471 83.8372 40.5471 87.3956 42.6013L113.168 57.4796C116.726 59.5339 116.726 62.8645 113.168 64.9188L107.506 68.1871C105.798 69.1736 104.838 70.5116 104.838 71.9067L104.838 72.8092Z" fill="black"/>
</svg>
