<svg width="233" height="231" fill="none" xmlns="http://www.w3.org/2000/svg"><path d="M.523 107.738v45.633a24.852 24.852 0 0 0 12.514 21.572l91.328 52.229a24.853 24.853 0 0 0 24.674 0l91.328-52.229a24.852 24.852 0 0 0 12.514-21.572v-45.633l-103.842 59.386a24.853 24.853 0 0 1-24.674 0L.523 107.738Z" fill="#7BE7CE"/><path d="M.523 108.4a9.942 9.942 0 0 0 5.003 8.628l98.832 56.563a24.85 24.85 0 0 0 24.688 0l98.832-56.563a9.942 9.942 0 0 0 5.003-8.628V77.12a24.85 24.85 0 0 0-12.507-21.568l-91.328-52.27a24.85 24.85 0 0 0-24.688 0L13.03 55.553A24.851 24.851 0 0 0 .523 77.12v31.28Z" fill="#B2F2E1"/><path d="m129.11 203.951-.016-3.213.398-.229 4.677-8.437 2.736-1.579-5.335 9.61-.359.207-2.101 3.641Zm-2.102 5.811v-18.074l2.285-1.319v18.074l-2.285 1.319Zm7.413-4.28-4.203-4.015 1.574-2.754 5.434 5.149-2.805 1.62ZM138.988 202.845V189.29l2.285-1.319v13.555l-2.285 1.319Zm1.154-16.312c-.398.229-.739.273-1.024.132-.281-.15-.421-.44-.421-.869 0-.436.14-.887.421-1.355.285-.477.626-.83 1.024-1.059.397-.229.736-.269 1.016-.119.285.141.428.429.428.865 0 .429-.143.882-.428 1.359-.28.467-.619.816-1.016 1.046ZM149.827 183.032v2.118l-6.412 3.702v-2.118l6.412-3.702Zm-4.693-.538 2.285-1.319v12.822c0 .512.067.859.199 1.042a.524.524 0 0 0 .512.225 2.12 2.12 0 0 0 .696-.269c.183-.106.344-.214.481-.323.138-.108.245-.194.321-.256l.413 1.942a7.292 7.292 0 0 1-.566.503c-.244.206-.55.418-.917.635-.601.359-1.162.559-1.681.601-.52.041-.94-.117-1.261-.473-.321-.356-.482-.942-.482-1.76v-13.37ZM128.515 155.564l-2.507 1.447 5.632-21.325 2.729-1.576 5.632 14.822-2.506 1.447-4.425-12.236-.123.071-4.432 17.35Zm.42-7.321 8.132-4.694v2.294l-8.132 4.695v-2.295ZM146.834 145.261c-1.136.656-2.114.923-2.935.803-.815-.13-1.442-.595-1.88-1.395-.438-.8-.657-1.879-.657-3.238 0-1.377.224-2.721.672-4.033a12.435 12.435 0 0 1 1.896-3.575 9.748 9.748 0 0 1 2.881-2.554c.892-.515 1.687-.783 2.385-.803.698-.027 1.261.178 1.689.613.433.432.69 1.081.771 1.946l-2.224 1.284c-.122-.565-.402-.95-.84-1.156-.433-.209-1.014-.103-1.743.317-.637.368-1.195.884-1.673 1.549a7.734 7.734 0 0 0-1.109 2.281 9.231 9.231 0 0 0-.397 2.736c0 .989.13 1.767.39 2.334.26.568.626.912 1.1 1.033.479.118 1.042-.01 1.689-.384.433-.25.826-.568 1.177-.953.357-.394.655-.834.894-1.319a5.619 5.619 0 0 0 .512-1.549l2.224-1.284a8.65 8.65 0 0 1-.741 2.775 10.282 10.282 0 0 1-1.658 2.582 9.462 9.462 0 0 1-2.423 1.99ZM159.045 138.211c-1.136.656-2.114.923-2.935.803-.815-.13-1.442-.595-1.88-1.395-.438-.8-.657-1.879-.657-3.238 0-1.377.224-2.722.672-4.033a12.435 12.435 0 0 1 1.896-3.575 9.748 9.748 0 0 1 2.881-2.554c.892-.515 1.687-.783 2.385-.803.698-.027 1.261.177 1.689.613.433.432.69 1.081.771 1.946l-2.224 1.284c-.122-.565-.402-.95-.84-1.156-.433-.209-1.014-.103-1.743.317-.637.368-1.195.884-1.673 1.549a7.734 7.734 0 0 0-1.109 2.281 9.231 9.231 0 0 0-.397 2.736c0 .989.13 1.767.39 2.334.26.568.626.912 1.1 1.033.479.118 1.042-.01 1.689-.384.433-.25.826-.568 1.177-.953.357-.394.655-.834.894-1.319a5.619 5.619 0 0 0 .512-1.549l2.224-1.284a8.65 8.65 0 0 1-.741 2.775 10.282 10.282 0 0 1-1.658 2.582 9.462 9.462 0 0 1-2.423 1.99ZM171.256 131.161c-1.101.635-2.061.898-2.881.789-.821-.108-1.457-.556-1.911-1.341-.453-.785-.68-1.878-.68-3.279 0-1.406.227-2.766.68-4.081.454-1.315 1.09-2.5 1.911-3.556a9.888 9.888 0 0 1 2.881-2.538c1.101-.635 2.061-.898 2.881-.79.821.109 1.457.559 1.911 1.351.453.791.68 1.89.68 3.296 0 1.4-.227 2.755-.68 4.064a12.294 12.294 0 0 1-1.911 3.547 9.902 9.902 0 0 1-2.881 2.538Zm.008-2.22a5.278 5.278 0 0 0 1.773-1.677 7.771 7.771 0 0 0 1.039-2.338c.229-.856.344-1.72.344-2.59 0-.865-.115-1.593-.344-2.185-.224-.6-.571-.985-1.039-1.156-.469-.17-1.06-.05-1.773.362a5.313 5.313 0 0 0-1.789 1.695 7.97 7.97 0 0 0-1.047 2.36 10.107 10.107 0 0 0-.336 2.577c0 .871.112 1.603.336 2.198.229.591.578.969 1.047 1.134.474.161 1.07.035 1.789-.38ZM186.715 116.34v-7.933l2.293-1.324v13.555l-2.247 1.297v-2.347l-.122.07a8.761 8.761 0 0 1-1.3 2.56 7.043 7.043 0 0 1-2.208 1.99c-.754.435-1.422.629-2.003.582-.575-.056-1.029-.368-1.36-.935-.326-.571-.489-1.415-.489-2.533V112.7l2.285-1.319v8.304c0 .923.222 1.531.665 1.822.443.291 1.019.233 1.727-.176.428-.247.854-.617 1.276-1.108a6.48 6.48 0 0 0 1.063-1.734 5.307 5.307 0 0 0 .42-2.149ZM194.363 109.497v8.049l-2.285 1.319V105.31l2.194-1.266v2.206l.145-.084a8.036 8.036 0 0 1 1.269-2.462 7.235 7.235 0 0 1 2.193-1.92c.8-.461 1.501-.672 2.102-.63.601.035 1.067.336 1.398.904.332.568.497 1.411.497 2.528v8.622l-2.285 1.32v-8.305c0-.982-.222-1.622-.665-1.919-.443-.303-1.052-.231-1.826.216a5.156 5.156 0 0 0-1.414 1.214 5.954 5.954 0 0 0-1.323 3.763ZM210.421 94.72v2.118l-6.413 3.702v-2.118l6.413-3.702Zm-4.693-.538 2.285-1.32v12.823c0 .512.066.859.199 1.041a.52.52 0 0 0 .512.225c.214-.035.446-.125.695-.269a3.99 3.99 0 0 0 .482-.322l.321-.256.413 1.942a7.292 7.292 0 0 1-.566.503 6.84 6.84 0 0 1-.917.635c-.601.359-1.162.559-1.681.6-.52.041-.94-.116-1.261-.472-.321-.356-.482-.943-.482-1.76v-13.37Z" fill="#494E62"/><path d="M21.396 76.394c-5.349-3.088-5.349-8.095 0-11.182l86.059-49.682c5.349-3.088 14.021-3.088 19.37 0l86.059 49.682c5.349 3.087 5.349 8.094 0 11.182l-86.059 49.682c-5.349 3.088-14.021 3.088-19.37 0l-86.06-49.682Z" fill="#7BE7CE"/><g clip-path="url(#a)"><path fill-rule="evenodd" clip-rule="evenodd" d="M88.563 59.218c-4.253 2.456-4.253 6.436 0 8.892 4.252 2.455 11.147 2.455 15.4 0 4.253-2.456 4.253-6.436 0-8.892-4.253-2.455-11.148-2.455-15.4 0Zm-5.134 11.856c-7.088-4.093-7.088-10.727 0-14.82 7.088-4.092 18.58-4.092 25.668 0 7.088 4.093 7.088 10.727 0 14.82-7.088 4.092-18.58 4.092-25.668 0Zm17.745-22.45c-1.022-.996-.452-2.282 1.273-2.872 3.467-1.185 7.52-1.671 11.518-1.38 3.999.29 7.716 1.342 10.565 2.987 2.85 1.645 4.67 3.791 5.174 6.1.504 2.308-.338 4.648-2.392 6.65-1.021.995-3.248 1.325-4.973.735-1.725-.59-2.295-1.876-1.273-2.872 1.232-1.2 1.737-2.604 1.435-3.99-.302-1.385-1.395-2.672-3.104-3.66-1.71-.986-3.94-1.617-6.339-1.792-2.399-.174-4.831.117-6.911.829-1.725.59-3.952.26-4.973-.735Zm-2.527 38.75c0-2.778 1.912-5.444 5.316-7.409l20.534-11.855c3.404-1.965 8.02-3.07 12.834-3.07s9.43 1.105 12.834 3.07l5.133 2.964c1.418.818 1.418 2.145 0 2.964-1.417.818-3.716.818-5.133 0l-5.134-2.964c-2.042-1.18-4.812-1.842-7.7-1.842s-5.658.663-7.7 1.842l-20.534 11.855c-2.043 1.18-3.19 2.778-3.19 4.446 0 1.667 1.147 3.266 3.19 4.446l5.133 2.963c1.418.819 1.418 2.146 0 2.964-1.417.819-3.716.819-5.133 0l-5.134-2.964c-3.404-1.965-5.316-4.63-5.316-7.41Zm43.591-26.899c-1.018-.997-.444-2.282 1.283-2.87 3.465-1.178 7.509-1.66 11.499-1.368 3.989.291 7.698 1.34 10.544 2.98l5.135 2.965c1.418.819 1.418 2.146 0 2.964-1.418.819-3.716.819-5.134 0l-5.131-2.963c-1.708-.984-3.933-1.613-6.327-1.788-2.393-.175-4.82.114-6.898.821-1.727.588-3.953.256-4.971-.74Z" fill="#494E62"/></g><defs><clipPath id="a"><path fill="#fff" transform="matrix(.86603 -.5 .86603 .5 55.195 66.629)" d="M0 0h71.132v71.132H0z"/></clipPath></defs></svg>