<svg width="172" height="171" fill="none" xmlns="http://www.w3.org/2000/svg"><g clip-path="url(#a)"><path fill-rule="evenodd" clip-rule="evenodd" d="M65.76 47.436c-2.91 1.68-2.91 4.403 0 6.083 2.909 1.68 7.625 1.68 10.534 0 2.91-1.68 2.91-4.403 0-6.083-2.909-1.68-7.625-1.68-10.535 0Zm-3.512 8.11c-4.849-2.8-4.849-7.338 0-10.137 4.848-2.8 12.71-2.8 17.558 0 4.849 2.799 4.849 7.338 0 10.137-4.849 2.8-12.71 2.8-17.558 0Zm12.138-15.357c-.699-.681-.309-1.56.871-1.964 2.372-.812 5.144-1.144 7.88-.945 2.734.2 5.277.918 7.227 2.043 1.949 1.126 3.194 2.594 3.539 4.173.344 1.58-.231 3.18-1.636 4.55-.7.68-2.222.906-3.402.502-1.18-.404-1.57-1.283-.871-1.964.843-.822 1.188-1.782.981-2.73-.206-.947-.953-1.828-2.123-2.503-1.17-.675-2.695-1.107-4.336-1.226-1.642-.12-3.305.08-4.728.567-1.18.403-2.703.178-3.402-.503Zm-1.728 26.508c0-1.901 1.308-3.724 3.636-5.069l14.047-8.11c2.328-1.344 5.486-2.099 8.78-2.099 3.292 0 6.45.755 8.778 2.1l3.512 2.027c.97.56.97 1.468 0 2.027-.97.56-2.542.56-3.512 0l-3.511-2.027c-1.397-.807-3.292-1.26-5.268-1.26s-3.87.453-5.267 1.26l-14.047 8.11c-1.397.806-2.182 1.9-2.182 3.041 0 1.14.785 2.235 2.182 3.041l3.512 2.028c.97.56.97 1.467 0 2.027s-2.542.56-3.512 0l-3.512-2.027c-2.328-1.345-3.636-3.168-3.636-5.069Zm29.819-18.401c-.697-.682-.304-1.56.878-1.963 2.369-.807 5.136-1.136 7.865-.936 2.729.199 5.266.916 7.213 2.038l3.513 2.029c.97.56.97 1.467 0 2.027s-2.542.56-3.512 0l-3.51-2.027c-1.168-.673-2.69-1.103-4.328-1.223-1.637-.12-3.297.078-4.719.562-1.181.402-2.704.175-3.4-.507Z" fill="#fff"/></g><mask id="c" maskUnits="userSpaceOnUse" x="0" y="0" width="172" height="171" fill="#000"><path fill="#fff" d="M0 0h172v171H0z"/><path fill-rule="evenodd" clip-rule="evenodd" d="M171.399 80.009V57.556c0-6.536-3.5-12.57-9.172-15.817L95.252 3.407a18.225 18.225 0 0 0-18.105 0L10.172 41.74A18.225 18.225 0 0 0 1 57.556v55.917a18.226 18.226 0 0 0 9.177 15.821l66.975 38.301a18.223 18.223 0 0 0 18.095 0l66.975-38.301a18.226 18.226 0 0 0 9.177-15.821V80.009ZM25.857 49.38c-3.39 1.957-3.39 5.13 0 7.086L80.39 87.947c3.39 1.957 8.884 1.957 12.274 0l54.531-31.48c3.39-1.957 3.39-5.13 0-7.087L92.663 17.9c-3.39-1.957-8.885-1.957-12.274 0L25.857 49.38Z"/></mask><path fill-rule="evenodd" clip-rule="evenodd" d="M171.399 80.009V57.556c0-6.536-3.5-12.57-9.172-15.817L95.252 3.407a18.225 18.225 0 0 0-18.105 0L10.172 41.74A18.225 18.225 0 0 0 1 57.556v55.917a18.226 18.226 0 0 0 9.177 15.821l66.975 38.301a18.223 18.223 0 0 0 18.095 0l66.975-38.301a18.226 18.226 0 0 0 9.177-15.821V80.009ZM25.857 49.38c-3.39 1.957-3.39 5.13 0 7.086L80.39 87.947c3.39 1.957 8.884 1.957 12.274 0l54.531-31.48c3.39-1.957 3.39-5.13 0-7.087L92.663 17.9c-3.39-1.957-8.885-1.957-12.274 0L25.857 49.38Z" fill="url(#b)"/><path d="m162.227 41.739-.248.434.248-.434ZM95.252 3.407l.248-.434-.248.434Zm-18.105 0-.248-.434.248.434ZM10.172 41.74l-.248-.434.248.434Zm.005 87.555-.248.434.248-.434Zm66.975 38.301.248-.434-.248.434Zm18.095 0 .248.434-.248-.434Zm66.975-38.301.248.434-.248-.434ZM25.857 56.466l.25-.433-.25.433Zm0-7.086-.25-.433.25.433ZM80.39 87.947l.25-.433-.25.433Zm12.274 0 .25.433-.25-.433Zm54.531-31.48-.25-.434.25.433Zm0-7.087-.25.433.25-.433ZM92.663 17.9l.25-.434-.25.433Zm-12.274 0 .25.432-.25-.433Zm90.51 39.656v22.453h1V57.556h-1Zm-8.92-15.383a17.726 17.726 0 0 1 8.92 15.383h1a18.725 18.725 0 0 0-9.424-16.251l-.496.868ZM95.004 3.84l66.975 38.332.496-.868L95.5 2.973l-.496.868Zm-17.609 0a17.724 17.724 0 0 1 17.609 0l.496-.868a18.724 18.724 0 0 0-18.601 0l.496.868ZM10.42 42.173 77.395 3.84l-.496-.868L9.924 41.305l.496.868ZM1.5 57.556a17.724 17.724 0 0 1 8.92-15.383l-.496-.868A18.724 18.724 0 0 0 .5 57.555h1Zm0 22.453V57.556h-1v22.453h1Zm0 .486v-.486h-1v.486h1Zm0 32.978V80.495h-1v32.978h1Zm8.925 15.386A17.723 17.723 0 0 1 1.5 113.473h-1c0 6.717 3.598 12.92 9.429 16.255l.496-.869ZM77.4 167.161l-66.975-38.302-.496.869 66.975 38.301.496-.868Zm17.599 0a17.723 17.723 0 0 1-17.599 0l-.496.868a18.723 18.723 0 0 0 18.591 0l-.496-.868Zm66.975-38.302-66.975 38.302.496.868 66.975-38.301-.496-.869Zm8.925-15.386c0 6.359-3.406 12.23-8.925 15.386l.496.869a18.726 18.726 0 0 0 9.429-16.255h-1Zm0-32.978v32.978h1V80.495h-1Zm0-.486v.486h1v-.486h-1ZM26.107 56.033c-1.603-.926-2.292-2.069-2.292-3.11 0-1.04.689-2.184 2.292-3.11l-.5-.866c-1.785 1.031-2.792 2.453-2.792 3.976 0 1.524 1.006 2.945 2.792 3.976l.5-.866ZM80.64 87.514l-54.532-31.48-.5.865L80.14 88.38l.5-.866Zm11.774 0c-1.601.924-3.73 1.4-5.887 1.4-2.157 0-4.286-.476-5.887-1.4l-.5.866c1.788 1.033 4.101 1.535 6.387 1.535 2.285 0 4.598-.502 6.387-1.535l-.5-.866Zm54.531-31.48-54.531 31.48.5.866 54.531-31.48-.5-.867Zm0-6.22c1.604.925 2.292 2.069 2.292 3.11 0 1.04-.688 2.183-2.292 3.11l.5.865c1.786-1.03 2.792-2.452 2.792-3.976 0-1.523-1.006-2.945-2.792-3.976l-.5.866ZM92.413 18.331l54.531 31.481.5-.866-54.531-31.48-.5.865Zm-11.774 0c1.6-.924 3.73-1.4 5.887-1.4 2.156 0 4.286.476 5.887 1.4l.5-.866c-1.789-1.032-4.102-1.534-6.387-1.534-2.286 0-4.599.502-6.387 1.534l.5.866ZM26.107 49.813l54.532-31.48-.5-.867-54.532 31.481.5.866Z" fill="#fff" mask="url(#c)"/><path d="M1 80.01v33.464a18.223 18.223 0 0 0 9.177 15.82l66.975 38.302a18.223 18.223 0 0 0 18.095 0l66.975-38.302a18.224 18.224 0 0 0 9.177-15.82V80.01l-76.152 43.55a18.223 18.223 0 0 1-18.095 0L1 80.01Z" fill="#fff" fill-opacity=".1"/><defs><linearGradient id="b" x1="86.2" y1="1" x2="86.2" y2="170" gradientUnits="userSpaceOnUse"><stop stop-color="#fff"/><stop offset="0" stop-color="#fff" stop-opacity=".31"/><stop offset="1" stop-color="#fff" stop-opacity="0"/></linearGradient><clipPath id="a"><path fill="#fff" transform="matrix(.86603 -.5 .86603 .5 42.938 52.505)" d="M0 0h48.659v48.659H0z"/></clipPath></defs></svg>