<svg width="233" height="231" fill="none" xmlns="http://www.w3.org/2000/svg"><path d="M.617 107.746v45.635a24.852 24.852 0 0 0 12.515 21.574l91.334 52.233a24.855 24.855 0 0 0 24.675 0l91.334-52.233a24.853 24.853 0 0 0 12.515-21.574v-45.635l-103.849 59.389a24.85 24.85 0 0 1-24.675 0L.617 107.746Z" fill="#7BE7CE"/><path d="M.617 108.407a9.941 9.941 0 0 0 5.003 8.628l98.839 56.568a24.852 24.852 0 0 0 24.689 0l98.839-56.568a9.942 9.942 0 0 0 5.003-8.628V77.125a24.854 24.854 0 0 0-12.508-21.57L129.148 3.283a24.851 24.851 0 0 0-24.689 0L13.125 55.555A24.853 24.853 0 0 0 .617 77.125v31.282Z" fill="#B2F2E1"/><path d="m129.203 203.965-.015-3.212.398-.23 4.677-8.437 2.736-1.58-5.334 9.611-.36.208-2.102 3.64Zm-2.101 5.812v-18.075l2.285-1.319v18.074l-2.285 1.32Zm7.413-4.28-4.203-4.016 1.574-2.754 5.434 5.15-2.805 1.62ZM139.082 202.86v-13.556l2.285-1.32v13.556l-2.285 1.32Zm1.154-16.314c-.397.229-.739.273-1.024.132-.28-.15-.42-.44-.42-.869 0-.435.14-.887.42-1.355.285-.476.627-.829 1.024-1.059.398-.229.737-.269 1.017-.119.285.141.428.43.428.865 0 .429-.143.882-.428 1.359-.28.468-.619.816-1.017 1.046ZM149.922 183.045v2.119l-6.413 3.702v-2.118l6.413-3.703Zm-4.693-.538 2.285-1.319v12.823c0 .512.067.859.199 1.042a.524.524 0 0 0 .512.225c.214-.036.446-.125.696-.27a3.86 3.86 0 0 0 .481-.322c.138-.109.245-.194.321-.256l.413 1.942a7.108 7.108 0 0 1-.566.503c-.244.206-.55.418-.917.636-.601.358-1.161.558-1.681.6-.52.041-.94-.117-1.261-.473-.321-.355-.482-.942-.482-1.76v-13.371ZM135.813 138.084c-.082-.789-.418-1.242-1.009-1.359-.591-.124-1.335.073-2.232.591a7.082 7.082 0 0 0-1.666 1.315 6.09 6.09 0 0 0-1.093 1.584c-.255.547-.382 1.077-.382 1.589 0 .429.086.75.26.962.178.209.41.337.695.384.291.038.601.032.933-.018.331-.056.649-.128.955-.216l1.529-.424a9.274 9.274 0 0 1 1.536-.313 3.57 3.57 0 0 1 1.46.11c.448.135.81.415 1.085.839.28.42.42 1.037.42 1.849 0 1.023-.229 2.065-.687 3.124-.454 1.056-1.114 2.063-1.98 3.022-.861.957-1.903 1.788-3.126 2.494-1.172.676-2.186 1.047-3.042 1.112-.856.064-1.526-.158-2.01-.667-.484-.514-.752-1.301-.803-2.36l2.37-1.368c.045.626.229 1.065.55 1.315.326.241.741.322 1.246.242.509-.088 1.067-.307 1.674-.657a8.012 8.012 0 0 0 1.78-1.39 7.05 7.05 0 0 0 1.239-1.739c.3-.615.451-1.216.451-1.805 0-.535-.133-.897-.398-1.085-.26-.191-.614-.269-1.062-.234a7.98 7.98 0 0 0-1.506.278l-1.85.485c-1.253.33-2.247.324-2.98-.017-.729-.345-1.093-1.146-1.093-2.405 0-1.042.244-2.092.733-3.151a11.53 11.53 0 0 1 1.988-2.957 11.757 11.757 0 0 1 2.828-2.285c1.059-.612 1.994-.937 2.805-.976.815-.041 1.457.18 1.926.662.468.477.713 1.195.733 2.154l-2.277 1.315ZM146.003 145.801c-1.157.667-2.153.957-2.989.869-.83-.097-1.472-.536-1.926-1.315-.448-.789-.672-1.886-.672-3.292 0-1.389.224-2.742.672-4.06a12.598 12.598 0 0 1 1.896-3.574c.815-1.065 1.768-1.912 2.858-2.542.663-.382 1.305-.626 1.926-.732.622-.106 1.18-.031 1.674.225.495.256.884.734 1.17 1.434.285.694.428 1.656.428 2.886v.935l-9.333 5.388v-1.977l7.093-4.095c0-.694-.122-1.238-.367-1.632-.244-.401-.588-.629-1.031-.684-.439-.059-.953.082-1.544.423a5.582 5.582 0 0 0-1.682 1.518 7.654 7.654 0 0 0-1.1 2.048 6.304 6.304 0 0 0-.383 2.1v1.545c0 .906.138 1.597.413 2.074.28.473.67.734 1.17.781.499.041 1.082-.131 1.75-.517a5.99 5.99 0 0 0 1.185-.895c.356-.353.664-.749.924-1.187.26-.439.459-.909.597-1.412l2.163-.799a8.839 8.839 0 0 1-.933 2.471 10.526 10.526 0 0 1-3.959 4.016ZM162.373 125.83l-2.072 1.619a1.45 1.45 0 0 0-.412-.635c-.184-.171-.434-.253-.749-.248-.316.006-.711.146-1.185.42a5.26 5.26 0 0 0-1.62 1.438c-.434.58-.65 1.131-.65 1.655 0 .453.145.734.436.843.29.109.759.065 1.406-.133l1.865-.582c1.08-.335 1.885-.356 2.415-.062s.795.921.795 1.88c0 .812-.204 1.653-.612 2.524-.402.862-.965 1.681-1.689 2.458a10.627 10.627 0 0 1-2.499 1.981c-1.315.759-2.387 1.055-3.218.887-.83-.173-1.34-.806-1.528-1.897l2.208-1.664c.138.586.421.925.849 1.02.428.088.986-.067 1.674-.464.749-.432 1.347-.957 1.796-1.575.448-.624.672-1.197.672-1.721 0-.424-.137-.7-.412-.83-.27-.132-.686-.11-1.246.067l-1.987.644c-1.096.344-1.906.353-2.431.026-.52-.329-.779-.976-.779-1.941 0-.801.193-1.612.58-2.436a9.044 9.044 0 0 1 1.606-2.33 9.973 9.973 0 0 1 2.346-1.867c1.269-.732 2.267-.991 2.996-.776.729.208 1.21.775 1.445 1.699ZM173.912 119.167l-2.071 1.62a1.47 1.47 0 0 0-.413-.636c-.184-.17-.433-.253-.749-.247-.316.006-.711.146-1.185.419a5.275 5.275 0 0 0-1.62 1.439c-.433.58-.65 1.131-.65 1.655 0 .453.145.734.436.843.29.109.759.064 1.406-.133l1.865-.582c1.08-.336 1.885-.356 2.415-.062s.795.921.795 1.88c0 .812-.204 1.653-.611 2.524-.403.862-.966 1.681-1.689 2.458a10.653 10.653 0 0 1-2.5 1.981c-1.314.759-2.387 1.055-3.218.887-.83-.173-1.34-.806-1.528-1.897l2.209-1.664c.137.586.42.925.848 1.019.428.089.986-.066 1.674-.463.749-.432 1.348-.957 1.796-1.575.448-.624.673-1.198.673-1.721 0-.424-.138-.7-.413-.83-.27-.132-.685-.11-1.246.066l-1.987.645c-1.096.344-1.906.353-2.431.026-.519-.329-.779-.977-.779-1.942 0-.8.193-1.612.581-2.435a9.015 9.015 0 0 1 1.605-2.33 10.014 10.014 0 0 1 2.346-1.867c1.269-.732 2.268-.991 2.996-.777.729.209 1.21.776 1.445 1.699ZM176.654 127.831v-13.556l2.285-1.32v13.556l-2.285 1.32Zm1.154-16.314c-.398.229-.739.273-1.024.132-.281-.15-.421-.44-.421-.869 0-.436.14-.887.421-1.355.285-.477.626-.83 1.024-1.059.397-.229.736-.269 1.016-.119.286.141.428.429.428.865 0 .429-.142.882-.428 1.359-.28.468-.619.816-1.016 1.046ZM186.959 122.155c-1.101.635-2.061.899-2.882.79-.82-.109-1.457-.556-1.911-1.342-.453-.785-.68-1.878-.68-3.278 0-1.407.227-2.767.68-4.082a12.295 12.295 0 0 1 1.911-3.557 9.9 9.9 0 0 1 2.882-2.537c1.1-.636 2.061-.899 2.881-.79.82.109 1.457.559 1.911 1.35.453.791.68 1.89.68 3.296 0 1.401-.227 2.755-.68 4.065a12.318 12.318 0 0 1-1.911 3.547 9.9 9.9 0 0 1-2.881 2.538Zm.007-2.22a5.272 5.272 0 0 0 1.774-1.677 7.771 7.771 0 0 0 1.039-2.338c.229-.857.344-1.72.344-2.591 0-.865-.115-1.593-.344-2.184-.224-.6-.571-.986-1.039-1.156-.469-.171-1.06-.05-1.774.362a5.307 5.307 0 0 0-1.788 1.694 7.987 7.987 0 0 0-1.047 2.361 10.108 10.108 0 0 0-.337 2.577c0 .871.113 1.603.337 2.198.229.591.578.969 1.047 1.134.474.161 1.07.035 1.788-.38ZM197.267 107.881v8.048l-2.285 1.32v-13.556l2.194-1.267v2.207l.145-.084a8.025 8.025 0 0 1 1.269-2.462 7.235 7.235 0 0 1 2.193-1.92c.8-.462 1.501-.672 2.102-.63.601.034 1.068.336 1.399.904.331.567.497 1.41.497 2.528v8.623l-2.286 1.319v-8.305c0-.982-.221-1.622-.665-1.919-.443-.303-1.052-.231-1.826.216a5.14 5.14 0 0 0-1.414 1.214 5.954 5.954 0 0 0-1.323 3.764Z" fill="#494E62"/><path d="M21.49 76.4c-5.349-3.088-5.349-8.095 0-11.183l86.065-49.685c5.349-3.088 14.022-3.088 19.371 0l86.065 49.685c5.349 3.088 5.349 8.095 0 11.183l-86.065 49.685c-5.349 3.088-14.022 3.088-19.371 0L21.49 76.4Z" fill="#7BE7CE"/><g clip-path="url(#a)" fill-rule="evenodd" clip-rule="evenodd" fill="#494E62"><path d="M114.332 65.153c-1.418.819-1.418 2.146 0 2.965 1.418.818 3.716.818 5.134 0 1.418-.819 1.418-2.146 0-2.965-1.418-.818-3.716-.818-5.134 0Zm-5.134 5.928c-4.253-2.455-4.253-6.436 0-8.892 4.253-2.455 11.149-2.455 15.402 0 4.253 2.456 4.253 6.437 0 8.893-4.253 2.455-11.149 2.455-15.402 0ZM80.602 64.54c2.005 0 3.63.938 3.63 2.095.002 5.002 3.444 9.799 9.57 13.335 6.126 3.537 14.434 5.525 23.098 5.525 2.005 0 3.63.939 3.629 2.096 0 1.158-1.626 2.096-3.63 2.096-10.589 0-20.743-2.43-28.23-6.752-7.488-4.323-11.695-10.186-11.697-16.3 0-1.157 1.625-2.095 3.63-2.095Zm32.667-18.86c0-1.158 1.626-2.096 3.631-2.096 10.588 0 20.743 2.43 28.23 6.752 7.487 4.323 11.694 10.186 11.696 16.3 0 1.157-1.625 2.095-3.63 2.095s-3.63-.938-3.631-2.095c-.001-5.002-3.443-9.799-9.569-13.336-6.126-3.536-14.434-5.524-23.097-5.524-2.005 0-3.63-.94-3.63-2.097ZM95.108 64.524c2.005 0 3.63.94 3.628 2.097-.001 1.377.468 2.74 1.38 4.013.912 1.273 2.25 2.429 3.936 3.403 1.687.974 3.69 1.746 5.894 2.273 2.204.526 4.566.797 6.951.796 2.005 0 3.631.937 3.632 2.095.001 1.157-1.623 2.096-3.628 2.097-3.339 0-6.646-.378-9.732-1.115-3.086-.738-5.889-1.819-8.25-3.182-2.362-1.364-4.235-2.982-5.512-4.764-1.277-1.781-1.933-3.69-1.931-5.618 0-1.158 1.627-2.096 3.632-2.095Zm18.161-10.456c-.001-1.157 1.623-2.096 3.628-2.097 3.339-.001 6.647.378 9.732 1.115 3.086.738 5.889 1.819 8.251 3.182 2.361 1.364 4.234 2.982 5.511 4.764 1.277 1.781 1.933 3.69 1.932 5.618-.002 1.158-1.628 2.096-3.633 2.095-2.005 0-3.629-.94-3.628-2.097.001-1.377-.467-2.74-1.38-4.013-.912-1.273-2.249-2.429-3.936-3.403-1.687-.974-3.689-1.746-5.893-2.273a30.068 30.068 0 0 0-6.952-.796c-2.005 0-3.631-.937-3.632-2.095Z"/></g><defs><clipPath id="a"><path fill="#fff" transform="matrix(.86603 -.5 .86603 .5 55.29 66.635)" d="M0 0h71.137v71.137H0z"/></clipPath></defs></svg>