<svg width="113" height="98" fill="none" xmlns="http://www.w3.org/2000/svg"><path d="M28.914 25.582v10.835a5.9 5.9 0 0 0 2.971 5.122l21.686 12.402a5.9 5.9 0 0 0 5.858 0l21.686-12.402a5.9 5.9 0 0 0 2.971-5.122V25.582l-24.657 14.1a5.9 5.9 0 0 1-5.858 0l-24.657-14.1Z" fill="#7BE7CE"/><path d="M28.914 25.74a2.36 2.36 0 0 0 1.188 2.048l23.467 13.43a5.9 5.9 0 0 0 5.862 0l23.467-13.43a2.36 2.36 0 0 0 1.188-2.049v-7.427a5.9 5.9 0 0 0-2.97-5.122L59.432.78a5.9 5.9 0 0 0-5.862 0L31.884 13.19a5.9 5.9 0 0 0-2.97 5.122v7.427Z" fill="#B2F2E1"/><path d="m59.444 48.427-.003-.763.094-.054 1.11-2.003.65-.375-1.266 2.282-.086.049-.499.864Zm-.499 1.38v-4.291l.543-.314v4.292l-.543.313Zm1.76-1.016-.997-.954.373-.653 1.29 1.222-.665.385ZM61.79 48.165v-3.219l.543-.313v3.218l-.543.314Zm.274-3.874c-.095.055-.175.065-.243.032-.067-.036-.1-.105-.1-.207 0-.103.033-.21.1-.321a.69.69 0 0 1 .243-.252c.094-.054.175-.064.241-.028.068.033.102.102.102.205 0 .102-.034.21-.102.323a.682.682 0 0 1-.241.248ZM64.364 43.46v.503l-1.523.88v-.504l1.523-.879Zm-1.115-.128.543-.313v3.045c0 .121.016.204.047.247.032.042.072.06.122.053a.5.5 0 0 0 .165-.063.968.968 0 0 0 .114-.077 8.46 8.46 0 0 0 .076-.06l.098.46a1.697 1.697 0 0 1-.134.12c-.058.049-.13.099-.218.15a.932.932 0 0 1-.399.143.344.344 0 0 1-.3-.112c-.075-.084-.114-.224-.114-.418v-3.175ZM62.074 32.44l-.566.328a.63.63 0 0 0-.122-.299.43.43 0 0 0-.218-.145.582.582 0 0 0-.288 0 1.186 1.186 0 0 0-.336.137 1.956 1.956 0 0 0-.575.518c-.168.222-.302.48-.4.778a3.086 3.086 0 0 0-.145.964c0 .349.049.616.145.8.098.184.232.288.401.313.17.025.36-.023.572-.145.117-.068.229-.15.334-.248a2.117 2.117 0 0 0 .506-.724c.06-.14.103-.286.126-.436l.566-.325c-.03.228-.09.456-.176.684a3.363 3.363 0 0 1-.793 1.21c-.173.17-.362.314-.566.432-.322.186-.609.263-.86.232-.252-.032-.45-.17-.596-.417-.144-.246-.216-.598-.216-1.055a3.9 3.9 0 0 1 .218-1.305c.145-.414.343-.781.595-1.102.252-.323.538-.577.858-.762.198-.114.382-.187.552-.22a.875.875 0 0 1 .463.018c.137.045.25.132.34.26.089.128.15.297.18.51ZM63.875 34.361c-.261.151-.489.214-.684.188a.598.598 0 0 1-.454-.318c-.107-.187-.161-.446-.161-.779a2.95 2.95 0 0 1 .615-1.813 2.35 2.35 0 0 1 .684-.603c.262-.15.49-.213.684-.188a.597.597 0 0 1 .454.321c.108.188.162.449.162.783 0 .332-.054.654-.162.965a2.92 2.92 0 0 1-.454.842 2.35 2.35 0 0 1-.684.602Zm.002-.526c.17-.098.31-.231.421-.399.111-.167.194-.352.247-.555.054-.203.082-.408.082-.615 0-.205-.028-.378-.082-.518-.053-.143-.136-.235-.247-.275-.111-.04-.252-.012-.42.086-.171.098-.313.232-.425.402a1.898 1.898 0 0 0-.25.56 2.4 2.4 0 0 0-.079.613c0 .206.027.38.08.521.054.14.137.23.248.27.113.038.255.008.425-.09ZM66.323 30.972v1.911l-.543.314v-3.219l.521-.3v.523l.035-.02a1.91 1.91 0 0 1 .3-.584c.139-.183.312-.335.522-.456.19-.11.356-.16.499-.15.142.009.253.08.332.215.078.135.118.335.118.6v2.048l-.543.313v-1.972c0-.233-.052-.385-.158-.456-.105-.072-.25-.055-.433.052a1.226 1.226 0 0 0-.336.288 1.42 1.42 0 0 0-.314.893ZM70.136 27.464v.503l-1.523.879v-.503l1.523-.88Zm-1.115-.128.543-.313v3.044c0 .122.016.204.047.247.032.042.072.06.122.054a.499.499 0 0 0 .165-.064.96.96 0 0 0 .114-.076l.076-.061.098.46a1.7 1.7 0 0 1-.134.12c-.058.05-.13.1-.218.151a.936.936 0 0 1-.399.143.344.344 0 0 1-.3-.113c-.076-.084-.114-.223-.114-.418v-3.174ZM70.736 30.336v-3.219l.524-.303v.512l.03-.017c.05-.203.14-.39.268-.564a1.452 1.452 0 0 1 .559-.47c.047-.024.084-.041.11-.053v.6a.992.992 0 0 0-.116.044 1.273 1.273 0 0 0-.51.374c-.099.118-.177.25-.236.394a1.117 1.117 0 0 0-.087.423v1.965l-.542.314ZM73.483 28.82a1.088 1.088 0 0 1-.479.164.402.402 0 0 1-.34-.137c-.081-.098-.123-.252-.123-.463 0-.182.03-.349.091-.501.06-.152.142-.292.245-.42.103-.128.218-.246.345-.354.127-.109.257-.21.388-.304l.407-.29c.104-.075.18-.143.227-.204a.325.325 0 0 0 .07-.204v-.015c0-.183-.044-.299-.134-.348-.088-.049-.22-.023-.396.078a1.296 1.296 0 0 0-.431.39 1.556 1.556 0 0 0-.216.433l-.51.16c.06-.23.149-.44.265-.627a2.58 2.58 0 0 1 .886-.86c.11-.063.228-.116.353-.157a.733.733 0 0 1 .352-.04c.11.016.2.078.27.186.07.106.106.276.106.51v2.138l-.53.306v-.44l-.022.013a1.94 1.94 0 0 1-.428.681c-.11.115-.242.217-.396.306Zm.118-.57a1.507 1.507 0 0 0 .63-.735c.057-.144.085-.28.085-.407v-.415a.619.619 0 0 1-.112.128c-.055.05-.117.101-.187.156a34.442 34.442 0 0 1-.372.275 2.428 2.428 0 0 0-.289.244 1.156 1.156 0 0 0-.207.277.66.66 0 0 0-.076.312c0 .155.05.244.149.266.1.021.226-.013.38-.101ZM76.756 26.925c-.27.156-.502.22-.697.19a.602.602 0 0 1-.447-.33c-.104-.19-.156-.447-.156-.77 0-.326.054-.646.16-.957.106-.313.257-.596.45-.849.194-.253.422-.455.684-.606.212-.123.4-.186.566-.19.166-.007.3.041.401.145.103.102.164.256.184.462l-.528.305c-.03-.134-.096-.226-.2-.275-.103-.05-.24-.024-.414.076-.15.087-.283.21-.397.367-.113.156-.2.337-.263.542-.063.204-.095.42-.095.65 0 .234.031.419.093.554.062.135.149.216.261.245.114.028.248-.003.401-.091.103-.06.196-.135.28-.227a1.363 1.363 0 0 0 .334-.68l.528-.305a2.06 2.06 0 0 1-.176.659c-.098.22-.23.424-.394.613a2.24 2.24 0 0 1-.575.472ZM79.782 21.894v.503l-1.522.88v-.504l1.522-.879Zm-1.114-.128.542-.313v3.045c0 .121.016.204.048.247.031.042.072.06.121.053a.496.496 0 0 0 .165-.063.95.95 0 0 0 .115-.077l.076-.06.098.46a1.72 1.72 0 0 1-.352.27.935.935 0 0 1-.4.143.344.344 0 0 1-.299-.112c-.076-.085-.114-.224-.114-.418v-3.175Z" fill="#494E62"/><path d="M33.87 17.55c-1.27-.733-1.27-1.922 0-2.655L54.304 3.098c1.27-.733 3.33-.733 4.6 0l20.434 11.797c1.27.733 1.27 1.922 0 2.655L58.904 29.347c-1.27.733-3.33.733-4.6 0L33.87 17.55Z" fill="#7BE7CE"/><g clip-path="url(#a)"><path fill-rule="evenodd" clip-rule="evenodd" d="M45.407 15.117c0-.396.272-.776.757-1.055l4.876-2.815c.162-.094.38-.146.61-.146h7.313c.229 0 .448.052.61.146l7.313 4.222c.485.28.758.66.758 1.056s-.273.775-.758 1.055l-7.313 4.223c-.485.28-1.143.437-1.829.437-.686 0-1.343-.157-1.828-.437l-9.752-5.63c-.485-.28-.757-.66-.757-1.056Zm1.976-.352c-.161.094-.252.22-.252.352 0 .132.09.259.252.352l9.752 5.63c.161.093.38.146.61.146.228 0 .447-.053.609-.146l7.313-4.222c.162-.094.253-.22.253-.352 0-.132-.091-.259-.253-.352l-6.704-3.87-3.047 1.759c-.337.194-.883.194-1.22 0l-3.046-1.76-4.267 2.463Zm6.347-2.669h3.152l-1.576.91-1.576-.91Zm-2.08 4.429c-.337-.195-.337-.51 0-.704l1.218-.704c.337-.194.883-.194 1.22 0 .336.194.336.51 0 .704l-1.22.704c-.336.194-.882.194-1.218 0Zm2.437 1.407c-.336-.194-.336-.51 0-.704l4.876-2.815c.337-.194.883-.194 1.22 0 .336.195.336.51 0 .704l-4.877 2.815c-.336.195-.882.195-1.219 0Zm2.438 1.408c-.336-.195-.336-.51 0-.704l4.876-2.815c.337-.194.882-.194 1.219 0 .337.194.337.51 0 .704l-4.876 2.815c-.336.194-.882.194-1.219 0Z" fill="#494E62"/></g><path d="M0 68.068v10.836a5.9 5.9 0 0 0 2.971 5.122l21.686 12.401a5.9 5.9 0 0 0 5.858 0l21.686-12.401a5.9 5.9 0 0 0 2.971-5.122V68.068L30.516 82.17a5.9 5.9 0 0 1-5.86 0L0 68.07Z" fill="#7BE7CE"/><path d="M0 68.225a2.36 2.36 0 0 0 1.188 2.049l23.467 13.43a5.9 5.9 0 0 0 5.862 0l23.467-13.43a2.36 2.36 0 0 0 1.188-2.049v-7.427a5.901 5.901 0 0 0-2.97-5.121L30.518 43.266a5.9 5.9 0 0 0-5.862 0L2.97 55.676A5.9 5.9 0 0 0 0 60.799v7.427Z" fill="#B2F2E1"/><path d="m30.53 90.913-.003-.762.094-.055 1.11-2.003.65-.375L31.115 90l-.086.05-.499.864Zm-.499 1.38v-4.291l.543-.313v4.291l-.543.313Zm1.76-1.016-.998-.953.374-.654 1.29 1.223-.666.384ZM32.876 90.651v-3.218l.542-.314v3.219l-.542.313Zm.274-3.873c-.094.054-.176.065-.243.031-.067-.036-.1-.104-.1-.206 0-.104.033-.21.1-.322a.69.69 0 0 1 .243-.251c.094-.055.175-.064.241-.029.068.034.102.102.102.206 0 .102-.034.21-.102.322a.682.682 0 0 1-.241.249ZM35.45 85.947v.502l-1.523.88v-.503l1.523-.88Zm-1.115-.128.543-.314v3.045c0 .122.016.204.047.247.032.042.072.06.122.054a.499.499 0 0 0 .165-.064.936.936 0 0 0 .114-.077l.076-.06.098.46a1.701 1.701 0 0 1-.134.12c-.058.049-.13.1-.218.151a.936.936 0 0 1-.399.142.345.345 0 0 1-.3-.112c-.076-.084-.114-.224-.114-.418V85.82ZM30.392 79.424l-.595.344 1.337-5.064.648-.374 1.338 3.52-.596.343-1.05-2.905-.03.017-1.052 4.12Zm.1-1.738 1.93-1.115v.545l-1.93 1.115v-.545ZM34.742 76.978c-.27.156-.502.22-.697.19a.601.601 0 0 1-.446-.33c-.104-.19-.156-.447-.156-.77 0-.326.053-.646.16-.957.106-.313.256-.596.45-.849.193-.253.421-.455.684-.606.211-.123.4-.186.566-.191.165-.006.3.042.4.146.104.102.165.256.184.462l-.528.305c-.03-.135-.096-.226-.2-.275-.102-.05-.24-.024-.413.075-.152.088-.284.21-.398.368-.112.156-.2.336-.263.542-.063.204-.094.42-.094.65 0 .234.03.419.092.554.062.135.149.216.261.245.114.028.248-.003.402-.091a1.17 1.17 0 0 0 .28-.227 1.367 1.367 0 0 0 .333-.68l.528-.305c-.02.219-.078.439-.176.659-.098.22-.23.424-.394.612a2.24 2.24 0 0 1-.575.473ZM37.641 75.304c-.27.156-.502.22-.696.19a.602.602 0 0 1-.447-.33c-.104-.19-.156-.447-.156-.77 0-.326.053-.646.16-.957.106-.313.256-.596.45-.849.193-.253.421-.455.684-.606.212-.123.4-.186.566-.191.166-.006.3.042.401.146.103.102.164.256.183.462l-.528.305c-.029-.135-.095-.226-.2-.275-.102-.05-.24-.024-.413.075-.151.088-.284.21-.397.368-.113.156-.2.337-.264.542-.062.204-.094.42-.094.65 0 .234.031.419.093.554.061.135.149.216.261.245.114.028.247-.003.401-.091.103-.06.196-.135.28-.227a1.36 1.36 0 0 0 .333-.68l.528-.305a2.06 2.06 0 0 1-.175.659 2.44 2.44 0 0 1-.394.612 2.243 2.243 0 0 1-.576.473ZM40.54 73.63c-.26.15-.489.213-.683.188a.598.598 0 0 1-.454-.319c-.108-.186-.161-.446-.161-.778a2.954 2.954 0 0 1 .615-1.814c.194-.25.422-.452.684-.602.261-.151.49-.214.684-.188a.597.597 0 0 1 .454.32c.107.188.161.45.161.783s-.054.654-.161.965a2.92 2.92 0 0 1-.454.843c-.195.25-.423.451-.684.602Zm.003-.527c.169-.098.31-.23.42-.398.112-.168.194-.353.248-.555.054-.204.081-.409.081-.616 0-.205-.027-.378-.081-.518-.054-.143-.136-.234-.247-.275-.112-.04-.252-.011-.421.086-.17.099-.313.233-.425.403-.111.169-.194.355-.249.56a2.4 2.4 0 0 0-.08.612c0 .207.027.38.08.522.055.14.138.23.249.27.112.037.254.007.425-.091ZM44.212 70.11v-1.883l.544-.314v3.218l-.534.308v-.557l-.029.017a2.083 2.083 0 0 1-.308.608c-.14.194-.315.351-.524.472-.18.103-.338.15-.476.138a.41.41 0 0 1-.323-.222c-.077-.135-.116-.336-.116-.601v-2.047l.542-.314v1.972c0 .22.053.364.158.433.106.069.242.055.41-.042.102-.059.203-.146.303-.263.102-.117.186-.255.253-.412a1.26 1.26 0 0 0 .1-.51ZM46.028 68.486v1.911l-.543.313v-3.218l.52-.3v.523l.035-.02c.065-.207.165-.402.302-.584a1.72 1.72 0 0 1 .52-.456c.19-.11.357-.16.5-.15.142.008.253.08.331.215.08.135.119.335.119.6v2.047l-.543.314v-1.972c0-.234-.053-.386-.158-.456-.105-.072-.25-.055-.434.051a1.228 1.228 0 0 0-.335.288 1.42 1.42 0 0 0-.314.894ZM49.84 64.977v.503l-1.522.88v-.504l1.522-.879Zm-1.114-.127.543-.314v3.045c0 .121.015.204.047.247.031.042.072.06.121.054a.499.499 0 0 0 .166-.064.929.929 0 0 0 .114-.077l.076-.06.098.46a1.715 1.715 0 0 1-.352.27.935.935 0 0 1-.4.143.345.345 0 0 1-.299-.112c-.076-.084-.114-.224-.114-.418V64.85Z" fill="#494E62"/><path d="M4.956 60.626c-1.27-.733-1.27-1.922 0-2.655L25.39 46.175c1.27-.734 3.33-.734 4.6 0L50.424 57.97c1.27.733 1.27 1.922 0 2.655L29.99 72.423c-1.27.733-3.33.733-4.6 0L4.956 60.626Z" fill="#7BE7CE"/><g clip-path="url(#b)"><path fill-rule="evenodd" clip-rule="evenodd" d="M20.907 56.547c-1.01.583-1.01 1.528 0 2.11 1.01.584 2.647.584 3.657 0 1.01-.582 1.01-1.527 0-2.11s-2.647-.583-3.657 0Zm-1.219 2.815c-1.683-.972-1.683-2.547 0-3.52 1.683-.97 4.412-.97 6.095 0 1.683.973 1.683 2.548 0 3.52-1.683.971-4.412.971-6.095 0Zm4.214-5.331c-.243-.236-.108-.542.302-.682.823-.281 1.786-.397 2.735-.328.95.07 1.832.319 2.509.71.676.39 1.108.9 1.228 1.448.12.548-.08 1.104-.568 1.579-.242.236-.771.315-1.18.175-.41-.14-.546-.446-.303-.682.293-.285.413-.619.34-.948-.071-.328-.33-.634-.736-.869-.406-.234-.936-.384-1.505-.425a4.22 4.22 0 0 0-1.642.197c-.409.14-.938.061-1.18-.175Zm-.6 9.201c0-.66.454-1.292 1.262-1.76l4.876-2.814c.808-.467 1.904-.729 3.047-.729 1.143 0 2.24.262 3.047.729l1.22.704c.336.194.336.51 0 .703-.337.195-.883.195-1.22 0l-1.218-.703c-.485-.28-1.143-.438-1.829-.438-.686 0-1.343.158-1.828.438l-4.876 2.815c-.485.28-.757.66-.757 1.055 0 .396.272.776.757 1.056l1.219.704c.337.194.337.51 0 .703-.337.195-.882.195-1.219 0l-1.219-.703c-.808-.467-1.262-1.1-1.262-1.76Zm10.35-6.387c-.242-.237-.105-.542.305-.681.823-.28 1.783-.395 2.73-.325.948.069 1.828.318 2.504.707l1.22.704c.336.195.336.51 0 .704-.337.194-.883.194-1.22 0l-1.218-.703c-.406-.234-.934-.383-1.502-.425a4.221 4.221 0 0 0-1.638.195c-.41.14-.939.06-1.18-.176Z" fill="#494E62"/></g><path d="M57.828 68.068v10.836a5.9 5.9 0 0 0 2.971 5.122l21.686 12.401a5.9 5.9 0 0 0 5.859 0l21.685-12.401A5.902 5.902 0 0 0 113 78.904V68.068L88.344 82.17a5.9 5.9 0 0 1-5.86 0l-24.656-14.1Z" fill="#7BE7CE"/><path d="M57.828 68.225a2.36 2.36 0 0 0 1.188 2.049l23.467 13.43a5.9 5.9 0 0 0 5.862 0l23.467-13.43A2.36 2.36 0 0 0 113 68.225v-7.427a5.902 5.902 0 0 0-2.969-5.121L88.345 43.266a5.9 5.9 0 0 0-5.862 0l-21.685 12.41a5.901 5.901 0 0 0-2.97 5.122v7.427Z" fill="#B2F2E1"/><path d="m88.358 90.913-.003-.762.094-.055 1.11-2.003.65-.375L88.943 90l-.085.05-.5.864Zm-.499 1.38v-4.291l.543-.313v4.291l-.543.313Zm1.76-1.016-.997-.953.373-.654 1.29 1.223-.665.384ZM90.704 90.651v-3.218l.543-.314v3.219l-.543.313Zm.274-3.873c-.094.054-.175.065-.243.031-.067-.036-.1-.104-.1-.206 0-.104.033-.21.1-.322a.69.69 0 0 1 .243-.251c.094-.055.175-.064.241-.029.068.034.102.102.102.206a.63.63 0 0 1-.102.322.682.682 0 0 1-.241.249ZM93.278 85.947v.502l-1.523.88v-.503l1.523-.88Zm-1.115-.128.543-.314v3.045c0 .122.016.204.047.247.032.042.072.06.122.054a.499.499 0 0 0 .165-.064.929.929 0 0 0 .114-.077l.077-.06.098.46a1.739 1.739 0 0 1-.353.271.935.935 0 0 1-.399.142.345.345 0 0 1-.3-.112c-.076-.084-.114-.224-.114-.418V85.82ZM89.932 75.27c-.02-.187-.1-.294-.24-.322-.14-.03-.317.017-.53.14a1.677 1.677 0 0 0-.395.313 1.447 1.447 0 0 0-.26.376.891.891 0 0 0-.09.377c0 .102.02.178.061.228.043.05.098.08.165.091a.796.796 0 0 0 .222-.004c.078-.013.154-.03.227-.051l.363-.1c.118-.036.24-.06.364-.075a.847.847 0 0 1 .347.026.46.46 0 0 1 .258.2c.066.099.1.245.1.438 0 .243-.055.49-.164.742-.108.25-.264.49-.47.718a3.026 3.026 0 0 1-.742.592c-.278.16-.52.248-.722.264-.204.015-.363-.038-.478-.159-.115-.122-.178-.309-.19-.56l.562-.325c.011.149.055.253.131.312a.38.38 0 0 0 .296.058c.12-.021.253-.073.397-.156.159-.092.3-.202.423-.33.125-.13.223-.269.294-.413a.972.972 0 0 0 .107-.429c0-.127-.031-.213-.094-.257a.367.367 0 0 0-.252-.056 1.89 1.89 0 0 0-.358.066l-.44.115c-.297.079-.533.077-.707-.004-.173-.081-.26-.272-.26-.57 0-.248.059-.497.175-.749.116-.251.273-.485.472-.702.198-.218.422-.399.671-.543.252-.145.474-.222.666-.231.194-.01.346.042.457.157.112.113.17.284.175.511l-.541.313ZM92.351 77.103c-.274.158-.51.227-.71.206a.59.59 0 0 1-.457-.312c-.106-.187-.16-.448-.16-.782 0-.33.054-.65.16-.964.108-.313.258-.596.45-.848a2.3 2.3 0 0 1 .68-.604c.157-.09.309-.149.457-.174a.616.616 0 0 1 .397.054c.117.06.21.174.278.34.067.165.101.394.101.685v.223l-2.216 1.279v-.47l1.684-.972a.734.734 0 0 0-.087-.387.324.324 0 0 0-.245-.163c-.104-.014-.226.02-.366.1a1.322 1.322 0 0 0-.4.361c-.112.15-.199.312-.26.486-.061.172-.091.338-.091.5v.366c0 .215.032.379.097.492a.35.35 0 0 0 .278.186c.119.01.257-.031.416-.123a1.399 1.399 0 0 0 .642-.83l.514-.19a2.085 2.085 0 0 1-.222.587 2.502 2.502 0 0 1-.94.954ZM96.238 72.361l-.492.385a.347.347 0 0 0-.098-.151.244.244 0 0 0-.178-.059.624.624 0 0 0-.281.1 1.252 1.252 0 0 0-.385.341.666.666 0 0 0-.154.393c0 .108.035.174.103.2.07.026.18.016.334-.031l.443-.139c.257-.08.448-.084.574-.014.126.07.188.218.188.446 0 .193-.048.393-.145.6-.095.204-.229.398-.4.583-.171.184-.37.34-.594.47-.312.18-.567.25-.764.21-.197-.04-.318-.19-.363-.45l.524-.395c.033.14.1.22.202.243.101.02.234-.016.397-.11a1.35 1.35 0 0 0 .427-.375c.106-.148.16-.284.16-.408 0-.1-.033-.166-.099-.197-.064-.032-.162-.026-.296.016l-.471.152c-.26.082-.453.084-.577.007-.124-.078-.186-.232-.186-.461 0-.19.046-.383.138-.579a2.374 2.374 0 0 1 .938-.996c.302-.174.539-.235.712-.184.173.05.287.184.343.403ZM98.978 70.78l-.492.384a.346.346 0 0 0-.098-.151.244.244 0 0 0-.178-.059.623.623 0 0 0-.281.1 1.251 1.251 0 0 0-.385.341.666.666 0 0 0-.154.393c0 .108.034.175.103.2.07.026.18.016.334-.031l.443-.138c.256-.08.448-.085.573-.015.126.07.19.218.19.446 0 .193-.05.393-.146.6-.096.204-.23.399-.401.583-.17.184-.368.34-.594.47-.312.18-.566.251-.763.211-.198-.041-.319-.191-.363-.45l.524-.395c.033.139.1.22.201.242.102.02.235-.016.398-.11a1.35 1.35 0 0 0 .426-.374c.107-.148.16-.285.16-.409 0-.1-.033-.166-.098-.197-.064-.031-.163-.026-.296.016l-.472.153c-.26.081-.452.084-.577.006-.123-.078-.185-.232-.185-.461 0-.19.046-.383.138-.578a2.376 2.376 0 0 1 .938-.996c.302-.175.539-.236.712-.185.173.05.287.184.343.403ZM99.629 72.836v-3.218l.542-.314v3.219l-.542.313Zm.274-3.873c-.095.054-.176.065-.243.031-.067-.035-.1-.104-.1-.206 0-.104.033-.21.1-.322a.69.69 0 0 1 .243-.251c.094-.055.175-.064.241-.029.068.034.102.102.102.206a.63.63 0 0 1-.102.322.679.679 0 0 1-.241.249ZM102.075 71.489c-.261.15-.489.213-.684.187a.595.595 0 0 1-.453-.318c-.108-.187-.162-.446-.162-.779 0-.334.054-.657.162-.969.107-.312.258-.594.453-.844.195-.251.423-.452.684-.603.262-.15.49-.213.685-.188a.596.596 0 0 1 .453.321c.108.188.162.449.162.783 0 .332-.054.654-.162.965a2.92 2.92 0 0 1-.453.842c-.195.25-.423.452-.685.603Zm.002-.528c.17-.097.31-.23.421-.398a1.82 1.82 0 0 0 .247-.555c.054-.203.082-.408.082-.615a1.45 1.45 0 0 0-.082-.519c-.053-.142-.135-.233-.247-.274-.111-.04-.251-.012-.421.086a1.26 1.26 0 0 0-.424.402 1.871 1.871 0 0 0-.249.56 2.41 2.41 0 0 0-.08.613c0 .206.027.38.08.521.054.14.137.23.249.27.112.038.254.008.424-.09ZM104.523 68.1v1.91l-.543.314v-3.219l.521-.3v.523l.035-.02a1.9 1.9 0 0 1 .301-.584c.138-.183.311-.335.521-.456.19-.11.356-.16.499-.15.143.009.253.08.332.215.079.135.118.335.118.6v2.048l-.543.313v-1.972c0-.233-.052-.385-.158-.456-.105-.072-.249-.055-.433.052a1.225 1.225 0 0 0-.336.288 1.419 1.419 0 0 0-.314.893Z" fill="#494E62"/><path d="M62.784 60.626c-1.27-.733-1.27-1.922 0-2.655l20.434-11.796c1.27-.734 3.33-.734 4.6 0l20.434 11.796c1.27.733 1.27 1.922 0 2.655L87.818 72.423c-1.27.733-3.33.733-4.6 0L62.784 60.626Z" fill="#7BE7CE"/><g clip-path="url(#c)" fill-rule="evenodd" clip-rule="evenodd" fill="#494E62"><path d="M84.832 57.954c-.336.194-.336.51 0 .704.337.194.882.194 1.219 0 .337-.195.337-.51 0-.704-.337-.194-.882-.194-1.219 0Zm-1.219 1.407c-1.01-.583-1.01-1.528 0-2.11 1.01-.584 2.647-.584 3.657 0 1.01.582 1.01 1.527 0 2.11s-2.647.583-3.657 0ZM76.824 57.808c.476 0 .862.223.862.498 0 1.187.817 2.326 2.272 3.166 1.454.84 3.427 1.311 5.484 1.312.476 0 .862.223.862.497 0 .275-.387.498-.863.498-2.514 0-4.925-.577-6.702-1.603-1.778-1.027-2.777-2.419-2.777-3.87 0-.275.385-.498.862-.498Zm7.756-4.478c0-.275.386-.497.862-.497 2.514 0 4.925.577 6.702 1.603 1.778 1.026 2.777 2.418 2.777 3.87 0 .274-.385.497-.862.497-.475 0-.861-.222-.861-.497 0-1.188-.818-2.327-2.273-3.166-1.454-.84-3.427-1.312-5.484-1.312-.476 0-.861-.223-.861-.498Zm-4.312 4.474c.476 0 .861.224.861.498 0 .327.111.651.328.953.216.302.534.577.934.808.4.231.876.415 1.4.54.523.125 1.084.19 1.65.189.476 0 .862.222.862.497s-.385.498-.861.498c-.793 0-1.578-.09-2.31-.265a7.352 7.352 0 0 1-1.96-.755c-.56-.324-1.005-.708-1.308-1.131-.303-.423-.46-.876-.459-1.334 0-.275.387-.498.863-.498Zm4.312-2.482c0-.275.385-.498.861-.498.793 0 1.578.09 2.31.265a7.355 7.355 0 0 1 1.96.755c.56.324 1.005.708 1.308 1.131.303.423.46.877.459 1.334 0 .275-.386.498-.863.498-.476 0-.861-.223-.861-.498 0-.327-.111-.65-.328-.953-.216-.302-.534-.577-.934-.808a5.256 5.256 0 0 0-1.4-.54 7.138 7.138 0 0 0-1.65-.189c-.476 0-.862-.222-.862-.497Z"/></g><defs><clipPath id="a"><path fill="#fff" transform="matrix(.86603 -.5 .86603 .5 41.898 15.82)" d="M0 0h16.89v16.89H0z"/></clipPath><clipPath id="b"><path fill="#fff" transform="matrix(.86603 -.5 .86603 .5 12.984 58.307)" d="M0 0h16.89v16.89H0z"/></clipPath><clipPath id="c"><path fill="#fff" transform="matrix(.86603 -.5 .86603 .5 70.813 58.307)" d="M0 0h16.89v16.89H0z"/></clipPath></defs></svg>